<svg width="344" height="160" viewBox="0 0 344 160" fill="none" xmlns="http://www.w3.org/2000/svg">
<g filter="url(#filter0_d_238_960)">
<rect x="32" y="8" width="128" height="128" rx="24" fill="white" shape-rendering="crispEdges"/>
<g clip-path="url(#clip0_238_960)">
<path d="M55.2446 64.919C55.0576 64.919 55.0109 64.8255 55.1044 64.6853L56.0859 63.4234C56.1793 63.2832 56.413 63.1897 56.6 63.1897H73.2855C73.4724 63.1897 73.5192 63.3299 73.4257 63.4701L72.6311 64.6853C72.5377 64.8255 72.304 64.9657 72.1638 64.9657L55.2446 64.919Z" fill="#00ACD7"/>
<path d="M48.187 69.2191C48 69.2191 47.9533 69.1256 48.0467 68.9854L49.0282 67.7234C49.1217 67.5832 49.3554 67.4897 49.5424 67.4897H70.8549C71.0419 67.4897 71.1353 67.63 71.0886 67.7702L70.7147 68.8919C70.668 69.0788 70.481 69.1723 70.2941 69.1723L48.187 69.2191Z" fill="#00ACD7"/>
<path d="M59.4975 73.5189C59.3105 73.5189 59.2638 73.3786 59.3573 73.2384L60.0116 72.07C60.1051 71.9298 60.292 71.7896 60.479 71.7896H69.8266C70.0136 71.7896 70.107 71.9298 70.107 72.1167L70.0136 73.2384C70.0136 73.4254 69.8266 73.5656 69.6864 73.5656L59.4975 73.5189Z" fill="#00ACD7"/>
<path d="M108.012 64.0778C105.067 64.8256 103.058 65.3865 100.16 66.1343C99.4589 66.3212 99.4121 66.368 98.8045 65.6669C98.1035 64.8724 97.5894 64.3582 96.6079 63.8909C93.6634 62.442 90.8123 62.8626 88.1483 64.5919C84.9701 66.6484 83.3342 69.6864 83.381 73.4722C83.4277 77.2112 85.9983 80.2959 89.6906 80.81C92.8688 81.2307 95.5329 80.109 97.6361 77.7253C98.0567 77.2112 98.4306 76.6503 98.898 75.996C97.2155 75.996 95.1122 75.996 89.8776 75.996C88.8961 75.996 88.6624 75.3884 88.9896 74.5939C89.5971 73.145 90.7189 70.7146 91.3732 69.4994C91.5134 69.219 91.8406 68.7516 92.5416 68.7516C94.9253 68.7516 103.712 68.7516 109.554 68.7516C109.461 70.0135 109.461 71.2755 109.274 72.5374C108.76 75.9025 107.498 78.9872 105.441 81.6981C102.076 86.1382 97.6828 88.8957 92.121 89.6435C87.5407 90.2511 83.2875 89.3631 79.5485 86.5588C76.0898 83.9415 74.1268 80.4829 73.6127 76.183C73.0051 71.0885 74.5008 66.5082 77.5855 62.4887C80.9039 58.1421 85.2972 55.3845 90.6721 54.403C95.0655 53.6085 99.2719 54.1226 103.058 56.6932C105.535 58.329 107.311 60.5725 108.479 63.2833C108.76 63.7039 108.573 63.9376 108.012 64.0778Z" fill="#00ACD7"/>
<path d="M123.482 89.924C119.229 89.8306 115.35 88.6154 112.078 85.8111C109.32 83.4274 107.591 80.3895 107.03 76.7906C106.189 71.5092 107.638 66.8354 110.816 62.6757C114.228 58.1889 118.341 55.852 123.903 54.8705C128.67 54.0292 133.157 54.4966 137.223 57.2541C140.915 59.778 143.206 63.1899 143.813 67.6767C144.608 73.9864 142.785 79.1275 138.438 83.5209C135.354 86.6524 131.568 88.6154 127.221 89.5034C125.959 89.7371 124.697 89.7838 123.482 89.924ZM134.606 71.0419C134.559 70.4343 134.559 69.9669 134.466 69.4995C133.624 64.8724 129.371 62.2551 124.931 63.2833C120.584 64.2648 117.78 67.0224 116.752 71.4158C115.911 75.0613 117.687 78.7536 121.052 80.2493C123.622 81.371 126.193 81.2308 128.67 79.9688C132.362 78.0526 134.372 75.0613 134.606 71.0419Z" fill="#00ACD7"/>
</g>
</g>
<g filter="url(#filter1_d_238_960)">
<rect x="184" y="8" width="128" height="128" rx="24" fill="white" shape-rendering="crispEdges"/>
<g clip-path="url(#clip1_238_960)">
<path d="M284.25 32H211.75C209.679 32 208 33.6789 208 35.75V108.25C208 110.321 209.679 112 211.75 112H284.25C286.321 112 288 110.321 288 108.25V35.75C288 33.6789 286.321 32 284.25 32Z" fill="#3178C6"/>
<path fill-rule="evenodd" clip-rule="evenodd" d="M254.414 94.1675V102.934C255.834 103.664 257.514 104.212 259.453 104.577C261.392 104.943 263.436 105.125 265.584 105.125C267.678 105.125 269.668 104.924 271.552 104.523C273.437 104.121 275.089 103.459 276.509 102.536C277.929 101.614 279.054 100.409 279.882 98.92C280.711 97.4319 281.125 95.5919 281.125 93.4004C281.125 91.8116 280.888 90.4191 280.415 89.2229C279.941 88.0267 279.259 86.9629 278.366 86.0315C277.474 85.1001 276.404 84.2646 275.158 83.525C273.91 82.7854 272.504 82.0868 270.938 81.4294C269.79 80.9546 268.762 80.4934 267.851 80.046C266.941 79.5986 266.167 79.142 265.53 78.6763C264.893 78.2106 264.401 77.7175 264.055 77.197C263.709 76.6766 263.536 76.0876 263.536 75.4301C263.536 74.8274 263.691 74.2841 264 73.8002C264.31 73.3163 264.747 72.9008 265.311 72.5538C265.876 72.2068 266.568 71.9374 267.387 71.7457C268.206 71.5539 269.117 71.458 270.118 71.458C270.847 71.458 271.616 71.5128 272.426 71.6224C273.236 71.7319 274.051 71.9009 274.871 72.1292C275.69 72.3574 276.486 72.6451 277.261 72.9921C278.034 73.3391 278.749 73.7408 279.404 74.1974V66.0067C278.075 65.4953 276.623 65.1164 275.048 64.8698C273.473 64.6233 271.666 64.5 269.627 64.5C267.551 64.5 265.584 64.7237 263.727 65.1711C261.87 65.6186 260.236 66.3171 258.825 67.2667C257.414 68.2164 256.298 69.4263 255.479 70.8964C254.66 72.3666 254.25 74.1243 254.25 76.1698C254.25 78.7813 255.001 81.0093 256.503 82.8538C258.005 84.6984 260.286 86.2598 263.345 87.5382C264.547 88.0312 265.666 88.5152 266.704 88.9901C267.742 89.4649 268.639 89.9579 269.395 90.4693C270.15 90.9807 270.746 91.5377 271.183 92.1403C271.621 92.743 271.839 93.4278 271.839 94.1949C271.839 94.7613 271.702 95.2862 271.429 95.77C271.156 96.2537 270.742 96.6737 270.187 97.03C269.631 97.3862 268.939 97.665 268.111 97.8656C267.282 98.0662 266.313 98.1669 265.202 98.1669C263.308 98.1669 261.433 97.8337 259.576 97.1669C257.719 96.5006 255.998 95.5006 254.414 94.1675ZM239.689 72.3465H251.125V65.125H219.25V72.3465H230.63V104.5H239.689V72.3465Z" fill="white"/>
</g>
</g>
<defs>
<filter id="filter0_d_238_960" x="16" y="0" width="160" height="160" filterUnits="userSpaceOnUse" color-interpolation-filters="sRGB">
<feFlood flood-opacity="0" result="BackgroundImageFix"/>
<feColorMatrix in="SourceAlpha" type="matrix" values="0 0 0 0 0 0 0 0 0 0 0 0 0 0 0 0 0 0 127 0" result="hardAlpha"/>
<feOffset dy="8"/>
<feGaussianBlur stdDeviation="8"/>
<feComposite in2="hardAlpha" operator="out"/>
<feColorMatrix type="matrix" values="0 0 0 0 0 0 0 0 0 0 0 0 0 0 0 0 0 0 0.08 0"/>
<feBlend mode="normal" in2="BackgroundImageFix" result="effect1_dropShadow_238_960"/>
<feBlend mode="normal" in="SourceGraphic" in2="effect1_dropShadow_238_960" result="shape"/>
</filter>
<filter id="filter1_d_238_960" x="168" y="0" width="160" height="160" filterUnits="userSpaceOnUse" color-interpolation-filters="sRGB">
<feFlood flood-opacity="0" result="BackgroundImageFix"/>
<feColorMatrix in="SourceAlpha" type="matrix" values="0 0 0 0 0 0 0 0 0 0 0 0 0 0 0 0 0 0 127 0" result="hardAlpha"/>
<feOffset dy="8"/>
<feGaussianBlur stdDeviation="8"/>
<feComposite in2="hardAlpha" operator="out"/>
<feColorMatrix type="matrix" values="0 0 0 0 0 0 0 0 0 0 0 0 0 0 0 0 0 0 0.08 0"/>
<feBlend mode="normal" in2="BackgroundImageFix" result="effect1_dropShadow_238_960"/>
<feBlend mode="normal" in="SourceGraphic" in2="effect1_dropShadow_238_960" result="shape"/>
</filter>
<clipPath id="clip0_238_960">
<rect width="96" height="35.8481" fill="white" transform="translate(48 54.0759)"/>
</clipPath>
<clipPath id="clip1_238_960">
<rect x="208" y="32" width="80" height="80" rx="6" fill="white"/>
</clipPath>
</defs>
</svg>
