<svg width="362" height="226" viewBox="0 0 362 226" fill="none" xmlns="http://www.w3.org/2000/svg" xmlns:xlink="http://www.w3.org/1999/xlink">
<rect width="344" height="212" rx="14" fill="white"/>
<mask id="path-2-inside-1_238_1098" fill="white">
<path d="M24 20H362V55H24V20Z"/>
</mask>
<path d="M362 53H24V57H362V53Z" fill="#E3E5EA" mask="url(#path-2-inside-1_238_1098)"/>
<path d="M25.54 40V25.9H28.1V31.88H30.38L29.88 32.22L33.88 25.9H36.7L32.24 32.72L31.24 31.98C31.8133 32.06 32.3267 32.2267 32.78 32.48C33.2333 32.7333 33.64 33.0667 34 33.48C34.3733 33.8933 34.7 34.3933 34.98 34.98L37.42 40H34.64L32.76 35.94C32.44 35.2467 32.0533 34.7533 31.6 34.46C31.16 34.1667 30.6067 34.02 29.94 34.02H28.1V40H25.54ZM43.1798 40.2C42.1665 40.2 41.2865 39.9933 40.5398 39.58C39.7932 39.1667 39.2132 38.58 38.7998 37.82C38.3865 37.0467 38.1798 36.14 38.1798 35.1C38.1798 34.06 38.3865 33.16 38.7998 32.4C39.2132 31.64 39.7932 31.0533 40.5398 30.64C41.2865 30.2267 42.1665 30.02 43.1798 30.02C44.1932 30.02 45.0732 30.2267 45.8198 30.64C46.5665 31.0533 47.1465 31.64 47.5598 32.4C47.9732 33.16 48.1798 34.06 48.1798 35.1C48.1798 36.14 47.9732 37.0467 47.5598 37.82C47.1465 38.58 46.5665 39.1667 45.8198 39.58C45.0732 39.9933 44.1932 40.2 43.1798 40.2ZM43.1798 38.3C43.9265 38.3 44.5265 38.0333 44.9798 37.5C45.4332 36.9533 45.6598 36.1533 45.6598 35.1C45.6598 34.0333 45.4332 33.24 44.9798 32.72C44.5265 32.1867 43.9265 31.92 43.1798 31.92C42.4332 31.92 41.8332 32.1867 41.3798 32.72C40.9265 33.24 40.6998 34.0333 40.6998 35.1C40.6998 36.1533 40.9265 36.9533 41.3798 37.5C41.8332 38.0333 42.4332 38.3 43.1798 38.3ZM50.4367 40V30.22H52.9367V34H57.2567V30.22H59.7567V40H57.2567V35.96H52.9367V40H50.4367ZM64.6047 40V32.18H61.2647V30.22H70.4647V32.18H67.1047V40H64.6047ZM75.1778 40.2C74.4711 40.2 73.8378 40.0667 73.2778 39.8C72.7311 39.52 72.2978 39.1467 71.9778 38.68C71.6711 38.2133 71.5178 37.6867 71.5178 37.1C71.5178 36.38 71.7045 35.8133 72.0778 35.4C72.4511 34.9733 73.0578 34.6667 73.8978 34.48C74.7378 34.2933 75.8645 34.2 77.2778 34.2H78.2778V35.64H77.2978C76.6711 35.64 76.1445 35.6667 75.7178 35.72C75.2911 35.76 74.9445 35.8333 74.6778 35.94C74.4245 36.0333 74.2378 36.1667 74.1178 36.34C74.0111 36.5133 73.9578 36.7267 73.9578 36.98C73.9578 37.42 74.1111 37.78 74.4178 38.06C74.7245 38.34 75.1511 38.48 75.6978 38.48C76.1378 38.48 76.5245 38.38 76.8578 38.18C77.2045 37.9667 77.4778 37.68 77.6778 37.32C77.8778 36.96 77.9778 36.5467 77.9778 36.08V33.78C77.9778 33.1133 77.8311 32.6333 77.5378 32.34C77.2445 32.0467 76.7511 31.9 76.0578 31.9C75.5111 31.9 74.9511 31.9867 74.3778 32.16C73.8045 32.32 73.2245 32.5733 72.6378 32.92L71.9178 31.22C72.2645 30.98 72.6711 30.7733 73.1378 30.6C73.6178 30.4133 74.1178 30.2733 74.6378 30.18C75.1711 30.0733 75.6711 30.02 76.1378 30.02C77.0978 30.02 77.8845 30.1667 78.4978 30.46C79.1245 30.7533 79.5911 31.2 79.8978 31.8C80.2045 32.3867 80.3578 33.1467 80.3578 34.08V40H78.0178V37.92H78.1778C78.0845 38.3867 77.8978 38.7933 77.6178 39.14C77.3511 39.4733 77.0111 39.7333 76.5978 39.92C76.1845 40.1067 75.7111 40.2 75.1778 40.2ZM83.0888 40V30.22H85.5888V34.02H87.0088L89.8488 30.22H92.5288L88.9488 35.12L88.4088 34.32C88.7688 34.36 89.0888 34.46 89.3688 34.62C89.6621 34.78 89.9288 35.0067 90.1688 35.3C90.4221 35.58 90.6688 35.9333 90.9088 36.36L92.9688 40H90.2888L88.6488 37.12C88.4754 36.8133 88.3021 36.58 88.1288 36.42C87.9688 36.2467 87.7821 36.1267 87.5688 36.06C87.3688 35.9933 87.1221 35.96 86.8288 35.96H85.5888V40H83.0888ZM96.2606 40V32.18H92.9206V30.22H102.121V32.18H98.7606V40H96.2606ZM103.594 40V30.22H106.094V33.46H108.674C109.967 33.46 110.94 33.7333 111.594 34.28C112.26 34.8267 112.594 35.6267 112.594 36.68C112.594 37.3467 112.434 37.9333 112.114 38.44C111.794 38.9333 111.34 39.32 110.754 39.6C110.18 39.8667 109.487 40 108.674 40H103.594ZM106.094 38.36H108.294C108.92 38.36 109.407 38.2267 109.754 37.96C110.1 37.68 110.274 37.26 110.274 36.7C110.274 36.1533 110.1 35.7533 109.754 35.5C109.407 35.2333 108.92 35.1 108.294 35.1H106.094V38.36ZM113.774 40V30.22H116.274V40H113.774Z" fill="black"/>
<rect x="286" y="20.5" width="76" height="26" rx="6" fill="#F4F4F4"/>
<rect x="288" y="22.5" width="36" height="22" rx="6" fill="white"/>
<g clip-path="url(#clip0_238_1098)">
<path d="M303.333 33.4999C303.333 34.2072 303.614 34.8854 304.114 35.3855C304.614 35.8856 305.292 36.1666 306 36.1666C306.707 36.1666 307.385 35.8856 307.885 35.3855C308.385 34.8854 308.666 34.2072 308.666 33.4999C308.666 32.7927 308.385 32.1144 307.885 31.6143C307.385 31.1142 306.707 30.8333 306 30.8333C305.292 30.8333 304.614 31.1142 304.114 31.6143C303.614 32.1144 303.333 32.7927 303.333 33.4999Z" stroke="#44494E" stroke-width="1.75" stroke-linecap="round" stroke-linejoin="round"/>
<path d="M300 33.5H300.667M306 27.5V28.1667M311.333 33.5H312M306 38.8333V39.5M301.733 29.2333L302.2 29.7M310.267 29.2333L309.8 29.7M309.8 37.3L310.267 37.7667M302.2 37.3L301.733 37.7667" stroke="#44494E" stroke-width="1.75" stroke-linecap="round" stroke-linejoin="round"/>
</g>
<g clip-path="url(#clip1_238_1098)">
<path d="M342 27.5C342.088 27.5 342.175 27.5 342.262 27.5C341.405 28.2958 340.855 29.3665 340.706 30.5261C340.557 31.6857 340.819 32.8608 341.447 33.8471C342.074 34.8334 343.028 35.5687 344.141 35.9249C345.255 36.2812 346.458 36.2361 347.542 35.7973C347.125 36.8003 346.443 37.6713 345.57 38.3175C344.697 38.9636 343.665 39.3607 342.584 39.4662C341.503 39.5718 340.414 39.3819 339.432 38.9169C338.451 38.4519 337.614 37.7291 337.011 36.8257C336.408 35.9223 336.061 34.8722 336.008 33.7873C335.955 32.7024 336.198 31.6235 336.71 30.6656C337.222 29.7078 337.984 28.9069 338.916 28.3485C339.848 27.79 340.913 27.4949 342 27.4946V27.5Z" stroke="#44494E" stroke-opacity="0.5" stroke-width="1.75" stroke-linecap="round" stroke-linejoin="round"/>
</g>
<circle cx="44" cy="91.5" r="20" fill="url(#pattern0_238_1098)"/>
<path d="M86.08 87.384V85.768L86.512 86.104H86.096C85.0293 86.104 84.1067 85.912 83.328 85.528C82.56 85.144 81.968 84.5947 81.552 83.88C81.136 83.1547 80.928 82.2853 80.928 81.272C80.928 80.248 81.1307 79.3787 81.536 78.664C81.9413 77.9387 82.528 77.3893 83.296 77.016C84.0747 76.632 85.008 76.44 86.096 76.44H86.512L86.08 76.776V75.256H87.744V76.776L87.312 76.44H87.712C88.8107 76.44 89.744 76.632 90.512 77.016C91.28 77.3893 91.8667 77.9387 92.272 78.664C92.688 79.3787 92.896 80.248 92.896 81.272C92.896 82.2853 92.688 83.1547 92.272 83.88C91.856 84.5947 91.2587 85.144 90.48 85.528C89.712 85.912 88.7893 86.104 87.712 86.104H87.312L87.744 85.768V87.384H86.08ZM86.08 85.128V77.416L86.464 77.736H85.904C85.2427 77.736 84.6667 77.8693 84.176 78.136C83.6853 78.4027 83.3013 78.7973 83.024 79.32C82.7573 79.8427 82.624 80.4933 82.624 81.272C82.624 81.8373 82.704 82.3387 82.864 82.776C83.024 83.2133 83.248 83.5867 83.536 83.896C83.8347 84.1947 84.1813 84.424 84.576 84.584C84.9813 84.7333 85.424 84.808 85.904 84.808H86.464L86.08 85.128ZM87.728 85.128L87.36 84.808H87.904C88.3947 84.808 88.8373 84.7333 89.232 84.584C89.6373 84.424 89.984 84.1947 90.272 83.896C90.56 83.5867 90.784 83.2133 90.944 82.776C91.104 82.3387 91.184 81.8373 91.184 81.272C91.184 80.4933 91.0453 79.8427 90.768 79.32C90.5013 78.7973 90.1227 78.4027 89.632 78.136C89.1413 77.8693 88.5653 77.736 87.904 77.736H87.36L87.728 77.416V85.128ZM94.9805 87V79.192H96.4525V85.4H96.0365L100.676 79.192H102.036V87H100.564V80.792H100.997L96.3405 87H94.9805ZM104.417 87V79.192H106.033V82.344H109.921V79.192H111.537V87H109.921V83.624H106.033V87H104.417ZM113.244 87L114.428 84.952C114.631 84.5893 114.887 84.3013 115.196 84.088C115.505 83.864 115.82 83.752 116.14 83.752H116.396V83.912C115.809 83.912 115.303 83.8213 114.876 83.64C114.46 83.4587 114.14 83.192 113.916 82.84C113.703 82.488 113.596 82.0667 113.596 81.576C113.596 80.8507 113.841 80.2747 114.332 79.848C114.823 79.4107 115.553 79.192 116.524 79.192H120.252V87H118.748V84.152H117.74C117.367 84.152 117.047 84.248 116.78 84.44C116.513 84.632 116.295 84.8773 116.124 85.176L115.084 87H113.244ZM116.86 83.048H118.748V80.296H116.86C116.273 80.296 115.841 80.4187 115.564 80.664C115.287 80.8987 115.148 81.2293 115.148 81.656C115.148 82.0933 115.287 82.4347 115.564 82.68C115.841 82.9253 116.273 83.048 116.86 83.048ZM122.633 87V79.192H128.297V80.488H124.249V87H122.633ZM129.71 87V79.192H131.182V85.4H130.766L135.406 79.192H136.766V87H135.294V80.792H135.726L131.07 87H129.71ZM139.147 87V79.192H140.763V82.344H144.651V79.192H146.267V87H144.651V83.624H140.763V87H139.147ZM151.745 87L156.769 75.72H158.145L163.185 87H161.489L160.113 83.8L160.865 84.248H154.049L154.785 83.8L153.425 87H151.745ZM157.441 77.56L155.025 83.288L154.625 82.904H160.273L159.905 83.288L157.473 77.56H157.441ZM164.182 87.208L163.638 85.928C163.99 85.7893 164.284 85.608 164.518 85.384C164.764 85.16 164.956 84.8773 165.094 84.536C165.233 84.184 165.334 83.752 165.398 83.24C165.462 82.728 165.494 82.1093 165.494 81.384V79.192H171.446V87H169.83V80.488H166.998V81.432C166.998 82.3173 166.945 83.0907 166.838 83.752C166.732 84.4027 166.566 84.9573 166.342 85.416C166.118 85.8747 165.825 86.248 165.462 86.536C165.11 86.824 164.684 87.048 164.182 87.208ZM177.51 87.144C176.656 87.144 175.92 86.984 175.302 86.664C174.694 86.3333 174.219 85.8693 173.878 85.272C173.547 84.664 173.382 83.944 173.382 83.112C173.382 82.3013 173.547 81.592 173.878 80.984C174.208 80.376 174.662 79.9013 175.238 79.56C175.814 79.2187 176.47 79.048 177.206 79.048C177.931 79.048 178.55 79.208 179.062 79.528C179.584 79.8373 179.984 80.28 180.262 80.856C180.539 81.432 180.678 82.12 180.678 82.92V83.464H174.662V82.472H179.59L179.318 82.696C179.318 81.896 179.142 81.2773 178.79 80.84C178.438 80.4027 177.931 80.184 177.27 80.184C176.768 80.184 176.342 80.3013 175.99 80.536C175.648 80.7707 175.387 81.096 175.206 81.512C175.024 81.928 174.934 82.4133 174.934 82.968V83.064C174.934 83.6827 175.03 84.2053 175.222 84.632C175.424 85.048 175.718 85.3627 176.102 85.576C176.486 85.7893 176.96 85.896 177.526 85.896C177.974 85.896 178.411 85.8267 178.838 85.688C179.275 85.5387 179.686 85.3093 180.07 85L180.55 86.12C180.198 86.44 179.744 86.6907 179.19 86.872C178.635 87.0533 178.075 87.144 177.51 87.144ZM182.547 87V79.192H184.163V82.36H185.475L187.891 79.192H189.651L186.755 83.048L186.355 82.536C186.654 82.568 186.915 82.6427 187.139 82.76C187.363 82.8773 187.571 83.0533 187.763 83.288C187.966 83.5227 188.179 83.832 188.403 84.216L190.019 87H188.291L186.931 84.664C186.771 84.3867 186.611 84.1733 186.451 84.024C186.302 83.8747 186.137 83.7733 185.955 83.72C185.774 83.656 185.545 83.624 185.267 83.624H184.163V87H182.547ZM194.612 87.144C193.812 87.144 193.118 86.9787 192.532 86.648C191.956 86.3067 191.508 85.832 191.188 85.224C190.868 84.6053 190.708 83.88 190.708 83.048C190.708 82.2267 190.868 81.5173 191.188 80.92C191.508 80.3227 191.956 79.864 192.532 79.544C193.118 79.2133 193.812 79.048 194.612 79.048C195.102 79.048 195.588 79.1333 196.068 79.304C196.548 79.464 196.942 79.6987 197.252 80.008L196.74 81.144C196.452 80.8667 196.126 80.664 195.764 80.536C195.401 80.3973 195.06 80.328 194.74 80.328C193.982 80.328 193.396 80.568 192.98 81.048C192.574 81.5173 192.372 82.1893 192.372 83.064C192.372 83.9387 192.574 84.6267 192.98 85.128C193.396 85.6187 193.982 85.864 194.74 85.864C195.06 85.864 195.401 85.8 195.764 85.672C196.126 85.5333 196.452 85.3253 196.74 85.048L197.252 86.2C196.942 86.488 196.542 86.7173 196.052 86.888C195.572 87.0587 195.092 87.144 194.612 87.144ZM202.444 87.144C201.591 87.144 200.855 86.984 200.236 86.664C199.628 86.3333 199.153 85.8693 198.812 85.272C198.481 84.664 198.316 83.944 198.316 83.112C198.316 82.3013 198.481 81.592 198.812 80.984C199.143 80.376 199.596 79.9013 200.172 79.56C200.748 79.2187 201.404 79.048 202.14 79.048C202.865 79.048 203.484 79.208 203.996 79.528C204.519 79.8373 204.919 80.28 205.196 80.856C205.473 81.432 205.612 82.12 205.612 82.92V83.464H199.596V82.472H204.524L204.252 82.696C204.252 81.896 204.076 81.2773 203.724 80.84C203.372 80.4027 202.865 80.184 202.204 80.184C201.703 80.184 201.276 80.3013 200.924 80.536C200.583 80.7707 200.321 81.096 200.14 81.512C199.959 81.928 199.868 82.4133 199.868 82.968V83.064C199.868 83.6827 199.964 84.2053 200.156 84.632C200.359 85.048 200.652 85.3627 201.036 85.576C201.42 85.7893 201.895 85.896 202.46 85.896C202.908 85.896 203.345 85.8267 203.772 85.688C204.209 85.5387 204.62 85.3093 205.004 85L205.484 86.12C205.132 86.44 204.679 86.6907 204.124 86.872C203.569 87.0533 203.009 87.144 202.444 87.144ZM207.482 87V79.192H208.954V85.4H208.538L213.178 79.192H214.538V87H213.066V80.792H213.498L208.842 87H207.482ZM211.002 78.2C210.532 78.2 210.111 78.12 209.738 77.96C209.364 77.7893 209.044 77.544 208.778 77.224C208.511 76.8933 208.314 76.4987 208.186 76.04L209.066 75.736C209.258 76.2587 209.508 76.6427 209.818 76.888C210.138 77.1333 210.538 77.256 211.018 77.256C211.508 77.256 211.908 77.1387 212.218 76.904C212.527 76.6587 212.794 76.2747 213.018 75.752L213.866 76.04C213.695 76.5413 213.466 76.952 213.178 77.272C212.9 77.592 212.58 77.8267 212.218 77.976C211.855 78.1253 211.45 78.2 211.002 78.2Z" fill="black"/>
<path d="M83.71 106.44V103.458H80.784V102.506H83.71V99.608H84.69V102.506H87.616V103.458H84.69V106.44H83.71ZM89.8365 107L94.6665 97.718V98.236H89.2485V97.13H95.8565V98.096L91.2785 107H89.8365ZM103.478 109.702C102.862 108.666 102.414 107.621 102.134 106.566C101.863 105.502 101.728 104.419 101.728 103.318C101.728 102.207 101.863 101.125 102.134 100.07C102.414 99.0153 102.862 97.97 103.478 96.934L104.374 97.284C104.084 97.9747 103.842 98.656 103.646 99.328C103.45 99.9907 103.305 100.653 103.212 101.316C103.128 101.969 103.086 102.637 103.086 103.318C103.086 103.999 103.128 104.671 103.212 105.334C103.305 105.987 103.45 106.645 103.646 107.308C103.842 107.971 104.084 108.652 104.374 109.352L103.478 109.702ZM108.338 107.126C107.993 107.126 107.648 107.079 107.302 106.986C106.957 106.893 106.63 106.757 106.322 106.58C106.024 106.403 105.758 106.193 105.524 105.95L105.986 104.956C106.332 105.301 106.705 105.563 107.106 105.74C107.517 105.917 107.932 106.006 108.352 106.006C108.791 106.006 109.183 105.922 109.528 105.754C109.874 105.586 110.163 105.339 110.396 105.012C110.639 104.685 110.821 104.279 110.942 103.794C111.064 103.299 111.124 102.73 111.124 102.086V100.84H111.25C111.194 101.353 111.04 101.801 110.788 102.184C110.536 102.557 110.21 102.847 109.808 103.052C109.416 103.257 108.973 103.36 108.478 103.36C107.9 103.36 107.386 103.225 106.938 102.954C106.5 102.683 106.15 102.315 105.888 101.848C105.636 101.372 105.51 100.831 105.51 100.224C105.51 99.5987 105.646 99.0433 105.916 98.558C106.196 98.0727 106.57 97.6947 107.036 97.424C107.512 97.144 108.058 97.004 108.674 97.004C109.468 97.004 110.14 97.1953 110.69 97.578C111.241 97.9513 111.656 98.502 111.936 99.23C112.226 99.9487 112.37 100.817 112.37 101.834C112.37 102.963 112.207 103.925 111.88 104.718C111.563 105.502 111.106 106.099 110.508 106.51C109.911 106.921 109.188 107.126 108.338 107.126ZM108.772 102.282C109.164 102.282 109.51 102.193 109.808 102.016C110.116 101.839 110.354 101.591 110.522 101.274C110.69 100.957 110.774 100.588 110.774 100.168C110.774 99.7573 110.69 99.398 110.522 99.09C110.354 98.7727 110.116 98.5253 109.808 98.348C109.51 98.1613 109.164 98.068 108.772 98.068C108.371 98.068 108.021 98.1613 107.722 98.348C107.424 98.5253 107.186 98.7727 107.008 99.09C106.84 99.398 106.756 99.7573 106.756 100.168C106.756 100.588 106.84 100.957 107.008 101.274C107.186 101.591 107.424 101.839 107.722 102.016C108.021 102.193 108.371 102.282 108.772 102.282ZM116.691 107.126C116.345 107.126 116 107.079 115.655 106.986C115.309 106.893 114.983 106.757 114.675 106.58C114.376 106.403 114.11 106.193 113.877 105.95L114.339 104.956C114.684 105.301 115.057 105.563 115.459 105.74C115.869 105.917 116.285 106.006 116.705 106.006C117.143 106.006 117.535 105.922 117.881 105.754C118.226 105.586 118.515 105.339 118.749 105.012C118.991 104.685 119.173 104.279 119.295 103.794C119.416 103.299 119.477 102.73 119.477 102.086V100.84H119.603C119.547 101.353 119.393 101.801 119.141 102.184C118.889 102.557 118.562 102.847 118.161 103.052C117.769 103.257 117.325 103.36 116.831 103.36C116.252 103.36 115.739 103.225 115.291 102.954C114.852 102.683 114.502 102.315 114.241 101.848C113.989 101.372 113.863 100.831 113.863 100.224C113.863 99.5987 113.998 99.0433 114.269 98.558C114.549 98.0727 114.922 97.6947 115.389 97.424C115.865 97.144 116.411 97.004 117.027 97.004C117.82 97.004 118.492 97.1953 119.043 97.578C119.593 97.9513 120.009 98.502 120.289 99.23C120.578 99.9487 120.723 100.817 120.723 101.834C120.723 102.963 120.559 103.925 120.233 104.718C119.915 105.502 119.458 106.099 118.861 106.51C118.263 106.921 117.54 107.126 116.691 107.126ZM117.125 102.282C117.517 102.282 117.862 102.193 118.161 102.016C118.469 101.839 118.707 101.591 118.875 101.274C119.043 100.957 119.127 100.588 119.127 100.168C119.127 99.7573 119.043 99.398 118.875 99.09C118.707 98.7727 118.469 98.5253 118.161 98.348C117.862 98.1613 117.517 98.068 117.125 98.068C116.723 98.068 116.373 98.1613 116.075 98.348C115.776 98.5253 115.538 98.7727 115.361 99.09C115.193 99.398 115.109 99.7573 115.109 100.168C115.109 100.588 115.193 100.957 115.361 101.274C115.538 101.591 115.776 101.839 116.075 102.016C116.373 102.193 116.723 102.282 117.125 102.282ZM125.043 107.126C124.698 107.126 124.353 107.079 124.007 106.986C123.662 106.893 123.335 106.757 123.027 106.58C122.729 106.403 122.463 106.193 122.229 105.95L122.691 104.956C123.037 105.301 123.41 105.563 123.811 105.74C124.222 105.917 124.637 106.006 125.057 106.006C125.496 106.006 125.888 105.922 126.233 105.754C126.579 105.586 126.868 105.339 127.101 105.012C127.344 104.685 127.526 104.279 127.647 103.794C127.769 103.299 127.829 102.73 127.829 102.086V100.84H127.955C127.899 101.353 127.745 101.801 127.493 102.184C127.241 102.557 126.915 102.847 126.513 103.052C126.121 103.257 125.678 103.36 125.183 103.36C124.605 103.36 124.091 103.225 123.643 102.954C123.205 102.683 122.855 102.315 122.593 101.848C122.341 101.372 122.215 100.831 122.215 100.224C122.215 99.5987 122.351 99.0433 122.621 98.558C122.901 98.0727 123.275 97.6947 123.741 97.424C124.217 97.144 124.763 97.004 125.379 97.004C126.173 97.004 126.845 97.1953 127.395 97.578C127.946 97.9513 128.361 98.502 128.641 99.23C128.931 99.9487 129.075 100.817 129.075 101.834C129.075 102.963 128.912 103.925 128.585 104.718C128.268 105.502 127.811 106.099 127.213 106.51C126.616 106.921 125.893 107.126 125.043 107.126ZM125.477 102.282C125.869 102.282 126.215 102.193 126.513 102.016C126.821 101.839 127.059 101.591 127.227 101.274C127.395 100.957 127.479 100.588 127.479 100.168C127.479 99.7573 127.395 99.398 127.227 99.09C127.059 98.7727 126.821 98.5253 126.513 98.348C126.215 98.1613 125.869 98.068 125.477 98.068C125.076 98.068 124.726 98.1613 124.427 98.348C124.129 98.5253 123.891 98.7727 123.713 99.09C123.545 99.398 123.461 99.7573 123.461 100.168C123.461 100.588 123.545 100.957 123.713 101.274C123.891 101.591 124.129 101.839 124.427 102.016C124.726 102.193 125.076 102.282 125.477 102.282ZM131.282 109.702L130.372 109.352C130.67 108.643 130.913 107.952 131.1 107.28C131.286 106.617 131.426 105.959 131.52 105.306C131.613 104.653 131.66 103.99 131.66 103.318C131.66 102.646 131.613 101.983 131.52 101.33C131.426 100.677 131.286 100.019 131.1 99.356C130.913 98.684 130.67 97.9933 130.372 97.284L131.282 96.934C131.888 97.97 132.332 99.02 132.612 100.084C132.892 101.139 133.032 102.217 133.032 103.318C133.032 104.419 132.892 105.502 132.612 106.566C132.332 107.621 131.888 108.666 131.282 109.702ZM142.383 107.126C141.963 107.126 141.548 107.079 141.137 106.986C140.736 106.893 140.358 106.762 140.003 106.594C139.648 106.417 139.34 106.207 139.079 105.964L139.541 104.956C139.989 105.311 140.442 105.577 140.899 105.754C141.366 105.922 141.856 106.006 142.369 106.006C143.032 106.006 143.55 105.824 143.923 105.46C144.306 105.096 144.497 104.611 144.497 104.004C144.497 103.388 144.315 102.884 143.951 102.492C143.587 102.1 143.092 101.904 142.467 101.904C142.01 101.904 141.604 101.997 141.249 102.184C140.894 102.361 140.582 102.646 140.311 103.038H139.387V97.13H145.183V98.236H140.661V101.974H140.297C140.549 101.601 140.885 101.311 141.305 101.106C141.725 100.901 142.196 100.798 142.719 100.798C143.344 100.798 143.881 100.933 144.329 101.204C144.786 101.465 145.141 101.834 145.393 102.31C145.645 102.777 145.771 103.323 145.771 103.948C145.771 104.564 145.631 105.115 145.351 105.6C145.08 106.076 144.693 106.449 144.189 106.72C143.685 106.991 143.083 107.126 142.383 107.126ZM150.735 107.126C150.315 107.126 149.9 107.079 149.489 106.986C149.088 106.893 148.71 106.762 148.355 106.594C148.001 106.417 147.693 106.207 147.431 105.964L147.893 104.956C148.341 105.311 148.794 105.577 149.251 105.754C149.718 105.922 150.208 106.006 150.721 106.006C151.384 106.006 151.902 105.824 152.275 105.46C152.658 105.096 152.849 104.611 152.849 104.004C152.849 103.388 152.667 102.884 152.303 102.492C151.939 102.1 151.445 101.904 150.819 101.904C150.362 101.904 149.956 101.997 149.601 102.184C149.247 102.361 148.934 102.646 148.663 103.038H147.739V97.13H153.535V98.236H149.013V101.974H148.649C148.901 101.601 149.237 101.311 149.657 101.106C150.077 100.901 150.549 100.798 151.071 100.798C151.697 100.798 152.233 100.933 152.681 101.204C153.139 101.465 153.493 101.834 153.745 102.31C153.997 102.777 154.123 103.323 154.123 103.948C154.123 104.564 153.983 105.115 153.703 105.6C153.433 106.076 153.045 106.449 152.541 106.72C152.037 106.991 151.435 107.126 150.735 107.126ZM159.088 107.126C158.668 107.126 158.253 107.079 157.842 106.986C157.441 106.893 157.063 106.762 156.708 106.594C156.353 106.417 156.045 106.207 155.784 105.964L156.246 104.956C156.694 105.311 157.147 105.577 157.604 105.754C158.071 105.922 158.561 106.006 159.074 106.006C159.737 106.006 160.255 105.824 160.628 105.46C161.011 105.096 161.202 104.611 161.202 104.004C161.202 103.388 161.02 102.884 160.656 102.492C160.292 102.1 159.797 101.904 159.172 101.904C158.715 101.904 158.309 101.997 157.954 102.184C157.599 102.361 157.287 102.646 157.016 103.038H156.092V97.13H161.888V98.236H157.366V101.974H157.002C157.254 101.601 157.59 101.311 158.01 101.106C158.43 100.901 158.901 100.798 159.424 100.798C160.049 100.798 160.586 100.933 161.034 101.204C161.491 101.465 161.846 101.834 162.098 102.31C162.35 102.777 162.476 103.323 162.476 103.948C162.476 104.564 162.336 105.115 162.056 105.6C161.785 106.076 161.398 106.449 160.894 106.72C160.39 106.991 159.788 107.126 159.088 107.126ZM164.053 103.794V102.744H168.029V103.794H164.053ZM173.065 107.126C172.626 107.126 172.202 107.084 171.791 107C171.38 106.907 170.993 106.776 170.629 106.608C170.274 106.431 169.962 106.216 169.691 105.964L170.153 104.956C170.601 105.32 171.058 105.586 171.525 105.754C171.992 105.922 172.491 106.006 173.023 106.006C173.48 106.006 173.868 105.941 174.185 105.81C174.502 105.67 174.74 105.469 174.899 105.208C175.067 104.937 175.151 104.615 175.151 104.242C175.151 103.682 174.969 103.262 174.605 102.982C174.241 102.693 173.709 102.548 173.009 102.548H171.525V101.456H172.897C173.308 101.456 173.658 101.386 173.947 101.246C174.236 101.097 174.46 100.891 174.619 100.63C174.787 100.369 174.871 100.051 174.871 99.678C174.871 99.174 174.708 98.7913 174.381 98.53C174.054 98.2593 173.583 98.124 172.967 98.124C172.463 98.124 171.992 98.2173 171.553 98.404C171.124 98.5813 170.713 98.8567 170.321 99.23L169.859 98.236C170.232 97.844 170.704 97.5407 171.273 97.326C171.852 97.1113 172.449 97.004 173.065 97.004C173.709 97.004 174.26 97.1067 174.717 97.312C175.184 97.5173 175.538 97.8113 175.781 98.194C176.024 98.5673 176.145 99.02 176.145 99.552C176.145 100.159 175.977 100.681 175.641 101.12C175.314 101.549 174.862 101.834 174.283 101.974V101.82C174.74 101.904 175.128 102.058 175.445 102.282C175.772 102.506 176.019 102.791 176.187 103.136C176.355 103.481 176.439 103.878 176.439 104.326C176.439 104.895 176.299 105.395 176.019 105.824C175.748 106.244 175.361 106.566 174.857 106.79C174.353 107.014 173.756 107.126 173.065 107.126ZM179.038 107V105.894H181.278V98.236H181.95L179.514 99.762L178.982 98.796L181.642 97.13H182.58V105.894H184.68V107H179.038ZM190.078 107.126C189.658 107.126 189.243 107.079 188.832 106.986C188.431 106.893 188.053 106.762 187.698 106.594C187.344 106.417 187.036 106.207 186.774 105.964L187.236 104.956C187.684 105.311 188.137 105.577 188.594 105.754C189.061 105.922 189.551 106.006 190.064 106.006C190.727 106.006 191.245 105.824 191.618 105.46C192.001 105.096 192.192 104.611 192.192 104.004C192.192 103.388 192.01 102.884 191.646 102.492C191.282 102.1 190.788 101.904 190.162 101.904C189.705 101.904 189.299 101.997 188.944 102.184C188.59 102.361 188.277 102.646 188.006 103.038H187.082V97.13H192.878V98.236H188.356V101.974H187.992C188.244 101.601 188.58 101.311 189 101.106C189.42 100.901 189.892 100.798 190.414 100.798C191.04 100.798 191.576 100.933 192.024 101.204C192.482 101.465 192.836 101.834 193.088 102.31C193.34 102.777 193.466 103.323 193.466 103.948C193.466 104.564 193.326 105.115 193.046 105.6C192.776 106.076 192.388 106.449 191.884 106.72C191.38 106.991 190.778 107.126 190.078 107.126ZM198.599 107.126C197.815 107.126 197.147 106.935 196.597 106.552C196.046 106.169 195.626 105.619 195.337 104.9C195.047 104.181 194.903 103.313 194.903 102.296C194.903 101.157 195.061 100.196 195.379 99.412C195.705 98.628 196.172 98.0307 196.779 97.62C197.385 97.2093 198.109 97.004 198.949 97.004C199.285 97.004 199.625 97.0507 199.971 97.144C200.316 97.2373 200.643 97.3727 200.951 97.55C201.259 97.7273 201.525 97.9327 201.749 98.166L201.287 99.174C200.941 98.8193 200.568 98.558 200.167 98.39C199.765 98.2127 199.35 98.124 198.921 98.124C198.482 98.124 198.09 98.208 197.745 98.376C197.409 98.544 197.119 98.7913 196.877 99.118C196.643 99.4447 196.466 99.8507 196.345 100.336C196.223 100.821 196.163 101.391 196.163 102.044V103.29H196.023C196.088 102.767 196.242 102.319 196.485 101.946C196.737 101.573 197.063 101.283 197.465 101.078C197.866 100.873 198.309 100.77 198.795 100.77C199.373 100.77 199.887 100.905 200.335 101.176C200.783 101.437 201.133 101.806 201.385 102.282C201.637 102.749 201.763 103.29 201.763 103.906C201.763 104.522 201.627 105.077 201.357 105.572C201.086 106.057 200.713 106.44 200.237 106.72C199.761 106.991 199.215 107.126 198.599 107.126ZM198.515 106.048C198.916 106.048 199.266 105.959 199.565 105.782C199.863 105.605 200.097 105.357 200.265 105.04C200.442 104.723 200.531 104.359 200.531 103.948C200.531 103.537 200.442 103.173 200.265 102.856C200.097 102.539 199.863 102.291 199.565 102.114C199.266 101.937 198.916 101.848 198.515 101.848C198.113 101.848 197.763 101.937 197.465 102.114C197.166 102.291 196.928 102.539 196.751 102.856C196.583 103.173 196.499 103.537 196.499 103.948C196.499 104.359 196.583 104.723 196.751 105.04C196.928 105.357 197.166 105.605 197.465 105.782C197.773 105.959 198.123 106.048 198.515 106.048Z" fill="#445371"/>
<rect x="288" y="77.5" width="74" height="28" rx="6" fill="#32BA76" fill-opacity="0.3"/>
<path d="M299.372 96.644C298.684 96.644 298.104 96.516 297.632 96.26C297.16 96.004 296.772 95.68 296.468 95.288L297.332 94.448C297.9 95.16 298.588 95.516 299.396 95.516C299.876 95.516 300.252 95.4 300.524 95.168C300.804 94.936 300.944 94.616 300.944 94.208V94.004C300.944 93.628 300.824 93.336 300.584 93.128C300.352 92.912 299.984 92.804 299.48 92.804H298.316V91.676H299.432C299.896 91.676 300.236 91.572 300.452 91.364C300.676 91.156 300.788 90.852 300.788 90.452V90.26C300.788 89.9 300.672 89.62 300.44 89.42C300.208 89.212 299.852 89.108 299.372 89.108C298.948 89.108 298.592 89.188 298.304 89.348C298.024 89.508 297.78 89.72 297.572 89.984L296.708 89.252C297.028 88.844 297.404 88.532 297.836 88.316C298.268 88.092 298.808 87.98 299.456 87.98C300.344 87.98 301.02 88.184 301.484 88.592C301.956 88.992 302.192 89.536 302.192 90.224C302.192 90.52 302.148 90.78 302.06 91.004C301.98 91.22 301.864 91.408 301.712 91.568C301.568 91.72 301.392 91.844 301.184 91.94C300.984 92.036 300.768 92.104 300.536 92.144V92.204C300.792 92.228 301.028 92.284 301.244 92.372C301.468 92.46 301.66 92.584 301.82 92.744C301.988 92.896 302.12 93.088 302.216 93.32C302.312 93.544 302.36 93.812 302.36 94.124C302.36 94.5 302.288 94.844 302.144 95.156C302.008 95.46 301.812 95.724 301.556 95.948C301.3 96.164 300.984 96.336 300.608 96.464C300.24 96.584 299.828 96.644 299.372 96.644ZM308.799 96.5L308.163 94.268H305.499L304.863 96.5H303.495L305.943 88.124H307.779L310.227 96.5H308.799ZM306.879 89.48H306.783L305.751 93.152H307.911L306.879 89.48ZM311.375 88.124H312.719V91.7H314.015L315.611 88.124H316.991L315.575 91.292C315.439 91.596 315.303 91.812 315.167 91.94C315.039 92.068 314.887 92.148 314.711 92.18V92.252C314.911 92.292 315.071 92.376 315.191 92.504C315.319 92.632 315.451 92.86 315.587 93.188L316.523 95.372H317.255V96.5H316.439C316.143 96.5 315.895 96.424 315.695 96.272C315.495 96.12 315.315 95.864 315.155 95.504L314.003 92.828H312.719V96.5H311.375V88.124ZM323.31 96.5L322.674 94.268H320.01L319.374 96.5H318.006L320.454 88.124H322.29L324.738 96.5H323.31ZM321.39 89.48H321.294L320.262 93.152H322.422L321.39 89.48ZM328.393 96.644C327.705 96.644 327.125 96.516 326.653 96.26C326.181 96.004 325.793 95.68 325.489 95.288L326.353 94.448C326.921 95.16 327.609 95.516 328.417 95.516C328.897 95.516 329.273 95.4 329.545 95.168C329.825 94.936 329.965 94.616 329.965 94.208V94.004C329.965 93.628 329.845 93.336 329.605 93.128C329.373 92.912 329.005 92.804 328.501 92.804H327.337V91.676H328.453C328.917 91.676 329.257 91.572 329.473 91.364C329.697 91.156 329.809 90.852 329.809 90.452V90.26C329.809 89.9 329.693 89.62 329.461 89.42C329.229 89.212 328.873 89.108 328.393 89.108C327.969 89.108 327.613 89.188 327.325 89.348C327.045 89.508 326.801 89.72 326.593 89.984L325.729 89.252C326.049 88.844 326.425 88.532 326.857 88.316C327.289 88.092 327.829 87.98 328.477 87.98C329.365 87.98 330.041 88.184 330.505 88.592C330.977 88.992 331.213 89.536 331.213 90.224C331.213 90.52 331.169 90.78 331.081 91.004C331.001 91.22 330.885 91.408 330.733 91.568C330.589 91.72 330.413 91.844 330.205 91.94C330.005 92.036 329.789 92.104 329.557 92.144V92.204C329.813 92.228 330.049 92.284 330.265 92.372C330.489 92.46 330.681 92.584 330.841 92.744C331.009 92.896 331.141 93.088 331.237 93.32C331.333 93.544 331.381 93.812 331.381 94.124C331.381 94.5 331.309 94.844 331.165 95.156C331.029 95.46 330.833 95.724 330.577 95.948C330.321 96.164 330.005 96.336 329.629 96.464C329.261 96.584 328.849 96.644 328.393 96.644ZM337.209 93.344H337.149C336.941 93.432 336.705 93.5 336.441 93.548C336.177 93.596 335.877 93.62 335.541 93.62C335.061 93.62 334.653 93.564 334.317 93.452C333.981 93.332 333.705 93.152 333.489 92.912C333.273 92.664 333.117 92.352 333.021 91.976C332.925 91.6 332.877 91.152 332.877 90.632V88.124H334.221V90.644C334.221 90.996 334.245 91.292 334.293 91.532C334.349 91.764 334.437 91.952 334.557 92.096C334.685 92.24 334.849 92.344 335.049 92.408C335.249 92.464 335.497 92.492 335.793 92.492C336.305 92.492 336.777 92.408 337.209 92.24V88.124H338.553V96.5H337.209V93.344ZM340.36 88.124H341.68V91.868L341.512 94.232H341.596L344.632 88.124H345.904V96.5H344.584V92.756L344.752 90.392H344.668L341.632 96.5H340.36V88.124ZM347.651 88.124H348.995V91.7H350.291L351.887 88.124H353.267L351.851 91.292C351.715 91.596 351.579 91.812 351.443 91.94C351.315 92.068 351.163 92.148 350.987 92.18V92.252C351.187 92.292 351.347 92.376 351.467 92.504C351.595 92.632 351.727 92.86 351.863 93.188L352.799 95.372H353.531V96.5H352.715C352.419 96.5 352.171 96.424 351.971 96.272C351.771 96.12 351.591 95.864 351.431 95.504L350.279 92.828H348.995V96.5H347.651V88.124Z" fill="#2D8B5D"/>
<circle cx="44" cy="148.5" r="20" fill="url(#pattern1_238_1098)"/>
<path d="M81.312 144V132.72H82.976V137.632H84.992L84.608 137.904L87.952 132.72H89.792L86.16 138.192L85.536 137.696C85.9733 137.749 86.368 137.877 86.72 138.08C87.0827 138.272 87.4027 138.533 87.68 138.864C87.968 139.184 88.224 139.573 88.448 140.032L90.384 144H88.592L87.056 140.72C86.768 140.112 86.432 139.68 86.048 139.424C85.664 139.157 85.1893 139.024 84.624 139.024H82.976V144H81.312ZM94.18 144.144C93.636 144.144 93.1453 144.037 92.708 143.824C92.2813 143.611 91.9453 143.323 91.7 142.96C91.4547 142.597 91.332 142.187 91.332 141.728C91.332 141.152 91.476 140.699 91.764 140.368C92.0627 140.027 92.548 139.787 93.22 139.648C93.9027 139.499 94.82 139.424 95.972 139.424H96.724V140.416H95.988C95.412 140.416 94.9267 140.437 94.532 140.48C94.1373 140.523 93.8227 140.592 93.588 140.688C93.3533 140.773 93.1827 140.896 93.076 141.056C92.98 141.216 92.932 141.408 92.932 141.632C92.932 142.037 93.0707 142.368 93.348 142.624C93.6253 142.869 94.0093 142.992 94.5 142.992C94.8947 142.992 95.2413 142.901 95.54 142.72C95.8387 142.528 96.0733 142.272 96.244 141.952C96.4253 141.632 96.516 141.264 96.516 140.848V139.008C96.516 138.4 96.388 137.963 96.132 137.696C95.876 137.429 95.4547 137.296 94.868 137.296C94.42 137.296 93.972 137.365 93.524 137.504C93.076 137.632 92.6173 137.84 92.148 138.128L91.652 136.992C91.9293 136.8 92.2493 136.635 92.612 136.496C92.9747 136.357 93.3533 136.251 93.748 136.176C94.1533 136.091 94.5427 136.048 94.916 136.048C95.6307 136.048 96.2173 136.16 96.676 136.384C97.1453 136.608 97.492 136.949 97.716 137.408C97.94 137.867 98.052 138.459 98.052 139.184V144H96.532V142.256H96.676C96.5907 142.651 96.4307 142.992 96.196 143.28C95.972 143.557 95.6893 143.771 95.348 143.92C95.0067 144.069 94.6173 144.144 94.18 144.144ZM100.417 146.88V136.192H102.001V137.952H101.825C101.996 137.376 102.332 136.917 102.833 136.576C103.335 136.224 103.927 136.048 104.609 136.048C105.303 136.048 105.905 136.213 106.417 136.544C106.94 136.875 107.34 137.339 107.617 137.936C107.905 138.533 108.049 139.253 108.049 140.096C108.049 140.917 107.905 141.637 107.617 142.256C107.34 142.864 106.945 143.333 106.433 143.664C105.921 143.984 105.313 144.144 104.609 144.144C103.937 144.144 103.351 143.973 102.849 143.632C102.348 143.291 102.012 142.837 101.841 142.272H102.033V146.88H100.417ZM104.209 142.896C104.881 142.896 105.415 142.656 105.809 142.176C106.215 141.696 106.417 141.003 106.417 140.096C106.417 139.179 106.215 138.485 105.809 138.016C105.415 137.547 104.881 137.312 104.209 137.312C103.548 137.312 103.015 137.547 102.609 138.016C102.204 138.485 102.001 139.179 102.001 140.096C102.001 141.003 102.204 141.696 102.609 142.176C103.015 142.656 103.548 142.896 104.209 142.896ZM109.978 144V136.192H117.05V144H115.434V137.488H111.594V144H109.978ZM119.415 144V136.192H120.887V142.4H120.471L125.111 136.192H126.471V144H124.999V137.792H125.431L120.775 144H119.415ZM128.851 144V136.192H130.467V139.344H134.355V136.192H135.971V144H134.355V140.624H130.467V144H128.851ZM141.513 146.576V142.656H142.633C142.996 142.208 143.289 141.659 143.513 141.008C143.748 140.347 143.919 139.573 144.025 138.688C144.143 137.792 144.201 136.779 144.201 135.648V132.72H151.913V142.656H153.513V146.576H152.041V144H143.001V146.576H141.513ZM144.329 142.656H150.265V134.064H145.753V135.776C145.753 136.875 145.7 137.851 145.593 138.704C145.497 139.547 145.343 140.293 145.129 140.944C144.916 141.595 144.649 142.165 144.329 142.656ZM155.051 144V136.192H156.379L159.211 141.136L162.027 136.192H163.355V144H161.931V138.064H162.299L159.595 142.736H158.811L156.107 138.064H156.475V144H155.051ZM165.737 144V136.192H167.209V142.4H166.793L171.433 136.192H172.793V144H171.321V137.792H171.753L167.097 144H165.737ZM176.805 144V137.488H174.053V136.192H181.189V137.488H178.421V144H176.805ZM182.454 146.88V136.192H184.038V137.952H183.862C184.033 137.376 184.369 136.917 184.87 136.576C185.371 136.224 185.963 136.048 186.646 136.048C187.339 136.048 187.942 136.213 188.454 136.544C188.977 136.875 189.377 137.339 189.654 137.936C189.942 138.533 190.086 139.253 190.086 140.096C190.086 140.917 189.942 141.637 189.654 142.256C189.377 142.864 188.982 143.333 188.47 143.664C187.958 143.984 187.35 144.144 186.646 144.144C185.974 144.144 185.387 143.973 184.886 143.632C184.385 143.291 184.049 142.837 183.878 142.272H184.07V146.88H182.454ZM186.246 142.896C186.918 142.896 187.451 142.656 187.846 142.176C188.251 141.696 188.454 141.003 188.454 140.096C188.454 139.179 188.251 138.485 187.846 138.016C187.451 137.547 186.918 137.312 186.246 137.312C185.585 137.312 185.051 137.547 184.646 138.016C184.241 138.485 184.038 139.179 184.038 140.096C184.038 141.003 184.241 141.696 184.646 142.176C185.051 142.656 185.585 142.896 186.246 142.896ZM192.015 144V136.192H193.487V142.4H193.071L197.711 136.192H199.071V144H197.599V137.792H198.031L193.375 144H192.015ZM201.451 144V136.192H202.923V142.4H202.507L207.147 136.192H208.507V144H207.035V137.792H207.467L202.811 144H201.451ZM204.971 135.2C204.502 135.2 204.081 135.12 203.707 134.96C203.334 134.789 203.014 134.544 202.747 134.224C202.481 133.893 202.283 133.499 202.155 133.04L203.035 132.736C203.227 133.259 203.478 133.643 203.787 133.888C204.107 134.133 204.507 134.256 204.987 134.256C205.478 134.256 205.878 134.139 206.187 133.904C206.497 133.659 206.763 133.275 206.987 132.752L207.835 133.04C207.665 133.541 207.435 133.952 207.147 134.272C206.87 134.592 206.55 134.827 206.187 134.976C205.825 135.125 205.419 135.2 204.971 135.2Z" fill="black"/>
<path d="M83.71 163.44V160.458H80.784V159.506H83.71V156.608H84.69V159.506H87.616V160.458H84.69V163.44H83.71ZM89.8365 164L94.6665 154.718V155.236H89.2485V154.13H95.8565V155.096L91.2785 164H89.8365ZM103.478 166.702C102.862 165.666 102.414 164.621 102.134 163.566C101.863 162.502 101.728 161.419 101.728 160.318C101.728 159.207 101.863 158.125 102.134 157.07C102.414 156.015 102.862 154.97 103.478 153.934L104.374 154.284C104.084 154.975 103.842 155.656 103.646 156.328C103.45 156.991 103.305 157.653 103.212 158.316C103.128 158.969 103.086 159.637 103.086 160.318C103.086 160.999 103.128 161.671 103.212 162.334C103.305 162.987 103.45 163.645 103.646 164.308C103.842 164.971 104.084 165.652 104.374 166.352L103.478 166.702ZM108.338 164.126C107.993 164.126 107.648 164.079 107.302 163.986C106.957 163.893 106.63 163.757 106.322 163.58C106.024 163.403 105.758 163.193 105.524 162.95L105.986 161.956C106.332 162.301 106.705 162.563 107.106 162.74C107.517 162.917 107.932 163.006 108.352 163.006C108.791 163.006 109.183 162.922 109.528 162.754C109.874 162.586 110.163 162.339 110.396 162.012C110.639 161.685 110.821 161.279 110.942 160.794C111.064 160.299 111.124 159.73 111.124 159.086V157.84H111.25C111.194 158.353 111.04 158.801 110.788 159.184C110.536 159.557 110.21 159.847 109.808 160.052C109.416 160.257 108.973 160.36 108.478 160.36C107.9 160.36 107.386 160.225 106.938 159.954C106.5 159.683 106.15 159.315 105.888 158.848C105.636 158.372 105.51 157.831 105.51 157.224C105.51 156.599 105.646 156.043 105.916 155.558C106.196 155.073 106.57 154.695 107.036 154.424C107.512 154.144 108.058 154.004 108.674 154.004C109.468 154.004 110.14 154.195 110.69 154.578C111.241 154.951 111.656 155.502 111.936 156.23C112.226 156.949 112.37 157.817 112.37 158.834C112.37 159.963 112.207 160.925 111.88 161.718C111.563 162.502 111.106 163.099 110.508 163.51C109.911 163.921 109.188 164.126 108.338 164.126ZM108.772 159.282C109.164 159.282 109.51 159.193 109.808 159.016C110.116 158.839 110.354 158.591 110.522 158.274C110.69 157.957 110.774 157.588 110.774 157.168C110.774 156.757 110.69 156.398 110.522 156.09C110.354 155.773 110.116 155.525 109.808 155.348C109.51 155.161 109.164 155.068 108.772 155.068C108.371 155.068 108.021 155.161 107.722 155.348C107.424 155.525 107.186 155.773 107.008 156.09C106.84 156.398 106.756 156.757 106.756 157.168C106.756 157.588 106.84 157.957 107.008 158.274C107.186 158.591 107.424 158.839 107.722 159.016C108.021 159.193 108.371 159.282 108.772 159.282ZM116.691 164.126C116.345 164.126 116 164.079 115.655 163.986C115.309 163.893 114.983 163.757 114.675 163.58C114.376 163.403 114.11 163.193 113.877 162.95L114.339 161.956C114.684 162.301 115.057 162.563 115.459 162.74C115.869 162.917 116.285 163.006 116.705 163.006C117.143 163.006 117.535 162.922 117.881 162.754C118.226 162.586 118.515 162.339 118.749 162.012C118.991 161.685 119.173 161.279 119.295 160.794C119.416 160.299 119.477 159.73 119.477 159.086V157.84H119.603C119.547 158.353 119.393 158.801 119.141 159.184C118.889 159.557 118.562 159.847 118.161 160.052C117.769 160.257 117.325 160.36 116.831 160.36C116.252 160.36 115.739 160.225 115.291 159.954C114.852 159.683 114.502 159.315 114.241 158.848C113.989 158.372 113.863 157.831 113.863 157.224C113.863 156.599 113.998 156.043 114.269 155.558C114.549 155.073 114.922 154.695 115.389 154.424C115.865 154.144 116.411 154.004 117.027 154.004C117.82 154.004 118.492 154.195 119.043 154.578C119.593 154.951 120.009 155.502 120.289 156.23C120.578 156.949 120.723 157.817 120.723 158.834C120.723 159.963 120.559 160.925 120.233 161.718C119.915 162.502 119.458 163.099 118.861 163.51C118.263 163.921 117.54 164.126 116.691 164.126ZM117.125 159.282C117.517 159.282 117.862 159.193 118.161 159.016C118.469 158.839 118.707 158.591 118.875 158.274C119.043 157.957 119.127 157.588 119.127 157.168C119.127 156.757 119.043 156.398 118.875 156.09C118.707 155.773 118.469 155.525 118.161 155.348C117.862 155.161 117.517 155.068 117.125 155.068C116.723 155.068 116.373 155.161 116.075 155.348C115.776 155.525 115.538 155.773 115.361 156.09C115.193 156.398 115.109 156.757 115.109 157.168C115.109 157.588 115.193 157.957 115.361 158.274C115.538 158.591 115.776 158.839 116.075 159.016C116.373 159.193 116.723 159.282 117.125 159.282ZM125.043 164.126C124.698 164.126 124.353 164.079 124.007 163.986C123.662 163.893 123.335 163.757 123.027 163.58C122.729 163.403 122.463 163.193 122.229 162.95L122.691 161.956C123.037 162.301 123.41 162.563 123.811 162.74C124.222 162.917 124.637 163.006 125.057 163.006C125.496 163.006 125.888 162.922 126.233 162.754C126.579 162.586 126.868 162.339 127.101 162.012C127.344 161.685 127.526 161.279 127.647 160.794C127.769 160.299 127.829 159.73 127.829 159.086V157.84H127.955C127.899 158.353 127.745 158.801 127.493 159.184C127.241 159.557 126.915 159.847 126.513 160.052C126.121 160.257 125.678 160.36 125.183 160.36C124.605 160.36 124.091 160.225 123.643 159.954C123.205 159.683 122.855 159.315 122.593 158.848C122.341 158.372 122.215 157.831 122.215 157.224C122.215 156.599 122.351 156.043 122.621 155.558C122.901 155.073 123.275 154.695 123.741 154.424C124.217 154.144 124.763 154.004 125.379 154.004C126.173 154.004 126.845 154.195 127.395 154.578C127.946 154.951 128.361 155.502 128.641 156.23C128.931 156.949 129.075 157.817 129.075 158.834C129.075 159.963 128.912 160.925 128.585 161.718C128.268 162.502 127.811 163.099 127.213 163.51C126.616 163.921 125.893 164.126 125.043 164.126ZM125.477 159.282C125.869 159.282 126.215 159.193 126.513 159.016C126.821 158.839 127.059 158.591 127.227 158.274C127.395 157.957 127.479 157.588 127.479 157.168C127.479 156.757 127.395 156.398 127.227 156.09C127.059 155.773 126.821 155.525 126.513 155.348C126.215 155.161 125.869 155.068 125.477 155.068C125.076 155.068 124.726 155.161 124.427 155.348C124.129 155.525 123.891 155.773 123.713 156.09C123.545 156.398 123.461 156.757 123.461 157.168C123.461 157.588 123.545 157.957 123.713 158.274C123.891 158.591 124.129 158.839 124.427 159.016C124.726 159.193 125.076 159.282 125.477 159.282ZM131.282 166.702L130.372 166.352C130.67 165.643 130.913 164.952 131.1 164.28C131.286 163.617 131.426 162.959 131.52 162.306C131.613 161.653 131.66 160.99 131.66 160.318C131.66 159.646 131.613 158.983 131.52 158.33C131.426 157.677 131.286 157.019 131.1 156.356C130.913 155.684 130.67 154.993 130.372 154.284L131.282 153.934C131.888 154.97 132.332 156.02 132.612 157.084C132.892 158.139 133.032 159.217 133.032 160.318C133.032 161.419 132.892 162.502 132.612 163.566C132.332 164.621 131.888 165.666 131.282 166.702ZM142.383 164.126C141.963 164.126 141.548 164.079 141.137 163.986C140.736 163.893 140.358 163.762 140.003 163.594C139.648 163.417 139.34 163.207 139.079 162.964L139.541 161.956C139.989 162.311 140.442 162.577 140.899 162.754C141.366 162.922 141.856 163.006 142.369 163.006C143.032 163.006 143.55 162.824 143.923 162.46C144.306 162.096 144.497 161.611 144.497 161.004C144.497 160.388 144.315 159.884 143.951 159.492C143.587 159.1 143.092 158.904 142.467 158.904C142.01 158.904 141.604 158.997 141.249 159.184C140.894 159.361 140.582 159.646 140.311 160.038H139.387V154.13H145.183V155.236H140.661V158.974H140.297C140.549 158.601 140.885 158.311 141.305 158.106C141.725 157.901 142.196 157.798 142.719 157.798C143.344 157.798 143.881 157.933 144.329 158.204C144.786 158.465 145.141 158.834 145.393 159.31C145.645 159.777 145.771 160.323 145.771 160.948C145.771 161.564 145.631 162.115 145.351 162.6C145.08 163.076 144.693 163.449 144.189 163.72C143.685 163.991 143.083 164.126 142.383 164.126ZM150.735 164.126C150.315 164.126 149.9 164.079 149.489 163.986C149.088 163.893 148.71 163.762 148.355 163.594C148.001 163.417 147.693 163.207 147.431 162.964L147.893 161.956C148.341 162.311 148.794 162.577 149.251 162.754C149.718 162.922 150.208 163.006 150.721 163.006C151.384 163.006 151.902 162.824 152.275 162.46C152.658 162.096 152.849 161.611 152.849 161.004C152.849 160.388 152.667 159.884 152.303 159.492C151.939 159.1 151.445 158.904 150.819 158.904C150.362 158.904 149.956 158.997 149.601 159.184C149.247 159.361 148.934 159.646 148.663 160.038H147.739V154.13H153.535V155.236H149.013V158.974H148.649C148.901 158.601 149.237 158.311 149.657 158.106C150.077 157.901 150.549 157.798 151.071 157.798C151.697 157.798 152.233 157.933 152.681 158.204C153.139 158.465 153.493 158.834 153.745 159.31C153.997 159.777 154.123 160.323 154.123 160.948C154.123 161.564 153.983 162.115 153.703 162.6C153.433 163.076 153.045 163.449 152.541 163.72C152.037 163.991 151.435 164.126 150.735 164.126ZM159.088 164.126C158.668 164.126 158.253 164.079 157.842 163.986C157.441 163.893 157.063 163.762 156.708 163.594C156.353 163.417 156.045 163.207 155.784 162.964L156.246 161.956C156.694 162.311 157.147 162.577 157.604 162.754C158.071 162.922 158.561 163.006 159.074 163.006C159.737 163.006 160.255 162.824 160.628 162.46C161.011 162.096 161.202 161.611 161.202 161.004C161.202 160.388 161.02 159.884 160.656 159.492C160.292 159.1 159.797 158.904 159.172 158.904C158.715 158.904 158.309 158.997 157.954 159.184C157.599 159.361 157.287 159.646 157.016 160.038H156.092V154.13H161.888V155.236H157.366V158.974H157.002C157.254 158.601 157.59 158.311 158.01 158.106C158.43 157.901 158.901 157.798 159.424 157.798C160.049 157.798 160.586 157.933 161.034 158.204C161.491 158.465 161.846 158.834 162.098 159.31C162.35 159.777 162.476 160.323 162.476 160.948C162.476 161.564 162.336 162.115 162.056 162.6C161.785 163.076 161.398 163.449 160.894 163.72C160.39 163.991 159.788 164.126 159.088 164.126ZM164.053 160.794V159.744H168.029V160.794H164.053ZM173.065 164.126C172.626 164.126 172.202 164.084 171.791 164C171.38 163.907 170.993 163.776 170.629 163.608C170.274 163.431 169.962 163.216 169.691 162.964L170.153 161.956C170.601 162.32 171.058 162.586 171.525 162.754C171.992 162.922 172.491 163.006 173.023 163.006C173.48 163.006 173.868 162.941 174.185 162.81C174.502 162.67 174.74 162.469 174.899 162.208C175.067 161.937 175.151 161.615 175.151 161.242C175.151 160.682 174.969 160.262 174.605 159.982C174.241 159.693 173.709 159.548 173.009 159.548H171.525V158.456H172.897C173.308 158.456 173.658 158.386 173.947 158.246C174.236 158.097 174.46 157.891 174.619 157.63C174.787 157.369 174.871 157.051 174.871 156.678C174.871 156.174 174.708 155.791 174.381 155.53C174.054 155.259 173.583 155.124 172.967 155.124C172.463 155.124 171.992 155.217 171.553 155.404C171.124 155.581 170.713 155.857 170.321 156.23L169.859 155.236C170.232 154.844 170.704 154.541 171.273 154.326C171.852 154.111 172.449 154.004 173.065 154.004C173.709 154.004 174.26 154.107 174.717 154.312C175.184 154.517 175.538 154.811 175.781 155.194C176.024 155.567 176.145 156.02 176.145 156.552C176.145 157.159 175.977 157.681 175.641 158.12C175.314 158.549 174.862 158.834 174.283 158.974V158.82C174.74 158.904 175.128 159.058 175.445 159.282C175.772 159.506 176.019 159.791 176.187 160.136C176.355 160.481 176.439 160.878 176.439 161.326C176.439 161.895 176.299 162.395 176.019 162.824C175.748 163.244 175.361 163.566 174.857 163.79C174.353 164.014 173.756 164.126 173.065 164.126ZM179.038 164V162.894H181.278V155.236H181.95L179.514 156.762L178.982 155.796L181.642 154.13H182.58V162.894H184.68V164H179.038ZM190.078 164.126C189.658 164.126 189.243 164.079 188.832 163.986C188.431 163.893 188.053 163.762 187.698 163.594C187.344 163.417 187.036 163.207 186.774 162.964L187.236 161.956C187.684 162.311 188.137 162.577 188.594 162.754C189.061 162.922 189.551 163.006 190.064 163.006C190.727 163.006 191.245 162.824 191.618 162.46C192.001 162.096 192.192 161.611 192.192 161.004C192.192 160.388 192.01 159.884 191.646 159.492C191.282 159.1 190.788 158.904 190.162 158.904C189.705 158.904 189.299 158.997 188.944 159.184C188.59 159.361 188.277 159.646 188.006 160.038H187.082V154.13H192.878V155.236H188.356V158.974H187.992C188.244 158.601 188.58 158.311 189 158.106C189.42 157.901 189.892 157.798 190.414 157.798C191.04 157.798 191.576 157.933 192.024 158.204C192.482 158.465 192.836 158.834 193.088 159.31C193.34 159.777 193.466 160.323 193.466 160.948C193.466 161.564 193.326 162.115 193.046 162.6C192.776 163.076 192.388 163.449 191.884 163.72C191.38 163.991 190.778 164.126 190.078 164.126ZM198.599 164.126C197.815 164.126 197.147 163.935 196.597 163.552C196.046 163.169 195.626 162.619 195.337 161.9C195.047 161.181 194.903 160.313 194.903 159.296C194.903 158.157 195.061 157.196 195.379 156.412C195.705 155.628 196.172 155.031 196.779 154.62C197.385 154.209 198.109 154.004 198.949 154.004C199.285 154.004 199.625 154.051 199.971 154.144C200.316 154.237 200.643 154.373 200.951 154.55C201.259 154.727 201.525 154.933 201.749 155.166L201.287 156.174C200.941 155.819 200.568 155.558 200.167 155.39C199.765 155.213 199.35 155.124 198.921 155.124C198.482 155.124 198.09 155.208 197.745 155.376C197.409 155.544 197.119 155.791 196.877 156.118C196.643 156.445 196.466 156.851 196.345 157.336C196.223 157.821 196.163 158.391 196.163 159.044V160.29H196.023C196.088 159.767 196.242 159.319 196.485 158.946C196.737 158.573 197.063 158.283 197.465 158.078C197.866 157.873 198.309 157.77 198.795 157.77C199.373 157.77 199.887 157.905 200.335 158.176C200.783 158.437 201.133 158.806 201.385 159.282C201.637 159.749 201.763 160.29 201.763 160.906C201.763 161.522 201.627 162.077 201.357 162.572C201.086 163.057 200.713 163.44 200.237 163.72C199.761 163.991 199.215 164.126 198.599 164.126ZM198.515 163.048C198.916 163.048 199.266 162.959 199.565 162.782C199.863 162.605 200.097 162.357 200.265 162.04C200.442 161.723 200.531 161.359 200.531 160.948C200.531 160.537 200.442 160.173 200.265 159.856C200.097 159.539 199.863 159.291 199.565 159.114C199.266 158.937 198.916 158.848 198.515 158.848C198.113 158.848 197.763 158.937 197.465 159.114C197.166 159.291 196.928 159.539 196.751 159.856C196.583 160.173 196.499 160.537 196.499 160.948C196.499 161.359 196.583 161.723 196.751 162.04C196.928 162.357 197.166 162.605 197.465 162.782C197.773 162.959 198.123 163.048 198.515 163.048Z" fill="#445371"/>
<rect x="288" y="134.5" width="74" height="28" rx="6" fill="#FF003D" fill-opacity="0.3"/>
<path d="M296.996 145.124H299.888C300.648 145.124 301.236 145.32 301.652 145.712C302.076 146.104 302.288 146.64 302.288 147.32C302.288 147.808 302.168 148.196 301.928 148.484C301.688 148.772 301.364 148.976 300.956 149.096V149.156C301.444 149.268 301.836 149.484 302.132 149.804C302.428 150.116 302.576 150.56 302.576 151.136C302.576 151.48 302.52 151.796 302.408 152.084C302.296 152.372 302.136 152.624 301.928 152.84C301.72 153.048 301.468 153.212 301.172 153.332C300.884 153.444 300.564 153.5 300.212 153.5H296.996V145.124ZM299.804 152.468C300.252 152.468 300.596 152.376 300.836 152.192C301.076 152.008 301.196 151.712 301.196 151.304V150.872C301.196 150.464 301.076 150.168 300.836 149.984C300.596 149.8 300.252 149.708 299.804 149.708H298.316V152.468H299.804ZM299.612 148.724C300.036 148.724 300.356 148.644 300.572 148.484C300.796 148.316 300.908 148.04 300.908 147.656V147.224C300.908 146.84 300.796 146.568 300.572 146.408C300.356 146.24 300.036 146.156 299.612 146.156H298.316V148.724H299.612ZM308.307 146.252H306.387V147.74C306.387 148.524 306.363 149.204 306.315 149.78C306.267 150.356 306.195 150.852 306.099 151.268C306.003 151.676 305.883 152.016 305.739 152.288C305.603 152.552 305.447 152.772 305.271 152.948C305.063 153.148 304.839 153.292 304.599 153.38C304.359 153.46 304.063 153.5 303.711 153.5H303.351V152.372H304.167C304.327 152.212 304.467 152.012 304.587 151.772C304.707 151.532 304.803 151.228 304.875 150.86C304.955 150.492 305.015 150.044 305.055 149.516C305.095 148.98 305.115 148.336 305.115 147.584V145.124H309.651V153.5H308.307V146.252ZM316.055 153.5L315.419 151.268H312.755L312.119 153.5H310.751L313.199 145.124H315.035L317.483 153.5H316.055ZM314.135 146.48H314.039L313.007 150.152H315.167L314.135 146.48ZM317.922 152.372H318.582C318.742 152.156 318.886 151.904 319.014 151.616C319.142 151.328 319.25 150.988 319.338 150.596C319.434 150.196 319.506 149.744 319.554 149.24C319.602 148.736 319.626 148.16 319.626 147.512V145.124H323.814V152.372H324.714V155.3H323.478V153.5H319.17V155.3H317.922V152.372ZM322.494 146.252H320.862V147.668C320.862 148.9 320.782 149.892 320.622 150.644C320.47 151.388 320.266 151.964 320.01 152.372H322.494V146.252ZM326.053 153.5V145.124H331.297V146.252H327.397V148.688H331.153V149.816H327.397V152.372H331.297V153.5H326.053ZM337.329 146.252H335.409V147.74C335.409 148.524 335.385 149.204 335.337 149.78C335.289 150.356 335.217 150.852 335.121 151.268C335.025 151.676 334.905 152.016 334.761 152.288C334.625 152.552 334.469 152.772 334.293 152.948C334.085 153.148 333.861 153.292 333.621 153.38C333.381 153.46 333.085 153.5 332.733 153.5H332.373V152.372H333.189C333.349 152.212 333.489 152.012 333.609 151.772C333.729 151.532 333.825 151.228 333.897 150.86C333.977 150.492 334.037 150.044 334.077 149.516C334.117 148.98 334.137 148.336 334.137 147.584V145.124H338.673V153.5H337.329V146.252ZM340.564 153.5V145.124H345.808V146.252H341.908V148.688H345.664V149.816H341.908V152.372H345.808V153.5H340.564ZM352.463 153.5H347.579V145.124H348.923V152.372H351.467V145.124H352.811V152.372H353.711V155.3H352.463V153.5Z" fill="#BD0935"/>
<circle cx="44" cy="205.5" r="20" fill="url(#pattern3)"/>
<path d="M86.368 201.144C85.2267 201.144 84.2507 200.909 83.44 200.44C82.6293 199.971 82.0053 199.304 81.568 198.44C81.1413 197.565 80.928 196.536 80.928 195.352C80.928 194.168 81.1413 193.144 81.568 192.28C82.0053 191.416 82.6293 190.749 83.44 190.28C84.2507 189.811 85.2267 189.576 86.368 189.576C87.136 189.576 87.8507 189.699 88.512 189.944C89.184 190.179 89.744 190.52 90.192 190.968L89.616 192.296C89.1253 191.859 88.6187 191.544 88.096 191.352C87.584 191.149 87.024 191.048 86.416 191.048C85.2 191.048 84.272 191.421 83.632 192.168C82.992 192.915 82.672 193.976 82.672 195.352C82.672 196.728 82.992 197.795 83.632 198.552C84.272 199.299 85.2 199.672 86.416 199.672C87.024 199.672 87.584 199.576 88.096 199.384C88.6187 199.181 89.1253 198.861 89.616 198.424L90.192 199.752C89.744 200.2 89.184 200.547 88.512 200.792C87.8507 201.027 87.136 201.144 86.368 201.144ZM95.5043 201.144C94.6509 201.144 93.9149 200.984 93.2962 200.664C92.6882 200.333 92.2136 199.869 91.8722 199.272C91.5416 198.664 91.3762 197.944 91.3762 197.112C91.3762 196.301 91.5416 195.592 91.8722 194.984C92.2029 194.376 92.6562 193.901 93.2322 193.56C93.8082 193.219 94.4642 193.048 95.2002 193.048C95.9256 193.048 96.5443 193.208 97.0563 193.528C97.5789 193.837 97.9789 194.28 98.2562 194.856C98.5336 195.432 98.6722 196.12 98.6722 196.92V197.464H92.6562V196.472H97.5842L97.3123 196.696C97.3123 195.896 97.1363 195.277 96.7842 194.84C96.4322 194.403 95.9256 194.184 95.2642 194.184C94.7629 194.184 94.3362 194.301 93.9842 194.536C93.6429 194.771 93.3816 195.096 93.2002 195.512C93.0189 195.928 92.9282 196.413 92.9282 196.968V197.064C92.9282 197.683 93.0242 198.205 93.2162 198.632C93.4189 199.048 93.7122 199.363 94.0962 199.576C94.4802 199.789 94.9549 199.896 95.5202 199.896C95.9682 199.896 96.4056 199.827 96.8323 199.688C97.2696 199.539 97.6802 199.309 98.0642 199L98.5443 200.12C98.1923 200.44 97.7389 200.691 97.1842 200.872C96.6296 201.053 96.0696 201.144 95.5043 201.144ZM100.206 201.208L99.6619 199.928C100.014 199.789 100.307 199.608 100.542 199.384C100.787 199.16 100.979 198.877 101.118 198.536C101.257 198.184 101.358 197.752 101.422 197.24C101.486 196.728 101.518 196.109 101.518 195.384V193.192H107.47V201H105.854V194.488H103.022V195.432C103.022 196.317 102.969 197.091 102.862 197.752C102.755 198.403 102.59 198.957 102.366 199.416C102.142 199.875 101.849 200.248 101.486 200.536C101.134 200.824 100.707 201.048 100.206 201.208ZM113.533 201.144C112.68 201.144 111.944 200.984 111.325 200.664C110.717 200.333 110.243 199.869 109.901 199.272C109.571 198.664 109.405 197.944 109.405 197.112C109.405 196.301 109.571 195.592 109.901 194.984C110.232 194.376 110.685 193.901 111.261 193.56C111.837 193.219 112.493 193.048 113.229 193.048C113.955 193.048 114.573 193.208 115.085 193.528C115.608 193.837 116.008 194.28 116.285 194.856C116.563 195.432 116.701 196.12 116.701 196.92V197.464H110.685V196.472H115.613L115.341 196.696C115.341 195.896 115.165 195.277 114.813 194.84C114.461 194.403 113.955 194.184 113.293 194.184C112.792 194.184 112.365 194.301 112.013 194.536C111.672 194.771 111.411 195.096 111.229 195.512C111.048 195.928 110.957 196.413 110.957 196.968V197.064C110.957 197.683 111.053 198.205 111.245 198.632C111.448 199.048 111.741 199.363 112.125 199.576C112.509 199.789 112.984 199.896 113.549 199.896C113.997 199.896 114.435 199.827 114.861 199.688C115.299 199.539 115.709 199.309 116.093 199L116.573 200.12C116.221 200.44 115.768 200.691 115.213 200.872C114.659 201.053 114.099 201.144 113.533 201.144ZM121.291 201.144C120.608 201.144 119.963 201.059 119.355 200.888C118.747 200.717 118.251 200.477 117.867 200.168L118.331 199.08C118.704 199.368 119.147 199.587 119.659 199.736C120.182 199.875 120.715 199.944 121.259 199.944C121.974 199.944 122.491 199.848 122.811 199.656C123.131 199.464 123.291 199.171 123.291 198.776C123.291 198.413 123.163 198.136 122.907 197.944C122.662 197.741 122.299 197.64 121.819 197.64H119.867V196.456H121.643C122.07 196.456 122.406 196.365 122.651 196.184C122.896 195.992 123.019 195.725 123.019 195.384C123.019 195.032 122.875 194.755 122.587 194.552C122.31 194.349 121.846 194.248 121.195 194.248C120.662 194.248 120.171 194.317 119.723 194.456C119.275 194.584 118.848 194.781 118.443 195.048L117.979 193.976C118.416 193.667 118.928 193.437 119.515 193.288C120.102 193.128 120.742 193.048 121.435 193.048C122.448 193.048 123.211 193.245 123.723 193.64C124.246 194.024 124.507 194.557 124.507 195.24C124.507 195.741 124.336 196.163 123.995 196.504C123.664 196.835 123.222 197.032 122.667 197.096V196.888C123.104 196.899 123.478 196.989 123.787 197.16C124.107 197.32 124.352 197.544 124.523 197.832C124.704 198.12 124.795 198.451 124.795 198.824C124.795 199.528 124.496 200.093 123.899 200.52C123.302 200.936 122.432 201.144 121.291 201.144ZM126.632 201V193.192H128.248V196.344H132.136V193.192H133.752V201H132.136V197.624H128.248V201H126.632ZM139.796 201.144C138.942 201.144 138.206 200.984 137.588 200.664C136.98 200.333 136.505 199.869 136.164 199.272C135.833 198.664 135.668 197.944 135.668 197.112C135.668 196.301 135.833 195.592 136.164 194.984C136.494 194.376 136.948 193.901 137.524 193.56C138.1 193.219 138.756 193.048 139.492 193.048C140.217 193.048 140.836 193.208 141.348 193.528C141.87 193.837 142.27 194.28 142.548 194.856C142.825 195.432 142.964 196.12 142.964 196.92V197.464H136.948V196.472H141.876L141.604 196.696C141.604 195.896 141.428 195.277 141.076 194.84C140.724 194.403 140.217 194.184 139.556 194.184C139.054 194.184 138.628 194.301 138.276 194.536C137.934 194.771 137.673 195.096 137.492 195.512C137.31 195.928 137.22 196.413 137.22 196.968V197.064C137.22 197.683 137.316 198.205 137.508 198.632C137.71 199.048 138.004 199.363 138.388 199.576C138.772 199.789 139.246 199.896 139.812 199.896C140.26 199.896 140.697 199.827 141.124 199.688C141.561 199.539 141.972 199.309 142.356 199L142.836 200.12C142.484 200.44 142.03 200.691 141.476 200.872C140.921 201.053 140.361 201.144 139.796 201.144ZM144.833 201V193.192H148.817C149.457 193.192 149.98 193.272 150.385 193.432C150.801 193.592 151.105 193.827 151.297 194.136C151.489 194.435 151.585 194.803 151.585 195.24C151.585 195.741 151.414 196.163 151.073 196.504C150.732 196.835 150.284 197.032 149.729 197.096V196.888C150.177 196.899 150.556 196.989 150.865 197.16C151.185 197.331 151.425 197.56 151.585 197.848C151.756 198.125 151.841 198.451 151.841 198.824C151.841 199.496 151.59 200.029 151.089 200.424C150.588 200.808 149.873 201 148.945 201H144.833ZM146.353 199.96H148.849C149.329 199.96 149.697 199.859 149.953 199.656C150.22 199.443 150.353 199.139 150.353 198.744C150.353 198.349 150.22 198.051 149.953 197.848C149.697 197.645 149.329 197.544 148.849 197.544H146.353V199.96ZM146.353 196.504H148.705C149.142 196.504 149.478 196.403 149.713 196.2C149.958 195.997 150.081 195.72 150.081 195.368C150.081 195.005 149.958 194.728 149.713 194.536C149.478 194.344 149.142 194.248 148.705 194.248H146.353V196.504ZM156.791 201L161.815 189.72H163.191L168.231 201H166.535L165.159 197.8L165.911 198.248H159.095L159.831 197.8L158.471 201H156.791ZM162.487 191.56L160.071 197.288L159.671 196.904H165.319L164.951 197.288L162.519 191.56H162.487ZM169.228 201.208L168.684 199.928C169.036 199.789 169.329 199.608 169.564 199.384C169.809 199.16 170.001 198.877 170.14 198.536C170.279 198.184 170.38 197.752 170.444 197.24C170.508 196.728 170.54 196.109 170.54 195.384V193.192H176.492V201H174.876V194.488H172.044V195.432C172.044 196.317 171.991 197.091 171.884 197.752C171.777 198.403 171.612 198.957 171.388 199.416C171.164 199.875 170.871 200.248 170.508 200.536C170.156 200.824 169.729 201.048 169.228 201.208ZM182.556 201.144C181.702 201.144 180.966 200.984 180.348 200.664C179.74 200.333 179.265 199.869 178.924 199.272C178.593 198.664 178.428 197.944 178.428 197.112C178.428 196.301 178.593 195.592 178.924 194.984C179.254 194.376 179.708 193.901 180.284 193.56C180.86 193.219 181.516 193.048 182.252 193.048C182.977 193.048 183.596 193.208 184.108 193.528C184.63 193.837 185.03 194.28 185.308 194.856C185.585 195.432 185.724 196.12 185.724 196.92V197.464H179.708V196.472H184.636L184.364 196.696C184.364 195.896 184.188 195.277 183.836 194.84C183.484 194.403 182.977 194.184 182.316 194.184C181.814 194.184 181.388 194.301 181.036 194.536C180.694 194.771 180.433 195.096 180.252 195.512C180.07 195.928 179.98 196.413 179.98 196.968V197.064C179.98 197.683 180.076 198.205 180.268 198.632C180.47 199.048 180.764 199.363 181.148 199.576C181.532 199.789 182.006 199.896 182.572 199.896C183.02 199.896 183.457 199.827 183.884 199.688C184.321 199.539 184.732 199.309 185.116 199L185.596 200.12C185.244 200.44 184.79 200.691 184.236 200.872C183.681 201.053 183.121 201.144 182.556 201.144ZM187.593 201V193.192H189.209V196.36H190.521L192.937 193.192H194.697L191.801 197.048L191.401 196.536C191.7 196.568 191.961 196.643 192.185 196.76C192.409 196.877 192.617 197.053 192.809 197.288C193.012 197.523 193.225 197.832 193.449 198.216L195.065 201H193.337L191.977 198.664C191.817 198.387 191.657 198.173 191.497 198.024C191.348 197.875 191.182 197.773 191.001 197.72C190.82 197.656 190.59 197.624 190.313 197.624H189.209V201H187.593ZM199.657 201.144C198.857 201.144 198.164 200.979 197.577 200.648C197.001 200.307 196.553 199.832 196.233 199.224C195.913 198.605 195.753 197.88 195.753 197.048C195.753 196.227 195.913 195.517 196.233 194.92C196.553 194.323 197.001 193.864 197.577 193.544C198.164 193.213 198.857 193.048 199.657 193.048C200.148 193.048 200.633 193.133 201.113 193.304C201.593 193.464 201.988 193.699 202.297 194.008L201.785 195.144C201.497 194.867 201.172 194.664 200.809 194.536C200.447 194.397 200.105 194.328 199.785 194.328C199.028 194.328 198.441 194.568 198.025 195.048C197.62 195.517 197.417 196.189 197.417 197.064C197.417 197.939 197.62 198.627 198.025 199.128C198.441 199.619 199.028 199.864 199.785 199.864C200.105 199.864 200.447 199.8 200.809 199.672C201.172 199.533 201.497 199.325 201.785 199.048L202.297 200.2C201.988 200.488 201.588 200.717 201.097 200.888C200.617 201.059 200.137 201.144 199.657 201.144ZM206.322 201.144C205.778 201.144 205.287 201.037 204.85 200.824C204.423 200.611 204.087 200.323 203.842 199.96C203.596 199.597 203.474 199.187 203.474 198.728C203.474 198.152 203.618 197.699 203.906 197.368C204.204 197.027 204.69 196.787 205.362 196.648C206.044 196.499 206.962 196.424 208.114 196.424H208.866V197.416H208.13C207.554 197.416 207.068 197.437 206.674 197.48C206.279 197.523 205.964 197.592 205.73 197.688C205.495 197.773 205.324 197.896 205.218 198.056C205.122 198.216 205.074 198.408 205.074 198.632C205.074 199.037 205.212 199.368 205.49 199.624C205.767 199.869 206.151 199.992 206.642 199.992C207.036 199.992 207.383 199.901 207.682 199.72C207.98 199.528 208.215 199.272 208.386 198.952C208.567 198.632 208.658 198.264 208.658 197.848V196.008C208.658 195.4 208.53 194.963 208.274 194.696C208.018 194.429 207.596 194.296 207.01 194.296C206.562 194.296 206.114 194.365 205.666 194.504C205.218 194.632 204.759 194.84 204.29 195.128L203.794 193.992C204.071 193.8 204.391 193.635 204.754 193.496C205.116 193.357 205.495 193.251 205.89 193.176C206.295 193.091 206.684 193.048 207.058 193.048C207.772 193.048 208.359 193.16 208.818 193.384C209.287 193.608 209.634 193.949 209.858 194.408C210.082 194.867 210.194 195.459 210.194 196.184V201H208.674V199.256H208.818C208.732 199.651 208.572 199.992 208.338 200.28C208.114 200.557 207.831 200.771 207.49 200.92C207.148 201.069 206.759 201.144 206.322 201.144ZM212.543 201V193.192H214.159V196.344H218.047V193.192H219.663V201H218.047V197.624H214.159V201H212.543ZM221.226 203.08V199.72H222.09C222.325 199.368 222.511 198.989 222.65 198.584C222.789 198.179 222.89 197.72 222.954 197.208C223.018 196.696 223.05 196.115 223.05 195.464V193.192H228.826V199.72H230.074V203.08H228.698V201H222.618V203.08H221.226ZM223.594 199.72H227.29V194.456H224.458V195.8C224.458 196.536 224.383 197.251 224.234 197.944C224.085 198.637 223.871 199.229 223.594 199.72ZM231.65 203.88V193.192H233.234V194.952H233.058C233.229 194.376 233.565 193.917 234.066 193.576C234.568 193.224 235.16 193.048 235.842 193.048C236.536 193.048 237.138 193.213 237.65 193.544C238.173 193.875 238.573 194.339 238.85 194.936C239.138 195.533 239.282 196.253 239.282 197.096C239.282 197.917 239.138 198.637 238.85 199.256C238.573 199.864 238.178 200.333 237.666 200.664C237.154 200.984 236.546 201.144 235.842 201.144C235.17 201.144 234.584 200.973 234.082 200.632C233.581 200.291 233.245 199.837 233.074 199.272H233.266V203.88H231.65ZM235.442 199.896C236.114 199.896 236.648 199.656 237.042 199.176C237.448 198.696 237.65 198.003 237.65 197.096C237.65 196.179 237.448 195.485 237.042 195.016C236.648 194.547 236.114 194.312 235.442 194.312C234.781 194.312 234.248 194.547 233.842 195.016C233.437 195.485 233.234 196.179 233.234 197.096C233.234 198.003 233.437 198.696 233.842 199.176C234.248 199.656 234.781 199.896 235.442 199.896Z" fill="black"/>
<path d="M83.71 220.44V217.458H80.784V216.506H83.71V213.608H84.69V216.506H87.616V217.458H84.69V220.44H83.71ZM89.8365 221L94.6665 211.718V212.236H89.2485V211.13H95.8565V212.096L91.2785 221H89.8365ZM103.478 223.702C102.862 222.666 102.414 221.621 102.134 220.566C101.863 219.502 101.728 218.419 101.728 217.318C101.728 216.207 101.863 215.125 102.134 214.07C102.414 213.015 102.862 211.97 103.478 210.934L104.374 211.284C104.084 211.975 103.842 212.656 103.646 213.328C103.45 213.991 103.305 214.653 103.212 215.316C103.128 215.969 103.086 216.637 103.086 217.318C103.086 217.999 103.128 218.671 103.212 219.334C103.305 219.987 103.45 220.645 103.646 221.308C103.842 221.971 104.084 222.652 104.374 223.352L103.478 223.702ZM108.338 221.126C107.993 221.126 107.648 221.079 107.302 220.986C106.957 220.893 106.63 220.757 106.322 220.58C106.024 220.403 105.758 220.193 105.524 219.95L105.986 218.956C106.332 219.301 106.705 219.563 107.106 219.74C107.517 219.917 107.932 220.006 108.352 220.006C108.791 220.006 109.183 219.922 109.528 219.754C109.874 219.586 110.163 219.339 110.396 219.012C110.639 218.685 110.821 218.279 110.942 217.794C111.064 217.299 111.124 216.73 111.124 216.086V214.84H111.25C111.194 215.353 111.04 215.801 110.788 216.184C110.536 216.557 110.21 216.847 109.808 217.052C109.416 217.257 108.973 217.36 108.478 217.36C107.9 217.36 107.386 217.225 106.938 216.954C106.5 216.683 106.15 216.315 105.888 215.848C105.636 215.372 105.51 214.831 105.51 214.224C105.51 213.599 105.646 213.043 105.916 212.558C106.196 212.073 106.57 211.695 107.036 211.424C107.512 211.144 108.058 211.004 108.674 211.004C109.468 211.004 110.14 211.195 110.69 211.578C111.241 211.951 111.656 212.502 111.936 213.23C112.226 213.949 112.37 214.817 112.37 215.834C112.37 216.963 112.207 217.925 111.88 218.718C111.563 219.502 111.106 220.099 110.508 220.51C109.911 220.921 109.188 221.126 108.338 221.126ZM108.772 216.282C109.164 216.282 109.51 216.193 109.808 216.016C110.116 215.839 110.354 215.591 110.522 215.274C110.69 214.957 110.774 214.588 110.774 214.168C110.774 213.757 110.69 213.398 110.522 213.09C110.354 212.773 110.116 212.525 109.808 212.348C109.51 212.161 109.164 212.068 108.772 212.068C108.371 212.068 108.021 212.161 107.722 212.348C107.424 212.525 107.186 212.773 107.008 213.09C106.84 213.398 106.756 213.757 106.756 214.168C106.756 214.588 106.84 214.957 107.008 215.274C107.186 215.591 107.424 215.839 107.722 216.016C108.021 216.193 108.371 216.282 108.772 216.282ZM116.691 221.126C116.345 221.126 116 221.079 115.655 220.986C115.309 220.893 114.983 220.757 114.675 220.58C114.376 220.403 114.11 220.193 113.877 219.95L114.339 218.956C114.684 219.301 115.057 219.563 115.459 219.74C115.869 219.917 116.285 220.006 116.705 220.006C117.143 220.006 117.535 219.922 117.881 219.754C118.226 219.586 118.515 219.339 118.749 219.012C118.991 218.685 119.173 218.279 119.295 217.794C119.416 217.299 119.477 216.73 119.477 216.086V214.84H119.603C119.547 215.353 119.393 215.801 119.141 216.184C118.889 216.557 118.562 216.847 118.161 217.052C117.769 217.257 117.325 217.36 116.831 217.36C116.252 217.36 115.739 217.225 115.291 216.954C114.852 216.683 114.502 216.315 114.241 215.848C113.989 215.372 113.863 214.831 113.863 214.224C113.863 213.599 113.998 213.043 114.269 212.558C114.549 212.073 114.922 211.695 115.389 211.424C115.865 211.144 116.411 211.004 117.027 211.004C117.82 211.004 118.492 211.195 119.043 211.578C119.593 211.951 120.009 212.502 120.289 213.23C120.578 213.949 120.723 214.817 120.723 215.834C120.723 216.963 120.559 217.925 120.233 218.718C119.915 219.502 119.458 220.099 118.861 220.51C118.263 220.921 117.54 221.126 116.691 221.126ZM117.125 216.282C117.517 216.282 117.862 216.193 118.161 216.016C118.469 215.839 118.707 215.591 118.875 215.274C119.043 214.957 119.127 214.588 119.127 214.168C119.127 213.757 119.043 213.398 118.875 213.09C118.707 212.773 118.469 212.525 118.161 212.348C117.862 212.161 117.517 212.068 117.125 212.068C116.723 212.068 116.373 212.161 116.075 212.348C115.776 212.525 115.538 212.773 115.361 213.09C115.193 213.398 115.109 213.757 115.109 214.168C115.109 214.588 115.193 214.957 115.361 215.274C115.538 215.591 115.776 215.839 116.075 216.016C116.373 216.193 116.723 216.282 117.125 216.282ZM125.043 221.126C124.698 221.126 124.353 221.079 124.007 220.986C123.662 220.893 123.335 220.757 123.027 220.58C122.729 220.403 122.463 220.193 122.229 219.95L122.691 218.956C123.037 219.301 123.41 219.563 123.811 219.74C124.222 219.917 124.637 220.006 125.057 220.006C125.496 220.006 125.888 219.922 126.233 219.754C126.579 219.586 126.868 219.339 127.101 219.012C127.344 218.685 127.526 218.279 127.647 217.794C127.769 217.299 127.829 216.73 127.829 216.086V214.84H127.955C127.899 215.353 127.745 215.801 127.493 216.184C127.241 216.557 126.915 216.847 126.513 217.052C126.121 217.257 125.678 217.36 125.183 217.36C124.605 217.36 124.091 217.225 123.643 216.954C123.205 216.683 122.855 216.315 122.593 215.848C122.341 215.372 122.215 214.831 122.215 214.224C122.215 213.599 122.351 213.043 122.621 212.558C122.901 212.073 123.275 211.695 123.741 211.424C124.217 211.144 124.763 211.004 125.379 211.004C126.173 211.004 126.845 211.195 127.395 211.578C127.946 211.951 128.361 212.502 128.641 213.23C128.931 213.949 129.075 214.817 129.075 215.834C129.075 216.963 128.912 217.925 128.585 218.718C128.268 219.502 127.811 220.099 127.213 220.51C126.616 220.921 125.893 221.126 125.043 221.126ZM125.477 216.282C125.869 216.282 126.215 216.193 126.513 216.016C126.821 215.839 127.059 215.591 127.227 215.274C127.395 214.957 127.479 214.588 127.479 214.168C127.479 213.757 127.395 213.398 127.227 213.09C127.059 212.773 126.821 212.525 126.513 212.348C126.215 212.161 125.869 212.068 125.477 212.068C125.076 212.068 124.726 212.161 124.427 212.348C124.129 212.525 123.891 212.773 123.713 213.09C123.545 213.398 123.461 213.757 123.461 214.168C123.461 214.588 123.545 214.957 123.713 215.274C123.891 215.591 124.129 215.839 124.427 216.016C124.726 216.193 125.076 216.282 125.477 216.282ZM131.282 223.702L130.372 223.352C130.67 222.643 130.913 221.952 131.1 221.28C131.286 220.617 131.426 219.959 131.52 219.306C131.613 218.653 131.66 217.99 131.66 217.318C131.66 216.646 131.613 215.983 131.52 215.33C131.426 214.677 131.286 214.019 131.1 213.356C130.913 212.684 130.67 211.993 130.372 211.284L131.282 210.934C131.888 211.97 132.332 213.02 132.612 214.084C132.892 215.139 133.032 216.217 133.032 217.318C133.032 218.419 132.892 219.502 132.612 220.566C132.332 221.621 131.888 222.666 131.282 223.702ZM142.383 221.126C141.963 221.126 141.548 221.079 141.137 220.986C140.736 220.893 140.358 220.762 140.003 220.594C139.648 220.417 139.34 220.207 139.079 219.964L139.541 218.956C139.989 219.311 140.442 219.577 140.899 219.754C141.366 219.922 141.856 220.006 142.369 220.006C143.032 220.006 143.55 219.824 143.923 219.46C144.306 219.096 144.497 218.611 144.497 218.004C144.497 217.388 144.315 216.884 143.951 216.492C143.587 216.1 143.092 215.904 142.467 215.904C142.01 215.904 141.604 215.997 141.249 216.184C140.894 216.361 140.582 216.646 140.311 217.038H139.387V211.13H145.183V212.236H140.661V215.974H140.297C140.549 215.601 140.885 215.311 141.305 215.106C141.725 214.901 142.196 214.798 142.719 214.798C143.344 214.798 143.881 214.933 144.329 215.204C144.786 215.465 145.141 215.834 145.393 216.31C145.645 216.777 145.771 217.323 145.771 217.948C145.771 218.564 145.631 219.115 145.351 219.6C145.08 220.076 144.693 220.449 144.189 220.72C143.685 220.991 143.083 221.126 142.383 221.126ZM150.735 221.126C150.315 221.126 149.9 221.079 149.489 220.986C149.088 220.893 148.71 220.762 148.355 220.594C148.001 220.417 147.693 220.207 147.431 219.964L147.893 218.956C148.341 219.311 148.794 219.577 149.251 219.754C149.718 219.922 150.208 220.006 150.721 220.006C151.384 220.006 151.902 219.824 152.275 219.46C152.658 219.096 152.849 218.611 152.849 218.004C152.849 217.388 152.667 216.884 152.303 216.492C151.939 216.1 151.445 215.904 150.819 215.904C150.362 215.904 149.956 215.997 149.601 216.184C149.247 216.361 148.934 216.646 148.663 217.038H147.739V211.13H153.535V212.236H149.013V215.974H148.649C148.901 215.601 149.237 215.311 149.657 215.106C150.077 214.901 150.549 214.798 151.071 214.798C151.697 214.798 152.233 214.933 152.681 215.204C153.139 215.465 153.493 215.834 153.745 216.31C153.997 216.777 154.123 217.323 154.123 217.948C154.123 218.564 153.983 219.115 153.703 219.6C153.433 220.076 153.045 220.449 152.541 220.72C152.037 220.991 151.435 221.126 150.735 221.126ZM159.088 221.126C158.668 221.126 158.253 221.079 157.842 220.986C157.441 220.893 157.063 220.762 156.708 220.594C156.353 220.417 156.045 220.207 155.784 219.964L156.246 218.956C156.694 219.311 157.147 219.577 157.604 219.754C158.071 219.922 158.561 220.006 159.074 220.006C159.737 220.006 160.255 219.824 160.628 219.46C161.011 219.096 161.202 218.611 161.202 218.004C161.202 217.388 161.02 216.884 160.656 216.492C160.292 216.1 159.797 215.904 159.172 215.904C158.715 215.904 158.309 215.997 157.954 216.184C157.599 216.361 157.287 216.646 157.016 217.038H156.092V211.13H161.888V212.236H157.366V215.974H157.002C157.254 215.601 157.59 215.311 158.01 215.106C158.43 214.901 158.901 214.798 159.424 214.798C160.049 214.798 160.586 214.933 161.034 215.204C161.491 215.465 161.846 215.834 162.098 216.31C162.35 216.777 162.476 217.323 162.476 217.948C162.476 218.564 162.336 219.115 162.056 219.6C161.785 220.076 161.398 220.449 160.894 220.72C160.39 220.991 159.788 221.126 159.088 221.126ZM164.053 217.794V216.744H168.029V217.794H164.053ZM173.065 221.126C172.626 221.126 172.202 221.084 171.791 221C171.38 220.907 170.993 220.776 170.629 220.608C170.274 220.431 169.962 220.216 169.691 219.964L170.153 218.956C170.601 219.32 171.058 219.586 171.525 219.754C171.992 219.922 172.491 220.006 173.023 220.006C173.48 220.006 173.868 219.941 174.185 219.81C174.502 219.67 174.74 219.469 174.899 219.208C175.067 218.937 175.151 218.615 175.151 218.242C175.151 217.682 174.969 217.262 174.605 216.982C174.241 216.693 173.709 216.548 173.009 216.548H171.525V215.456H172.897C173.308 215.456 173.658 215.386 173.947 215.246C174.236 215.097 174.46 214.891 174.619 214.63C174.787 214.369 174.871 214.051 174.871 213.678C174.871 213.174 174.708 212.791 174.381 212.53C174.054 212.259 173.583 212.124 172.967 212.124C172.463 212.124 171.992 212.217 171.553 212.404C171.124 212.581 170.713 212.857 170.321 213.23L169.859 212.236C170.232 211.844 170.704 211.541 171.273 211.326C171.852 211.111 172.449 211.004 173.065 211.004C173.709 211.004 174.26 211.107 174.717 211.312C175.184 211.517 175.538 211.811 175.781 212.194C176.024 212.567 176.145 213.02 176.145 213.552C176.145 214.159 175.977 214.681 175.641 215.12C175.314 215.549 174.862 215.834 174.283 215.974V215.82C174.74 215.904 175.128 216.058 175.445 216.282C175.772 216.506 176.019 216.791 176.187 217.136C176.355 217.481 176.439 217.878 176.439 218.326C176.439 218.895 176.299 219.395 176.019 219.824C175.748 220.244 175.361 220.566 174.857 220.79C174.353 221.014 173.756 221.126 173.065 221.126ZM179.038 221V219.894H181.278V212.236H181.95L179.514 213.762L178.982 212.796L181.642 211.13H182.58V219.894H184.68V221H179.038ZM190.078 221.126C189.658 221.126 189.243 221.079 188.832 220.986C188.431 220.893 188.053 220.762 187.698 220.594C187.344 220.417 187.036 220.207 186.774 219.964L187.236 218.956C187.684 219.311 188.137 219.577 188.594 219.754C189.061 219.922 189.551 220.006 190.064 220.006C190.727 220.006 191.245 219.824 191.618 219.46C192.001 219.096 192.192 218.611 192.192 218.004C192.192 217.388 192.01 216.884 191.646 216.492C191.282 216.1 190.788 215.904 190.162 215.904C189.705 215.904 189.299 215.997 188.944 216.184C188.59 216.361 188.277 216.646 188.006 217.038H187.082V211.13H192.878V212.236H188.356V215.974H187.992C188.244 215.601 188.58 215.311 189 215.106C189.42 214.901 189.892 214.798 190.414 214.798C191.04 214.798 191.576 214.933 192.024 215.204C192.482 215.465 192.836 215.834 193.088 216.31C193.34 216.777 193.466 217.323 193.466 217.948C193.466 218.564 193.326 219.115 193.046 219.6C192.776 220.076 192.388 220.449 191.884 220.72C191.38 220.991 190.778 221.126 190.078 221.126ZM198.599 221.126C197.815 221.126 197.147 220.935 196.597 220.552C196.046 220.169 195.626 219.619 195.337 218.9C195.047 218.181 194.903 217.313 194.903 216.296C194.903 215.157 195.061 214.196 195.379 213.412C195.705 212.628 196.172 212.031 196.779 211.62C197.385 211.209 198.109 211.004 198.949 211.004C199.285 211.004 199.625 211.051 199.971 211.144C200.316 211.237 200.643 211.373 200.951 211.55C201.259 211.727 201.525 211.933 201.749 212.166L201.287 213.174C200.941 212.819 200.568 212.558 200.167 212.39C199.765 212.213 199.35 212.124 198.921 212.124C198.482 212.124 198.09 212.208 197.745 212.376C197.409 212.544 197.119 212.791 196.877 213.118C196.643 213.445 196.466 213.851 196.345 214.336C196.223 214.821 196.163 215.391 196.163 216.044V217.29H196.023C196.088 216.767 196.242 216.319 196.485 215.946C196.737 215.573 197.063 215.283 197.465 215.078C197.866 214.873 198.309 214.77 198.795 214.77C199.373 214.77 199.887 214.905 200.335 215.176C200.783 215.437 201.133 215.806 201.385 216.282C201.637 216.749 201.763 217.29 201.763 217.906C201.763 218.522 201.627 219.077 201.357 219.572C201.086 220.057 200.713 220.44 200.237 220.72C199.761 220.991 199.215 221.126 198.599 221.126ZM198.515 220.048C198.916 220.048 199.266 219.959 199.565 219.782C199.863 219.605 200.097 219.357 200.265 219.04C200.442 218.723 200.531 218.359 200.531 217.948C200.531 217.537 200.442 217.173 200.265 216.856C200.097 216.539 199.863 216.291 199.565 216.114C199.266 215.937 198.916 215.848 198.515 215.848C198.113 215.848 197.763 215.937 197.465 216.114C197.166 216.291 196.928 216.539 196.751 216.856C196.583 217.173 196.499 217.537 196.499 217.948C196.499 218.359 196.583 218.723 196.751 219.04C196.928 219.357 197.166 219.605 197.465 219.782C197.773 219.959 198.123 220.048 198.515 220.048Z" fill="#445371"/>
<rect x="288" y="191.5" width="74" height="28" rx="6" fill="#3697F1" fill-opacity="0.3"/>
<path d="M296.888 202.124H302.312V210.5H300.968V203.252H298.232V210.5H296.888V202.124ZM304.263 210.5V202.124H307.395C308.195 202.124 308.803 202.348 309.219 202.796C309.643 203.244 309.855 203.86 309.855 204.644C309.855 205.428 309.643 206.044 309.219 206.492C308.803 206.94 308.195 207.164 307.395 207.164H305.607V210.5H304.263ZM305.607 206.048H307.191C308.023 206.048 308.439 205.664 308.439 204.896V204.38C308.439 203.62 308.023 203.24 307.191 203.24H305.607V206.048ZM314.111 210.644C313.583 210.644 313.123 210.548 312.731 210.356C312.347 210.156 312.027 209.872 311.771 209.504C311.523 209.136 311.339 208.684 311.219 208.148C311.099 207.612 311.039 207 311.039 206.312C311.039 205.632 311.099 205.024 311.219 204.488C311.339 203.944 311.523 203.488 311.771 203.12C312.027 202.752 312.347 202.472 312.731 202.28C313.123 202.08 313.583 201.98 314.111 201.98C314.639 201.98 315.095 202.08 315.479 202.28C315.871 202.472 316.191 202.752 316.439 203.12C316.695 203.488 316.883 203.944 317.003 204.488C317.123 205.024 317.183 205.632 317.183 206.312C317.183 207 317.123 207.612 317.003 208.148C316.883 208.684 316.695 209.136 316.439 209.504C316.191 209.872 315.871 210.156 315.479 210.356C315.095 210.548 314.639 210.644 314.111 210.644ZM314.111 209.528C314.711 209.528 315.135 209.304 315.383 208.856C315.631 208.4 315.755 207.784 315.755 207.008V205.604C315.755 204.836 315.631 204.228 315.383 203.78C315.135 203.324 314.711 203.096 314.111 203.096C313.511 203.096 313.087 203.324 312.839 203.78C312.591 204.228 312.467 204.836 312.467 205.604V207.02C312.467 207.788 312.591 208.4 312.839 208.856C313.087 209.304 313.511 209.528 314.111 209.528ZM317.922 209.372H318.582C318.742 209.156 318.886 208.904 319.014 208.616C319.142 208.328 319.25 207.988 319.338 207.596C319.434 207.196 319.506 206.744 319.554 206.24C319.602 205.736 319.626 205.16 319.626 204.512V202.124H323.814V209.372H324.714V212.3H323.478V210.5H319.17V212.3H317.922V209.372ZM322.494 203.252H320.862V204.668C320.862 205.9 320.782 206.892 320.622 207.644C320.47 208.388 320.266 208.964 320.01 209.372H322.494V203.252ZM330.565 210.5L329.929 208.268H327.265L326.629 210.5H325.261L327.709 202.124H329.545L331.993 210.5H330.565ZM328.645 203.48H328.549L327.517 207.152H329.677L328.645 203.48ZM333.273 202.124H336.165C336.925 202.124 337.513 202.32 337.929 202.712C338.353 203.104 338.565 203.64 338.565 204.32C338.565 204.808 338.445 205.196 338.205 205.484C337.965 205.772 337.641 205.976 337.233 206.096V206.156C337.721 206.268 338.113 206.484 338.409 206.804C338.705 207.116 338.853 207.56 338.853 208.136C338.853 208.48 338.797 208.796 338.685 209.084C338.573 209.372 338.413 209.624 338.205 209.84C337.997 210.048 337.745 210.212 337.449 210.332C337.161 210.444 336.841 210.5 336.489 210.5H333.273V202.124ZM336.081 209.468C336.529 209.468 336.873 209.376 337.113 209.192C337.353 209.008 337.473 208.712 337.473 208.304V207.872C337.473 207.464 337.353 207.168 337.113 206.984C336.873 206.8 336.529 206.708 336.081 206.708H334.593V209.468H336.081ZM335.889 205.724C336.313 205.724 336.633 205.644 336.849 205.484C337.073 205.316 337.185 205.04 337.185 204.656V204.224C337.185 203.84 337.073 203.568 336.849 203.408C336.633 203.24 336.313 203.156 335.889 203.156H334.593V205.724H335.889ZM340.564 210.5V202.124H345.808V203.252H341.908V205.688H345.664V206.816H341.908V209.372H345.808V210.5H340.564ZM352.463 210.5H347.579V202.124H348.923V209.372H351.467V202.124H352.811V209.372H353.711V212.3H352.463V210.5Z" fill="#3072B3"/>
<defs>
<pattern id="pattern0_238_1098" patternContentUnits="objectBoundingBox" width="1" height="1">
<use xlink:href="#image0_238_1098" transform="translate(-0.504925 -0.0202412) scale(0.00461395)"/>
</pattern>
<pattern id="pattern1_238_1098" patternContentUnits="objectBoundingBox" width="1" height="1">
<use xlink:href="#image1_238_1098" transform="translate(-0.709687 -0.0466769) scale(0.00390053)"/>
</pattern>
<pattern id="pattern2_238_1098" patternContentUnits="objectBoundingBox" width="1" height="1">
<use xlink:href="#image2_238_1098" transform="scale(0.000976562)"/>
</pattern>
<clipPath id="clip0_238_1098">
<rect width="16" height="16" fill="white" transform="translate(298 25.5)"/>
</clipPath>
<clipPath id="clip1_238_1098">
<rect width="16" height="16" fill="white" transform="translate(334 25.5)"/>
</clipPath>

</defs>
</svg>
