<svg width="375" height="551" viewBox="0 0 375 551" fill="none" xmlns="http://www.w3.org/2000/svg">
<rect width="375" height="551" rx="32" fill="white"/>
<g clip-path="url(#clip0_190_27403)">
<path d="M25.078 30V20.13H29.362C30.09 20.13 30.706 20.2513 31.21 20.494C31.714 20.7367 32.0967 21.0867 32.358 21.544C32.6193 22.0013 32.75 22.5567 32.75 23.21C32.75 23.854 32.6193 24.4093 32.358 24.876C32.0967 25.3333 31.714 25.688 31.21 25.94C30.706 26.1827 30.09 26.304 29.362 26.304H26.87V30H25.078ZM26.87 24.89H29.082C29.7167 24.89 30.1973 24.75 30.524 24.47C30.8507 24.1807 31.014 23.7607 31.014 23.21C31.014 22.6593 30.8507 22.244 30.524 21.964C30.1973 21.684 29.7167 21.544 29.082 21.544H26.87V24.89ZM33.5388 30L34.5608 28.236C34.7381 27.9187 34.9621 27.6667 35.2328 27.48C35.5035 27.284 35.7835 27.186 36.0728 27.186H36.3528V27.34C35.8208 27.34 35.3681 27.2607 34.9948 27.102C34.6215 26.9433 34.3368 26.71 34.1408 26.402C33.9541 26.094 33.8608 25.7207 33.8608 25.282C33.8608 24.6193 34.0848 24.1013 34.5328 23.728C34.9808 23.3453 35.6388 23.154 36.5068 23.154H39.9928V30H38.3688V27.634H37.6408C37.3608 27.634 37.1181 27.7087 36.9128 27.858C36.7075 28.0073 36.5395 28.194 36.4088 28.418L35.5128 30H33.5388ZM36.8708 26.486H38.3688V24.302H36.8708C36.4135 24.302 36.0728 24.4 35.8488 24.596C35.6248 24.7827 35.5128 25.044 35.5128 25.38C35.5128 25.7253 35.6248 25.996 35.8488 26.192C36.0728 26.388 36.4135 26.486 36.8708 26.486ZM41.3445 31.82V28.628H42.1285C42.3151 28.3387 42.4598 28.0307 42.5625 27.704C42.6745 27.368 42.7538 26.99 42.8005 26.57C42.8565 26.1407 42.8845 25.6507 42.8845 25.1V23.154H48.2185V28.628H49.3385V31.82H47.8545V30H42.8285V31.82H41.3445ZM43.7105 28.628H46.5805V24.498H44.3825V25.506C44.3825 26.094 44.3218 26.6633 44.2005 27.214C44.0885 27.7647 43.9251 28.236 43.7105 28.628ZM53.7648 30.14C53.0554 30.14 52.4394 29.9953 51.9168 29.706C51.3941 29.4167 50.9881 29.006 50.6988 28.474C50.4094 27.9327 50.2648 27.298 50.2648 26.57C50.2648 25.842 50.4094 25.212 50.6988 24.68C50.9881 24.148 51.3941 23.7373 51.9168 23.448C52.4394 23.1587 53.0554 23.014 53.7648 23.014C54.4741 23.014 55.0901 23.1587 55.6128 23.448C56.1354 23.7373 56.5414 24.148 56.8308 24.68C57.1201 25.212 57.2648 25.842 57.2648 26.57C57.2648 27.298 57.1201 27.9327 56.8308 28.474C56.5414 29.006 56.1354 29.4167 55.6128 29.706C55.0901 29.9953 54.4741 30.14 53.7648 30.14ZM53.7648 28.81C54.2874 28.81 54.7074 28.6233 55.0248 28.25C55.3421 27.8673 55.5008 27.3073 55.5008 26.57C55.5008 25.8233 55.3421 25.268 55.0248 24.904C54.7074 24.5307 54.2874 24.344 53.7648 24.344C53.2421 24.344 52.8221 24.5307 52.5048 24.904C52.1874 25.268 52.0288 25.8233 52.0288 26.57C52.0288 27.3073 52.1874 27.8673 52.5048 28.25C52.8221 28.6233 53.2421 28.81 53.7648 28.81ZM58.8866 30V23.154H60.3286L62.6946 27.2L65.0606 23.154H66.4886V30H64.9486V25.17H65.2846L63.1006 28.88H62.2746L60.0906 25.17H60.4266V30H58.8866Z" fill="#1F2024"/>
<path d="M338.984 31V22.54H342.512C343.392 22.54 344.072 22.736 344.552 23.128C345.04 23.512 345.284 24.052 345.284 24.748C345.284 25.26 345.132 25.692 344.828 26.044C344.524 26.396 344.112 26.632 343.592 26.752V26.572C343.984 26.628 344.32 26.748 344.6 26.932C344.888 27.108 345.108 27.344 345.26 27.64C345.412 27.928 345.488 28.268 345.488 28.66C345.488 29.156 345.376 29.58 345.152 29.932C344.928 30.284 344.604 30.552 344.18 30.736C343.756 30.912 343.248 31 342.656 31H338.984ZM340.184 30.04H342.512C342.752 30.04 342.964 30.024 343.148 29.992C343.34 29.952 343.504 29.896 343.64 29.824C343.784 29.744 343.904 29.648 344 29.536C344.096 29.416 344.164 29.28 344.204 29.128C344.252 28.976 344.276 28.804 344.276 28.612C344.276 28.42 344.252 28.248 344.204 28.096C344.164 27.944 344.096 27.812 344 27.7C343.904 27.588 343.784 27.496 343.64 27.424C343.504 27.344 343.34 27.288 343.148 27.256C342.964 27.216 342.752 27.196 342.512 27.196H340.184V30.04ZM340.184 26.236H342.32C342.896 26.236 343.332 26.12 343.628 25.888C343.924 25.656 344.072 25.316 344.072 24.868C344.072 24.42 343.924 24.08 343.628 23.848C343.332 23.616 342.896 23.5 342.32 23.5H340.184V26.236ZM349.684 31.108C349.084 31.108 348.564 30.984 348.124 30.736C347.692 30.48 347.356 30.124 347.116 29.668C346.876 29.204 346.756 28.66 346.756 28.036C346.756 27.42 346.876 26.888 347.116 26.44C347.356 25.992 347.692 25.648 348.124 25.408C348.564 25.16 349.084 25.036 349.684 25.036C350.052 25.036 350.416 25.1 350.776 25.228C351.136 25.348 351.432 25.524 351.664 25.756L351.28 26.608C351.064 26.4 350.82 26.248 350.548 26.152C350.276 26.048 350.02 25.996 349.78 25.996C349.212 25.996 348.772 26.176 348.46 26.536C348.156 26.888 348.004 27.392 348.004 28.048C348.004 28.704 348.156 29.22 348.46 29.596C348.772 29.964 349.212 30.148 349.78 30.148C350.02 30.148 350.276 30.1 350.548 30.004C350.82 29.9 351.064 29.744 351.28 29.536L351.664 30.4C351.432 30.616 351.132 30.788 350.764 30.916C350.404 31.044 350.044 31.108 349.684 31.108ZM355.594 31.108C354.954 31.108 354.402 30.988 353.938 30.748C353.482 30.5 353.126 30.152 352.87 29.704C352.622 29.248 352.498 28.708 352.498 28.084C352.498 27.476 352.622 26.944 352.87 26.488C353.118 26.032 353.458 25.676 353.89 25.42C354.322 25.164 354.814 25.036 355.366 25.036C355.91 25.036 356.374 25.156 356.758 25.396C357.15 25.628 357.45 25.96 357.658 26.392C357.866 26.824 357.97 27.34 357.97 27.94V28.348H353.458V27.604H357.154L356.95 27.772C356.95 27.172 356.818 26.708 356.554 26.38C356.29 26.052 355.91 25.888 355.414 25.888C355.038 25.888 354.718 25.976 354.454 26.152C354.198 26.328 354.002 26.572 353.866 26.884C353.73 27.196 353.662 27.56 353.662 27.976V28.048C353.662 28.512 353.734 28.904 353.878 29.224C354.03 29.536 354.25 29.772 354.538 29.932C354.826 30.092 355.182 30.172 355.606 30.172C355.942 30.172 356.27 30.12 356.59 30.016C356.918 29.904 357.226 29.732 357.514 29.5L357.874 30.34C357.61 30.58 357.27 30.768 356.854 30.904C356.438 31.04 356.018 31.108 355.594 31.108Z" fill="#006FFD"/>
<g clip-path="url(#clip1_190_27403)">
<rect x="16" y="51" width="250" height="247" rx="16" fill="#F8F9FE"/>
<rect width="250" height="120" transform="translate(16 51)" fill="#EAF2FF"/>
<mask id="mask0_190_27403" style="mask-type:alpha" maskUnits="userSpaceOnUse" x="125" y="97" width="32" height="28">
<path d="M136.463 106.621C136.463 108.462 135.03 109.955 133.263 109.955C131.495 109.955 130.063 108.462 130.063 106.621C130.063 104.781 131.495 103.288 133.263 103.288C135.03 103.288 136.463 104.781 136.463 106.621Z" fill="#B4DBFF"/>
<path fill-rule="evenodd" clip-rule="evenodd" d="M125.001 101C125.001 99.1593 126.433 97.667 128.201 97.667H153.8C155.567 97.667 156.999 99.1593 156.999 101V120.999C156.999 122.84 155.567 124.333 153.8 124.333H151.687C151.68 124.333 151.673 124.333 151.666 124.333H128.93C128.924 124.333 128.918 124.333 128.912 124.333H128.201C126.433 124.333 125.001 122.84 125.001 120.999V101ZM128.201 100.167H153.8C154.241 100.167 154.6 100.54 154.6 101V111.387L147.647 104.333L135.82 116.333L132.336 112.798L127.401 117.805V101C127.401 100.54 127.759 100.167 128.201 100.167Z" fill="#B4DBFF"/>
</mask>
<g mask="url(#mask0_190_27403)">
<rect x="125" y="94.999" width="31.9987" height="31.9987" fill="#B4DBFF"/>
</g>
<path d="M33.078 201V191.13H34.87V195.316H36.466L36.116 195.554L38.916 191.13H40.89L37.768 195.904L37.068 195.386C37.4693 195.442 37.8287 195.559 38.146 195.736C38.4633 195.913 38.748 196.147 39 196.436C39.2613 196.725 39.49 197.075 39.686 197.486L41.394 201H39.448L38.132 198.158C37.908 197.673 37.6373 197.327 37.32 197.122C37.012 196.917 36.6247 196.814 36.158 196.814H34.87V201H33.078ZM45.4679 201.14C44.7586 201.14 44.1426 200.995 43.6199 200.706C43.0972 200.417 42.6912 200.006 42.4019 199.474C42.1126 198.933 41.9679 198.298 41.9679 197.57C41.9679 196.842 42.1126 196.212 42.4019 195.68C42.6912 195.148 43.0972 194.737 43.6199 194.448C44.1426 194.159 44.7586 194.014 45.4679 194.014C46.1772 194.014 46.7932 194.159 47.3159 194.448C47.8386 194.737 48.2446 195.148 48.5339 195.68C48.8232 196.212 48.9679 196.842 48.9679 197.57C48.9679 198.298 48.8232 198.933 48.5339 199.474C48.2446 200.006 47.8386 200.417 47.3159 200.706C46.7932 200.995 46.1772 201.14 45.4679 201.14ZM45.4679 199.81C45.9906 199.81 46.4106 199.623 46.7279 199.25C47.0452 198.867 47.2039 198.307 47.2039 197.57C47.2039 196.823 47.0452 196.268 46.7279 195.904C46.4106 195.531 45.9906 195.344 45.4679 195.344C44.9452 195.344 44.5252 195.531 44.2079 195.904C43.8906 196.268 43.7319 196.823 43.7319 197.57C43.7319 198.307 43.8906 198.867 44.2079 199.25C44.5252 199.623 44.9452 199.81 45.4679 199.81ZM50.6037 203.52V194.154H52.3117V195.596H52.1717C52.3117 195.12 52.5964 194.737 53.0257 194.448C53.4644 194.159 53.973 194.014 54.5517 194.014C55.149 194.014 55.6717 194.159 56.1197 194.448C56.577 194.737 56.9317 195.148 57.1837 195.68C57.4357 196.203 57.5617 196.833 57.5617 197.57C57.5617 198.298 57.4357 198.933 57.1837 199.474C56.9317 200.006 56.5817 200.417 56.1337 200.706C55.6857 200.995 55.1584 201.14 54.5517 201.14C53.9824 201.14 53.483 201 53.0537 200.72C52.6244 200.431 52.335 200.057 52.1857 199.6H52.3537V203.52H50.6037ZM54.0617 199.81C54.5844 199.81 55.0044 199.623 55.3217 199.25C55.639 198.867 55.7977 198.307 55.7977 197.57C55.7977 196.823 55.639 196.268 55.3217 195.904C55.0044 195.531 54.5844 195.344 54.0617 195.344C53.539 195.344 53.119 195.531 52.8017 195.904C52.4844 196.268 52.3257 196.823 52.3257 197.57C52.3257 198.307 52.4844 198.867 52.8017 199.25C53.119 199.623 53.539 199.81 54.0617 199.81ZM59.1893 201V194.154H60.9393V196.8H63.9633V194.154H65.7133V201H63.9633V198.172H60.9393V201H59.1893ZM67.7069 201V194.154H69.2889V199.208H68.9249L72.7189 194.154H74.1749V201H72.5929V195.932H72.9709L69.1629 201H67.7069Z" fill="#1F2024"/>
<path d="M33.068 222V213.54H33.896L37.328 219.984H36.968L40.376 213.54H41.204V222H40.292V214.86H40.58L37.472 220.692H36.824L33.68 214.848H33.968V222H33.068ZM45.7816 222.108C45.2136 222.108 44.7216 221.984 44.3056 221.736C43.8896 221.488 43.5656 221.14 43.3336 220.692C43.1096 220.236 42.9976 219.7 42.9976 219.084C42.9976 218.468 43.1096 217.936 43.3336 217.488C43.5656 217.032 43.8896 216.68 44.3056 216.432C44.7216 216.184 45.2136 216.06 45.7816 216.06C46.3496 216.06 46.8416 216.184 47.2576 216.432C47.6736 216.68 47.9936 217.032 48.2176 217.488C48.4496 217.936 48.5656 218.468 48.5656 219.084C48.5656 219.7 48.4496 220.236 48.2176 220.692C47.9936 221.14 47.6736 221.488 47.2576 221.736C46.8416 221.984 46.3496 222.108 45.7816 222.108ZM45.7816 221.328C46.3336 221.328 46.7696 221.136 47.0896 220.752C47.4176 220.36 47.5816 219.8 47.5816 219.072C47.5816 218.352 47.4176 217.8 47.0896 217.416C46.7696 217.032 46.3336 216.84 45.7816 216.84C45.2376 216.84 44.8016 217.032 44.4736 217.416C44.1456 217.8 43.9816 218.352 43.9816 219.072C43.9816 219.8 44.1456 220.36 44.4736 220.752C44.8016 221.136 45.2376 221.328 45.7816 221.328ZM52.7465 222.108C52.1625 222.108 51.6585 221.98 51.2345 221.724C50.8105 221.468 50.4825 221.112 50.2505 220.656C50.0265 220.192 49.9145 219.656 49.9145 219.048C49.9145 218.432 50.0265 217.9 50.2505 217.452C50.4825 217.004 50.8105 216.66 51.2345 216.42C51.6585 216.18 52.1625 216.06 52.7465 216.06C53.1065 216.06 53.4625 216.124 53.8145 216.252C54.1665 216.38 54.4585 216.56 54.6905 216.792L54.3545 217.5C54.1225 217.276 53.8665 217.112 53.5865 217.008C53.3145 216.904 53.0545 216.852 52.8065 216.852C52.1985 216.852 51.7305 217.044 51.4025 217.428C51.0745 217.804 50.9105 218.348 50.9105 219.06C50.9105 219.756 51.0745 220.308 51.4025 220.716C51.7305 221.116 52.1985 221.316 52.8065 221.316C53.0545 221.316 53.3145 221.264 53.5865 221.16C53.8665 221.056 54.1225 220.888 54.3545 220.656L54.6905 221.364C54.4585 221.596 54.1625 221.78 53.8025 221.916C53.4505 222.044 53.0985 222.108 52.7465 222.108ZM56.0544 222V216.168H57.0264V218.604H58.1184L60.0264 216.168H61.0944L58.9104 219L58.6344 218.688C58.8584 218.712 59.0544 218.768 59.2224 218.856C59.3904 218.944 59.5504 219.08 59.7024 219.264C59.8544 219.44 60.0184 219.68 60.1944 219.984L61.3944 222H60.3504L59.2944 220.236C59.1584 220.012 59.0304 219.84 58.9104 219.72C58.7904 219.592 58.6544 219.504 58.5024 219.456C58.3504 219.408 58.1624 219.384 57.9384 219.384H57.0264V222H56.0544ZM62.4908 222V216.168H65.3348C65.7988 216.168 66.1788 216.228 66.4748 216.348C66.7708 216.46 66.9908 216.632 67.1348 216.864C67.2788 217.088 67.3508 217.368 67.3508 217.704C67.3508 218.072 67.2188 218.384 66.9548 218.64C66.6988 218.896 66.3628 219.048 65.9468 219.096V218.94C66.2748 218.948 66.5588 219.016 66.7988 219.144C67.0388 219.264 67.2228 219.432 67.3508 219.648C67.4788 219.864 67.5428 220.112 67.5428 220.392C67.5428 220.888 67.3588 221.28 66.9908 221.568C66.6228 221.856 66.1028 222 65.4308 222H62.4908ZM63.4148 221.34H65.3948C65.7868 221.34 66.0868 221.256 66.2948 221.088C66.5108 220.912 66.6188 220.664 66.6188 220.344C66.6188 220.024 66.5108 219.78 66.2948 219.612C66.0868 219.444 65.7868 219.36 65.3948 219.36H63.4148V221.34ZM63.4148 218.7H65.2868C65.6468 218.7 65.9268 218.616 66.1268 218.448C66.3348 218.28 66.4388 218.048 66.4388 217.752C66.4388 217.456 66.3348 217.228 66.1268 217.068C65.9268 216.908 65.6468 216.828 65.2868 216.828H63.4148V218.7ZM71.0213 222.108C70.6213 222.108 70.2613 222.032 69.9413 221.88C69.6293 221.72 69.3813 221.504 69.1973 221.232C69.0133 220.96 68.9213 220.656 68.9213 220.32C68.9213 219.888 69.0293 219.548 69.2453 219.3C69.4693 219.052 69.8333 218.876 70.3373 218.772C70.8493 218.668 71.5453 218.616 72.4253 218.616H72.9653V219.252H72.4373C71.9493 219.252 71.5413 219.268 71.2133 219.3C70.8853 219.332 70.6253 219.388 70.4333 219.468C70.2413 219.548 70.1053 219.652 70.0253 219.78C69.9453 219.908 69.9053 220.068 69.9053 220.26C69.9053 220.588 70.0173 220.856 70.2413 221.064C70.4733 221.272 70.7853 221.376 71.1773 221.376C71.4973 221.376 71.7773 221.3 72.0173 221.148C72.2653 220.996 72.4573 220.788 72.5933 220.524C72.7373 220.26 72.8093 219.956 72.8093 219.612V218.244C72.8093 217.748 72.7093 217.392 72.5093 217.176C72.3093 216.952 71.9813 216.84 71.5253 216.84C71.1733 216.84 70.8333 216.892 70.5053 216.996C70.1773 217.092 69.8413 217.252 69.4973 217.476L69.1613 216.768C69.3693 216.624 69.6053 216.5 69.8693 216.396C70.1333 216.284 70.4093 216.2 70.6973 216.144C70.9853 216.088 71.2613 216.06 71.5253 216.06C72.0293 216.06 72.4453 216.144 72.7733 216.312C73.1013 216.472 73.3453 216.72 73.5053 217.056C73.6653 217.384 73.7453 217.808 73.7453 218.328V222H72.8333V220.644H72.9413C72.8773 220.948 72.7533 221.208 72.5693 221.424C72.3933 221.64 72.1733 221.808 71.9093 221.928C71.6453 222.048 71.3493 222.108 71.0213 222.108Z" fill="#71727A"/>
<rect x="32.75" y="242.75" width="216.5" height="38.5" rx="11.25" stroke="#006FFD" stroke-width="1.5"/>
<path d="M121.484 266V257.54H122.732V261.224H124.244L123.956 261.428L126.464 257.54H127.844L125.12 261.644L124.652 261.272C124.98 261.312 125.276 261.408 125.54 261.56C125.812 261.704 126.052 261.9 126.26 262.148C126.476 262.388 126.668 262.68 126.836 263.024L128.288 266H126.944L125.792 263.54C125.576 263.084 125.324 262.76 125.036 262.568C124.748 262.368 124.392 262.268 123.968 262.268H122.732V266H121.484ZM129.594 268.16L130.746 265.592V266.108L128.19 260.144H129.486L131.454 265.004H131.118L133.11 260.144H134.358L130.866 268.16H129.594ZM135.357 266V260.144H140.661V266H139.449V261.116H136.569V266H135.357ZM142.471 266V260.144H143.575V264.8H143.263L146.743 260.144H147.763V266H146.659V261.344H146.983L143.491 266H142.471ZM150.808 266V261.116H148.744V260.144H154.096V261.116H152.02V266H150.808ZM155.068 266V260.144H156.28V262.172H157.948C158.7 262.172 159.272 262.336 159.664 262.664C160.056 262.984 160.252 263.452 160.252 264.068C160.252 264.46 160.16 264.804 159.976 265.1C159.792 265.388 159.528 265.612 159.184 265.772C158.84 265.924 158.428 266 157.948 266H155.068ZM156.28 265.172H157.792C158.208 265.172 158.532 265.084 158.764 264.908C158.996 264.724 159.112 264.444 159.112 264.068C159.112 263.7 158.996 263.432 158.764 263.264C158.532 263.088 158.208 263 157.792 263H156.28V265.172Z" fill="#006FFD"/>
</g>
<g clip-path="url(#clip2_190_27403)">
<rect x="278" y="51" width="250" height="247" rx="16" fill="#F8F9FE"/>
<rect width="250" height="120" transform="translate(278 51)" fill="#EAF2FF"/>
<path d="M295.106 201V191.13H296.604L300.328 198.004H299.88L303.59 191.13H305.06V201H303.436V193.79H303.744L300.608 199.502H299.558L296.394 193.776H296.73V201H295.106ZM310.438 201.14C309.664 201.14 308.996 200.995 308.436 200.706C307.876 200.417 307.442 200.006 307.134 199.474C306.836 198.942 306.686 198.312 306.686 197.584C306.686 196.875 306.831 196.254 307.12 195.722C307.419 195.19 307.825 194.775 308.338 194.476C308.861 194.168 309.454 194.014 310.116 194.014C310.77 194.014 311.33 194.154 311.796 194.434C312.263 194.714 312.622 195.111 312.874 195.624C313.136 196.137 313.266 196.749 313.266 197.458V197.976H308.1V196.968H312.034L311.81 197.178C311.81 196.543 311.67 196.058 311.39 195.722C311.11 195.377 310.709 195.204 310.186 195.204C309.794 195.204 309.458 195.297 309.178 195.484C308.908 195.661 308.698 195.918 308.548 196.254C308.408 196.581 308.338 196.973 308.338 197.43V197.528C308.338 198.041 308.418 198.466 308.576 198.802C308.735 199.138 308.973 199.39 309.29 199.558C309.608 199.726 310 199.81 310.466 199.81C310.849 199.81 311.232 199.754 311.614 199.642C311.997 199.521 312.347 199.334 312.664 199.082L313.154 200.258C312.828 200.529 312.417 200.743 311.922 200.902C311.428 201.061 310.933 201.14 310.438 201.14ZM317.761 201.14C316.846 201.14 316.165 200.911 315.717 200.454C315.269 199.997 315.045 199.329 315.045 198.452V195.47H313.729V194.154H315.045V192.11H316.795V194.154H318.867V195.47H316.795V198.354C316.795 198.802 316.893 199.138 317.089 199.362C317.285 199.586 317.602 199.698 318.041 199.698C318.172 199.698 318.307 199.684 318.447 199.656C318.587 199.619 318.732 199.581 318.881 199.544L319.147 200.832C318.979 200.925 318.764 201 318.503 201.056C318.251 201.112 318.004 201.14 317.761 201.14ZM322.252 201.14C321.757 201.14 321.314 201.047 320.922 200.86C320.539 200.664 320.236 200.403 320.012 200.076C319.797 199.749 319.69 199.381 319.69 198.97C319.69 198.466 319.821 198.069 320.082 197.78C320.343 197.481 320.768 197.267 321.356 197.136C321.944 197.005 322.733 196.94 323.722 196.94H324.422V197.948H323.736C323.297 197.948 322.929 197.967 322.63 198.004C322.331 198.032 322.089 198.083 321.902 198.158C321.725 198.223 321.594 198.317 321.51 198.438C321.435 198.559 321.398 198.709 321.398 198.886C321.398 199.194 321.505 199.446 321.72 199.642C321.935 199.838 322.233 199.936 322.616 199.936C322.924 199.936 323.195 199.866 323.428 199.726C323.671 199.577 323.862 199.376 324.002 199.124C324.142 198.872 324.212 198.583 324.212 198.256V196.646C324.212 196.179 324.109 195.843 323.904 195.638C323.699 195.433 323.353 195.33 322.868 195.33C322.485 195.33 322.093 195.391 321.692 195.512C321.291 195.624 320.885 195.801 320.474 196.044L319.97 194.854C320.213 194.686 320.497 194.541 320.824 194.42C321.16 194.289 321.51 194.191 321.874 194.126C322.247 194.051 322.597 194.014 322.924 194.014C323.596 194.014 324.147 194.117 324.576 194.322C325.015 194.527 325.341 194.84 325.556 195.26C325.771 195.671 325.878 196.203 325.878 196.856V201H324.24V199.544H324.352C324.287 199.871 324.156 200.155 323.96 200.398C323.773 200.631 323.535 200.813 323.246 200.944C322.957 201.075 322.625 201.14 322.252 201.14ZM330.034 201.14C329.222 201.14 328.62 200.921 328.228 200.482C327.845 200.034 327.654 199.381 327.654 198.522V191.13H329.404V198.438C329.404 198.709 329.441 198.942 329.516 199.138C329.6 199.325 329.721 199.465 329.88 199.558C330.039 199.651 330.235 199.698 330.468 199.698C330.571 199.698 330.673 199.693 330.776 199.684C330.879 199.675 330.977 199.656 331.07 199.628L331.042 201.014C330.874 201.051 330.706 201.079 330.538 201.098C330.379 201.126 330.211 201.14 330.034 201.14ZM334.505 201.14C333.693 201.14 333.091 200.921 332.699 200.482C332.316 200.034 332.125 199.381 332.125 198.522V191.13H333.875V198.438C333.875 198.709 333.912 198.942 333.987 199.138C334.071 199.325 334.192 199.465 334.351 199.558C334.51 199.651 334.706 199.698 334.939 199.698C335.042 199.698 335.144 199.693 335.247 199.684C335.35 199.675 335.448 199.656 335.541 199.628L335.513 201.014C335.345 201.051 335.177 201.079 335.009 201.098C334.85 201.126 334.682 201.14 334.505 201.14ZM336.484 192.684V190.976H338.444V192.684H336.484ZM336.596 201V194.154H338.346V201H336.596ZM343.328 201.14C342.609 201.14 341.984 200.995 341.452 200.706C340.92 200.407 340.509 199.987 340.22 199.446C339.931 198.905 339.786 198.27 339.786 197.542C339.786 196.814 339.931 196.189 340.22 195.666C340.509 195.134 340.92 194.728 341.452 194.448C341.984 194.159 342.609 194.014 343.328 194.014C343.767 194.014 344.201 194.084 344.63 194.224C345.059 194.364 345.414 194.56 345.694 194.812L345.176 196.03C344.933 195.815 344.658 195.652 344.35 195.54C344.051 195.428 343.762 195.372 343.482 195.372C342.875 195.372 342.404 195.563 342.068 195.946C341.741 196.319 341.578 196.856 341.578 197.556C341.578 198.247 341.741 198.793 342.068 199.194C342.404 199.586 342.875 199.782 343.482 199.782C343.753 199.782 344.042 199.726 344.35 199.614C344.658 199.502 344.933 199.334 345.176 199.11L345.694 200.342C345.414 200.585 345.055 200.781 344.616 200.93C344.187 201.07 343.757 201.14 343.328 201.14ZM348.98 201.14C348.486 201.14 348.042 201.047 347.65 200.86C347.268 200.664 346.964 200.403 346.74 200.076C346.526 199.749 346.418 199.381 346.418 198.97C346.418 198.466 346.549 198.069 346.81 197.78C347.072 197.481 347.496 197.267 348.084 197.136C348.672 197.005 349.461 196.94 350.45 196.94H351.15V197.948H350.464C350.026 197.948 349.657 197.967 349.358 198.004C349.06 198.032 348.817 198.083 348.63 198.158C348.453 198.223 348.322 198.317 348.238 198.438C348.164 198.559 348.126 198.709 348.126 198.886C348.126 199.194 348.234 199.446 348.448 199.642C348.663 199.838 348.962 199.936 349.344 199.936C349.652 199.936 349.923 199.866 350.156 199.726C350.399 199.577 350.59 199.376 350.73 199.124C350.87 198.872 350.94 198.583 350.94 198.256V196.646C350.94 196.179 350.838 195.843 350.632 195.638C350.427 195.433 350.082 195.33 349.596 195.33C349.214 195.33 348.822 195.391 348.42 195.512C348.019 195.624 347.613 195.801 347.202 196.044L346.698 194.854C346.941 194.686 347.226 194.541 347.552 194.42C347.888 194.289 348.238 194.191 348.602 194.126C348.976 194.051 349.326 194.014 349.652 194.014C350.324 194.014 350.875 194.117 351.304 194.322C351.743 194.527 352.07 194.84 352.284 195.26C352.499 195.671 352.606 196.203 352.606 196.856V201H350.968V199.544H351.08C351.015 199.871 350.884 200.155 350.688 200.398C350.502 200.631 350.264 200.813 349.974 200.944C349.685 201.075 349.354 201.14 348.98 201.14Z" fill="#1F2024"/>
<path d="M298.596 222.108C298.012 222.108 297.48 222.008 297 221.808C296.52 221.6 296.112 221.308 295.776 220.932C295.44 220.556 295.18 220.1 294.996 219.564C294.82 219.028 294.732 218.428 294.732 217.764C294.732 217.092 294.82 216.492 294.996 215.964C295.18 215.428 295.44 214.976 295.776 214.608C296.112 214.232 296.516 213.944 296.988 213.744C297.468 213.536 298.004 213.432 298.596 213.432C299.196 213.432 299.732 213.532 300.204 213.732C300.684 213.932 301.092 214.22 301.428 214.596C301.772 214.972 302.032 215.428 302.208 215.964C302.392 216.492 302.484 217.088 302.484 217.752C302.484 218.424 302.392 219.028 302.208 219.564C302.024 220.1 301.764 220.556 301.428 220.932C301.092 221.308 300.684 221.6 300.204 221.808C299.732 222.008 299.196 222.108 298.596 222.108ZM298.596 221.232C299.204 221.232 299.716 221.096 300.132 220.824C300.556 220.552 300.88 220.156 301.104 219.636C301.328 219.116 301.44 218.492 301.44 217.764C301.44 217.028 301.328 216.404 301.104 215.892C300.88 215.38 300.556 214.988 300.132 214.716C299.716 214.444 299.204 214.308 298.596 214.308C298.004 214.308 297.496 214.444 297.072 214.716C296.656 214.988 296.336 215.384 296.112 215.904C295.888 216.416 295.776 217.036 295.776 217.764C295.776 218.492 295.888 219.116 296.112 219.636C296.336 220.148 296.656 220.544 297.072 220.824C297.496 221.096 298.004 221.232 298.596 221.232ZM304.279 222V216.168H305.083L307.279 220.068L309.475 216.168H310.267V222H309.403V217.284H309.679L307.519 221.064H307.027L304.867 217.284H305.143V222H304.279ZM314.793 222.108C314.209 222.108 313.705 221.98 313.281 221.724C312.857 221.468 312.529 221.112 312.297 220.656C312.073 220.192 311.961 219.656 311.961 219.048C311.961 218.432 312.073 217.9 312.297 217.452C312.529 217.004 312.857 216.66 313.281 216.42C313.705 216.18 314.209 216.06 314.793 216.06C315.153 216.06 315.509 216.124 315.861 216.252C316.213 216.38 316.505 216.56 316.737 216.792L316.401 217.5C316.169 217.276 315.913 217.112 315.633 217.008C315.361 216.904 315.101 216.852 314.853 216.852C314.245 216.852 313.777 217.044 313.449 217.428C313.121 217.804 312.957 218.348 312.957 219.06C312.957 219.756 313.121 220.308 313.449 220.716C313.777 221.116 314.245 221.316 314.853 221.316C315.101 221.316 315.361 221.264 315.633 221.16C315.913 221.056 316.169 220.888 316.401 220.656L316.737 221.364C316.505 221.596 316.209 221.78 315.849 221.916C315.497 222.044 315.145 222.108 314.793 222.108ZM318.101 222V216.168H319.073V218.604H320.165L322.073 216.168H323.141L320.957 219L320.681 218.688C320.905 218.712 321.101 218.768 321.269 218.856C321.437 218.944 321.597 219.08 321.749 219.264C321.901 219.44 322.065 219.68 322.241 219.984L323.441 222H322.397L321.341 220.236C321.205 220.012 321.077 219.84 320.957 219.72C320.837 219.592 320.701 219.504 320.549 219.456C320.397 219.408 320.209 219.384 319.985 219.384H319.073V222H318.101Z" fill="#71727A"/>
<rect x="294.75" y="242.75" width="216.5" height="38.5" rx="11.25" stroke="#006FFD" stroke-width="1.5"/>
<path d="M371.361 266.5V257.773H374.702C375.332 257.773 375.857 257.872 376.274 258.071C376.695 258.267 377.009 258.536 377.216 258.876C377.426 259.217 377.531 259.604 377.531 260.036C377.531 260.391 377.463 260.695 377.327 260.947C377.19 261.197 377.007 261.401 376.777 261.557C376.547 261.713 376.29 261.825 376.006 261.893V261.979C376.315 261.996 376.612 262.091 376.896 262.264C377.183 262.435 377.418 262.676 377.599 262.989C377.781 263.301 377.872 263.679 377.872 264.122C377.872 264.574 377.763 264.98 377.544 265.341C377.325 265.699 376.996 265.982 376.555 266.189C376.115 266.396 375.561 266.5 374.893 266.5H371.361ZM372.942 265.179H374.642C375.216 265.179 375.629 265.07 375.882 264.851C376.138 264.629 376.266 264.345 376.266 263.999C376.266 263.74 376.202 263.507 376.074 263.3C375.946 263.089 375.764 262.925 375.528 262.805C375.293 262.683 375.011 262.622 374.685 262.622H372.942V265.179ZM372.942 261.484H374.506C374.778 261.484 375.024 261.435 375.243 261.335C375.462 261.233 375.634 261.089 375.759 260.905C375.886 260.717 375.95 260.496 375.95 260.24C375.95 259.902 375.831 259.624 375.592 259.405C375.357 259.186 375.006 259.077 374.54 259.077H372.942V261.484ZM383.351 263.747V259.955H384.894V266.5H383.398V265.337H383.33C383.182 265.703 382.939 266.003 382.601 266.236C382.266 266.469 381.853 266.585 381.361 266.585C380.932 266.585 380.553 266.49 380.223 266.3C379.897 266.107 379.641 265.827 379.456 265.46C379.272 265.091 379.179 264.645 379.179 264.122V259.955H380.722V263.884C380.722 264.298 380.836 264.628 381.063 264.872C381.29 265.116 381.588 265.239 381.958 265.239C382.185 265.239 382.405 265.183 382.618 265.072C382.831 264.962 383.006 264.797 383.142 264.578C383.282 264.357 383.351 264.08 383.351 263.747ZM387.439 268.955C387.229 268.955 387.034 268.938 386.855 268.903C386.679 268.872 386.538 268.835 386.433 268.793L386.791 267.591C387.016 267.656 387.216 267.688 387.392 267.685C387.568 267.682 387.723 267.626 387.857 267.518C387.993 267.413 388.108 267.237 388.202 266.99L388.334 266.636L385.96 259.955H387.597L389.105 264.898H389.173L390.686 259.955H392.327L389.706 267.293C389.584 267.639 389.422 267.936 389.22 268.183C389.018 268.433 388.771 268.624 388.479 268.754C388.189 268.888 387.842 268.955 387.439 268.955ZM399.639 259.955V261.148H395.876V259.955H399.639ZM396.805 258.386H398.348V264.531C398.348 264.739 398.379 264.898 398.442 265.009C398.507 265.116 398.592 265.19 398.697 265.23C398.803 265.27 398.919 265.29 399.047 265.29C399.143 265.29 399.232 265.283 399.311 265.268C399.393 265.254 399.456 265.241 399.499 265.23L399.759 266.436C399.676 266.464 399.558 266.496 399.405 266.53C399.254 266.564 399.07 266.584 398.851 266.589C398.464 266.601 398.116 266.543 397.807 266.415C397.497 266.284 397.251 266.082 397.07 265.81C396.891 265.537 396.803 265.196 396.805 264.787V258.386ZM400.929 266.5V259.955H402.472V266.5H400.929ZM401.705 259.026C401.461 259.026 401.25 258.945 401.074 258.783C400.898 258.618 400.81 258.42 400.81 258.19C400.81 257.957 400.898 257.76 401.074 257.598C401.25 257.433 401.461 257.351 401.705 257.351C401.952 257.351 402.162 257.433 402.336 257.598C402.512 257.76 402.6 257.957 402.6 258.19C402.6 258.42 402.512 258.618 402.336 258.783C402.162 258.945 401.952 259.026 401.705 259.026ZM406.913 266.628C406.26 266.628 405.699 266.484 405.23 266.197C404.764 265.911 404.405 265.514 404.152 265.009C403.902 264.5 403.777 263.915 403.777 263.253C403.777 262.588 403.905 262.001 404.161 261.493C404.416 260.982 404.777 260.584 405.243 260.3C405.712 260.013 406.266 259.869 406.905 259.869C407.436 259.869 407.906 259.967 408.315 260.163C408.727 260.357 409.055 260.631 409.3 260.986C409.544 261.338 409.683 261.75 409.717 262.222H408.243C408.183 261.906 408.041 261.643 407.817 261.433C407.595 261.22 407.298 261.114 406.926 261.114C406.611 261.114 406.334 261.199 406.095 261.369C405.857 261.537 405.67 261.778 405.537 262.094C405.406 262.409 405.341 262.787 405.341 263.227C405.341 263.673 405.406 264.057 405.537 264.378C405.668 264.696 405.851 264.942 406.087 265.115C406.325 265.286 406.605 265.371 406.926 265.371C407.153 265.371 407.357 265.328 407.536 265.243C407.717 265.155 407.869 265.028 407.991 264.864C408.114 264.699 408.197 264.499 408.243 264.263H409.717C409.68 264.726 409.544 265.136 409.308 265.494C409.072 265.849 408.751 266.128 408.345 266.33C407.939 266.528 407.462 266.628 406.913 266.628ZM412.39 264.446L412.386 262.584H412.633L414.985 259.955H416.788L413.895 263.176H413.575L412.39 264.446ZM410.984 266.5V257.773H412.527V266.5H410.984ZM415.092 266.5L412.961 263.521L414.001 262.435L416.937 266.5H415.092ZM420.444 266.628C419.788 266.628 419.221 266.491 418.744 266.219C418.27 265.943 417.904 265.554 417.649 265.051C417.393 264.545 417.265 263.95 417.265 263.266C417.265 262.592 417.393 262.001 417.649 261.493C417.907 260.982 418.268 260.584 418.731 260.3C419.194 260.013 419.738 259.869 420.363 259.869C420.767 259.869 421.147 259.935 421.505 260.065C421.866 260.193 422.184 260.392 422.46 260.662C422.738 260.932 422.957 261.276 423.116 261.693C423.275 262.108 423.355 262.602 423.355 263.176V263.649H417.99V262.609H421.876C421.873 262.314 421.809 262.051 421.684 261.821C421.559 261.588 421.385 261.405 421.16 261.271C420.939 261.138 420.68 261.071 420.385 261.071C420.069 261.071 419.792 261.148 419.554 261.301C419.315 261.452 419.129 261.651 418.995 261.898C418.865 262.142 418.798 262.411 418.795 262.703V263.611C418.795 263.991 418.865 264.318 419.004 264.591C419.143 264.861 419.338 265.068 419.588 265.213C419.838 265.355 420.13 265.426 420.466 265.426C420.69 265.426 420.893 265.395 421.075 265.332C421.257 265.267 421.414 265.172 421.548 265.047C421.681 264.922 421.782 264.767 421.85 264.582L423.291 264.744C423.2 265.125 423.027 265.457 422.771 265.741C422.518 266.023 422.194 266.241 421.799 266.398C421.404 266.551 420.953 266.628 420.444 266.628ZM427.928 259.955V261.148H424.165V259.955H427.928ZM425.094 258.386H426.637V264.531C426.637 264.739 426.668 264.898 426.731 265.009C426.796 265.116 426.881 265.19 426.987 265.23C427.092 265.27 427.208 265.29 427.336 265.29C427.433 265.29 427.521 265.283 427.6 265.268C427.683 265.254 427.745 265.241 427.788 265.23L428.048 266.436C427.965 266.464 427.847 266.496 427.694 266.53C427.543 266.564 427.359 266.584 427.14 266.589C426.754 266.601 426.406 266.543 426.096 266.415C425.786 266.284 425.54 266.082 425.359 265.81C425.18 265.537 425.092 265.196 425.094 264.787V258.386ZM434.298 261.685L432.892 261.838C432.852 261.696 432.782 261.562 432.683 261.438C432.586 261.312 432.456 261.212 432.291 261.135C432.126 261.058 431.924 261.02 431.686 261.02C431.365 261.02 431.095 261.089 430.876 261.229C430.66 261.368 430.554 261.548 430.556 261.77C430.554 261.96 430.623 262.115 430.765 262.234C430.91 262.354 431.149 262.452 431.481 262.528L432.598 262.767C433.217 262.901 433.677 263.112 433.978 263.402C434.282 263.692 434.436 264.071 434.439 264.54C434.436 264.952 434.315 265.315 434.076 265.631C433.841 265.943 433.512 266.187 433.092 266.364C432.672 266.54 432.189 266.628 431.643 266.628C430.842 266.628 430.197 266.46 429.708 266.125C429.22 265.787 428.929 265.317 428.835 264.714L430.339 264.57C430.407 264.865 430.552 265.088 430.774 265.239C430.995 265.389 431.284 265.464 431.639 265.464C432.005 265.464 432.299 265.389 432.521 265.239C432.745 265.088 432.858 264.902 432.858 264.68C432.858 264.493 432.785 264.338 432.64 264.216C432.498 264.094 432.277 264 431.975 263.935L430.859 263.7C430.231 263.57 429.767 263.349 429.466 263.04C429.164 262.727 429.015 262.332 429.018 261.855C429.015 261.452 429.125 261.102 429.346 260.807C429.571 260.509 429.882 260.278 430.279 260.116C430.68 259.952 431.142 259.869 431.664 259.869C432.431 259.869 433.035 260.033 433.475 260.359C433.919 260.686 434.193 261.128 434.298 261.685Z" fill="#006FFD"/>
</g>
<path d="M25.078 344V334.13H29.39C30.426 334.13 31.2287 334.359 31.798 334.816C32.3673 335.264 32.652 335.889 32.652 336.692C32.652 337.289 32.4793 337.793 32.134 338.204C31.7887 338.615 31.3173 338.89 30.72 339.03V338.82C31.1773 338.885 31.5693 339.025 31.896 339.24C32.2227 339.455 32.47 339.73 32.638 340.066C32.8153 340.402 32.904 340.794 32.904 341.242C32.904 341.821 32.7687 342.32 32.498 342.74C32.2367 343.151 31.854 343.463 31.35 343.678C30.846 343.893 30.244 344 29.544 344H25.078ZM26.8 342.642H29.32C29.572 342.642 29.796 342.623 29.992 342.586C30.1973 342.549 30.37 342.493 30.51 342.418C30.6593 342.334 30.7807 342.231 30.874 342.11C30.9767 341.989 31.0513 341.849 31.098 341.69C31.1447 341.531 31.168 341.354 31.168 341.158C31.168 340.953 31.1447 340.771 31.098 340.612C31.0513 340.453 30.9767 340.318 30.874 340.206C30.7807 340.085 30.6593 339.987 30.51 339.912C30.37 339.828 30.1973 339.767 29.992 339.73C29.796 339.693 29.572 339.674 29.32 339.674H26.8V342.642ZM26.8 338.316H29.082C29.698 338.316 30.1553 338.199 30.454 337.966C30.762 337.723 30.916 337.369 30.916 336.902C30.916 336.435 30.762 336.085 30.454 335.852C30.1553 335.609 29.698 335.488 29.082 335.488H26.8V338.316ZM36.9007 344.14C36.406 344.14 35.9627 344.047 35.5707 343.86C35.188 343.664 34.8847 343.403 34.6607 343.076C34.446 342.749 34.3387 342.381 34.3387 341.97C34.3387 341.466 34.4693 341.069 34.7307 340.78C34.992 340.481 35.4167 340.267 36.0047 340.136C36.5927 340.005 37.3813 339.94 38.3707 339.94H39.0707V340.948H38.3847C37.946 340.948 37.5773 340.967 37.2787 341.004C36.98 341.032 36.7373 341.083 36.5507 341.158C36.3733 341.223 36.2427 341.317 36.1587 341.438C36.084 341.559 36.0467 341.709 36.0467 341.886C36.0467 342.194 36.154 342.446 36.3687 342.642C36.5833 342.838 36.882 342.936 37.2647 342.936C37.5727 342.936 37.8433 342.866 38.0767 342.726C38.3193 342.577 38.5107 342.376 38.6507 342.124C38.7907 341.872 38.8607 341.583 38.8607 341.256V339.646C38.8607 339.179 38.758 338.843 38.5527 338.638C38.3473 338.433 38.002 338.33 37.5167 338.33C37.134 338.33 36.742 338.391 36.3407 338.512C35.9393 338.624 35.5333 338.801 35.1227 339.044L34.6187 337.854C34.8613 337.686 35.146 337.541 35.4727 337.42C35.8087 337.289 36.1587 337.191 36.5227 337.126C36.896 337.051 37.246 337.014 37.5727 337.014C38.2447 337.014 38.7953 337.117 39.2247 337.322C39.6633 337.527 39.99 337.84 40.2047 338.26C40.4193 338.671 40.5267 339.203 40.5267 339.856V344H38.8887V342.544H39.0007C38.9353 342.871 38.8047 343.155 38.6087 343.398C38.422 343.631 38.184 343.813 37.8947 343.944C37.6053 344.075 37.274 344.14 36.9007 344.14ZM42.4803 344V337.154H44.1323V342.628H46.4843V337.154H48.1363V342.628H50.4883V337.154H52.1403V344H42.4803ZM54.1288 344V337.154H55.7108V342.208H55.3468L59.1408 337.154H60.5968V344H59.0148V338.932H59.3928L55.5848 344H54.1288ZM69.5294 344.14C68.8108 344.14 68.1854 343.995 67.6534 343.706C67.1214 343.407 66.7108 342.987 66.4214 342.446C66.1321 341.905 65.9874 341.27 65.9874 340.542C65.9874 339.814 66.1321 339.189 66.4214 338.666C66.7108 338.134 67.1214 337.728 67.6534 337.448C68.1854 337.159 68.8108 337.014 69.5294 337.014C69.9681 337.014 70.4021 337.084 70.8314 337.224C71.2608 337.364 71.6154 337.56 71.8954 337.812L71.3774 339.03C71.1348 338.815 70.8594 338.652 70.5514 338.54C70.2528 338.428 69.9634 338.372 69.6834 338.372C69.0768 338.372 68.6054 338.563 68.2694 338.946C67.9428 339.319 67.7794 339.856 67.7794 340.556C67.7794 341.247 67.9428 341.793 68.2694 342.194C68.6054 342.586 69.0768 342.782 69.6834 342.782C69.9541 342.782 70.2434 342.726 70.5514 342.614C70.8594 342.502 71.1348 342.334 71.3774 342.11L71.8954 343.342C71.6154 343.585 71.2561 343.781 70.8174 343.93C70.3881 344.07 69.9588 344.14 69.5294 344.14ZM76.296 344.14C75.5867 344.14 74.9707 343.995 74.448 343.706C73.9253 343.417 73.5193 343.006 73.23 342.474C72.9407 341.933 72.796 341.298 72.796 340.57C72.796 339.842 72.9407 339.212 73.23 338.68C73.5193 338.148 73.9253 337.737 74.448 337.448C74.9707 337.159 75.5867 337.014 76.296 337.014C77.0053 337.014 77.6213 337.159 78.144 337.448C78.6667 337.737 79.0727 338.148 79.362 338.68C79.6513 339.212 79.796 339.842 79.796 340.57C79.796 341.298 79.6513 341.933 79.362 342.474C79.0727 343.006 78.6667 343.417 78.144 343.706C77.6213 343.995 77.0053 344.14 76.296 344.14ZM76.296 342.81C76.8187 342.81 77.2387 342.623 77.556 342.25C77.8733 341.867 78.032 341.307 78.032 340.57C78.032 339.823 77.8733 339.268 77.556 338.904C77.2387 338.531 76.8187 338.344 76.296 338.344C75.7733 338.344 75.3533 338.531 75.036 338.904C74.7187 339.268 74.56 339.823 74.56 340.57C74.56 341.307 74.7187 341.867 75.036 342.25C75.3533 342.623 75.7733 342.81 76.296 342.81ZM84.6238 344.14C83.8958 344.14 83.2612 343.991 82.7198 343.692C82.1878 343.393 81.7772 342.95 81.4878 342.362C81.1985 341.765 81.0538 341.032 81.0538 340.164V339.142C81.0538 338.591 81.1005 338.097 81.1938 337.658C81.2965 337.21 81.4458 336.818 81.6418 336.482C81.8472 336.137 82.0945 335.833 82.3838 335.572C82.6825 335.311 83.0232 335.091 83.4058 334.914C83.7978 334.737 84.2365 334.587 84.7218 334.466L87.1158 333.878L87.6338 335.264L84.8478 335.922C84.1478 336.09 83.6158 336.403 83.2518 336.86C82.8878 337.308 82.7058 337.877 82.7058 338.568V339.324H82.4678C82.5612 338.923 82.7198 338.563 82.9438 338.246C83.1772 337.929 83.4758 337.681 83.8398 337.504C84.2038 337.317 84.6285 337.224 85.1138 337.224C85.5432 337.224 85.9352 337.303 86.2898 337.462C86.6538 337.621 86.9665 337.849 87.2278 338.148C87.4892 338.437 87.6898 338.792 87.8298 339.212C87.9792 339.623 88.0538 340.089 88.0538 340.612C88.0538 341.331 87.9092 341.956 87.6198 342.488C87.3398 343.011 86.9432 343.417 86.4298 343.706C85.9165 343.995 85.3145 344.14 84.6238 344.14ZM84.5538 342.81C85.1045 342.81 85.5292 342.628 85.8278 342.264C86.1358 341.9 86.2898 341.373 86.2898 340.682C86.2898 340.001 86.1358 339.478 85.8278 339.114C85.5292 338.741 85.1045 338.554 84.5538 338.554C84.0125 338.554 83.5878 338.736 83.2798 339.1C82.9718 339.464 82.8178 339.968 82.8178 340.612C82.8178 341.331 82.9672 341.877 83.2658 342.25C83.5738 342.623 84.0032 342.81 84.5538 342.81ZM89.6756 344V337.154H91.4256V339.422H93.2316C94.137 339.422 94.8183 339.613 95.2756 339.996C95.7423 340.379 95.9756 340.939 95.9756 341.676C95.9756 342.143 95.8636 342.553 95.6396 342.908C95.4156 343.253 95.0983 343.524 94.6876 343.72C94.2863 343.907 93.801 344 93.2316 344H89.6756ZM91.4256 342.852H92.9656C93.4043 342.852 93.745 342.759 93.9876 342.572C94.2303 342.376 94.3516 342.082 94.3516 341.69C94.3516 341.307 94.2303 341.027 93.9876 340.85C93.745 340.663 93.4043 340.57 92.9656 340.57H91.4256V342.852ZM96.8016 344V337.154H98.5516V344H96.8016ZM101.987 344V338.526H99.6488V337.154H106.089V338.526H103.737V344H101.987ZM107.162 344V337.154H108.744V342.208H108.38L112.174 337.154H113.63V344H112.048V338.932H112.426L108.618 344H107.162ZM115.023 344L116.045 342.236C116.223 341.919 116.447 341.667 116.717 341.48C116.988 341.284 117.268 341.186 117.557 341.186H117.837V341.34C117.305 341.34 116.853 341.261 116.479 341.102C116.106 340.943 115.821 340.71 115.625 340.402C115.439 340.094 115.345 339.721 115.345 339.282C115.345 338.619 115.569 338.101 116.017 337.728C116.465 337.345 117.123 337.154 117.991 337.154H121.477V344H119.853V341.634H119.125C118.845 341.634 118.603 341.709 118.397 341.858C118.192 342.007 118.024 342.194 117.893 342.418L116.997 344H115.023ZM118.355 340.486H119.853V338.302H118.355C117.898 338.302 117.557 338.4 117.333 338.596C117.109 338.783 116.997 339.044 116.997 339.38C116.997 339.725 117.109 339.996 117.333 340.192C117.557 340.388 117.898 340.486 118.355 340.486Z" fill="#1F2024"/>
<rect x="17" y="366" width="341" height="168" rx="15" fill="#83DBB8"/>
<rect x="17" y="366" width="341" height="168" rx="15" stroke="#42AF45" stroke-width="2" stroke-dasharray="8 8"/>
<g opacity="0.8">
<g clip-path="url(#clip3_190_27403)">
<rect x="24" y="373" width="327" height="71" rx="16" fill="#F8F9FE"/>
<rect width="80" height="71" transform="translate(24 373)" fill="#EAF2FF"/>
<mask id="mask1_190_27403" style="mask-type:alpha" maskUnits="userSpaceOnUse" x="48" y="395" width="32" height="27">
<path d="M59.4625 404.121C59.4625 405.962 58.0299 407.455 56.2627 407.455C54.4954 407.455 53.0628 405.962 53.0628 404.121C53.0628 402.281 54.4954 400.788 56.2627 400.788C58.0299 400.788 59.4625 402.281 59.4625 404.121Z" fill="#B4DBFF"/>
<path fill-rule="evenodd" clip-rule="evenodd" d="M48.0007 398.5C48.0007 396.659 49.4334 395.167 51.2006 395.167H76.7996C78.5668 395.167 79.9995 396.659 79.9995 398.5V418.499C79.9995 420.34 78.5669 421.833 76.7996 421.833H74.6874C74.6804 421.833 74.6734 421.833 74.6664 421.833H51.9299C51.9239 421.833 51.9178 421.833 51.9118 421.833H51.2006C49.4334 421.833 48.0007 420.34 48.0007 418.499V398.5ZM51.2006 397.667H76.7996C77.2414 397.667 77.5996 398.04 77.5996 398.5V408.887L70.6474 401.833L58.8198 413.833L55.3357 410.298L50.4006 415.305V398.5C50.4006 398.04 50.7588 397.667 51.2006 397.667Z" fill="#B4DBFF"/>
</mask>
<g mask="url(#mask1_190_27403)">
<rect x="48.0005" y="392.499" width="31.9987" height="31.9987" fill="#B4DBFF"/>
</g>
<path d="M120.196 405.31V401.572H121.176C121.475 401.199 121.722 400.737 121.918 400.186C122.114 399.635 122.259 398.987 122.352 398.24C122.445 397.493 122.492 396.649 122.492 395.706V393.13H129.478V401.572H130.878V405.31H129.282V403H121.792V405.31H120.196ZM122.996 401.572H127.672V394.558H124.158V395.874C124.158 396.77 124.116 397.573 124.032 398.282C123.948 398.982 123.817 399.603 123.64 400.144C123.472 400.685 123.257 401.161 122.996 401.572ZM138.478 403.14C137.843 403.14 137.283 403.023 136.798 402.79C136.312 402.547 135.92 402.202 135.622 401.754C135.323 401.306 135.132 400.779 135.048 400.172H133.886V403H132.178V396.154H133.886V398.8H135.062C135.211 397.932 135.584 397.251 136.182 396.756C136.788 396.261 137.554 396.014 138.478 396.014C139.187 396.014 139.803 396.159 140.326 396.448C140.848 396.737 141.254 397.148 141.544 397.68C141.833 398.212 141.978 398.842 141.978 399.57C141.978 400.298 141.833 400.933 141.544 401.474C141.254 402.006 140.848 402.417 140.326 402.706C139.803 402.995 139.187 403.14 138.478 403.14ZM138.478 401.81C139 401.81 139.42 401.623 139.738 401.25C140.055 400.867 140.214 400.307 140.214 399.57C140.214 398.823 140.055 398.268 139.738 397.904C139.42 397.531 139 397.344 138.478 397.344C137.964 397.344 137.544 397.531 137.218 397.904C136.9 398.268 136.742 398.823 136.742 399.57C136.742 400.307 136.9 400.867 137.218 401.25C137.544 401.623 137.964 401.81 138.478 401.81ZM143.607 403V396.154H145.357V398.8H148.381V396.154H150.131V403H148.381V400.172H145.357V403H143.607ZM154.393 403.14C153.898 403.14 153.455 403.047 153.063 402.86C152.68 402.664 152.377 402.403 152.153 402.076C151.938 401.749 151.831 401.381 151.831 400.97C151.831 400.466 151.962 400.069 152.223 399.78C152.484 399.481 152.909 399.267 153.497 399.136C154.085 399.005 154.874 398.94 155.863 398.94H156.563V399.948H155.877C155.438 399.948 155.07 399.967 154.771 400.004C154.472 400.032 154.23 400.083 154.043 400.158C153.866 400.223 153.735 400.317 153.651 400.438C153.576 400.559 153.539 400.709 153.539 400.886C153.539 401.194 153.646 401.446 153.861 401.642C154.076 401.838 154.374 401.936 154.757 401.936C155.065 401.936 155.336 401.866 155.569 401.726C155.812 401.577 156.003 401.376 156.143 401.124C156.283 400.872 156.353 400.583 156.353 400.256V398.646C156.353 398.179 156.25 397.843 156.045 397.638C155.84 397.433 155.494 397.33 155.009 397.33C154.626 397.33 154.234 397.391 153.833 397.512C153.432 397.624 153.026 397.801 152.615 398.044L152.111 396.854C152.354 396.686 152.638 396.541 152.965 396.42C153.301 396.289 153.651 396.191 154.015 396.126C154.388 396.051 154.738 396.014 155.065 396.014C155.737 396.014 156.288 396.117 156.717 396.322C157.156 396.527 157.482 396.84 157.697 397.26C157.912 397.671 158.019 398.203 158.019 398.856V403H156.381V401.544H156.493C156.428 401.871 156.297 402.155 156.101 402.398C155.914 402.631 155.676 402.813 155.387 402.944C155.098 403.075 154.766 403.14 154.393 403.14Z" fill="#1F2024"/>
<path d="M121.044 424V415.54H126.384V416.368H122.004V419.296H126.132V420.124H122.004V423.172H126.384V424H121.044ZM128.076 424V418.168H129.048V420.604H130.14L132.048 418.168H133.116L130.932 421L130.656 420.688C130.88 420.712 131.076 420.768 131.244 420.856C131.412 420.944 131.572 421.08 131.724 421.264C131.876 421.44 132.04 421.68 132.216 421.984L133.416 424H132.372L131.316 422.236C131.18 422.012 131.052 421.84 130.932 421.72C130.812 421.592 130.676 421.504 130.524 421.456C130.372 421.408 130.184 421.384 129.96 421.384H129.048V424H128.076ZM136.36 424.108C135.96 424.108 135.6 424.032 135.28 423.88C134.968 423.72 134.72 423.504 134.536 423.232C134.352 422.96 134.26 422.656 134.26 422.32C134.26 421.888 134.368 421.548 134.584 421.3C134.808 421.052 135.172 420.876 135.676 420.772C136.188 420.668 136.884 420.616 137.764 420.616H138.305V421.252H137.777C137.288 421.252 136.88 421.268 136.552 421.3C136.224 421.332 135.964 421.388 135.772 421.468C135.58 421.548 135.444 421.652 135.364 421.78C135.284 421.908 135.244 422.068 135.244 422.26C135.244 422.588 135.356 422.856 135.58 423.064C135.812 423.272 136.124 423.376 136.516 423.376C136.836 423.376 137.116 423.3 137.356 423.148C137.604 422.996 137.796 422.788 137.932 422.524C138.076 422.26 138.148 421.956 138.148 421.612V420.244C138.148 419.748 138.048 419.392 137.848 419.176C137.648 418.952 137.32 418.84 136.865 418.84C136.512 418.84 136.172 418.892 135.844 418.996C135.516 419.092 135.18 419.252 134.836 419.476L134.5 418.768C134.708 418.624 134.944 418.5 135.208 418.396C135.472 418.284 135.748 418.2 136.036 418.144C136.324 418.088 136.6 418.06 136.865 418.06C137.368 418.06 137.785 418.144 138.113 418.312C138.441 418.472 138.685 418.72 138.844 419.056C139.005 419.384 139.085 419.808 139.085 420.328V424H138.173V422.644H138.281C138.216 422.948 138.092 423.208 137.908 423.424C137.732 423.64 137.513 423.808 137.249 423.928C136.984 424.048 136.688 424.108 136.36 424.108ZM142.313 424V418.948H140.201V418.168H145.409V418.948H143.285V424H142.313ZM149.17 424.108C148.554 424.108 148.022 423.988 147.574 423.748C147.134 423.5 146.79 423.152 146.542 422.704C146.302 422.256 146.182 421.72 146.182 421.096C146.182 420.488 146.302 419.96 146.542 419.512C146.782 419.056 147.11 418.7 147.526 418.444C147.95 418.188 148.438 418.06 148.99 418.06C149.518 418.06 149.97 418.176 150.346 418.408C150.722 418.64 151.01 418.968 151.21 419.392C151.418 419.816 151.522 420.324 151.522 420.916V421.288H146.926V420.652H150.874L150.682 420.808C150.682 420.168 150.538 419.672 150.25 419.32C149.97 418.96 149.558 418.78 149.014 418.78C148.606 418.78 148.258 418.876 147.97 419.068C147.69 419.252 147.478 419.512 147.334 419.848C147.19 420.176 147.118 420.56 147.118 421V421.072C147.118 421.56 147.194 421.972 147.346 422.308C147.506 422.644 147.742 422.9 148.054 423.076C148.366 423.244 148.738 423.328 149.17 423.328C149.514 423.328 149.846 423.276 150.166 423.172C150.494 423.06 150.802 422.88 151.09 422.632L151.426 423.316C151.162 423.556 150.826 423.748 150.418 423.892C150.01 424.036 149.594 424.108 149.17 424.108ZM153.166 426.16V418.168H154.114V419.548H153.994C154.122 419.092 154.374 418.732 154.75 418.468C155.134 418.196 155.59 418.06 156.118 418.06C156.638 418.06 157.09 418.184 157.474 418.432C157.866 418.672 158.166 419.02 158.374 419.476C158.59 419.924 158.698 420.46 158.698 421.084C158.698 421.7 158.59 422.236 158.374 422.692C158.166 423.14 157.87 423.488 157.486 423.736C157.102 423.984 156.646 424.108 156.118 424.108C155.59 424.108 155.138 423.976 154.762 423.712C154.386 423.44 154.13 423.08 153.994 422.632H154.138V426.16H153.166ZM155.914 423.328C156.466 423.328 156.902 423.136 157.222 422.752C157.55 422.36 157.714 421.804 157.714 421.084C157.714 420.356 157.55 419.8 157.222 419.416C156.902 419.032 156.466 418.84 155.914 418.84C155.37 418.84 154.934 419.032 154.606 419.416C154.278 419.8 154.114 420.356 154.114 421.084C154.114 421.804 154.278 422.36 154.606 422.752C154.934 423.136 155.37 423.328 155.914 423.328ZM160.387 424V418.168H161.275V423.076H160.975L164.647 418.168H165.475V424H164.587V419.08H164.887L161.215 424H160.387ZM167.515 424V418.168H168.487V420.592H171.667V418.168H172.639V424H171.667V421.384H168.487V424H167.515ZM177.138 424.108C176.562 424.108 176.062 423.984 175.638 423.736C175.222 423.48 174.898 423.104 174.666 422.608C174.442 422.112 174.33 421.504 174.33 420.784V419.884C174.33 419.42 174.366 419.004 174.438 418.636C174.51 418.26 174.622 417.928 174.774 417.64C174.926 417.352 175.114 417.1 175.338 416.884C175.562 416.668 175.822 416.484 176.118 416.332C176.422 416.18 176.762 416.052 177.138 415.948L179.214 415.36L179.538 416.164L177.21 416.788C176.562 416.964 176.074 417.28 175.746 417.736C175.426 418.184 175.266 418.736 175.266 419.392V419.86H175.098C175.194 419.508 175.346 419.204 175.554 418.948C175.762 418.692 176.018 418.496 176.322 418.36C176.634 418.216 176.978 418.144 177.354 418.144C177.738 418.144 178.082 418.212 178.386 418.348C178.698 418.484 178.966 418.684 179.19 418.948C179.414 419.204 179.586 419.512 179.706 419.872C179.834 420.232 179.898 420.64 179.898 421.096C179.898 421.704 179.782 422.236 179.55 422.692C179.326 423.14 179.006 423.488 178.59 423.736C178.182 423.984 177.698 424.108 177.138 424.108ZM177.102 423.328C177.67 423.328 178.114 423.14 178.434 422.764C178.754 422.38 178.914 421.832 178.914 421.12C178.914 420.424 178.754 419.884 178.434 419.5C178.114 419.116 177.674 418.924 177.114 418.924C176.554 418.924 176.114 419.116 175.794 419.5C175.474 419.876 175.314 420.388 175.314 421.036C175.314 421.788 175.47 422.36 175.782 422.752C176.102 423.136 176.542 423.328 177.102 423.328ZM182.208 426.16L183.3 423.7V424.12L180.744 418.168H181.8L183.888 423.28H183.564L185.676 418.168H186.696L183.228 426.16H182.208ZM187.949 426.16V418.168H188.897V419.548H188.777C188.905 419.092 189.157 418.732 189.533 418.468C189.917 418.196 190.373 418.06 190.901 418.06C191.421 418.06 191.873 418.184 192.257 418.432C192.649 418.672 192.949 419.02 193.157 419.476C193.373 419.924 193.481 420.46 193.481 421.084C193.481 421.7 193.373 422.236 193.157 422.692C192.949 423.14 192.653 423.488 192.269 423.736C191.885 423.984 191.429 424.108 190.901 424.108C190.373 424.108 189.921 423.976 189.545 423.712C189.169 423.44 188.913 423.08 188.777 422.632H188.921V426.16H187.949ZM190.697 423.328C191.249 423.328 191.685 423.136 192.005 422.752C192.333 422.36 192.497 421.804 192.497 421.084C192.497 420.356 192.333 419.8 192.005 419.416C191.685 419.032 191.249 418.84 190.697 418.84C190.153 418.84 189.717 419.032 189.389 419.416C189.061 419.8 188.897 420.356 188.897 421.084C188.897 421.804 189.061 422.36 189.389 422.752C189.717 423.136 190.153 423.328 190.697 423.328ZM195.171 424V418.168H199.263V418.948H196.143V424H195.171Z" fill="#71727A"/>
<mask id="mask2_190_27403" style="mask-type:alpha" maskUnits="userSpaceOnUse" x="325" y="402" width="8" height="13">
<path fill-rule="evenodd" clip-rule="evenodd" d="M325.726 402.97C325.425 403.263 325.425 403.737 325.726 404.03L330.32 408.5L325.726 412.969C325.425 413.262 325.425 413.737 325.726 414.03C326.027 414.323 326.515 414.323 326.816 414.03L332.5 408.5L326.816 402.97C326.515 402.677 326.027 402.677 325.726 402.97Z" fill="#006FFD"/>
</mask>
<g mask="url(#mask2_190_27403)">
<rect x="323" y="402.499" width="11.9995" height="11.9995" fill="#8F9098"/>
</g>
</g>
</g>
<g opacity="0.8">
<g clip-path="url(#clip4_190_27403)">
<rect x="24" y="456" width="327" height="71" rx="16" fill="#F8F9FE"/>
<rect width="80" height="71" transform="translate(24 456)" fill="#EAF2FF"/>
<mask id="mask3_190_27403" style="mask-type:alpha" maskUnits="userSpaceOnUse" x="48" y="478" width="32" height="27">
<path d="M59.4625 487.121C59.4625 488.962 58.0299 490.455 56.2627 490.455C54.4954 490.455 53.0628 488.962 53.0628 487.121C53.0628 485.281 54.4954 483.788 56.2627 483.788C58.0299 483.788 59.4625 485.281 59.4625 487.121Z" fill="#B4DBFF"/>
<path fill-rule="evenodd" clip-rule="evenodd" d="M48.0007 481.5C48.0007 479.659 49.4334 478.167 51.2006 478.167H76.7996C78.5668 478.167 79.9995 479.659 79.9995 481.5V501.499C79.9995 503.34 78.5669 504.833 76.7996 504.833H74.6874C74.6804 504.833 74.6734 504.833 74.6664 504.833H51.9299C51.9239 504.833 51.9178 504.833 51.9118 504.833H51.2006C49.4334 504.833 48.0007 503.34 48.0007 501.499V481.5ZM51.2006 480.667H76.7996C77.2414 480.667 77.5996 481.04 77.5996 481.5V491.887L70.6474 484.833L58.8198 496.833L55.3357 493.298L50.4006 498.305V481.5C50.4006 481.04 50.7588 480.667 51.2006 480.667Z" fill="#B4DBFF"/>
</mask>
<g mask="url(#mask3_190_27403)">
<rect x="48.0005" y="475.499" width="31.9987" height="31.9987" fill="#B4DBFF"/>
</g>
<path d="M121.106 486V476.13H122.604L126.328 483.004H125.88L129.59 476.13H131.06V486H129.436V478.79H129.744L126.608 484.502H125.558L122.394 478.776H122.73V486H121.106ZM133.778 488.52L135.206 485.37V486.098L132.196 479.154H134.058L136.186 484.46H135.766L137.936 479.154H139.7L135.584 488.52H133.778ZM140.709 486V479.154H142.151L144.517 483.2L146.883 479.154H148.311V486H146.771V481.17H147.107L144.923 484.88H144.097L141.913 481.17H142.249V486H140.709ZM150.293 486V479.154H151.875V484.208H151.511L155.305 479.154H156.761V486H155.179V480.932H155.557L151.749 486H150.293ZM158.742 486V479.154H160.324V484.208H159.96L163.754 479.154H165.21V486H163.628V480.932H164.006L160.198 486H158.742ZM161.962 478.286C161.505 478.286 161.103 478.207 160.758 478.048C160.413 477.889 160.123 477.665 159.89 477.376C159.666 477.077 159.507 476.732 159.414 476.34L160.31 476.032C160.469 476.48 160.679 476.807 160.94 477.012C161.211 477.217 161.556 477.32 161.976 477.32C162.405 477.32 162.751 477.217 163.012 477.012C163.273 476.797 163.493 476.475 163.67 476.046L164.524 476.34C164.393 476.769 164.207 477.129 163.964 477.418C163.721 477.707 163.432 477.927 163.096 478.076C162.76 478.216 162.382 478.286 161.962 478.286ZM173.429 486V477.628H170.041V476.13H178.609V477.628H175.221V486H173.429ZM178.58 488.52V479.154H180.288V480.596H180.148C180.288 480.12 180.573 479.737 181.002 479.448C181.441 479.159 181.95 479.014 182.528 479.014C183.126 479.014 183.648 479.159 184.096 479.448C184.554 479.737 184.908 480.148 185.16 480.68C185.412 481.203 185.538 481.833 185.538 482.57C185.538 483.298 185.412 483.933 185.16 484.474C184.908 485.006 184.558 485.417 184.11 485.706C183.662 485.995 183.135 486.14 182.528 486.14C181.959 486.14 181.46 486 181.03 485.72C180.601 485.431 180.312 485.057 180.162 484.6H180.33V488.52H178.58ZM182.038 484.81C182.561 484.81 182.981 484.623 183.298 484.25C183.616 483.867 183.774 483.307 183.774 482.57C183.774 481.823 183.616 481.268 183.298 480.904C182.981 480.531 182.561 480.344 182.038 480.344C181.516 480.344 181.096 480.531 180.778 480.904C180.461 481.268 180.302 481.823 180.302 482.57C180.302 483.307 180.461 483.867 180.778 484.25C181.096 484.623 181.516 484.81 182.038 484.81ZM190.302 486.14C189.593 486.14 188.977 485.995 188.454 485.706C187.931 485.417 187.525 485.006 187.236 484.474C186.947 483.933 186.802 483.298 186.802 482.57C186.802 481.842 186.947 481.212 187.236 480.68C187.525 480.148 187.931 479.737 188.454 479.448C188.977 479.159 189.593 479.014 190.302 479.014C191.011 479.014 191.627 479.159 192.15 479.448C192.673 479.737 193.079 480.148 193.368 480.68C193.657 481.212 193.802 481.842 193.802 482.57C193.802 483.298 193.657 483.933 193.368 484.474C193.079 485.006 192.673 485.417 192.15 485.706C191.627 485.995 191.011 486.14 190.302 486.14ZM190.302 484.81C190.825 484.81 191.245 484.623 191.562 484.25C191.879 483.867 192.038 483.307 192.038 482.57C192.038 481.823 191.879 481.268 191.562 480.904C191.245 480.531 190.825 480.344 190.302 480.344C189.779 480.344 189.359 480.531 189.042 480.904C188.725 481.268 188.566 481.823 188.566 482.57C188.566 483.307 188.725 483.867 189.042 484.25C189.359 484.623 189.779 484.81 190.302 484.81ZM195.105 486.196L194.559 484.81C194.858 484.707 195.105 484.572 195.301 484.404C195.506 484.227 195.67 484.003 195.791 483.732C195.912 483.452 196.001 483.111 196.057 482.71C196.113 482.309 196.141 481.828 196.141 481.268V479.154H201.657V486H199.907V480.526H197.751V481.324C197.751 482.061 197.7 482.71 197.597 483.27C197.494 483.83 197.336 484.306 197.121 484.698C196.916 485.09 196.645 485.412 196.309 485.664C195.973 485.907 195.572 486.084 195.105 486.196ZM203.458 486.196L202.912 484.81C203.211 484.707 203.458 484.572 203.654 484.404C203.86 484.227 204.023 484.003 204.144 483.732C204.266 483.452 204.354 483.111 204.41 482.71C204.466 482.309 204.494 481.828 204.494 481.268V479.154H210.01V486H208.26V480.526H206.104V481.324C206.104 482.061 206.053 482.71 205.95 483.27C205.848 483.83 205.689 484.306 205.474 484.698C205.269 485.09 204.998 485.412 204.662 485.664C204.326 485.907 203.925 486.084 203.458 486.196ZM211.994 486V479.154H213.744V481.422H215.55C216.455 481.422 217.137 481.613 217.594 481.996C218.061 482.379 218.294 482.939 218.294 483.676C218.294 484.143 218.182 484.553 217.958 484.908C217.734 485.253 217.417 485.524 217.006 485.72C216.605 485.907 216.119 486 215.55 486H211.994ZM213.744 484.852H215.284C215.723 484.852 216.063 484.759 216.306 484.572C216.549 484.376 216.67 484.082 216.67 483.69C216.67 483.307 216.549 483.027 216.306 482.85C216.063 482.663 215.723 482.57 215.284 482.57H213.744V484.852Z" fill="#1F2024"/>
<path d="M121.044 507V498.54H124.428C125.292 498.54 125.964 498.732 126.444 499.116C126.924 499.5 127.164 500.044 127.164 500.748C127.164 501.276 127.008 501.716 126.696 502.068C126.392 502.42 125.976 502.652 125.448 502.764V502.596C125.848 502.644 126.192 502.76 126.48 502.944C126.768 503.12 126.988 503.356 127.14 503.652C127.292 503.94 127.368 504.28 127.368 504.672C127.368 505.176 127.256 505.604 127.032 505.956C126.816 506.3 126.5 506.56 126.084 506.736C125.668 506.912 125.164 507 124.572 507H121.044ZM122.004 506.208H124.476C124.732 506.208 124.96 506.188 125.16 506.148C125.368 506.108 125.548 506.048 125.7 505.968C125.852 505.88 125.98 505.776 126.084 505.656C126.188 505.536 126.264 505.392 126.312 505.224C126.368 505.056 126.396 504.868 126.396 504.66C126.396 504.444 126.368 504.256 126.312 504.096C126.264 503.928 126.188 503.784 126.084 503.664C125.98 503.536 125.852 503.432 125.7 503.352C125.548 503.272 125.368 503.212 125.16 503.172C124.96 503.132 124.732 503.112 124.476 503.112H122.004V506.208ZM122.004 502.32H124.284C124.908 502.32 125.38 502.192 125.7 501.936C126.028 501.68 126.192 501.312 126.192 500.832C126.192 500.336 126.028 499.964 125.7 499.716C125.38 499.46 124.908 499.332 124.284 499.332H122.004V502.32ZM128.865 507.132L128.505 506.364C128.777 506.252 129.001 506.104 129.177 505.92C129.361 505.736 129.505 505.504 129.609 505.224C129.721 504.936 129.801 504.584 129.849 504.168C129.897 503.752 129.921 503.248 129.921 502.656V501.168H134.157V507H133.185V501.948H130.833V502.692C130.833 503.372 130.797 503.964 130.725 504.468C130.653 504.972 130.537 505.4 130.377 505.752C130.225 506.096 130.021 506.38 129.765 506.604C129.517 506.828 129.217 507.004 128.865 507.132ZM138.048 507.108C137.648 507.108 137.288 507.032 136.968 506.88C136.656 506.72 136.408 506.504 136.224 506.232C136.04 505.96 135.948 505.656 135.948 505.32C135.948 504.888 136.056 504.548 136.272 504.3C136.496 504.052 136.86 503.876 137.364 503.772C137.876 503.668 138.572 503.616 139.452 503.616H139.992V504.252H139.464C138.976 504.252 138.568 504.268 138.24 504.3C137.912 504.332 137.652 504.388 137.46 504.468C137.268 504.548 137.132 504.652 137.052 504.78C136.972 504.908 136.932 505.068 136.932 505.26C136.932 505.588 137.044 505.856 137.268 506.064C137.5 506.272 137.812 506.376 138.204 506.376C138.524 506.376 138.804 506.3 139.044 506.148C139.292 505.996 139.484 505.788 139.62 505.524C139.764 505.26 139.836 504.956 139.836 504.612V503.244C139.836 502.748 139.736 502.392 139.536 502.176C139.336 501.952 139.008 501.84 138.552 501.84C138.2 501.84 137.86 501.892 137.532 501.996C137.204 502.092 136.868 502.252 136.524 502.476L136.188 501.768C136.396 501.624 136.632 501.5 136.896 501.396C137.16 501.284 137.436 501.2 137.724 501.144C138.012 501.088 138.288 501.06 138.552 501.06C139.056 501.06 139.472 501.144 139.8 501.312C140.128 501.472 140.372 501.72 140.532 502.056C140.692 502.384 140.772 502.808 140.772 503.328V507H139.86V505.644H139.968C139.904 505.948 139.78 506.208 139.596 506.424C139.42 506.64 139.2 506.808 138.936 506.928C138.672 507.048 138.376 507.108 138.048 507.108ZM142.153 508.56V506.22H142.765C142.949 505.948 143.097 505.652 143.209 505.332C143.329 505.004 143.413 504.64 143.461 504.24C143.517 503.84 143.545 503.388 143.545 502.884V501.168H147.673V506.22H148.597V508.56H147.757V507H142.981V508.56H142.153ZM143.701 506.22H146.749V501.936H144.409V503.052C144.409 503.652 144.349 504.232 144.229 504.792C144.109 505.352 143.933 505.828 143.701 506.22ZM150.01 507V501.168H150.898V506.076H150.598L154.27 501.168H155.098V507H154.21V502.08H154.51L150.838 507H150.01ZM157.138 507V501.168H159.982C160.446 501.168 160.826 501.228 161.122 501.348C161.418 501.46 161.638 501.632 161.782 501.864C161.926 502.088 161.998 502.368 161.998 502.704C161.998 503.072 161.866 503.384 161.602 503.64C161.346 503.896 161.01 504.048 160.594 504.096V503.94C160.922 503.948 161.206 504.016 161.446 504.144C161.686 504.264 161.87 504.432 161.998 504.648C162.126 504.864 162.19 505.112 162.19 505.392C162.19 505.888 162.006 506.28 161.638 506.568C161.27 506.856 160.75 507 160.078 507H157.138ZM158.062 506.34H160.042C160.434 506.34 160.734 506.256 160.942 506.088C161.158 505.912 161.266 505.664 161.266 505.344C161.266 505.024 161.158 504.78 160.942 504.612C160.734 504.444 160.434 504.36 160.042 504.36H158.062V506.34ZM158.062 503.7H159.934C160.294 503.7 160.574 503.616 160.774 503.448C160.982 503.28 161.086 503.048 161.086 502.752C161.086 502.456 160.982 502.228 160.774 502.068C160.574 501.908 160.294 501.828 159.934 501.828H158.062V503.7ZM166.257 507.108C165.689 507.108 165.197 506.984 164.781 506.736C164.365 506.488 164.041 506.14 163.809 505.692C163.585 505.236 163.473 504.7 163.473 504.084C163.473 503.468 163.585 502.936 163.809 502.488C164.041 502.032 164.365 501.68 164.781 501.432C165.197 501.184 165.689 501.06 166.257 501.06C166.825 501.06 167.317 501.184 167.733 501.432C168.149 501.68 168.469 502.032 168.693 502.488C168.925 502.936 169.041 503.468 169.041 504.084C169.041 504.7 168.925 505.236 168.693 505.692C168.469 506.14 168.149 506.488 167.733 506.736C167.317 506.984 166.825 507.108 166.257 507.108ZM166.257 506.328C166.809 506.328 167.245 506.136 167.565 505.752C167.893 505.36 168.057 504.8 168.057 504.072C168.057 503.352 167.893 502.8 167.565 502.416C167.245 502.032 166.809 501.84 166.257 501.84C165.713 501.84 165.277 502.032 164.949 502.416C164.621 502.8 164.457 503.352 164.457 504.072C164.457 504.8 164.621 505.36 164.949 505.752C165.277 506.136 165.713 506.328 166.257 506.328ZM173.222 507.108C172.638 507.108 172.134 506.98 171.71 506.724C171.286 506.468 170.958 506.112 170.726 505.656C170.502 505.192 170.39 504.656 170.39 504.048C170.39 503.432 170.502 502.9 170.726 502.452C170.958 502.004 171.286 501.66 171.71 501.42C172.134 501.18 172.638 501.06 173.222 501.06C173.582 501.06 173.938 501.124 174.29 501.252C174.642 501.38 174.934 501.56 175.166 501.792L174.83 502.5C174.598 502.276 174.342 502.112 174.062 502.008C173.79 501.904 173.53 501.852 173.282 501.852C172.674 501.852 172.206 502.044 171.878 502.428C171.55 502.804 171.386 503.348 171.386 504.06C171.386 504.756 171.55 505.308 171.878 505.716C172.206 506.116 172.674 506.316 173.282 506.316C173.53 506.316 173.79 506.264 174.062 506.16C174.342 506.056 174.598 505.888 174.83 505.656L175.166 506.364C174.934 506.596 174.638 506.78 174.278 506.916C173.926 507.044 173.574 507.108 173.222 507.108ZM177.741 507V501.948H175.629V501.168H180.837V501.948H178.713V507H177.741ZM184.394 507.108C183.826 507.108 183.334 506.984 182.918 506.736C182.502 506.488 182.178 506.14 181.946 505.692C181.722 505.236 181.61 504.7 181.61 504.084C181.61 503.468 181.722 502.936 181.946 502.488C182.178 502.032 182.502 501.68 182.918 501.432C183.334 501.184 183.826 501.06 184.394 501.06C184.962 501.06 185.454 501.184 185.87 501.432C186.286 501.68 186.606 502.032 186.83 502.488C187.062 502.936 187.178 503.468 187.178 504.084C187.178 504.7 187.062 505.236 186.83 505.692C186.606 506.14 186.286 506.488 185.87 506.736C185.454 506.984 184.962 507.108 184.394 507.108ZM184.394 506.328C184.946 506.328 185.382 506.136 185.702 505.752C186.03 505.36 186.194 504.8 186.194 504.072C186.194 503.352 186.03 502.8 185.702 502.416C185.382 502.032 184.946 501.84 184.394 501.84C183.85 501.84 183.414 502.032 183.086 502.416C182.758 502.8 182.594 503.352 182.594 504.072C182.594 504.8 182.758 505.36 183.086 505.752C183.414 506.136 183.85 506.328 184.394 506.328ZM188.875 507V501.168H189.847V503.604H190.939L192.847 501.168H193.915L191.731 504L191.455 503.688C191.679 503.712 191.875 503.768 192.043 503.856C192.211 503.944 192.371 504.08 192.523 504.264C192.675 504.44 192.839 504.68 193.015 504.984L194.215 507H193.171L192.115 505.236C191.979 505.012 191.851 504.84 191.731 504.72C191.611 504.592 191.475 504.504 191.323 504.456C191.171 504.408 190.983 504.384 190.759 504.384H189.847V507H188.875Z" fill="#71727A"/>
<mask id="mask4_190_27403" style="mask-type:alpha" maskUnits="userSpaceOnUse" x="325" y="485" width="8" height="13">
<path fill-rule="evenodd" clip-rule="evenodd" d="M325.726 485.97C325.425 486.263 325.425 486.737 325.726 487.03L330.32 491.5L325.726 495.969C325.425 496.262 325.425 496.737 325.726 497.03C326.027 497.323 326.515 497.323 326.816 497.03L332.5 491.5L326.816 485.97C326.515 485.677 326.027 485.677 325.726 485.97Z" fill="#006FFD"/>
</mask>
<g mask="url(#mask4_190_27403)">
<rect x="323" y="485.499" width="11.9995" height="11.9995" fill="#8F9098"/>
</g>
</g>
</g>
</g>
<defs>
<clipPath id="clip0_190_27403">
<rect width="375" height="519" fill="white" transform="translate(0 16)"/>
</clipPath>
<clipPath id="clip1_190_27403">
<rect x="16" y="51" width="250" height="247" rx="16" fill="white"/>
</clipPath>
<clipPath id="clip2_190_27403">
<rect x="278" y="51" width="250" height="247" rx="16" fill="white"/>
</clipPath>
<clipPath id="clip3_190_27403">
<rect x="24" y="373" width="327" height="71" rx="16" fill="white"/>
</clipPath>
<clipPath id="clip4_190_27403">
<rect x="24" y="456" width="327" height="71" rx="16" fill="white"/>
</clipPath>
</defs>
</svg>
