<svg width="122" height="101" viewBox="0 0 122 101" fill="none" xmlns="http://www.w3.org/2000/svg">
<path d="M118.841 55.3424C113.201 55.5578 107.096 54.0095 102.63 50.4464C102.509 50.3432 102.356 50.2864 102.197 50.2864C102.038 50.2864 101.885 50.3432 101.764 50.4464C101.669 50.5423 101.612 50.669 101.602 50.8035C101.593 50.938 101.632 51.0714 101.713 51.1796C104.358 55.6142 108.89 57.9468 113.186 57.2085C75.0177 63.781 85.6813 40.1161 83.3025 14.462C83.1077 9.69416 79.801 3.13709 73.9873 5.23392C60.504 10.8733 70.9881 81.4118 60.8065 79.4688C55.6541 78.4844 56.5975 43.3716 55.3107 21.624C54.9518 15.472 49.2406 13.1906 45.006 16.6409C41.771 19.6041 41.6377 24.1515 40.9046 28.0837C38.7052 37.5732 39.0795 75.8236 34.9422 90.1169C33.2555 95.9357 29.8514 93.6287 29.713 89.9067C28.9696 70.3945 29.918 38.209 28.9183 20.7628C28.985 15.0926 26.924 10.5093 24.3043 9.80184C12.6205 6.75657 15.7888 69.9023 1.77752 53.8916C1.69017 53.7905 1.56681 53.7275 1.43371 53.716C1.30061 53.7045 1.16828 53.7454 1.0649 53.8301C0.882532 53.9854 0.768112 54.2058 0.74608 54.4443C0.724048 54.6828 0.796151 54.9205 0.946989 55.1066C16.9731 74.7112 17.2141 11.3757 23.1354 13.165C25.6014 13.9083 25.8936 31.3289 25.7398 43.1767C25.627 51.9947 24.7606 85.2517 25.791 91.2551C27.6367 102.047 36.5571 98.6786 38.9513 92.0241C44.6727 76.0031 42.499 36.0762 47.2104 24.172C48.405 21.1472 49.3688 23.039 49.5687 24.3258C51.358 35.9583 48.8407 72.0043 53.5214 81.2631C54.9518 84.0828 57.6228 86.5334 61.0628 86.3898C72.562 84.6262 70.8702 64.4423 71.9366 55.7782C72.4492 51.9844 71.8238 22.4546 74.4128 13.411C75.0075 11.3193 77.4119 9.4327 77.8836 13.3444C81.3031 41.4542 70.8087 68.2002 110.761 59.0593C106.957 61.9918 104.645 64.632 102.917 70.8917C102.901 70.9602 102.899 71.0314 102.911 71.1008C102.923 71.1701 102.95 71.2362 102.989 71.2949C103.028 71.3536 103.078 71.4036 103.137 71.4419C103.197 71.4801 103.263 71.5058 103.333 71.5172C103.425 71.5395 103.522 71.5355 103.613 71.5056C103.704 71.4757 103.784 71.4211 103.845 71.348C108.654 63.9707 112.632 60.8895 119.225 58.7415C121.953 57.8289 121.456 55.2655 118.841 55.3424Z" fill="#DB8C83"/>
<path d="M19.9257 63.6939C19.5378 64.2625 19.2794 64.9094 19.1687 65.5888C19.058 66.2682 19.0976 66.9636 19.2849 67.626C19.3074 67.6932 19.3479 67.7528 19.4021 67.7983C19.4563 67.8439 19.5219 67.8736 19.5919 67.8842C19.6619 67.8948 19.7334 67.8859 19.7987 67.8584C19.8639 67.831 19.9203 67.786 19.9616 67.7286C20.3463 67.1594 20.6012 66.5126 20.7084 65.834C20.8156 65.1554 20.7724 64.4616 20.582 63.8015C20.5593 63.7375 20.5199 63.6807 20.4677 63.637C20.4156 63.5934 20.3528 63.5646 20.2857 63.5536C20.2186 63.5426 20.1498 63.5498 20.0865 63.5745C20.0232 63.5992 19.9677 63.6404 19.9257 63.6939Z" fill="#DB8C83"/>
<path d="M19.2853 69.9588C16.4297 79.3304 15.025 95.7769 24.7145 100.975C24.7501 100.997 24.7924 101.005 24.8334 100.997C24.8744 100.989 24.9111 100.967 24.9365 100.934C24.9619 100.901 24.9742 100.86 24.9711 100.818C24.9679 100.777 24.9496 100.738 24.9195 100.709C17.8396 93.1726 20.0389 79.8738 19.6185 69.9998C19.6184 69.9586 19.6033 69.9188 19.576 69.8879C19.5486 69.8571 19.5109 69.8372 19.47 69.8322C19.4291 69.8272 19.3877 69.8372 19.3537 69.8606C19.3197 69.8839 19.2954 69.9188 19.2853 69.9588Z" fill="#DB8C83"/>
<path d="M61.8829 32.3594C59.7297 22.8032 59.5502 6.2952 69.573 1.82983C69.6099 1.81377 69.6514 1.81141 69.6899 1.8232C69.7285 1.83499 69.7615 1.86014 69.7831 1.89413C69.8048 1.92813 69.8136 1.96873 69.8079 2.00863C69.8023 2.04853 69.7826 2.08512 69.7524 2.11179C62.1341 9.10463 63.344 22.5264 62.1956 32.3594C62.1812 32.3886 62.159 32.4132 62.1313 32.4304C62.1037 32.4476 62.0718 32.4567 62.0393 32.4567C62.0067 32.4567 61.9748 32.4476 61.9472 32.4304C61.9195 32.4132 61.8973 32.3886 61.8829 32.3594Z" fill="#DB8C83"/>
<path d="M75.9303 0.440514C75.3073 0.15036 74.6284 0 73.9411 0C73.2539 0 72.5749 0.15036 71.9519 0.440514C71.8883 0.472533 71.8348 0.52161 71.7974 0.582262C71.76 0.642915 71.7402 0.712748 71.7402 0.783995C71.7402 0.855243 71.76 0.925107 71.7974 0.985759C71.8348 1.04641 71.8883 1.09549 71.9519 1.12751C72.5746 1.41869 73.2537 1.56959 73.9411 1.56959C74.6285 1.56959 75.3076 1.41869 75.9303 1.12751C75.9955 1.09691 76.0507 1.04834 76.0894 0.987512C76.1281 0.92668 76.1486 0.856074 76.1486 0.783995C76.1486 0.711917 76.1281 0.641342 76.0894 0.58051C76.0507 0.519678 75.9955 0.471115 75.9303 0.440514Z" fill="#DB8C83"/>
</svg>
