<svg width="375" height="516" viewBox="0 0 375 516" fill="none" xmlns="http://www.w3.org/2000/svg">
<g clip-path="url(#clip0_190_27507)">
<rect width="375" height="516" rx="32" fill="white"/>
<path d="M374 35.9117H375V43.7352H374V51.5588H375V59.3823H374V67.2058H375V75.0294H374V82.8529H375V90.6764H374V98.5H375V106.324H374V114.147H375V121.971H374V129.794H375V137.618H374V145.441H375V153.265H374V161.088H375V168.912H374V176.735H375V184.559H374V192.382H375V200.206H374V208.029H375V215.853H374V223.676H375V231.5H374V239.324H375V247.147H374V254.971H375V262.794H374V270.618H375V278.441H374V286.265H375V294.088H374V297H370.924V298H362.772V297H354.619V298H346.467V297H338.315V298H330.163V297H322.011V298H313.859V297H305.706V298H297.554V297H289.402V298H281.25V297H273.098V298H264.946V297H256.794V298H248.641V297H240.489V298H232.337V297H224.185V298H216.033V297H207.88V298H199.728V297H191.576V298H183.424V297H175.272V298H167.12V297H158.967V298H150.815V297H142.663V298H134.511V297H126.359V298H118.207V297H110.054V298H101.902V297H93.75V298H85.5978V297H77.4457V298H69.2935V297H61.1413V298H52.9891V297H44.837V298H36.6848V297H28.5326V298H20.3804V297H12.2283V298H4.07609V297H1V294.088H0V286.265H1V278.441H0V270.618H1V262.794H0V254.971H1V247.147H0V239.324H1V231.5H0V223.676H1V215.853H0V208.029H1V200.206H0V192.382H1V184.559H0V176.735H1V168.912H0V161.088H1V153.265H0V145.441H1V137.618H0V129.794H1V121.971H0V114.147H1V106.324H0V98.5H1V90.6765H0V82.8529H1V75.0294H0V67.2059H1V59.3823H0V51.5588H1V43.7353H0V35.9118H1V32C1 30.6268 1.08922 29.275 1.26207 27.9498L0.270473 27.8205C0.638581 24.9985 1.37436 22.292 2.42818 19.7508L3.3519 20.1338C4.39677 17.6142 5.76464 15.2617 7.40414 13.1282L6.61122 12.5189C8.31475 10.3021 10.3021 8.31475 12.5189 6.61122L13.1282 7.40414C15.2617 5.76464 17.6142 4.39677 20.1338 3.3519L19.7508 2.42818C22.292 1.37436 24.9985 0.638581 27.8205 0.270473L27.9498 1.26207C29.275 1.08922 30.6268 1 32 1H36.0922V0H44.2764V1H52.4606V0H60.6448V1H68.829V0H77.0132V1H85.1974V0H93.3817V1H101.566V0H109.75V1H117.934V0H126.118V1H134.303V0H142.487V1H150.671V0H158.855V1H167.039V0H175.224V1H183.408V0H191.592V1H199.776V0H207.961V1H216.145V0H224.329V1H232.513V0H240.697V1H248.882V0H257.066V1H265.25V0H273.434V1H281.618V0H289.803V1H297.987V0H306.171V1H314.355V0H322.539V1H330.724V0H338.908V1H343C344.373 1 345.725 1.08922 347.05 1.26207L347.18 0.270473C350.002 0.63858 352.708 1.37436 355.249 2.42818L354.866 3.35191C357.386 4.39678 359.738 5.76465 361.872 7.40414L362.481 6.61122C364.698 8.31475 366.685 10.3021 368.389 12.5189L367.596 13.1282C369.235 15.2617 370.603 17.6142 371.648 20.1338L372.572 19.7508C373.626 22.292 374.361 24.9985 374.73 27.8205L373.738 27.9498C373.911 29.275 374 30.6268 374 32V35.9117Z" fill="#83DBB8"/>
<path d="M374 35.9117H375V43.7352H374V51.5588H375V59.3823H374V67.2058H375V75.0294H374V82.8529H375V90.6764H374V98.5H375V106.324H374V114.147H375V121.971H374V129.794H375V137.618H374V145.441H375V153.265H374V161.088H375V168.912H374V176.735H375V184.559H374V192.382H375V200.206H374V208.029H375V215.853H374V223.676H375V231.5H374V239.324H375V247.147H374V254.971H375V262.794H374V270.618H375V278.441H374V286.265H375V294.088H374V297H370.924V298H362.772V297H354.619V298H346.467V297H338.315V298H330.163V297H322.011V298H313.859V297H305.706V298H297.554V297H289.402V298H281.25V297H273.098V298H264.946V297H256.794V298H248.641V297H240.489V298H232.337V297H224.185V298H216.033V297H207.88V298H199.728V297H191.576V298H183.424V297H175.272V298H167.12V297H158.967V298H150.815V297H142.663V298H134.511V297H126.359V298H118.207V297H110.054V298H101.902V297H93.75V298H85.5978V297H77.4457V298H69.2935V297H61.1413V298H52.9891V297H44.837V298H36.6848V297H28.5326V298H20.3804V297H12.2283V298H4.07609V297H1V294.088H0V286.265H1V278.441H0V270.618H1V262.794H0V254.971H1V247.147H0V239.324H1V231.5H0V223.676H1V215.853H0V208.029H1V200.206H0V192.382H1V184.559H0V176.735H1V168.912H0V161.088H1V153.265H0V145.441H1V137.618H0V129.794H1V121.971H0V114.147H1V106.324H0V98.5H1V90.6765H0V82.8529H1V75.0294H0V67.2059H1V59.3823H0V51.5588H1V43.7353H0V35.9118H1V32C1 30.6268 1.08922 29.275 1.26207 27.9498L0.270473 27.8205C0.638581 24.9985 1.37436 22.292 2.42818 19.7508L3.3519 20.1338C4.39677 17.6142 5.76464 15.2617 7.40414 13.1282L6.61122 12.5189C8.31475 10.3021 10.3021 8.31475 12.5189 6.61122L13.1282 7.40414C15.2617 5.76464 17.6142 4.39677 20.1338 3.3519L19.7508 2.42818C22.292 1.37436 24.9985 0.638581 27.8205 0.270473L27.9498 1.26207C29.275 1.08922 30.6268 1 32 1H36.0922V0H44.2764V1H52.4606V0H60.6448V1H68.829V0H77.0132V1H85.1974V0H93.3817V1H101.566V0H109.75V1H117.934V0H126.118V1H134.303V0H142.487V1H150.671V0H158.855V1H167.039V0H175.224V1H183.408V0H191.592V1H199.776V0H207.961V1H216.145V0H224.329V1H232.513V0H240.697V1H248.882V0H257.066V1H265.25V0H273.434V1H281.618V0H289.803V1H297.987V0H306.171V1H314.355V0H322.539V1H330.724V0H338.908V1H343C344.373 1 345.725 1.08922 347.05 1.26207L347.18 0.270473C350.002 0.63858 352.708 1.37436 355.249 2.42818L354.866 3.35191C357.386 4.39678 359.738 5.76465 361.872 7.40414L362.481 6.61122C364.698 8.31475 366.685 10.3021 368.389 12.5189L367.596 13.1282C369.235 15.2617 370.603 17.6142 371.648 20.1338L372.572 19.7508C373.626 22.292 374.361 24.9985 374.73 27.8205L373.738 27.9498C373.911 29.275 374 30.6268 374 32V35.9117Z" stroke="#42AF45" stroke-width="2" stroke-dasharray="8 8"/>
<line y1="-0.5" x2="128" y2="-0.5" transform="matrix(-0.714213 0.699929 0.699929 0.714213 233 104.587)" stroke="#42AF45" stroke-dasharray="4 4"/>
<line x1="142.35" y1="104.23" x2="233.769" y2="193.821" stroke="#42AF45" stroke-dasharray="4 4"/>
<rect x="32" y="338" width="8" height="8" rx="4" fill="#006FFD"/>
<g opacity="0.1">
<rect x="48" y="338" width="8" height="8" rx="4" fill="#1F2024"/>
</g>
<g opacity="0.1">
<rect x="64" y="338" width="8" height="8" rx="4" fill="#1F2024"/>
</g>
<path d="M41.72 386.24C39.96 386.24 38.448 385.888 37.184 385.184C35.936 384.464 34.976 383.456 34.304 382.16C33.632 380.848 33.296 379.304 33.296 377.528C33.296 375.752 33.632 374.216 34.304 372.92C34.976 371.624 35.936 370.624 37.184 369.92C38.448 369.2 39.96 368.84 41.72 368.84C42.856 368.84 43.928 369.016 44.936 369.368C45.96 369.72 46.8 370.224 47.456 370.88L46.448 373.328C45.728 372.72 44.992 372.28 44.24 372.008C43.488 371.72 42.68 371.576 41.816 371.576C40.104 371.576 38.8 372.096 37.904 373.136C37.008 374.16 36.56 375.624 36.56 377.528C36.56 379.432 37.008 380.904 37.904 381.944C38.8 382.984 40.104 383.504 41.816 383.504C42.68 383.504 43.488 383.368 44.24 383.096C44.992 382.808 45.728 382.36 46.448 381.752L47.456 384.2C46.8 384.84 45.96 385.344 44.936 385.712C43.928 386.064 42.856 386.24 41.72 386.24ZM55.3747 386.24C54.1587 386.24 53.1027 385.992 52.2067 385.496C51.3107 385 50.6147 384.296 50.1187 383.384C49.6227 382.456 49.3747 381.368 49.3747 380.12C49.3747 378.872 49.6227 377.792 50.1187 376.88C50.6147 375.968 51.3107 375.264 52.2067 374.768C53.1027 374.272 54.1587 374.024 55.3747 374.024C56.5907 374.024 57.6467 374.272 58.5427 374.768C59.4387 375.264 60.1347 375.968 60.6307 376.88C61.1267 377.792 61.3747 378.872 61.3747 380.12C61.3747 381.368 61.1267 382.456 60.6307 383.384C60.1347 384.296 59.4387 385 58.5427 385.496C57.6467 385.992 56.5907 386.24 55.3747 386.24ZM55.3747 383.96C56.2707 383.96 56.9907 383.64 57.5347 383C58.0787 382.344 58.3507 381.384 58.3507 380.12C58.3507 378.84 58.0787 377.888 57.5347 377.264C56.9907 376.624 56.2707 376.304 55.3747 376.304C54.4787 376.304 53.7587 376.624 53.2147 377.264C52.6707 377.888 52.3987 378.84 52.3987 380.12C52.3987 381.384 52.6707 382.344 53.2147 383C53.7587 383.64 54.4787 383.96 55.3747 383.96ZM68.7389 386.24C67.6829 386.24 66.6829 386.12 65.7389 385.88C64.8109 385.624 64.0349 385.272 63.4109 384.824L64.2029 382.856C64.7629 383.256 65.4429 383.56 66.2429 383.768C67.0429 383.976 67.8509 384.08 68.6669 384.08C69.6589 384.08 70.3789 383.96 70.8269 383.72C71.2749 383.48 71.4989 383.104 71.4989 382.592C71.4989 382.128 71.3389 381.776 71.0189 381.536C70.6989 381.28 70.2109 381.152 69.5549 381.152H66.4349V378.992H69.2669C69.8429 378.992 70.2829 378.872 70.5869 378.632C70.9069 378.392 71.0669 378.056 71.0669 377.624C71.0669 377.16 70.8669 376.808 70.4669 376.568C70.0829 376.312 69.4189 376.184 68.4749 376.184C67.6749 376.184 66.9389 376.28 66.2669 376.472C65.5949 376.664 64.9629 376.936 64.3709 377.288L63.5789 375.368C64.2349 374.936 65.0189 374.608 65.9309 374.384C66.8589 374.144 67.8749 374.024 68.9789 374.024C70.5469 374.024 71.7389 374.32 72.5549 374.912C73.3869 375.488 73.8029 376.296 73.8029 377.336C73.8029 378.072 73.5549 378.696 73.0589 379.208C72.5629 379.704 71.8989 380.008 71.0669 380.12V379.784C71.7389 379.816 72.3069 379.96 72.7709 380.216C73.2509 380.456 73.6109 380.792 73.8509 381.224C74.1069 381.64 74.2349 382.136 74.2349 382.712C74.2349 383.784 73.7629 384.64 72.8189 385.28C71.8749 385.92 70.5149 386.24 68.7389 386.24ZM76.2346 389.12V383.648H77.5786C77.8986 383.152 78.1466 382.624 78.3226 382.064C78.5146 381.488 78.6506 380.84 78.7306 380.12C78.8266 379.384 78.8746 378.544 78.8746 377.6V374.264H88.0186V383.648H89.9386V389.12H87.3946V386H78.7786V389.12H76.2346ZM80.2906 383.648H85.2106V376.568H81.4426V378.296C81.4426 379.304 81.3386 380.28 81.1306 381.224C80.9386 382.168 80.6586 382.976 80.2906 383.648ZM96.2786 386.24C95.4306 386.24 94.6706 386.08 93.9986 385.76C93.3426 385.424 92.8226 384.976 92.4386 384.416C92.0706 383.856 91.8866 383.224 91.8866 382.52C91.8866 381.656 92.1106 380.976 92.5586 380.48C93.0066 379.968 93.7346 379.6 94.7426 379.376C95.7506 379.152 97.1026 379.04 98.7986 379.04H99.9986V380.768H98.8226C98.0706 380.768 97.4386 380.8 96.9266 380.864C96.4146 380.912 95.9986 381 95.6786 381.128C95.3746 381.24 95.1506 381.4 95.0066 381.608C94.8786 381.816 94.8146 382.072 94.8146 382.376C94.8146 382.904 94.9986 383.336 95.3666 383.672C95.7346 384.008 96.2466 384.176 96.9026 384.176C97.4306 384.176 97.8946 384.056 98.2946 383.816C98.7106 383.56 99.0386 383.216 99.2786 382.784C99.5186 382.352 99.6386 381.856 99.6386 381.296V378.536C99.6386 377.736 99.4626 377.16 99.1106 376.808C98.7586 376.456 98.1666 376.28 97.3346 376.28C96.6786 376.28 96.0066 376.384 95.3186 376.592C94.6306 376.784 93.9346 377.088 93.2306 377.504L92.3666 375.464C92.7826 375.176 93.2706 374.928 93.8306 374.72C94.4066 374.496 95.0066 374.328 95.6306 374.216C96.2706 374.088 96.8706 374.024 97.4306 374.024C98.5826 374.024 99.5266 374.2 100.263 374.552C101.015 374.904 101.575 375.44 101.943 376.16C102.311 376.864 102.495 377.776 102.495 378.896V386H99.6866V383.504H99.8786C99.7666 384.064 99.5426 384.552 99.2066 384.968C98.8866 385.368 98.4786 385.68 97.9826 385.904C97.4866 386.128 96.9186 386.24 96.2786 386.24ZM106.084 386V374.264H108.796V382.928H108.172L114.676 374.264H117.172V386H114.46V377.312H115.108L108.58 386H106.084ZM111.604 372.776C110.82 372.776 110.132 372.64 109.54 372.368C108.948 372.096 108.452 371.712 108.052 371.216C107.668 370.704 107.396 370.112 107.236 369.44L108.772 368.912C109.044 369.68 109.404 370.24 109.852 370.592C110.316 370.944 110.908 371.12 111.628 371.12C112.364 371.12 112.956 370.944 113.404 370.592C113.852 370.224 114.228 369.672 114.532 368.936L115.996 369.44C115.772 370.176 115.452 370.792 115.036 371.288C114.62 371.784 114.124 372.16 113.548 372.416C112.972 372.656 112.324 372.776 111.604 372.776ZM123.28 386V376.616H119.272V374.264H130.312V376.616H126.28V386H123.28ZM138.083 386.24C136.755 386.24 135.611 385.992 134.651 385.496C133.691 385 132.947 384.296 132.419 383.384C131.907 382.472 131.651 381.392 131.651 380.144C131.651 378.928 131.899 377.864 132.395 376.952C132.907 376.04 133.603 375.328 134.483 374.816C135.379 374.288 136.395 374.024 137.531 374.024C138.651 374.024 139.611 374.264 140.411 374.744C141.211 375.224 141.827 375.904 142.259 376.784C142.707 377.664 142.931 378.712 142.931 379.928V380.816H134.075V379.088H140.819L140.435 379.448C140.435 378.36 140.195 377.528 139.715 376.952C139.235 376.36 138.547 376.064 137.651 376.064C136.979 376.064 136.403 376.224 135.923 376.544C135.459 376.848 135.099 377.288 134.843 377.864C134.603 378.424 134.483 379.096 134.483 379.88V380.048C134.483 380.928 134.619 381.656 134.891 382.232C135.163 382.808 135.571 383.24 136.115 383.528C136.659 383.816 137.331 383.96 138.131 383.96C138.787 383.96 139.443 383.864 140.099 383.672C140.755 383.464 141.355 383.144 141.899 382.712L142.739 384.728C142.179 385.192 141.475 385.56 140.627 385.832C139.779 386.104 138.931 386.24 138.083 386.24ZM152.559 386V374.264H163.671V386H160.671V376.616H155.559V386H152.559ZM167.355 390.32V374.264H170.283V376.736H170.043C170.283 375.92 170.771 375.264 171.507 374.768C172.259 374.272 173.131 374.024 174.123 374.024C175.147 374.024 176.043 374.272 176.811 374.768C177.595 375.264 178.203 375.968 178.635 376.88C179.067 377.776 179.283 378.856 179.283 380.12C179.283 381.368 179.067 382.456 178.635 383.384C178.203 384.296 177.603 385 176.835 385.496C176.067 385.992 175.163 386.24 174.123 386.24C173.147 386.24 172.291 386 171.555 385.52C170.819 385.024 170.323 384.384 170.067 383.6H170.355V390.32H167.355ZM173.283 383.96C174.179 383.96 174.899 383.64 175.443 383C175.987 382.344 176.259 381.384 176.259 380.12C176.259 378.84 175.987 377.888 175.443 377.264C174.899 376.624 174.179 376.304 173.283 376.304C172.387 376.304 171.667 376.624 171.123 377.264C170.579 377.888 170.307 378.84 170.307 380.12C170.307 381.384 170.579 382.344 171.123 383C171.667 383.64 172.387 383.96 173.283 383.96ZM187.689 386.24C186.473 386.24 185.417 385.992 184.521 385.496C183.625 385 182.929 384.296 182.433 383.384C181.937 382.456 181.689 381.368 181.689 380.12C181.689 378.872 181.937 377.792 182.433 376.88C182.929 375.968 183.625 375.264 184.521 374.768C185.417 374.272 186.473 374.024 187.689 374.024C188.905 374.024 189.961 374.272 190.857 374.768C191.753 375.264 192.449 375.968 192.945 376.88C193.441 377.792 193.689 378.872 193.689 380.12C193.689 381.368 193.441 382.456 192.945 383.384C192.449 384.296 191.753 385 190.857 385.496C189.961 385.992 188.905 386.24 187.689 386.24ZM187.689 383.96C188.585 383.96 189.305 383.64 189.849 383C190.393 382.344 190.665 381.384 190.665 380.12C190.665 378.84 190.393 377.888 189.849 377.264C189.305 376.624 188.585 376.304 187.689 376.304C186.793 376.304 186.073 376.624 185.529 377.264C184.985 377.888 184.713 378.84 184.713 380.12C184.713 381.384 184.985 382.344 185.529 383C186.073 383.64 186.793 383.96 187.689 383.96ZM199.181 386V376.616H195.173V374.264H206.213V376.616H202.181V386H199.181ZM213.552 386.24C212.336 386.24 211.28 385.992 210.384 385.496C209.488 385 208.792 384.296 208.296 383.384C207.8 382.456 207.552 381.368 207.552 380.12C207.552 378.872 207.8 377.792 208.296 376.88C208.792 375.968 209.488 375.264 210.384 374.768C211.28 374.272 212.336 374.024 213.552 374.024C214.768 374.024 215.824 374.272 216.72 374.768C217.616 375.264 218.312 375.968 218.808 376.88C219.304 377.792 219.552 378.872 219.552 380.12C219.552 381.368 219.304 382.456 218.808 383.384C218.312 384.296 217.616 385 216.72 385.496C215.824 385.992 214.768 386.24 213.552 386.24ZM213.552 383.96C214.448 383.96 215.168 383.64 215.712 383C216.256 382.344 216.528 381.384 216.528 380.12C216.528 378.84 216.256 377.888 215.712 377.264C215.168 376.624 214.448 376.304 213.552 376.304C212.656 376.304 211.936 376.624 211.392 377.264C210.848 377.888 210.576 378.84 210.576 380.12C210.576 381.384 210.848 382.344 211.392 383C211.936 383.64 212.656 383.96 213.552 383.96ZM225.044 386V376.616H221.036V374.264H232.076V376.616H228.044V386H225.044ZM234.156 386V374.264H236.868V382.928H236.244L242.748 374.264H245.244V386H242.532V377.312H243.18L236.652 386H234.156ZM248.88 386V374.264H259.992V386H256.992V376.616H251.88V386H248.88ZM270.36 386V374.264H276.696C277.704 374.264 278.52 374.384 279.144 374.624C279.784 374.864 280.248 375.216 280.536 375.68C280.824 376.128 280.968 376.68 280.968 377.336C280.968 378.072 280.712 378.696 280.2 379.208C279.704 379.704 279.04 380.008 278.208 380.12V379.784C278.912 379.816 279.496 379.96 279.96 380.216C280.424 380.472 280.776 380.816 281.016 381.248C281.256 381.664 281.376 382.152 281.376 382.712C281.376 383.72 280.992 384.52 280.224 385.112C279.456 385.704 278.344 386 276.888 386H270.36ZM273.144 384.152H276.624C277.28 384.152 277.776 384.016 278.112 383.744C278.464 383.472 278.64 383.072 278.64 382.544C278.64 382.016 278.464 381.616 278.112 381.344C277.776 381.072 277.28 380.936 276.624 380.936H273.144V384.152ZM273.144 379.088H276.408C276.984 379.088 277.432 378.96 277.752 378.704C278.072 378.432 278.232 378.056 278.232 377.576C278.232 377.096 278.072 376.736 277.752 376.496C277.432 376.24 276.984 376.112 276.408 376.112H273.144V379.088ZM289.689 386.24C288.457 386.24 287.385 385.992 286.473 385.496C285.561 384.984 284.857 384.264 284.361 383.336C283.865 382.408 283.617 381.32 283.617 380.072C283.617 378.824 283.865 377.752 284.361 376.856C284.857 375.944 285.561 375.248 286.473 374.768C287.385 374.272 288.457 374.024 289.689 374.024C290.441 374.024 291.185 374.144 291.921 374.384C292.657 374.624 293.265 374.96 293.745 375.392L292.857 377.48C292.441 377.112 291.969 376.832 291.441 376.64C290.929 376.448 290.433 376.352 289.953 376.352C288.913 376.352 288.105 376.68 287.529 377.336C286.969 377.976 286.689 378.896 286.689 380.096C286.689 381.28 286.969 382.216 287.529 382.904C288.105 383.576 288.913 383.912 289.953 383.912C290.417 383.912 290.913 383.816 291.441 383.624C291.969 383.432 292.441 383.144 292.857 382.76L293.745 384.872C293.265 385.288 292.649 385.624 291.897 385.88C291.161 386.12 290.425 386.24 289.689 386.24ZM301.96 386.24C300.632 386.24 299.488 385.992 298.528 385.496C297.568 385 296.824 384.296 296.296 383.384C295.784 382.472 295.528 381.392 295.528 380.144C295.528 378.928 295.776 377.864 296.272 376.952C296.784 376.04 297.48 375.328 298.36 374.816C299.256 374.288 300.272 374.024 301.408 374.024C302.528 374.024 303.488 374.264 304.288 374.744C305.088 375.224 305.704 375.904 306.136 376.784C306.584 377.664 306.808 378.712 306.808 379.928V380.816H297.952V379.088H304.696L304.312 379.448C304.312 378.36 304.072 377.528 303.592 376.952C303.112 376.36 302.424 376.064 301.528 376.064C300.856 376.064 300.28 376.224 299.8 376.544C299.336 376.848 298.976 377.288 298.72 377.864C298.48 378.424 298.36 379.096 298.36 379.88V380.048C298.36 380.928 298.496 381.656 298.768 382.232C299.04 382.808 299.448 383.24 299.992 383.528C300.536 383.816 301.208 383.96 302.008 383.96C302.664 383.96 303.32 383.864 303.976 383.672C304.632 383.464 305.232 383.144 305.776 382.712L306.616 384.728C306.056 385.192 305.352 385.56 304.504 385.832C303.656 386.104 302.808 386.24 301.96 386.24ZM309.728 386V374.264H318.608V376.616H312.728V386H309.728ZM326.313 386.24C325.097 386.24 324.041 385.992 323.145 385.496C322.249 385 321.553 384.296 321.057 383.384C320.561 382.456 320.313 381.368 320.313 380.12C320.313 378.872 320.561 377.792 321.057 376.88C321.553 375.968 322.249 375.264 323.145 374.768C324.041 374.272 325.097 374.024 326.313 374.024C327.529 374.024 328.585 374.272 329.481 374.768C330.377 375.264 331.073 375.968 331.569 376.88C332.065 377.792 332.313 378.872 332.313 380.12C332.313 381.368 332.065 382.456 331.569 383.384C331.073 384.296 330.377 385 329.481 385.496C328.585 385.992 327.529 386.24 326.313 386.24ZM326.313 383.96C327.209 383.96 327.929 383.64 328.473 383C329.017 382.344 329.289 381.384 329.289 380.12C329.289 378.84 329.017 377.888 328.473 377.264C327.929 376.624 327.209 376.304 326.313 376.304C325.417 376.304 324.697 376.624 324.153 377.264C323.609 377.888 323.337 378.84 323.337 380.12C323.337 381.384 323.609 382.344 324.153 383C324.697 383.64 325.417 383.96 326.313 383.96ZM38.048 419.24C36.992 419.24 35.992 419.12 35.048 418.88C34.12 418.624 33.344 418.272 32.72 417.824L33.512 415.856C34.072 416.256 34.752 416.56 35.552 416.768C36.352 416.976 37.16 417.08 37.976 417.08C38.968 417.08 39.688 416.96 40.136 416.72C40.584 416.48 40.808 416.104 40.808 415.592C40.808 415.128 40.648 414.776 40.328 414.536C40.008 414.28 39.52 414.152 38.864 414.152H35.744V411.992H38.576C39.152 411.992 39.592 411.872 39.896 411.632C40.216 411.392 40.376 411.056 40.376 410.624C40.376 410.16 40.176 409.808 39.776 409.568C39.392 409.312 38.728 409.184 37.784 409.184C36.984 409.184 36.248 409.28 35.576 409.472C34.904 409.664 34.272 409.936 33.68 410.288L32.888 408.368C33.544 407.936 34.328 407.608 35.24 407.384C36.168 407.144 37.184 407.024 38.288 407.024C39.856 407.024 41.048 407.32 41.864 407.912C42.696 408.488 43.112 409.296 43.112 410.336C43.112 411.072 42.864 411.696 42.368 412.208C41.872 412.704 41.208 413.008 40.376 413.12V412.784C41.048 412.816 41.616 412.96 42.08 413.216C42.56 413.456 42.92 413.792 43.16 414.224C43.416 414.64 43.544 415.136 43.544 415.712C43.544 416.784 43.072 417.64 42.128 418.28C41.184 418.92 39.824 419.24 38.048 419.24ZM50.2773 419.24C49.4293 419.24 48.6693 419.08 47.9973 418.76C47.3413 418.424 46.8213 417.976 46.4373 417.416C46.0693 416.856 45.8853 416.224 45.8853 415.52C45.8853 414.656 46.1093 413.976 46.5573 413.48C47.0053 412.968 47.7333 412.6 48.7413 412.376C49.7493 412.152 51.1013 412.04 52.7973 412.04H53.9973V413.768H52.8213C52.0693 413.768 51.4373 413.8 50.9253 413.864C50.4133 413.912 49.9973 414 49.6773 414.128C49.3733 414.24 49.1493 414.4 49.0053 414.608C48.8773 414.816 48.8133 415.072 48.8133 415.376C48.8133 415.904 48.9973 416.336 49.3653 416.672C49.7333 417.008 50.2453 417.176 50.9013 417.176C51.4293 417.176 51.8933 417.056 52.2933 416.816C52.7093 416.56 53.0373 416.216 53.2773 415.784C53.5173 415.352 53.6373 414.856 53.6373 414.296V411.536C53.6373 410.736 53.4613 410.16 53.1093 409.808C52.7573 409.456 52.1653 409.28 51.3333 409.28C50.6773 409.28 50.0053 409.384 49.3173 409.592C48.6293 409.784 47.9333 410.088 47.2293 410.504L46.3653 408.464C46.7813 408.176 47.2693 407.928 47.8293 407.72C48.4053 407.496 49.0053 407.328 49.6293 407.216C50.2693 407.088 50.8693 407.024 51.4293 407.024C52.5813 407.024 53.5253 407.2 54.2613 407.552C55.0133 407.904 55.5733 408.44 55.9413 409.16C56.3093 409.864 56.4933 410.776 56.4933 411.896V419H53.6853V416.504H53.8773C53.7653 417.064 53.5413 417.552 53.2053 417.968C52.8853 418.368 52.4773 418.68 51.9813 418.904C51.4853 419.128 50.9173 419.24 50.2773 419.24ZM66.7912 419V407.264H69.7912V411.8H74.9752V407.264H77.9752V419H74.9752V414.152H69.7912V419H66.7912ZM87.4407 419.24C86.1127 419.24 84.9687 418.992 84.0087 418.496C83.0487 418 82.3047 417.296 81.7767 416.384C81.2647 415.472 81.0087 414.392 81.0087 413.144C81.0087 411.928 81.2567 410.864 81.7527 409.952C82.2647 409.04 82.9607 408.328 83.8407 407.816C84.7367 407.288 85.7527 407.024 86.8887 407.024C88.0087 407.024 88.9687 407.264 89.7687 407.744C90.5687 408.224 91.1847 408.904 91.6167 409.784C92.0647 410.664 92.2888 411.712 92.2888 412.928V413.816H83.4327V412.088H90.1767L89.7927 412.448C89.7927 411.36 89.5527 410.528 89.0727 409.952C88.5927 409.36 87.9047 409.064 87.0087 409.064C86.3367 409.064 85.7607 409.224 85.2807 409.544C84.8167 409.848 84.4567 410.288 84.2007 410.864C83.9607 411.424 83.8407 412.096 83.8407 412.88V413.048C83.8407 413.928 83.9767 414.656 84.2487 415.232C84.5207 415.808 84.9287 416.24 85.4727 416.528C86.0167 416.816 86.6887 416.96 87.4887 416.96C88.1447 416.96 88.8007 416.864 89.4567 416.672C90.1127 416.464 90.7127 416.144 91.2567 415.712L92.0967 417.728C91.5367 418.192 90.8327 418.56 89.9847 418.832C89.1367 419.104 88.2887 419.24 87.4407 419.24ZM100.657 419.24C99.4247 419.24 98.3527 418.992 97.4407 418.496C96.5287 417.984 95.8247 417.264 95.3287 416.336C94.8327 415.408 94.5847 414.32 94.5847 413.072C94.5847 411.824 94.8327 410.752 95.3287 409.856C95.8247 408.944 96.5287 408.248 97.4407 407.768C98.3527 407.272 99.4247 407.024 100.657 407.024C101.409 407.024 102.153 407.144 102.889 407.384C103.625 407.624 104.233 407.96 104.713 408.392L103.825 410.48C103.409 410.112 102.937 409.832 102.409 409.64C101.897 409.448 101.401 409.352 100.921 409.352C99.8807 409.352 99.0727 409.68 98.4967 410.336C97.9367 410.976 97.6567 411.896 97.6567 413.096C97.6567 414.28 97.9367 415.216 98.4967 415.904C99.0727 416.576 99.8807 416.912 100.921 416.912C101.385 416.912 101.881 416.816 102.409 416.624C102.937 416.432 103.409 416.144 103.825 415.76L104.713 417.872C104.233 418.288 103.617 418.624 102.865 418.88C102.129 419.12 101.393 419.24 100.657 419.24ZM107.121 419V407.264H110.121V411.824H111.825L115.233 407.264H118.449L114.153 413.144L113.505 412.184C113.937 412.232 114.321 412.352 114.657 412.544C115.009 412.736 115.329 413.008 115.617 413.36C115.921 413.696 116.217 414.12 116.505 414.632L118.977 419H115.761L113.793 415.544C113.585 415.176 113.377 414.896 113.169 414.704C112.977 414.496 112.753 414.352 112.497 414.272C112.257 414.192 111.961 414.152 111.609 414.152H110.121V419H107.121ZM126.143 419.24C124.927 419.24 123.871 418.992 122.975 418.496C122.079 418 121.383 417.296 120.887 416.384C120.391 415.456 120.143 414.368 120.143 413.12C120.143 411.872 120.391 410.792 120.887 409.88C121.383 408.968 122.079 408.264 122.975 407.768C123.871 407.272 124.927 407.024 126.143 407.024C127.359 407.024 128.415 407.272 129.311 407.768C130.207 408.264 130.903 408.968 131.399 409.88C131.895 410.792 132.143 411.872 132.143 413.12C132.143 414.368 131.895 415.456 131.399 416.384C130.903 417.296 130.207 418 129.311 418.496C128.415 418.992 127.359 419.24 126.143 419.24ZM126.143 416.96C127.039 416.96 127.759 416.64 128.303 416C128.847 415.344 129.119 414.384 129.119 413.12C129.119 411.84 128.847 410.888 128.303 410.264C127.759 409.624 127.039 409.304 126.143 409.304C125.247 409.304 124.527 409.624 123.983 410.264C123.439 410.888 123.167 411.84 123.167 413.12C123.167 414.384 123.439 415.344 123.983 416C124.527 416.64 125.247 416.96 126.143 416.96ZM134.617 419.336L133.681 416.96C134.193 416.784 134.617 416.552 134.953 416.264C135.305 415.96 135.585 415.576 135.793 415.112C136.001 414.632 136.153 414.048 136.249 413.36C136.345 412.672 136.393 411.848 136.393 410.888V407.264H145.849V419H142.849V409.616H139.153V410.984C139.153 412.248 139.065 413.36 138.889 414.32C138.713 415.28 138.441 416.096 138.073 416.768C137.721 417.44 137.257 417.992 136.681 418.424C136.105 418.84 135.417 419.144 134.617 419.336ZM149.489 419V407.264H152.489V411.152H155.585C157.137 411.152 158.305 411.48 159.089 412.136C159.889 412.792 160.289 413.752 160.289 415.016C160.289 415.816 160.097 416.52 159.713 417.128C159.329 417.72 158.785 418.184 158.081 418.52C157.393 418.84 156.561 419 155.585 419H149.489ZM152.489 417.032H155.129C155.881 417.032 156.465 416.872 156.881 416.552C157.297 416.216 157.505 415.712 157.505 415.04C157.505 414.384 157.297 413.904 156.881 413.6C156.465 413.28 155.881 413.12 155.129 413.12H152.489V417.032ZM162.995 419V407.264H165.995V411.824H167.699L171.107 407.264H174.323L170.027 413.144L169.379 412.184C169.811 412.232 170.195 412.352 170.531 412.544C170.883 412.736 171.203 413.008 171.491 413.36C171.795 413.696 172.091 414.12 172.379 414.632L174.851 419H171.635L169.667 415.544C169.459 415.176 169.251 414.896 169.043 414.704C168.851 414.496 168.627 414.352 168.371 414.272C168.131 414.192 167.835 414.152 167.483 414.152H165.995V419H162.995ZM182.017 419.24C180.801 419.24 179.745 418.992 178.849 418.496C177.953 418 177.257 417.296 176.761 416.384C176.265 415.456 176.017 414.368 176.017 413.12C176.017 411.872 176.265 410.792 176.761 409.88C177.257 408.968 177.953 408.264 178.849 407.768C179.745 407.272 180.801 407.024 182.017 407.024C183.233 407.024 184.289 407.272 185.185 407.768C186.081 408.264 186.777 408.968 187.273 409.88C187.769 410.792 188.017 411.872 188.017 413.12C188.017 414.368 187.769 415.456 187.273 416.384C186.777 417.296 186.081 418 185.185 418.496C184.289 418.992 183.233 419.24 182.017 419.24ZM182.017 416.96C182.913 416.96 183.633 416.64 184.177 416C184.721 415.344 184.993 414.384 184.993 413.12C184.993 411.84 184.721 410.888 184.177 410.264C183.633 409.624 182.913 409.304 182.017 409.304C181.121 409.304 180.401 409.624 179.857 410.264C179.313 410.888 179.041 411.84 179.041 413.12C179.041 414.384 179.313 415.344 179.857 416C180.401 416.64 181.121 416.96 182.017 416.96ZM197.746 419V407.264H200.218L204.274 414.2L208.33 407.264H210.778V419H208.138V410.72H208.714L204.97 417.08H203.554L199.81 410.72H200.386V419H197.746ZM214.416 419V407.264H217.128V415.928H216.504L223.008 407.264H225.504V419H222.792V410.312H223.44L216.912 419H214.416ZM229.14 419V407.264H232.14V411.8H237.324V407.264H240.324V419H237.324V414.152H232.14V419H229.14ZM245.061 423.32L247.509 417.92V419.168L242.349 407.264H245.541L249.189 416.36H248.469L252.189 407.264H255.213L248.157 423.32H245.061ZM259.865 419V409.616H255.857V407.264H266.897V409.616H262.865V419H259.865Z" fill="black"/>
<path d="M33.044 456V447.54H34.028V451.284H39.104V447.54H40.088V456H39.104V452.136H34.028V456H33.044ZM44.0569 456.108C43.6569 456.108 43.2969 456.032 42.9769 455.88C42.6649 455.72 42.4169 455.504 42.2329 455.232C42.0489 454.96 41.9569 454.656 41.9569 454.32C41.9569 453.888 42.0649 453.548 42.2809 453.3C42.5049 453.052 42.8689 452.876 43.3729 452.772C43.8849 452.668 44.5809 452.616 45.4609 452.616H46.0009V453.252H45.4729C44.9849 453.252 44.5769 453.268 44.2489 453.3C43.9209 453.332 43.6609 453.388 43.4689 453.468C43.2769 453.548 43.1409 453.652 43.0609 453.78C42.9809 453.908 42.9409 454.068 42.9409 454.26C42.9409 454.588 43.0529 454.856 43.2769 455.064C43.5089 455.272 43.8209 455.376 44.2129 455.376C44.5329 455.376 44.8129 455.3 45.0529 455.148C45.3009 454.996 45.4929 454.788 45.6289 454.524C45.7729 454.26 45.8449 453.956 45.8449 453.612V452.244C45.8449 451.748 45.7449 451.392 45.5449 451.176C45.3449 450.952 45.0169 450.84 44.5609 450.84C44.2089 450.84 43.8689 450.892 43.5409 450.996C43.2129 451.092 42.8769 451.252 42.5329 451.476L42.1969 450.768C42.4049 450.624 42.6409 450.5 42.9049 450.396C43.1689 450.284 43.4449 450.2 43.7329 450.144C44.0209 450.088 44.2969 450.06 44.5609 450.06C45.0649 450.06 45.4809 450.144 45.8089 450.312C46.1369 450.472 46.3809 450.72 46.5409 451.056C46.7009 451.384 46.7809 451.808 46.7809 452.328V456H45.8689V454.644H45.9769C45.9129 454.948 45.7889 455.208 45.6049 455.424C45.4289 455.64 45.2089 455.808 44.9449 455.928C44.6809 456.048 44.3849 456.108 44.0569 456.108ZM51.2817 456.108C50.6977 456.108 50.1937 455.98 49.7697 455.724C49.3457 455.468 49.0177 455.112 48.7857 454.656C48.5617 454.192 48.4497 453.656 48.4497 453.048C48.4497 452.432 48.5617 451.9 48.7857 451.452C49.0177 451.004 49.3457 450.66 49.7697 450.42C50.1937 450.18 50.6977 450.06 51.2817 450.06C51.6417 450.06 51.9977 450.124 52.3497 450.252C52.7017 450.38 52.9937 450.56 53.2257 450.792L52.8897 451.5C52.6577 451.276 52.4017 451.112 52.1217 451.008C51.8497 450.904 51.5897 450.852 51.3417 450.852C50.7337 450.852 50.2657 451.044 49.9377 451.428C49.6097 451.804 49.4457 452.348 49.4457 453.06C49.4457 453.756 49.6097 454.308 49.9377 454.716C50.2657 455.116 50.7337 455.316 51.3417 455.316C51.5897 455.316 51.8497 455.264 52.1217 455.16C52.4017 455.056 52.6577 454.888 52.8897 454.656L53.2257 455.364C52.9937 455.596 52.6977 455.78 52.3377 455.916C51.9857 456.044 51.6337 456.108 51.2817 456.108ZM54.2655 456.132L53.9055 455.364C54.1775 455.252 54.4015 455.104 54.5775 454.92C54.7615 454.736 54.9055 454.504 55.0095 454.224C55.1215 453.936 55.2015 453.584 55.2495 453.168C55.2975 452.752 55.3215 452.248 55.3215 451.656V450.168H59.5575V456H58.5855V450.948H56.2335V451.692C56.2335 452.372 56.1975 452.964 56.1255 453.468C56.0535 453.972 55.9375 454.4 55.7775 454.752C55.6255 455.096 55.4215 455.38 55.1655 455.604C54.9175 455.828 54.6175 456.004 54.2655 456.132ZM63.4482 456.108C63.0482 456.108 62.6882 456.032 62.3682 455.88C62.0562 455.72 61.8082 455.504 61.6242 455.232C61.4402 454.96 61.3482 454.656 61.3482 454.32C61.3482 453.888 61.4562 453.548 61.6722 453.3C61.8962 453.052 62.2602 452.876 62.7642 452.772C63.2762 452.668 63.9722 452.616 64.8522 452.616H65.3922V453.252H64.8642C64.3762 453.252 63.9682 453.268 63.6402 453.3C63.3122 453.332 63.0522 453.388 62.8602 453.468C62.6682 453.548 62.5322 453.652 62.4522 453.78C62.3722 453.908 62.3322 454.068 62.3322 454.26C62.3322 454.588 62.4442 454.856 62.6682 455.064C62.9002 455.272 63.2122 455.376 63.6042 455.376C63.9242 455.376 64.2042 455.3 64.4442 455.148C64.6922 454.996 64.8842 454.788 65.0202 454.524C65.1642 454.26 65.2362 453.956 65.2362 453.612V452.244C65.2362 451.748 65.1362 451.392 64.9362 451.176C64.7362 450.952 64.4082 450.84 63.9522 450.84C63.6002 450.84 63.2602 450.892 62.9322 450.996C62.6042 451.092 62.2682 451.252 61.9242 451.476L61.5882 450.768C61.7962 450.624 62.0322 450.5 62.2962 450.396C62.5602 450.284 62.8362 450.2 63.1242 450.144C63.4122 450.088 63.6882 450.06 63.9522 450.06C64.4562 450.06 64.8722 450.144 65.2002 450.312C65.5282 450.472 65.7722 450.72 65.9322 451.056C66.0922 451.384 66.1722 451.808 66.1722 452.328V456H65.2602V454.644H65.3682C65.3042 454.948 65.1802 455.208 64.9962 455.424C64.8202 455.64 64.6002 455.808 64.3362 455.928C64.0722 456.048 63.7762 456.108 63.4482 456.108ZM67.2409 456L68.4409 453.984C68.6169 453.68 68.7809 453.44 68.9329 453.264C69.0929 453.08 69.2529 452.944 69.4129 452.856C69.5809 452.768 69.7769 452.712 70.0009 452.688L69.7489 453L67.5409 450.168H68.6089L70.5289 452.604H71.4529V450.168H72.4249V452.604H73.3609L75.2689 450.168H76.3369L74.1289 453L73.8769 452.688C74.1009 452.712 74.2929 452.768 74.4529 452.856C74.6209 452.944 74.7809 453.08 74.9329 453.264C75.0929 453.44 75.2609 453.68 75.4369 453.984L76.6369 456H75.5929L74.5369 454.236C74.4009 454.012 74.2729 453.84 74.1529 453.72C74.0329 453.592 73.8969 453.504 73.7449 453.456C73.5929 453.408 73.4049 453.384 73.1809 453.384H72.4249V456H71.4529V453.384H70.6969C70.4809 453.384 70.2969 453.408 70.1449 453.456C69.9929 453.504 69.8529 453.592 69.7249 453.72C69.6049 453.84 69.4769 454.012 69.3409 454.236L68.2849 456H67.2409ZM77.0948 457.56V455.22H77.7068C77.8908 454.948 78.0388 454.652 78.1508 454.332C78.2708 454.004 78.3548 453.64 78.4028 453.24C78.4588 452.84 78.4868 452.388 78.4868 451.884V450.168H82.6148V455.22H83.5388V457.56H82.6988V456H77.9228V457.56H77.0948ZM78.6428 455.22H81.6908V450.936H79.3508V452.052C79.3508 452.652 79.2908 453.232 79.1708 453.792C79.0508 454.352 78.8748 454.828 78.6428 455.22ZM86.8003 456.108C86.4003 456.108 86.0403 456.032 85.7203 455.88C85.4083 455.72 85.1603 455.504 84.9763 455.232C84.7923 454.96 84.7003 454.656 84.7003 454.32C84.7003 453.888 84.8083 453.548 85.0243 453.3C85.2483 453.052 85.6123 452.876 86.1163 452.772C86.6283 452.668 87.3243 452.616 88.2043 452.616H88.7443V453.252H88.2163C87.7283 453.252 87.3203 453.268 86.9923 453.3C86.6643 453.332 86.4043 453.388 86.2123 453.468C86.0203 453.548 85.8843 453.652 85.8043 453.78C85.7243 453.908 85.6843 454.068 85.6843 454.26C85.6843 454.588 85.7963 454.856 86.0203 455.064C86.2523 455.272 86.5643 455.376 86.9563 455.376C87.2763 455.376 87.5563 455.3 87.7963 455.148C88.0443 454.996 88.2363 454.788 88.3723 454.524C88.5163 454.26 88.5883 453.956 88.5883 453.612V452.244C88.5883 451.748 88.4883 451.392 88.2883 451.176C88.0883 450.952 87.7603 450.84 87.3043 450.84C86.9523 450.84 86.6123 450.892 86.2843 450.996C85.9563 451.092 85.6203 451.252 85.2763 451.476L84.9403 450.768C85.1483 450.624 85.3843 450.5 85.6483 450.396C85.9123 450.284 86.1883 450.2 86.4763 450.144C86.7643 450.088 87.0403 450.06 87.3043 450.06C87.8083 450.06 88.2243 450.144 88.5523 450.312C88.8803 450.472 89.1243 450.72 89.2843 451.056C89.4443 451.384 89.5243 451.808 89.5243 452.328V456H88.6123V454.644H88.7203C88.6563 454.948 88.5323 455.208 88.3483 455.424C88.1723 455.64 87.9523 455.808 87.6883 455.928C87.4243 456.048 87.1283 456.108 86.8003 456.108ZM91.5411 456V450.168H92.4291V455.076H92.1291L95.8011 450.168H96.6291V456H95.7411V451.08H96.0411L92.3691 456H91.5411ZM94.0851 449.412C93.7651 449.412 93.4691 449.356 93.1971 449.244C92.9251 449.124 92.6891 448.948 92.4891 448.716C92.2891 448.484 92.1371 448.192 92.0331 447.84L92.5971 447.624C92.7411 448.024 92.9331 448.32 93.1731 448.512C93.4211 448.704 93.7251 448.8 94.0851 448.8C94.4531 448.8 94.7531 448.712 94.9851 448.536C95.2251 448.36 95.4411 448.06 95.6331 447.636L96.1851 447.84C96.0411 448.224 95.8611 448.532 95.6451 448.764C95.4371 448.988 95.2011 449.152 94.9371 449.256C94.6731 449.36 94.3891 449.412 94.0851 449.412ZM99.8809 456V450.948H97.7689V450.168H102.977V450.948H100.853V456H99.8809ZM106.737 456.108C106.121 456.108 105.589 455.988 105.141 455.748C104.701 455.5 104.357 455.152 104.109 454.704C103.869 454.256 103.749 453.72 103.749 453.096C103.749 452.488 103.869 451.96 104.109 451.512C104.349 451.056 104.677 450.7 105.093 450.444C105.517 450.188 106.005 450.06 106.557 450.06C107.085 450.06 107.537 450.176 107.913 450.408C108.289 450.64 108.577 450.968 108.777 451.392C108.985 451.816 109.089 452.324 109.089 452.916V453.288H104.493V452.652H108.441L108.249 452.808C108.249 452.168 108.105 451.672 107.817 451.32C107.537 450.96 107.125 450.78 106.581 450.78C106.173 450.78 105.825 450.876 105.537 451.068C105.257 451.252 105.045 451.512 104.901 451.848C104.757 452.176 104.685 452.56 104.685 453V453.072C104.685 453.56 104.761 453.972 104.913 454.308C105.073 454.644 105.309 454.9 105.621 455.076C105.933 455.244 106.305 455.328 106.737 455.328C107.081 455.328 107.413 455.276 107.733 455.172C108.061 455.06 108.369 454.88 108.657 454.632L108.993 455.316C108.729 455.556 108.393 455.748 107.985 455.892C107.577 456.036 107.161 456.108 106.737 456.108ZM113.205 456.108C112.621 456.108 112.117 455.98 111.693 455.724C111.269 455.468 110.941 455.112 110.709 454.656C110.485 454.192 110.373 453.656 110.373 453.048C110.373 452.432 110.485 451.9 110.709 451.452C110.941 451.004 111.269 450.66 111.693 450.42C112.117 450.18 112.621 450.06 113.205 450.06C113.565 450.06 113.921 450.124 114.273 450.252C114.625 450.38 114.917 450.56 115.149 450.792L114.813 451.5C114.581 451.276 114.325 451.112 114.045 451.008C113.773 450.904 113.513 450.852 113.265 450.852C112.657 450.852 112.189 451.044 111.861 451.428C111.533 451.804 111.369 452.348 111.369 453.06C111.369 453.756 111.533 454.308 111.861 454.716C112.189 455.116 112.657 455.316 113.265 455.316C113.513 455.316 113.773 455.264 114.045 455.16C114.325 455.056 114.581 454.888 114.813 454.656L115.149 455.364C114.917 455.596 114.621 455.78 114.261 455.916C113.909 456.044 113.557 456.108 113.205 456.108ZM116.513 456V450.168H117.485V452.244H119.249C119.993 452.244 120.557 452.408 120.941 452.736C121.325 453.056 121.517 453.512 121.517 454.104C121.517 454.496 121.425 454.836 121.241 455.124C121.065 455.404 120.809 455.62 120.473 455.772C120.145 455.924 119.737 456 119.249 456H116.513ZM117.485 455.304H119.153C119.609 455.304 119.961 455.208 120.209 455.016C120.457 454.816 120.581 454.516 120.581 454.116C120.581 453.708 120.457 453.412 120.209 453.228C119.961 453.036 119.609 452.94 119.153 452.94H117.485V455.304ZM127.733 456.108C127.469 456.108 127.201 456.076 126.929 456.012C126.657 455.956 126.405 455.872 126.173 455.76C125.949 455.64 125.765 455.504 125.621 455.352L125.957 454.68C126.189 454.896 126.461 455.064 126.773 455.184C127.085 455.296 127.389 455.352 127.685 455.352C128.093 455.352 128.441 455.268 128.729 455.1C129.017 454.932 129.241 454.688 129.401 454.368C129.561 454.04 129.649 453.648 129.665 453.192L129.785 453.396H126.701V452.664H129.785L129.665 452.832C129.641 452.456 129.557 452.116 129.413 451.812C129.269 451.508 129.057 451.264 128.777 451.08C128.497 450.896 128.133 450.804 127.685 450.804C127.389 450.804 127.085 450.86 126.773 450.972C126.461 451.084 126.189 451.256 125.957 451.488L125.621 450.804C125.869 450.572 126.185 450.392 126.569 450.264C126.961 450.128 127.353 450.06 127.745 450.06C128.337 450.06 128.845 450.18 129.269 450.42C129.693 450.66 130.017 451.004 130.241 451.452C130.473 451.9 130.589 452.432 130.589 453.048C130.589 453.664 130.473 454.204 130.241 454.668C130.017 455.124 129.689 455.48 129.257 455.736C128.833 455.984 128.325 456.108 127.733 456.108ZM133.495 456V450.948H131.383V450.168H136.591V450.948H134.467V456H133.495ZM137.735 456V450.168H138.623V455.076H138.323L141.995 450.168H142.823V456H141.935V451.08H142.235L138.563 456H137.735ZM144.863 456V450.168H145.667L147.863 454.068L150.059 450.168H150.851V456H149.987V451.284H150.263L148.103 455.064H147.611L145.451 451.284H145.727V456H144.863ZM152.893 456V450.168H153.781V455.076H153.481L157.153 450.168H157.981V456H157.093V451.08H157.393L153.721 456H152.893ZM163.223 456V450.168H167.315V450.948H164.195V456H163.223ZM170.994 456.108C170.426 456.108 169.934 455.984 169.518 455.736C169.102 455.488 168.778 455.14 168.546 454.692C168.322 454.236 168.21 453.7 168.21 453.084C168.21 452.468 168.322 451.936 168.546 451.488C168.778 451.032 169.102 450.68 169.518 450.432C169.934 450.184 170.426 450.06 170.994 450.06C171.562 450.06 172.054 450.184 172.47 450.432C172.886 450.68 173.206 451.032 173.43 451.488C173.662 451.936 173.778 452.468 173.778 453.084C173.778 453.7 173.662 454.236 173.43 454.692C173.206 455.14 172.886 455.488 172.47 455.736C172.054 455.984 171.562 456.108 170.994 456.108ZM170.994 455.328C171.546 455.328 171.982 455.136 172.302 454.752C172.63 454.36 172.794 453.8 172.794 453.072C172.794 452.352 172.63 451.8 172.302 451.416C171.982 451.032 171.546 450.84 170.994 450.84C170.45 450.84 170.014 451.032 169.686 451.416C169.358 451.8 169.194 452.352 169.194 453.072C169.194 453.8 169.358 454.36 169.686 454.752C170.014 455.136 170.45 455.328 170.994 455.328ZM176.687 456V450.948H174.575V450.168H179.783V450.948H177.659V456H176.687ZM183.34 456.108C182.772 456.108 182.28 455.984 181.864 455.736C181.448 455.488 181.124 455.14 180.892 454.692C180.668 454.236 180.556 453.7 180.556 453.084C180.556 452.468 180.668 451.936 180.892 451.488C181.124 451.032 181.448 450.68 181.864 450.432C182.28 450.184 182.772 450.06 183.34 450.06C183.908 450.06 184.4 450.184 184.816 450.432C185.232 450.68 185.552 451.032 185.776 451.488C186.008 451.936 186.124 452.468 186.124 453.084C186.124 453.7 186.008 454.236 185.776 454.692C185.552 455.14 185.232 455.488 184.816 455.736C184.4 455.984 183.908 456.108 183.34 456.108ZM183.34 455.328C183.892 455.328 184.328 455.136 184.648 454.752C184.976 454.36 185.14 453.8 185.14 453.072C185.14 452.352 184.976 451.8 184.648 451.416C184.328 451.032 183.892 450.84 183.34 450.84C182.796 450.84 182.36 451.032 182.032 451.416C181.704 451.8 181.54 452.352 181.54 453.072C181.54 453.8 181.704 454.36 182.032 454.752C182.36 455.136 182.796 455.328 183.34 455.328ZM187.82 456V450.168H190.664C191.128 450.168 191.508 450.228 191.804 450.348C192.1 450.46 192.32 450.632 192.464 450.864C192.608 451.088 192.68 451.368 192.68 451.704C192.68 452.072 192.548 452.384 192.284 452.64C192.028 452.896 191.692 453.048 191.276 453.096V452.94C191.604 452.948 191.888 453.016 192.128 453.144C192.368 453.264 192.552 453.432 192.68 453.648C192.808 453.864 192.872 454.112 192.872 454.392C192.872 454.888 192.688 455.28 192.32 455.568C191.952 455.856 191.432 456 190.76 456H187.82ZM188.744 455.34H190.724C191.116 455.34 191.416 455.256 191.624 455.088C191.84 454.912 191.948 454.664 191.948 454.344C191.948 454.024 191.84 453.78 191.624 453.612C191.416 453.444 191.116 453.36 190.724 453.36H188.744V455.34ZM188.744 452.7H190.616C190.976 452.7 191.256 452.616 191.456 452.448C191.664 452.28 191.768 452.048 191.768 451.752C191.768 451.456 191.664 451.228 191.456 451.068C191.256 450.908 190.976 450.828 190.616 450.828H188.744V452.7ZM194.503 456V450.168H195.475V452.244H197.239C197.983 452.244 198.547 452.408 198.931 452.736C199.315 453.056 199.507 453.512 199.507 454.104C199.507 454.496 199.415 454.836 199.231 455.124C199.055 455.404 198.799 455.62 198.463 455.772C198.135 455.924 197.727 456 197.239 456H194.503ZM195.475 455.304H197.143C197.599 455.304 197.951 455.208 198.199 455.016C198.447 454.824 198.571 454.524 198.571 454.116C198.571 453.708 198.447 453.412 198.199 453.228C197.951 453.036 197.599 452.94 197.143 452.94H195.475V455.304ZM200.371 456V450.168H201.343V456H200.371ZM203.389 456V450.168H204.193L206.389 454.068L208.585 450.168H209.377V456H208.513V451.284H208.789L206.629 455.064H206.137L203.977 451.284H204.253V456H203.389ZM211.419 456V450.168H212.307V455.076H212.007L215.679 450.168H216.507V456H215.619V451.08H215.919L212.247 456H211.419ZM221.749 456V450.168H222.721V452.604H223.813L225.721 450.168H226.789L224.605 453L224.329 452.688C224.553 452.712 224.749 452.768 224.917 452.856C225.085 452.944 225.245 453.08 225.397 453.264C225.549 453.44 225.713 453.68 225.889 453.984L227.089 456H226.045L224.989 454.236C224.853 454.012 224.725 453.84 224.605 453.72C224.485 453.592 224.349 453.504 224.197 453.456C224.045 453.408 223.857 453.384 223.633 453.384H222.721V456H221.749ZM230.621 456.108C230.053 456.108 229.561 455.984 229.145 455.736C228.729 455.488 228.405 455.14 228.173 454.692C227.949 454.236 227.837 453.7 227.837 453.084C227.837 452.468 227.949 451.936 228.173 451.488C228.405 451.032 228.729 450.68 229.145 450.432C229.561 450.184 230.053 450.06 230.621 450.06C231.189 450.06 231.681 450.184 232.097 450.432C232.513 450.68 232.833 451.032 233.057 451.488C233.289 451.936 233.405 452.468 233.405 453.084C233.405 453.7 233.289 454.236 233.057 454.692C232.833 455.14 232.513 455.488 232.097 455.736C231.681 455.984 231.189 456.108 230.621 456.108ZM230.621 455.328C231.173 455.328 231.609 455.136 231.929 454.752C232.257 454.36 232.421 453.8 232.421 453.072C232.421 452.352 232.257 451.8 231.929 451.416C231.609 451.032 231.173 450.84 230.621 450.84C230.077 450.84 229.641 451.032 229.313 451.416C228.985 451.8 228.821 452.352 228.821 453.072C228.821 453.8 228.985 454.36 229.313 454.752C229.641 455.136 230.077 455.328 230.621 455.328ZM235.102 456V450.168H235.906L238.102 454.068L240.298 450.168H241.09V456H240.226V451.284H240.502L238.342 455.064H237.85L235.69 451.284H235.966V456H235.102ZM243.132 456V450.168H248.22V456H247.248V450.948H244.104V456H243.132ZM252.696 456.108C252.128 456.108 251.636 455.984 251.22 455.736C250.804 455.488 250.48 455.14 250.248 454.692C250.024 454.236 249.912 453.7 249.912 453.084C249.912 452.468 250.024 451.936 250.248 451.488C250.48 451.032 250.804 450.68 251.22 450.432C251.636 450.184 252.128 450.06 252.696 450.06C253.264 450.06 253.756 450.184 254.172 450.432C254.588 450.68 254.908 451.032 255.132 451.488C255.364 451.936 255.48 452.468 255.48 453.084C255.48 453.7 255.364 454.236 255.132 454.692C254.908 455.14 254.588 455.488 254.172 455.736C253.756 455.984 253.264 456.108 252.696 456.108ZM252.696 455.328C253.248 455.328 253.684 455.136 254.004 454.752C254.332 454.36 254.496 453.8 254.496 453.072C254.496 452.352 254.332 451.8 254.004 451.416C253.684 451.032 253.248 450.84 252.696 450.84C252.152 450.84 251.716 451.032 251.388 451.416C251.06 451.8 250.896 452.352 250.896 453.072C250.896 453.8 251.06 454.36 251.388 454.752C251.716 455.136 252.152 455.328 252.696 455.328ZM257.177 456V450.168H258.149V452.592H261.329V450.168H262.301V456H261.329V453.384H258.149V456H257.177ZM266.98 456.108C266.364 456.108 265.832 455.988 265.384 455.748C264.944 455.5 264.6 455.152 264.352 454.704C264.112 454.256 263.992 453.72 263.992 453.096C263.992 452.488 264.112 451.96 264.352 451.512C264.592 451.056 264.92 450.7 265.336 450.444C265.76 450.188 266.248 450.06 266.8 450.06C267.328 450.06 267.78 450.176 268.156 450.408C268.532 450.64 268.82 450.968 269.02 451.392C269.228 451.816 269.332 452.324 269.332 452.916V453.288H264.736V452.652H268.684L268.492 452.808C268.492 452.168 268.348 451.672 268.06 451.32C267.78 450.96 267.368 450.78 266.824 450.78C266.416 450.78 266.068 450.876 265.78 451.068C265.5 451.252 265.288 451.512 265.144 451.848C265 452.176 264.928 452.56 264.928 453V453.072C264.928 453.56 265.004 453.972 265.156 454.308C265.316 454.644 265.552 454.9 265.864 455.076C266.176 455.244 266.548 455.328 266.98 455.328C267.324 455.328 267.656 455.276 267.976 455.172C268.304 455.06 268.612 454.88 268.9 454.632L269.236 455.316C268.972 455.556 268.636 455.748 268.228 455.892C267.82 456.036 267.404 456.108 266.98 456.108ZM270.964 456V450.168H271.936V452.592H275.116V450.168H276.088V456H275.116V453.384H271.936V456H270.964ZM279.339 456V450.948H277.227V450.168H282.435V450.948H280.311V456H279.339ZM285.427 456.108C285.027 456.108 284.667 456.032 284.347 455.88C284.035 455.72 283.787 455.504 283.603 455.232C283.419 454.96 283.327 454.656 283.327 454.32C283.327 453.888 283.435 453.548 283.651 453.3C283.875 453.052 284.239 452.876 284.743 452.772C285.255 452.668 285.951 452.616 286.831 452.616H287.371V453.252H286.843C286.355 453.252 285.947 453.268 285.619 453.3C285.291 453.332 285.031 453.388 284.839 453.468C284.647 453.548 284.511 453.652 284.431 453.78C284.351 453.908 284.311 454.068 284.311 454.26C284.311 454.588 284.423 454.856 284.647 455.064C284.879 455.272 285.191 455.376 285.583 455.376C285.903 455.376 286.183 455.3 286.423 455.148C286.671 454.996 286.863 454.788 286.999 454.524C287.143 454.26 287.215 453.956 287.215 453.612V452.244C287.215 451.748 287.115 451.392 286.915 451.176C286.715 450.952 286.387 450.84 285.931 450.84C285.579 450.84 285.239 450.892 284.911 450.996C284.583 451.092 284.247 451.252 283.903 451.476L283.567 450.768C283.775 450.624 284.011 450.5 284.275 450.396C284.539 450.284 284.815 450.2 285.103 450.144C285.391 450.088 285.667 450.06 285.931 450.06C286.435 450.06 286.851 450.144 287.179 450.312C287.507 450.472 287.751 450.72 287.911 451.056C288.071 451.384 288.151 451.808 288.151 452.328V456H287.239V454.644H287.347C287.283 454.948 287.159 455.208 286.975 455.424C286.799 455.64 286.579 455.808 286.315 455.928C286.051 456.048 285.755 456.108 285.427 456.108ZM290.167 456V450.168H290.971L293.167 454.068L295.363 450.168H296.155V456H295.291V451.284H295.567L293.407 455.064H292.915L290.755 451.284H291.031V456H290.167ZM298.197 456V450.168H299.085V455.076H298.785L302.457 450.168H303.285V456H302.397V451.08H302.697L299.025 456H298.197ZM308.527 456V450.168H309.415V455.076H309.115L312.787 450.168H313.615V456H312.727V451.08H313.027L309.355 456H308.527ZM32.324 473.56V471.22H32.936C33.12 470.948 33.268 470.652 33.38 470.332C33.5 470.004 33.584 469.64 33.632 469.24C33.688 468.84 33.716 468.388 33.716 467.884V466.168H37.844V471.22H38.768V473.56H37.928V472H33.152V473.56H32.324ZM33.872 471.22H36.92V466.936H34.58V468.052C34.58 468.652 34.52 469.232 34.4 469.792C34.28 470.352 34.104 470.828 33.872 471.22ZM40.8656 474.16L41.9576 471.7V472.12L39.4016 466.168H40.4576L42.5456 471.28H42.2216L44.3336 466.168H45.3536L41.8856 474.16H40.8656ZM46.5945 472V466.168H47.3985L49.5945 470.068L51.7905 466.168H52.5825V472H51.7185V467.284H51.9945L49.8345 471.064H49.3425L47.1825 467.284H47.4585V472H46.5945ZM56.4727 472.108C56.0727 472.108 55.7127 472.032 55.3927 471.88C55.0807 471.72 54.8327 471.504 54.6487 471.232C54.4647 470.96 54.3727 470.656 54.3727 470.32C54.3727 469.888 54.4807 469.548 54.6967 469.3C54.9207 469.052 55.2847 468.876 55.7887 468.772C56.3007 468.668 56.9967 468.616 57.8767 468.616H58.4167V469.252H57.8887C57.4007 469.252 56.9927 469.268 56.6647 469.3C56.3367 469.332 56.0767 469.388 55.8847 469.468C55.6927 469.548 55.5567 469.652 55.4767 469.78C55.3967 469.908 55.3567 470.068 55.3567 470.26C55.3567 470.588 55.4687 470.856 55.6927 471.064C55.9247 471.272 56.2367 471.376 56.6287 471.376C56.9487 471.376 57.2287 471.3 57.4687 471.148C57.7167 470.996 57.9087 470.788 58.0447 470.524C58.1887 470.26 58.2607 469.956 58.2607 469.612V468.244C58.2607 467.748 58.1607 467.392 57.9607 467.176C57.7607 466.952 57.4327 466.84 56.9767 466.84C56.6247 466.84 56.2847 466.892 55.9567 466.996C55.6287 467.092 55.2927 467.252 54.9487 467.476L54.6127 466.768C54.8207 466.624 55.0567 466.5 55.3207 466.396C55.5847 466.284 55.8607 466.2 56.1487 466.144C56.4367 466.088 56.7127 466.06 56.9767 466.06C57.4807 466.06 57.8967 466.144 58.2247 466.312C58.5527 466.472 58.7967 466.72 58.9567 467.056C59.1167 467.384 59.1967 467.808 59.1967 468.328V472H58.2847V470.644H58.3927C58.3287 470.948 58.2047 471.208 58.0207 471.424C57.8447 471.64 57.6247 471.808 57.3607 471.928C57.0967 472.048 56.8007 472.108 56.4727 472.108ZM61.2134 472V466.168H62.1014V471.076H61.8014L65.4734 466.168H66.3014V472H65.4134V467.08H65.7134L62.0414 472H61.2134ZM63.7574 465.412C63.4374 465.412 63.1414 465.356 62.8694 465.244C62.5974 465.124 62.3614 464.948 62.1614 464.716C61.9614 464.484 61.8094 464.192 61.7054 463.84L62.2694 463.624C62.4134 464.024 62.6054 464.32 62.8454 464.512C63.0934 464.704 63.3974 464.8 63.7574 464.8C64.1254 464.8 64.4254 464.712 64.6574 464.536C64.8974 464.36 65.1134 464.06 65.3054 463.636L65.8574 463.84C65.7134 464.224 65.5334 464.532 65.3174 464.764C65.1094 464.988 64.8734 465.152 64.6094 465.256C64.3454 465.36 64.0614 465.412 63.7574 465.412ZM69.5532 472V466.948H67.4412V466.168H72.6492V466.948H70.5252V472H69.5532ZM76.4098 472.108C75.7938 472.108 75.2618 471.988 74.8138 471.748C74.3738 471.5 74.0298 471.152 73.7818 470.704C73.5418 470.256 73.4218 469.72 73.4218 469.096C73.4218 468.488 73.5418 467.96 73.7818 467.512C74.0218 467.056 74.3498 466.7 74.7658 466.444C75.1898 466.188 75.6778 466.06 76.2298 466.06C76.7578 466.06 77.2098 466.176 77.5858 466.408C77.9618 466.64 78.2498 466.968 78.4498 467.392C78.6578 467.816 78.7618 468.324 78.7618 468.916V469.288H74.1658V468.652H78.1138L77.9218 468.808C77.9218 468.168 77.7778 467.672 77.4898 467.32C77.2098 466.96 76.7978 466.78 76.2538 466.78C75.8458 466.78 75.4978 466.876 75.2098 467.068C74.9298 467.252 74.7178 467.512 74.5738 467.848C74.4298 468.176 74.3578 468.56 74.3578 469V469.072C74.3578 469.56 74.4338 469.972 74.5858 470.308C74.7458 470.644 74.9818 470.9 75.2938 471.076C75.6058 471.244 75.9778 471.328 76.4098 471.328C76.7538 471.328 77.0858 471.276 77.4058 471.172C77.7338 471.06 78.0418 470.88 78.3298 470.632L78.6658 471.316C78.4018 471.556 78.0658 471.748 77.6578 471.892C77.2498 472.036 76.8338 472.108 76.4098 472.108ZM84.8078 472V466.948H82.6958V466.168H87.9038V466.948H85.7798V472H84.8078ZM91.4604 472.108C90.8924 472.108 90.4004 471.984 89.9844 471.736C89.5684 471.488 89.2444 471.14 89.0124 470.692C88.7884 470.236 88.6764 469.7 88.6764 469.084C88.6764 468.468 88.7884 467.936 89.0124 467.488C89.2444 467.032 89.5684 466.68 89.9844 466.432C90.4004 466.184 90.8924 466.06 91.4604 466.06C92.0284 466.06 92.5204 466.184 92.9364 466.432C93.3524 466.68 93.6724 467.032 93.8964 467.488C94.1284 467.936 94.2444 468.468 94.2444 469.084C94.2444 469.7 94.1284 470.236 93.8964 470.692C93.6724 471.14 93.3524 471.488 92.9364 471.736C92.5204 471.984 92.0284 472.108 91.4604 472.108ZM91.4604 471.328C92.0124 471.328 92.4484 471.136 92.7684 470.752C93.0964 470.36 93.2604 469.8 93.2604 469.072C93.2604 468.352 93.0964 467.8 92.7684 467.416C92.4484 467.032 92.0124 466.84 91.4604 466.84C90.9164 466.84 90.4804 467.032 90.1524 467.416C89.8244 467.8 89.6604 468.352 89.6604 469.072C89.6604 469.8 89.8244 470.36 90.1524 470.752C90.4804 471.136 90.9164 471.328 91.4604 471.328ZM95.5001 472.132L95.1401 471.364C95.4121 471.252 95.6361 471.104 95.8121 470.92C95.9961 470.736 96.1401 470.504 96.2441 470.224C96.3561 469.936 96.4361 469.584 96.4841 469.168C96.5321 468.752 96.5561 468.248 96.5561 467.656V466.168H100.792V472H99.8201V466.948H97.4681V467.692C97.4681 468.372 97.4321 468.964 97.3601 469.468C97.2881 469.972 97.1721 470.4 97.0121 470.752C96.8601 471.096 96.6561 471.38 96.4001 471.604C96.1521 471.828 95.8521 472.004 95.5001 472.132ZM102.835 472V466.168H103.807V468.244H105.571C106.315 468.244 106.879 468.408 107.263 468.736C107.647 469.056 107.839 469.512 107.839 470.104C107.839 470.496 107.747 470.836 107.563 471.124C107.387 471.404 107.131 471.62 106.795 471.772C106.467 471.924 106.059 472 105.571 472H102.835ZM103.807 471.304H105.475C105.931 471.304 106.283 471.208 106.531 471.016C106.779 470.816 106.903 470.516 106.903 470.116C106.903 469.708 106.779 469.412 106.531 469.228C106.283 469.036 105.931 468.94 105.475 468.94H103.807V471.304ZM109.4 472V466.168H110.372V468.604H111.464L113.372 466.168H114.44L112.256 469L111.98 468.688C112.204 468.712 112.4 468.768 112.568 468.856C112.736 468.944 112.896 469.08 113.048 469.264C113.2 469.44 113.364 469.68 113.54 469.984L114.74 472H113.696L112.64 470.236C112.504 470.012 112.376 469.84 112.256 469.72C112.136 469.592 112 469.504 111.848 469.456C111.696 469.408 111.508 469.384 111.284 469.384H110.372V472H109.4ZM118.272 472.108C117.704 472.108 117.212 471.984 116.796 471.736C116.38 471.488 116.056 471.14 115.824 470.692C115.6 470.236 115.488 469.7 115.488 469.084C115.488 468.468 115.6 467.936 115.824 467.488C116.056 467.032 116.38 466.68 116.796 466.432C117.212 466.184 117.704 466.06 118.272 466.06C118.84 466.06 119.332 466.184 119.748 466.432C120.164 466.68 120.484 467.032 120.708 467.488C120.94 467.936 121.056 468.468 121.056 469.084C121.056 469.7 120.94 470.236 120.708 470.692C120.484 471.14 120.164 471.488 119.748 471.736C119.332 471.984 118.84 472.108 118.272 472.108ZM118.272 471.328C118.824 471.328 119.26 471.136 119.58 470.752C119.908 470.36 120.072 469.8 120.072 469.072C120.072 468.352 119.908 467.8 119.58 467.416C119.26 467.032 118.824 466.84 118.272 466.84C117.728 466.84 117.292 467.032 116.964 467.416C116.636 467.8 116.472 468.352 116.472 469.072C116.472 469.8 116.636 470.36 116.964 470.752C117.292 471.136 117.728 471.328 118.272 471.328ZM128.391 472.108C127.823 472.108 127.331 471.984 126.915 471.736C126.499 471.488 126.175 471.14 125.943 470.692C125.719 470.236 125.607 469.7 125.607 469.084C125.607 468.468 125.719 467.936 125.943 467.488C126.175 467.032 126.499 466.68 126.915 466.432C127.331 466.184 127.823 466.06 128.391 466.06C128.959 466.06 129.451 466.184 129.867 466.432C130.283 466.68 130.603 467.032 130.827 467.488C131.059 467.936 131.175 468.468 131.175 469.084C131.175 469.7 131.059 470.236 130.827 470.692C130.603 471.14 130.283 471.488 129.867 471.736C129.451 471.984 128.959 472.108 128.391 472.108ZM128.391 471.328C128.943 471.328 129.379 471.136 129.699 470.752C130.027 470.36 130.191 469.8 130.191 469.072C130.191 468.352 130.027 467.8 129.699 467.416C129.379 467.032 128.943 466.84 128.391 466.84C127.847 466.84 127.411 467.032 127.083 467.416C126.755 467.8 126.591 468.352 126.591 469.072C126.591 469.8 126.755 470.36 127.083 470.752C127.411 471.136 127.847 471.328 128.391 471.328ZM138.558 472.108C137.974 472.108 137.47 471.98 137.046 471.724C136.622 471.468 136.294 471.112 136.062 470.656C135.838 470.192 135.726 469.656 135.726 469.048C135.726 468.432 135.838 467.9 136.062 467.452C136.294 467.004 136.622 466.66 137.046 466.42C137.47 466.18 137.974 466.06 138.558 466.06C138.918 466.06 139.274 466.124 139.626 466.252C139.978 466.38 140.27 466.56 140.502 466.792L140.166 467.5C139.934 467.276 139.678 467.112 139.398 467.008C139.126 466.904 138.866 466.852 138.618 466.852C138.01 466.852 137.542 467.044 137.214 467.428C136.886 467.804 136.722 468.348 136.722 469.06C136.722 469.756 136.886 470.308 137.214 470.716C137.542 471.116 138.01 471.316 138.618 471.316C138.866 471.316 139.126 471.264 139.398 471.16C139.678 471.056 139.934 470.888 140.166 470.656L140.502 471.364C140.27 471.596 139.974 471.78 139.614 471.916C139.262 472.044 138.91 472.108 138.558 472.108ZM144.302 472.108C143.734 472.108 143.242 471.984 142.826 471.736C142.41 471.488 142.086 471.14 141.854 470.692C141.63 470.236 141.518 469.7 141.518 469.084C141.518 468.468 141.63 467.936 141.854 467.488C142.086 467.032 142.41 466.68 142.826 466.432C143.242 466.184 143.734 466.06 144.302 466.06C144.87 466.06 145.362 466.184 145.778 466.432C146.194 466.68 146.514 467.032 146.738 467.488C146.97 467.936 147.086 468.468 147.086 469.084C147.086 469.7 146.97 470.236 146.738 470.692C146.514 471.14 146.194 471.488 145.778 471.736C145.362 471.984 144.87 472.108 144.302 472.108ZM144.302 471.328C144.854 471.328 145.29 471.136 145.61 470.752C145.938 470.36 146.102 469.8 146.102 469.072C146.102 468.352 145.938 467.8 145.61 467.416C145.29 467.032 144.854 466.84 144.302 466.84C143.758 466.84 143.322 467.032 142.994 467.416C142.666 467.8 142.502 468.352 142.502 469.072C142.502 469.8 142.666 470.36 142.994 470.752C143.322 471.136 143.758 471.328 144.302 471.328ZM150.715 472.108C150.211 472.108 149.735 472.044 149.287 471.916C148.847 471.78 148.491 471.592 148.219 471.352L148.531 470.668C148.811 470.892 149.139 471.064 149.515 471.184C149.891 471.296 150.283 471.352 150.691 471.352C151.267 471.352 151.679 471.268 151.927 471.1C152.183 470.932 152.311 470.684 152.311 470.356C152.311 470.052 152.207 469.82 151.999 469.66C151.791 469.492 151.491 469.408 151.099 469.408H149.719V468.676H150.979C151.323 468.676 151.595 468.596 151.795 468.436C152.003 468.276 152.107 468.052 152.107 467.764C152.107 467.468 151.995 467.236 151.771 467.068C151.555 466.9 151.195 466.816 150.691 466.816C150.291 466.816 149.923 466.868 149.587 466.972C149.251 467.068 148.931 467.228 148.627 467.452L148.315 466.768C148.643 466.528 149.015 466.352 149.431 466.24C149.855 466.12 150.315 466.06 150.811 466.06C151.547 466.06 152.099 466.204 152.467 466.492C152.843 466.78 153.031 467.184 153.031 467.704C153.031 468.072 152.903 468.384 152.647 468.64C152.391 468.896 152.051 469.048 151.627 469.096V468.94C151.955 468.948 152.239 469.016 152.479 469.144C152.719 469.264 152.903 469.432 153.031 469.648C153.167 469.856 153.235 470.104 153.235 470.392C153.235 470.912 153.023 471.328 152.599 471.64C152.175 471.952 151.547 472.108 150.715 472.108ZM154.349 473.56V471.22H154.961C155.145 470.948 155.293 470.652 155.405 470.332C155.525 470.004 155.609 469.64 155.657 469.24C155.713 468.84 155.741 468.388 155.741 467.884V466.168H159.869V471.22H160.793V473.56H159.953V472H155.177V473.56H154.349ZM155.897 471.22H158.945V466.936H156.605V468.052C156.605 468.652 156.545 469.232 156.425 469.792C156.305 470.352 156.129 470.828 155.897 471.22ZM164.055 472.108C163.655 472.108 163.295 472.032 162.975 471.88C162.663 471.72 162.415 471.504 162.231 471.232C162.047 470.96 161.955 470.656 161.955 470.32C161.955 469.888 162.063 469.548 162.279 469.3C162.503 469.052 162.867 468.876 163.371 468.772C163.883 468.668 164.579 468.616 165.459 468.616H165.999V469.252H165.471C164.983 469.252 164.575 469.268 164.247 469.3C163.919 469.332 163.659 469.388 163.467 469.468C163.275 469.548 163.139 469.652 163.059 469.78C162.979 469.908 162.939 470.068 162.939 470.26C162.939 470.588 163.051 470.856 163.275 471.064C163.507 471.272 163.819 471.376 164.211 471.376C164.531 471.376 164.811 471.3 165.051 471.148C165.299 470.996 165.491 470.788 165.627 470.524C165.771 470.26 165.843 469.956 165.843 469.612V468.244C165.843 467.748 165.743 467.392 165.543 467.176C165.343 466.952 165.015 466.84 164.559 466.84C164.207 466.84 163.867 466.892 163.539 466.996C163.211 467.092 162.875 467.252 162.531 467.476L162.195 466.768C162.403 466.624 162.639 466.5 162.903 466.396C163.167 466.284 163.443 466.2 163.731 466.144C164.019 466.088 164.295 466.06 164.559 466.06C165.063 466.06 165.479 466.144 165.807 466.312C166.135 466.472 166.379 466.72 166.539 467.056C166.699 467.384 166.779 467.808 166.779 468.328V472H165.867V470.644H165.975C165.911 470.948 165.787 471.208 165.603 471.424C165.427 471.64 165.207 471.808 164.943 471.928C164.679 472.048 164.383 472.108 164.055 472.108ZM168.795 472V466.168H169.767V468.592H172.947V466.168H173.919V472H172.947V469.384H169.767V472H168.795ZM175.958 472V466.168H176.846V471.076H176.546L180.218 466.168H181.046V472H180.158V467.08H180.458L176.786 472H175.958ZM183.086 472V466.168H183.974V471.076H183.674L187.346 466.168H188.174V472H187.286V467.08H187.586L183.914 472H183.086ZM193.092 472.132L192.732 471.364C193.004 471.252 193.228 471.104 193.404 470.92C193.588 470.736 193.732 470.504 193.836 470.224C193.948 469.936 194.028 469.584 194.076 469.168C194.124 468.752 194.148 468.248 194.148 467.656V466.168H198.384V472H197.412V466.948H195.06V467.692C195.06 468.372 195.024 468.964 194.952 469.468C194.88 469.972 194.764 470.4 194.604 470.752C194.452 471.096 194.248 471.38 193.992 471.604C193.744 471.828 193.444 472.004 193.092 472.132ZM201.111 474.16L202.203 471.7V472.12L199.647 466.168H200.703L202.791 471.28H202.467L204.579 466.168H205.599L202.131 474.16H201.111ZM210.584 472V469.636C210.36 469.772 210.116 469.876 209.852 469.948C209.596 470.012 209.324 470.044 209.036 470.044C208.484 470.044 208.024 469.956 207.656 469.78C207.296 469.604 207.028 469.34 206.852 468.988C206.676 468.628 206.588 468.18 206.588 467.644V466.168H207.56V467.572C207.56 467.956 207.616 468.272 207.728 468.52C207.84 468.76 208.012 468.94 208.244 469.06C208.476 469.172 208.78 469.228 209.156 469.228C209.444 469.228 209.7 469.196 209.924 469.132C210.148 469.068 210.364 468.964 210.572 468.82V466.168H211.544V472H210.584ZM213.581 472V466.168H214.517V471.22H216.953V466.168H217.877V471.22H220.313V466.168H221.249V472H213.581ZM225.927 472.108C225.311 472.108 224.779 471.988 224.331 471.748C223.891 471.5 223.547 471.152 223.299 470.704C223.059 470.256 222.939 469.72 222.939 469.096C222.939 468.488 223.059 467.96 223.299 467.512C223.539 467.056 223.867 466.7 224.283 466.444C224.707 466.188 225.195 466.06 225.747 466.06C226.275 466.06 226.727 466.176 227.103 466.408C227.479 466.64 227.767 466.968 227.967 467.392C228.175 467.816 228.279 468.324 228.279 468.916V469.288H223.683V468.652H227.631L227.439 468.808C227.439 468.168 227.295 467.672 227.007 467.32C226.727 466.96 226.315 466.78 225.771 466.78C225.363 466.78 225.015 466.876 224.727 467.068C224.447 467.252 224.235 467.512 224.091 467.848C223.947 468.176 223.875 468.56 223.875 469V469.072C223.875 469.56 223.951 469.972 224.103 470.308C224.263 470.644 224.499 470.9 224.811 471.076C225.123 471.244 225.495 471.328 225.927 471.328C226.271 471.328 226.603 471.276 226.923 471.172C227.251 471.06 227.559 470.88 227.847 470.632L228.183 471.316C227.919 471.556 227.583 471.748 227.175 471.892C226.767 472.036 226.351 472.108 225.927 472.108ZM229.91 472V466.168H234.002V466.948H230.882V472H229.91ZM237.681 472.108C237.113 472.108 236.621 471.984 236.205 471.736C235.789 471.488 235.465 471.14 235.233 470.692C235.009 470.236 234.897 469.7 234.897 469.084C234.897 468.468 235.009 467.936 235.233 467.488C235.465 467.032 235.789 466.68 236.205 466.432C236.621 466.184 237.113 466.06 237.681 466.06C238.249 466.06 238.741 466.184 239.157 466.432C239.573 466.68 239.893 467.032 240.117 467.488C240.349 467.936 240.465 468.468 240.465 469.084C240.465 469.7 240.349 470.236 240.117 470.692C239.893 471.14 239.573 471.488 239.157 471.736C238.741 471.984 238.249 472.108 237.681 472.108ZM237.681 471.328C238.233 471.328 238.669 471.136 238.989 470.752C239.317 470.36 239.481 469.8 239.481 469.072C239.481 468.352 239.317 467.8 238.989 467.416C238.669 467.032 238.233 466.84 237.681 466.84C237.137 466.84 236.701 467.032 236.373 467.416C236.045 467.8 235.881 468.352 235.881 469.072C235.881 469.8 236.045 470.36 236.373 470.752C236.701 471.136 237.137 471.328 237.681 471.328ZM245.364 472V466.168H250.452V472H249.48V466.948H246.336V472H245.364ZM252.504 474.16V466.168H253.452V467.548H253.332C253.46 467.092 253.712 466.732 254.088 466.468C254.472 466.196 254.928 466.06 255.456 466.06C255.976 466.06 256.428 466.184 256.812 466.432C257.204 466.672 257.504 467.02 257.712 467.476C257.928 467.924 258.036 468.46 258.036 469.084C258.036 469.7 257.928 470.236 257.712 470.692C257.504 471.14 257.208 471.488 256.824 471.736C256.44 471.984 255.984 472.108 255.456 472.108C254.928 472.108 254.476 471.976 254.1 471.712C253.724 471.44 253.468 471.08 253.332 470.632H253.476V474.16H252.504ZM255.252 471.328C255.804 471.328 256.24 471.136 256.56 470.752C256.888 470.36 257.052 469.804 257.052 469.084C257.052 468.356 256.888 467.8 256.56 467.416C256.24 467.032 255.804 466.84 255.252 466.84C254.708 466.84 254.272 467.032 253.944 467.416C253.616 467.8 253.452 468.356 253.452 469.084C253.452 469.804 253.616 470.36 253.944 470.752C254.272 471.136 254.708 471.328 255.252 471.328ZM262.161 472.108C261.593 472.108 261.101 471.984 260.685 471.736C260.269 471.488 259.945 471.14 259.713 470.692C259.489 470.236 259.377 469.7 259.377 469.084C259.377 468.468 259.489 467.936 259.713 467.488C259.945 467.032 260.269 466.68 260.685 466.432C261.101 466.184 261.593 466.06 262.161 466.06C262.729 466.06 263.221 466.184 263.637 466.432C264.053 466.68 264.373 467.032 264.597 467.488C264.829 467.936 264.945 468.468 264.945 469.084C264.945 469.7 264.829 470.236 264.597 470.692C264.373 471.14 264.053 471.488 263.637 471.736C263.221 471.984 262.729 472.108 262.161 472.108ZM262.161 471.328C262.713 471.328 263.149 471.136 263.469 470.752C263.797 470.36 263.961 469.8 263.961 469.072C263.961 468.352 263.797 467.8 263.469 467.416C263.149 467.032 262.713 466.84 262.161 466.84C261.617 466.84 261.181 467.032 260.853 467.416C260.525 467.8 260.361 468.352 260.361 469.072C260.361 469.8 260.525 470.36 260.853 470.752C261.181 471.136 261.617 471.328 262.161 471.328ZM266.006 473.56V471.22H266.618C266.802 470.948 266.95 470.652 267.062 470.332C267.182 470.004 267.266 469.64 267.314 469.24C267.37 468.84 267.398 468.388 267.398 467.884V466.168H271.526V471.22H272.45V473.56H271.61V472H266.834V473.56H266.006ZM267.554 471.22H270.602V466.936H268.262V468.052C268.262 468.652 268.202 469.232 268.082 469.792C267.962 470.352 267.786 470.828 267.554 471.22ZM274.548 474.16L275.64 471.7V472.12L273.084 466.168H274.14L276.228 471.28H275.904L278.016 466.168H279.036L275.568 474.16H274.548ZM280.277 472V466.168H281.249V468.604H282.341L284.249 466.168H285.317L283.133 469L282.857 468.688C283.081 468.712 283.277 468.768 283.445 468.856C283.613 468.944 283.773 469.08 283.925 469.264C284.077 469.44 284.241 469.68 284.417 469.984L285.617 472H284.573L283.517 470.236C283.381 470.012 283.253 469.84 283.133 469.72C283.013 469.592 282.877 469.504 282.725 469.456C282.573 469.408 282.385 469.384 282.161 469.384H281.249V472H280.277ZM287.925 472V466.948H285.813V466.168H291.021V466.948H288.897V472H287.925ZM294.013 472.108C293.613 472.108 293.253 472.032 292.933 471.88C292.621 471.72 292.373 471.504 292.189 471.232C292.005 470.96 291.913 470.656 291.913 470.32C291.913 469.888 292.021 469.548 292.237 469.3C292.461 469.052 292.825 468.876 293.329 468.772C293.841 468.668 294.537 468.616 295.417 468.616H295.957V469.252H295.429C294.941 469.252 294.533 469.268 294.205 469.3C293.877 469.332 293.617 469.388 293.425 469.468C293.233 469.548 293.097 469.652 293.017 469.78C292.937 469.908 292.897 470.068 292.897 470.26C292.897 470.588 293.009 470.856 293.233 471.064C293.465 471.272 293.777 471.376 294.169 471.376C294.489 471.376 294.769 471.3 295.009 471.148C295.257 470.996 295.449 470.788 295.585 470.524C295.729 470.26 295.801 469.956 295.801 469.612V468.244C295.801 467.748 295.701 467.392 295.501 467.176C295.301 466.952 294.973 466.84 294.517 466.84C294.165 466.84 293.825 466.892 293.497 466.996C293.169 467.092 292.833 467.252 292.489 467.476L292.153 466.768C292.361 466.624 292.597 466.5 292.861 466.396C293.125 466.284 293.401 466.2 293.689 466.144C293.977 466.088 294.253 466.06 294.517 466.06C295.021 466.06 295.437 466.144 295.765 466.312C296.093 466.472 296.337 466.72 296.497 467.056C296.657 467.384 296.737 467.808 296.737 468.328V472H295.825V470.644H295.933C295.869 470.948 295.745 471.208 295.561 471.424C295.385 471.64 295.165 471.808 294.901 471.928C294.637 472.048 294.341 472.108 294.013 472.108ZM298.55 472V470.776H299.774V472H298.55Z" fill="#71727A"/>
</g>
<defs>
<clipPath id="clip0_190_27507">
<rect width="375" height="516" rx="32" fill="white"/>
</clipPath>
</defs>
</svg>
