<svg width="96" height="96" viewBox="0 0 96 96" fill="none" xmlns="http://www.w3.org/2000/svg">
    <path opacity="0.4"
        d="M 92.3 7.6 C 90.3 7.6 88.6 5.9 88.6 3.8 C 88.6 1.7 90.3 0 92.3 0 C 94.3 0 96 1.7 96 3.8 C 96 5.9 94.3 7.6 92.3 7.6 Z M 96 26.4 C 96 24.3 94.3 22.6 92.3 22.6 C 90.3 22.6 88.6 24.3 88.6 26.4 C 88.6 28.5 90.3 30.2 92.3 30.2 C 94.3 30.2 96 28.5 96 26.4 Z M 96 49 C 96 46.9 94.3 45.2 92.3 45.2 C 90.3 45.2 88.6 46.9 88.6 49 C 88.6 51.1 90.3 52.8 92.3 52.8 C 94.3 52.8 96 51.1 96 49 Z M 96 71.6 C 96 69.5 94.3 67.8 92.3 67.8 C 90.3 67.8 88.6 69.5 88.6 71.6 C 88.6 73.7 90.3 75.4 92.3 75.4 C 94.3 75.4 96 73.7 96 71.6 Z M 96 94.2 C 96 92.1 94.3 90.4 92.3 90.4 C 90.3 90.4 88.6 92.1 88.6 94.2 C 88.6 96.3 90.3 98 92.3 98 C 94.3 98 96 96.3 96 94.2 Z M 73.9 3.8 C 73.9 1.7 72.2 0 70.2 0 C 68.1 0 66.5 1.7 66.5 3.8 C 66.5 5.9 68.1 7.6 70.2 7.6 C 72.2 7.6 73.9 5.9 73.9 3.8 Z M 73.9 26.4 C 73.9 24.3 72.2 22.6 70.2 22.6 C 68.1 22.6 66.5 24.3 66.5 26.4 C 66.5 28.5 68.1 30.2 70.2 30.2 C 72.2 30.2 73.9 28.5 73.9 26.4 Z M 73.9 49 C 73.9 46.9 72.2 45.2 70.2 45.2 C 68.1 45.2 66.5 46.9 66.5 49 C 66.5 51.1 68.1 52.8 70.2 52.8 C 72.2 52.8 73.9 51.1 73.9 49 Z M 73.9 71.6 C 73.9 69.5 72.2 67.8 70.2 67.8 C 68.1 67.8 66.5 69.5 66.5 71.6 C 66.5 73.7 68.1 75.4 70.2 75.4 C 72.2 75.4 73.9 73.7 73.9 71.6 Z M 73.9 94.2 C 73.9 92.1 72.2 90.4 70.2 90.4 C 68.1 90.4 66.5 92.1 66.5 94.2 C 66.5 96.3 68.1 98 70.2 98 C 72.2 98 73.9 96.3 73.9 94.2 Z M 51.7 3.8 C 51.7 1.7 50 0 48 0 C 46 0 44.3 1.7 44.3 3.8 C 44.3 5.9 46 7.6 48 7.6 C 50 7.6 51.7 5.9 51.7 3.8 Z M 51.7 26.4 C 51.7 24.3 50 22.6 48 22.6 C 46 22.6 44.3 24.3 44.3 26.4 C 44.3 28.5 46 30.2 48 30.2 C 50 30.2 51.7 28.5 51.7 26.4 Z M 51.7 49 C 51.7 46.9 50 45.2 48 45.2 C 46 45.2 44.3 46.9 44.3 49 C 44.3 51.1 46 52.8 48 52.8 C 50 52.8 51.7 51.1 51.7 49 Z M 51.7 71.6 C 51.7 69.5 50 67.8 48 67.8 C 46 67.8 44.3 69.5 44.3 71.6 C 44.3 73.7 46 75.4 48 75.4 C 50 75.4 51.7 73.7 51.7 71.6 Z M 51.7 94.2 C 51.7 92.1 50 90.4 48 90.4 C 46 90.4 44.3 92.1 44.3 94.2 C 44.3 96.3 46 98 48 98 C 50 98 51.7 96.3 51.7 94.2 Z M 29.5 3.8 C 29.5 1.7 27.9 0 25.8 0 C 23.8 0 22.1 1.7 22.1 3.8 C 22.1 5.9 23.8 7.6 25.8 7.6 C 27.9 7.6 29.5 5.9 29.5 3.8 Z M 29.5 26.4 C 29.5 24.3 27.9 22.6 25.8 22.6 C 23.8 22.6 22.1 24.3 22.1 26.4 C 22.1 28.5 23.8 30.2 25.8 30.2 C 27.9 30.2 29.5 28.5 29.5 26.4 Z M 29.5 49 C 29.5 46.9 27.9 45.2 25.8 45.2 C 23.8 45.2 22.1 46.9 22.1 49 C 22.1 51.1 23.8 52.8 25.8 52.8 C 27.9 52.8 29.5 51.1 29.5 49 Z M 29.5 71.6 C 29.5 69.5 27.9 67.8 25.8 67.8 C 23.8 67.8 22.1 69.5 22.1 71.6 C 22.1 73.7 23.8 75.4 25.8 75.4 C 27.9 75.4 29.5 73.7 29.5 71.6 Z M 29.5 94.2 C 29.5 92.1 27.9 90.4 25.8 90.4 C 23.8 90.4 22.1 92.1 22.1 94.2 C 22.1 96.3 23.8 98 25.8 98 C 27.9 98 29.5 96.3 29.5 94.2 Z M 7.4 3.8 C 7.4 1.7 5.7 0 3.7 0 C 1.7 0 0 1.7 0 3.8 C 0 5.9 1.7 7.6 3.7 7.6 C 5.7 7.6 7.4 5.9 7.4 3.8 Z M 7.4 26.4 C 7.4 24.3 5.7 22.6 3.7 22.6 C 1.7 22.6 0 24.3 0 26.4 C 0 28.5 1.7 30.2 3.7 30.2 C 5.7 30.2 7.4 28.5 7.4 26.4 Z M 7.4 49 C 7.4 46.9 5.7 45.2 3.7 45.2 C 1.7 45.2 0 46.9 0 49 C 0 51.1 1.7 52.8 3.7 52.8 C 5.7 52.8 7.4 51.1 7.4 49 Z M 7.4 71.6 C 7.4 69.5 5.7 67.8 3.7 67.8 C 1.7 67.8 0 69.5 0 71.6 C 0 73.7 1.7 75.4 3.7 75.4 C 5.7 75.4 7.4 73.7 7.4 71.6 Z M 7.4 94.2 C 7.4 92.1 5.7 90.4 3.7 90.4 C 1.7 90.4 0 92.1 0 94.2 C 0 96.3 1.7 98 3.7 98 C 5.7 98 7.4 96.3 7.4 94.2 Z"
        fill="white" />
</svg>