<svg width="210" height="144" viewBox="0 0 210 144" fill="none" xmlns="http://www.w3.org/2000/svg">
<path opacity="0.4" d="M182.298 31.403C180.259 31.403 178.597 29.7411 178.597 27.7015C178.597 25.6619 180.259 24 182.298 24C184.338 24 186 25.6619 186 27.7015C186 29.7537 184.338 31.403 182.298 31.403ZM186 49.8476C186 47.808 184.338 46.1461 182.298 46.1461C180.259 46.1461 178.597 47.808 178.597 49.8476C178.597 51.8872 180.259 53.5491 182.298 53.5491C184.338 53.5491 186 51.8998 186 49.8476ZM186 71.9937C186 69.9541 184.338 68.2922 182.298 68.2922C180.259 68.2922 178.597 69.9541 178.597 71.9937C178.597 74.0333 180.259 75.6952 182.298 75.6952C184.338 75.7078 186 74.0459 186 71.9937ZM186 94.1524C186 92.1128 184.338 90.4509 182.298 90.4509C180.259 90.4509 178.597 92.1128 178.597 94.1524C178.597 96.192 180.259 97.8539 182.298 97.8539C184.338 97.8539 186 96.192 186 94.1524ZM186 116.298C186 114.259 184.338 112.597 182.298 112.597C180.259 112.597 178.597 114.259 178.597 116.298C178.597 118.338 180.259 120 182.298 120C184.338 120 186 118.338 186 116.298ZM163.854 27.7015C163.854 25.6619 162.192 24 160.152 24C158.113 24 156.451 25.6619 156.451 27.7015C156.451 29.7411 158.113 31.403 160.152 31.403C162.192 31.403 163.854 29.7537 163.854 27.7015ZM163.854 49.8476C163.854 47.808 162.192 46.1461 160.152 46.1461C158.113 46.1461 156.451 47.808 156.451 49.8476C156.451 51.8872 158.113 53.5491 160.152 53.5491C162.192 53.5491 163.854 51.8998 163.854 49.8476ZM163.854 71.9937C163.854 69.9541 162.192 68.2922 160.152 68.2922C158.113 68.2922 156.451 69.9541 156.451 71.9937C156.451 74.0333 158.113 75.6952 160.152 75.6952C162.192 75.7078 163.854 74.0459 163.854 71.9937ZM163.854 94.1524C163.854 92.1128 162.192 90.4509 160.152 90.4509C158.113 90.4509 156.451 92.1128 156.451 94.1524C156.451 96.192 158.113 97.8539 160.152 97.8539C162.192 97.8539 163.854 96.192 163.854 94.1524ZM163.854 116.298C163.854 114.259 162.192 112.597 160.152 112.597C158.113 112.597 156.451 114.259 156.451 116.298C156.451 118.338 158.113 120 160.152 120C162.192 120 163.854 118.338 163.854 116.298ZM141.695 27.7015C141.695 25.6619 140.033 24 137.994 24C135.954 24 134.292 25.6619 134.292 27.7015C134.292 29.7411 135.954 31.403 137.994 31.403C140.046 31.403 141.695 29.7537 141.695 27.7015ZM141.695 49.8476C141.695 47.808 140.033 46.1461 137.994 46.1461C135.954 46.1461 134.292 47.808 134.292 49.8476C134.292 51.8872 135.954 53.5491 137.994 53.5491C140.046 53.5491 141.695 51.8998 141.695 49.8476ZM141.695 71.9937C141.695 69.9541 140.033 68.2922 137.994 68.2922C135.954 68.2922 134.292 69.9541 134.292 71.9937C134.292 74.0333 135.954 75.6952 137.994 75.6952C140.046 75.7078 141.695 74.0459 141.695 71.9937ZM141.695 94.1524C141.695 92.1128 140.033 90.4509 137.994 90.4509C135.954 90.4509 134.292 92.1128 134.292 94.1524C134.292 96.192 135.954 97.8539 137.994 97.8539C140.046 97.8539 141.695 96.192 141.695 94.1524ZM141.695 116.298C141.695 114.259 140.033 112.597 137.994 112.597C135.954 112.597 134.292 114.259 134.292 116.298C134.292 118.338 135.954 120 137.994 120C140.046 120 141.695 118.338 141.695 116.298ZM119.549 27.7015C119.549 25.6619 117.887 24 115.848 24C113.808 24 112.146 25.6619 112.146 27.7015C112.146 29.7411 113.808 31.403 115.848 31.403C117.9 31.403 119.549 29.7537 119.549 27.7015ZM119.549 49.8476C119.549 47.808 117.887 46.1461 115.848 46.1461C113.808 46.1461 112.146 47.808 112.146 49.8476C112.146 51.8872 113.808 53.5491 115.848 53.5491C117.9 53.5491 119.549 51.8998 119.549 49.8476ZM119.549 71.9937C119.549 69.9541 117.887 68.2922 115.848 68.2922C113.808 68.2922 112.146 69.9541 112.146 71.9937C112.146 74.0333 113.808 75.6952 115.848 75.6952C117.9 75.7078 119.549 74.0459 119.549 71.9937ZM119.549 94.1524C119.549 92.1128 117.887 90.4509 115.848 90.4509C113.808 90.4509 112.146 92.1128 112.146 94.1524C112.146 96.192 113.808 97.8539 115.848 97.8539C117.9 97.8539 119.549 96.192 119.549 94.1524ZM119.549 116.298C119.549 114.259 117.887 112.597 115.848 112.597C113.808 112.597 112.146 114.259 112.146 116.298C112.146 118.338 113.808 120 115.848 120C117.9 120 119.549 118.338 119.549 116.298ZM97.403 27.7015C97.403 25.6619 95.7411 24 93.7015 24C91.6619 24 90 25.6619 90 27.7015C90 29.7411 91.6619 31.403 93.7015 31.403C95.7411 31.403 97.403 29.7537 97.403 27.7015ZM97.403 49.8476C97.403 47.808 95.7411 46.1461 93.7015 46.1461C91.6619 46.1461 90 47.808 90 49.8476C90 51.8872 91.6619 53.5491 93.7015 53.5491C95.7411 53.5491 97.403 51.8998 97.403 49.8476ZM97.403 71.9937C97.403 69.9541 95.7411 68.2922 93.7015 68.2922C91.6619 68.2922 90 69.9541 90 71.9937C90 74.0333 91.6619 75.6952 93.7015 75.6952C95.7411 75.6952 97.403 74.0459 97.403 71.9937ZM97.403 94.1524C97.403 92.1128 95.7411 90.4509 93.7015 90.4509C91.6619 90.4509 90 92.1128 90 94.1524C90 96.192 91.6619 97.8539 93.7015 97.8539C95.7411 97.8539 97.403 96.192 97.403 94.1524ZM97.403 116.298C97.403 114.259 95.7411 112.597 93.7015 112.597C91.6619 112.597 90 114.259 90 116.298C90 118.338 91.6619 120 93.7015 120C95.7411 120 97.403 118.338 97.403 116.298Z" fill="white"/>
</svg>
