<svg width="460" height="512" viewBox="0 0 460 512" fill="none" xmlns="http://www.w3.org/2000/svg">
    <path
        d="M169.895 358.4C161.044 358.4 153.868 349.579 153.868 340.742V153.6V102.4V51.2H231.603C328.974 51.2 408.711 130.798 408.711 228V286.4C408.711 383.602 328.974 460.8 231.603 460.8H131.429C87.1688 460.8 51.2892 422.525 51.2892 378.342V0H0V395.942C0 460.007 51.2241 512 115.401 512H231.603C359.956 512 460 414.53 460 286.4V228C460 99.8699 359.956 0 231.603 0H102.578V357.6C102.578 386.406 125.062 409.385 153.868 409.6H231.603C302.418 409.6 357.422 355.492 357.422 284.8V256H306.132V284.8C306.132 324.564 271.437 358.4 231.603 358.4H169.895Z"
        fill="#2C323F" />
    <path
        d="M231.603 102.4H153.868V153.6H231.603C271.437 153.6 306.132 187.435 306.132 227.2V256H357.422V227.2C357.422 156.508 302.418 102.4 231.603 102.4Z"
        fill="#2C323F" />
</svg>