<svg width="203" height="125" viewBox="0 0 203 125" fill="none" xmlns="http://www.w3.org/2000/svg">
    <g opacity="0.4">
        <path fill-rule="evenodd" clip-rule="evenodd"
            d="M220.896 -25.5074C220.823 -25.7707 220.752 -26.0351 220.679 -26.2983C215.273 -24.805 209.869 -23.3129 204.462 -21.8196C204.549 -21.5091 204.636 -21.1973 204.721 -20.8843C210.113 -22.4249 215.505 -23.9668 220.896 -25.5074ZM37.0251 100.404C34.2255 98.7747 30.8373 97.8564 31.6704 93.8059C32.2018 91.2305 32.6494 88.5192 33.8242 86.2192C37.452 79.1117 40.8159 71.7542 45.3886 65.2715C51.4609 56.6646 60.0822 51.0055 70.923 50.5809C81.2665 50.1745 91.6537 50.7143 102.019 50.9776C116.257 51.3379 130.554 52.5801 143.795 45.3282C152.291 40.6748 159.507 35.0181 164.066 26.0885C169.22 15.9907 174.667 5.98752 180.771 -3.55832C189.279 -16.8635 201.287 -25.5323 217.34 -27.7984C218.966 -28.0277 221.031 -28.7143 222.172 -28.0167C224.099 -26.8364 225.707 -24.8748 226.904 -22.9096C227.322 -22.2242 226.476 -19.9836 225.602 -19.4668C223.734 -18.3593 221.418 -18.0378 219.389 -17.1559C217.779 -16.4572 216.322 -15.4054 214.802 -14.5029C214.521 -14.3367 214.236 -13.9545 213.988 -13.9812C208.573 -14.5866 206.123 -9.84943 202.367 -7.52029C193.686 -2.13536 188.49 6.22286 183.782 14.9123C179.336 23.1188 175.105 31.4419 170.574 39.6C169.282 41.9267 167.559 44.1867 165.544 45.9117C159.694 50.9242 153.707 55.375 146.246 58.4405C131.777 64.3847 117.245 62.6985 102.487 61.8299C93.3478 61.2913 84.0977 60.7891 75.0154 61.5994C63.4875 62.6269 55.501 69.8958 49.1149 79.1311C47.4342 81.5609 44.8815 83.3878 43.1813 85.8067C42.0551 87.4104 41.8228 89.6146 41.0336 91.484C39.8016 94.41 38.4383 97.2802 37.0251 100.404Z"
            fill="white" />
        <path fill-rule="evenodd" clip-rule="evenodd"
            d="M34.5305 26.3949C34.6921 26.6852 34.8549 26.9768 35.0153 27.2671C37.755 25.7571 40.496 24.247 43.237 22.737C43.0547 22.4078 42.8725 22.0786 42.6902 21.7494C39.9711 23.2983 37.2496 24.8459 34.5305 26.3949ZM114.935 26.3421C115.006 26.6093 115.078 26.8766 115.15 27.1439C118.489 26.24 121.826 25.3374 125.165 24.4336C125.093 24.17 125.023 23.9076 124.952 23.644C121.613 24.5441 118.275 25.4431 114.935 26.3421ZM186.746 -42.7487C186.132 -42.2288 185.517 -41.7076 184.567 -40.9034H187.613C189.78 -36.9297 188.41 -34.0227 185.443 -31.4667C182.857 -29.2399 180.464 -26.7034 176.637 -26.8236C176.242 -26.8358 175.583 -26.6742 175.474 -26.413C174.02 -22.9556 171.472 -23.1002 168.72 -24.343C168.561 -22.7042 168.77 -21.0362 168.172 -19.7388C167.529 -18.3417 166.172 -17.2508 165.056 -16.0955C158.596 -9.41642 156.076 -0.775394 152.837 7.59716C149.857 15.2955 145.705 22.4217 138.318 26.9262C137.352 27.5142 136.097 27.6296 134.262 28.1763C133.071 30.1212 131.316 32.5278 127.537 32.8837C125.339 33.0914 123.315 35.0121 121.109 35.2733C115.034 35.9912 108.835 36.9983 102.815 36.4553C97.2322 35.9511 91.6749 33.9734 86.3582 31.9738C74.7941 27.6259 62.9712 26.9614 51.1156 29.5587C44.5316 31.0019 38.4276 34.141 33.9468 39.6843C32.5909 41.362 30.7393 42.629 29.1853 44.156C21.6173 51.5908 15.6566 60.1395 11.4759 69.9054C10.1868 72.9194 8.95849 75.9601 7.67427 78.9777C7.068 80.3966 6.37911 81.1012 4.68787 79.9617C0.525378 77.1567 -0.103977 75.3223 1.08669 70.1581C5.86517 49.4223 18.4559 34.3342 35.5615 22.6087C43.1405 17.4129 52.0304 16.3536 60.8936 16.6002C66.8725 16.7679 72.8842 17.9062 78.7525 19.1951C84.2247 20.3965 89.4977 22.4715 94.908 23.9815C101.483 25.8159 108.047 24.5962 114.57 23.4931C131.024 20.71 141.206 10.9416 146.225 -4.7588C151.789 -22.1684 162.971 -34.7637 179.55 -42.4499C181.605 -43.4011 184.05 -43.5044 186.315 -44C186.46 -43.5833 186.603 -43.1666 186.746 -42.7487Z"
            fill="white" />
        <path fill-rule="evenodd" clip-rule="evenodd"
            d="M216.389 30.5686C215.114 31.9567 213.82 33.3266 212.575 34.7387C212.04 35.3453 211.064 36.4391 211.206 36.6308C213.147 39.238 211.107 41.4135 209.696 42.4096C206.077 44.9674 207.262 48.5984 206.761 51.8255C206.462 53.7441 204.058 56.7517 202.294 57.0821C202.15 56.2066 202.009 55.3516 201.87 54.4966C201.096 54.8753 200.185 55.1068 199.577 55.6651C198.532 56.6275 197.674 57.7936 196.458 59.1949C197.725 59.4421 198.59 59.6109 199.5 59.787C199.675 60.888 199.845 61.948 200.013 62.9959C196.704 64.2151 193.37 64.8012 190.835 67.6339C189.457 69.1751 187.549 69.8962 188.639 72.4407C188.732 72.6566 187.415 73.8734 187.201 73.7624C182.043 71.0901 179.239 75.8511 177.67 78.3437C176.375 80.3974 174.865 81.4984 173.198 82.2823C171.919 82.8828 169.982 82.064 168.331 81.929C167.92 81.8952 167.493 82.0628 166.856 82.175C166.931 83.1554 166.999 84.0429 167.063 84.9088C164.109 86.1617 164.109 86.1617 157.402 84.3058C156.806 88.0008 153.798 89.2453 149.905 87.235C149.685 87.9706 149.477 88.6701 149.447 88.7665C145.422 88.6785 141.212 84.6411 137.748 90.5573C134.7 87.2049 131.539 88.6435 128.081 90.3982C126.459 91.2194 124.267 91.0916 122.332 91.1048C114.431 91.1579 106.662 91.6837 98.9764 93.9701C95.211 95.0904 92.0203 97.372 88.4691 98.4079C80.7991 100.646 77.2806 107.429 71.9035 112.105C69.3807 114.298 68.0958 117.89 66.1901 120.809C65.0273 122.589 64.5276 125.399 61.153 123.734C58.5407 122.446 57.5558 120.797 58.7658 117.634C64.3884 102.94 73.4813 91.5245 88.4679 85.0981C99.752 80.2624 111.509 80.1997 123.363 79.8789C131.025 79.6715 138.675 79.1324 146.335 78.7899C147.52 78.7381 149.539 77.6648 149.002 80.4638L149.016 80.4095L147.535 80.9702C147.522 81.1427 147.512 81.3151 147.499 81.4876C148.241 81.5551 149 81.7505 149.718 81.6564C150.564 81.5467 151.385 80.9401 152.201 80.9702C158.798 81.2102 164.357 78.0254 169.878 75.253C175.744 72.3069 181.215 68.5528 186.736 64.9652C188.418 63.8739 189.698 62.1675 191.162 60.7421L191.065 60.8229C192.148 59.9667 193.229 59.1092 194.994 57.7116C193 57.5874 191.987 57.5247 190.385 57.4258C192.554 54.792 194.36 52.2897 196.499 50.1106C197.916 48.6659 198.894 49.2966 199.903 51.8629C201.518 51.7507 203.074 51.6434 204.939 51.5131C204.043 50.3084 203.288 49.2906 202.755 48.5755C201.339 48.4597 199.585 48.7311 199.297 48.2041C198.765 47.2345 198.895 45.7585 199.115 44.5598C199.426 42.8691 199.949 41.1868 200.619 39.601C201.022 38.6483 201.876 37.8862 202.85 36.6188C202.215 34.0031 203.316 31.3103 207.977 25.3349C208.613 25.6497 209.285 25.9801 210.115 26.3901C209.699 22.3442 210.112 21.693 212.102 21.8583V26.003L212.034 25.9102C212.731 27.3331 213.427 28.7549 214.202 30.3431C214.387 30.2925 215.075 30.1019 215.763 29.9102C215.971 30.1297 216.18 30.3492 216.389 30.5686Z"
            fill="white" />
        <path fill-rule="evenodd" clip-rule="evenodd"
            d="M176.953 68.0502C172.408 70.0944 167.861 72.1375 163.315 74.1817C163.093 73.8752 162.872 73.5686 162.65 73.2621C163.273 72.8586 163.855 72.3955 164.523 72.0603C167.689 70.4737 170.854 68.8837 174.079 67.3886C174.773 67.0678 175.713 67.1394 176.541 67.0303C176.678 67.3699 176.816 67.7106 176.953 68.0502Z"
            fill="white" />
        <path fill-rule="evenodd" clip-rule="evenodd"
            d="M148.348 78.9497C150.531 74.6782 154.529 75.4741 157.883 74.1821C157.724 76.4889 154.873 77.8181 148.372 78.8688C148.361 78.89 148.348 78.9497 148.348 78.9497Z"
            fill="white" />
        <path fill-rule="evenodd" clip-rule="evenodd"
            d="M191.256 59.6308C189.998 59.8169 188.657 59.8297 187.507 60.2382C186.378 60.6393 185.442 61.4425 184.104 62.2628C184.417 59.7944 187.312 57.1548 189.184 57.5313C189.993 57.6928 190.503 58.9463 191.152 59.7035C191.156 59.7024 191.256 59.6308 191.256 59.6308Z"
            fill="white" />
    </g>
</svg>