<svg width="210" height="144" viewBox="0 0 210 144" fill="none" xmlns="http://www.w3.org/2000/svg">
<g opacity="0.4" clip-path="url(#clip0_499_72)">
<path fill-rule="evenodd" clip-rule="evenodd" d="M227.896 -25.5074C227.823 -25.7707 227.752 -26.0351 227.679 -26.2983C222.273 -24.805 216.869 -23.3129 211.462 -21.8196C211.549 -21.5091 211.636 -21.1973 211.721 -20.8843C217.113 -22.4249 222.505 -23.9668 227.896 -25.5074ZM44.0251 100.404C41.2255 98.7747 37.8373 97.8564 38.6704 93.8059C39.2018 91.2305 39.6494 88.5192 40.8242 86.2192C44.452 79.1117 47.8159 71.7542 52.3886 65.2715C58.4609 56.6646 67.0822 51.0055 77.923 50.5809C88.2665 50.1745 98.6537 50.7143 109.019 50.9776C123.257 51.3379 137.554 52.5801 150.795 45.3282C159.291 40.6748 166.507 35.0181 171.066 26.0885C176.22 15.9907 181.667 5.98752 187.771 -3.55832C196.279 -16.8635 208.287 -25.5323 224.34 -27.7984C225.966 -28.0277 228.031 -28.7143 229.172 -28.0167C231.099 -26.8364 232.707 -24.8748 233.904 -22.9096C234.322 -22.2242 233.476 -19.9836 232.602 -19.4668C230.734 -18.3593 228.418 -18.0378 226.389 -17.1559C224.779 -16.4572 223.322 -15.4054 221.802 -14.5029C221.521 -14.3367 221.236 -13.9545 220.988 -13.9812C215.573 -14.5866 213.123 -9.84943 209.367 -7.52029C200.686 -2.13536 195.49 6.22286 190.782 14.9123C186.336 23.1188 182.105 31.4419 177.574 39.6C176.282 41.9267 174.559 44.1867 172.544 45.9117C166.694 50.9242 160.707 55.375 153.246 58.4405C138.777 64.3847 124.245 62.6985 109.487 61.8299C100.348 61.2913 91.0977 60.7891 82.0154 61.5994C70.4875 62.6269 62.501 69.8958 56.1149 79.1311C54.4342 81.5609 51.8815 83.3878 50.1813 85.8067C49.0551 87.4104 48.8228 89.6146 48.0336 91.484C46.8016 94.41 45.4383 97.2802 44.0251 100.404Z" fill="white"/>
<path fill-rule="evenodd" clip-rule="evenodd" d="M41.5305 26.3949C41.6921 26.6852 41.8549 26.9768 42.0153 27.2671C44.755 25.7571 47.496 24.247 50.237 22.737C50.0547 22.4078 49.8725 22.0786 49.6902 21.7494C46.9711 23.2983 44.2496 24.8459 41.5305 26.3949ZM121.935 26.3421C122.006 26.6093 122.078 26.8766 122.15 27.1439C125.489 26.24 128.826 25.3374 132.165 24.4336C132.093 24.17 132.023 23.9076 131.952 23.644C128.613 24.5441 125.275 25.4431 121.935 26.3421ZM193.746 -42.7487C193.132 -42.2288 192.517 -41.7076 191.567 -40.9034H194.613C196.78 -36.9297 195.41 -34.0227 192.443 -31.4667C189.857 -29.2399 187.464 -26.7034 183.637 -26.8236C183.242 -26.8358 182.583 -26.6742 182.474 -26.413C181.02 -22.9556 178.472 -23.1002 175.72 -24.343C175.561 -22.7042 175.77 -21.0362 175.172 -19.7388C174.529 -18.3417 173.172 -17.2508 172.056 -16.0955C165.596 -9.41642 163.076 -0.775394 159.837 7.59716C156.857 15.2955 152.705 22.4217 145.318 26.9262C144.352 27.5142 143.097 27.6296 141.262 28.1763C140.071 30.1212 138.316 32.5278 134.537 32.8837C132.339 33.0914 130.315 35.0121 128.109 35.2733C122.034 35.9912 115.835 36.9983 109.815 36.4553C104.232 35.9511 98.6749 33.9734 93.3582 31.9738C81.7941 27.6259 69.9712 26.9614 58.1156 29.5587C51.5316 31.0019 45.4276 34.141 40.9468 39.6843C39.5909 41.362 37.7393 42.629 36.1853 44.156C28.6173 51.5908 22.6566 60.1395 18.4759 69.9054C17.1868 72.9194 15.9585 75.9601 14.6743 78.9777C14.068 80.3966 13.3791 81.1012 11.6879 79.9617C7.52538 77.1567 6.89602 75.3223 8.08669 70.1581C12.8652 49.4223 25.4559 34.3342 42.5615 22.6087C50.1405 17.4129 59.0304 16.3536 67.8936 16.6002C73.8725 16.7679 79.8842 17.9062 85.7525 19.1951C91.2247 20.3965 96.4977 22.4715 101.908 23.9815C108.483 25.8159 115.047 24.5962 121.57 23.4931C138.024 20.71 148.206 10.9416 153.225 -4.7588C158.789 -22.1684 169.971 -34.7637 186.55 -42.4499C188.605 -43.4011 191.05 -43.5044 193.315 -44C193.46 -43.5833 193.603 -43.1666 193.746 -42.7487Z" fill="white"/>
<path fill-rule="evenodd" clip-rule="evenodd" d="M223.389 30.5686C222.114 31.9567 220.82 33.3266 219.575 34.7387C219.04 35.3453 218.064 36.4391 218.206 36.6308C220.147 39.238 218.107 41.4135 216.696 42.4096C213.077 44.9674 214.262 48.5984 213.761 51.8255C213.462 53.7441 211.058 56.7517 209.294 57.0821C209.15 56.2066 209.009 55.3516 208.87 54.4966C208.096 54.8753 207.185 55.1068 206.577 55.6651C205.532 56.6275 204.674 57.7936 203.458 59.1949C204.725 59.4421 205.59 59.6109 206.5 59.787C206.675 60.888 206.845 61.948 207.013 62.9959C203.704 64.2151 200.37 64.8012 197.835 67.6339C196.457 69.1751 194.549 69.8962 195.639 72.4407C195.732 72.6566 194.415 73.8734 194.201 73.7624C189.043 71.0901 186.239 75.8511 184.67 78.3437C183.375 80.3974 181.865 81.4984 180.198 82.2823C178.919 82.8828 176.982 82.064 175.331 81.929C174.92 81.8952 174.493 82.0628 173.856 82.175C173.931 83.1554 173.999 84.0429 174.063 84.9088C171.109 86.1617 171.109 86.1617 164.402 84.3058C163.806 88.0008 160.798 89.2453 156.905 87.235C156.685 87.9706 156.477 88.6701 156.447 88.7665C152.422 88.6785 148.212 84.6411 144.748 90.5573C141.7 87.2049 138.539 88.6435 135.081 90.3982C133.459 91.2194 131.267 91.0916 129.332 91.1048C121.431 91.1579 113.662 91.6837 105.976 93.9701C102.211 95.0904 99.0203 97.372 95.4691 98.4079C87.7991 100.646 84.2806 107.429 78.9035 112.105C76.3807 114.298 75.0958 117.89 73.1901 120.809C72.0273 122.589 71.5276 125.399 68.153 123.734C65.5407 122.446 64.5558 120.797 65.7658 117.634C71.3884 102.94 80.4813 91.5245 95.4679 85.0981C106.752 80.2624 118.509 80.1997 130.363 79.8789C138.025 79.6715 145.675 79.1324 153.335 78.7899C154.52 78.7381 156.539 77.6648 156.002 80.4638L156.016 80.4095L154.535 80.9702C154.522 81.1427 154.512 81.3151 154.499 81.4876C155.241 81.5551 156 81.7505 156.718 81.6564C157.564 81.5467 158.385 80.9401 159.201 80.9702C165.798 81.2102 171.357 78.0254 176.878 75.253C182.744 72.3069 188.215 68.5528 193.736 64.9652C195.418 63.8739 196.698 62.1675 198.162 60.7421L198.065 60.8229C199.148 59.9667 200.229 59.1092 201.994 57.7116C200 57.5874 198.987 57.5247 197.385 57.4258C199.554 54.792 201.36 52.2897 203.499 50.1106C204.916 48.6659 205.894 49.2966 206.903 51.8629C208.518 51.7507 210.074 51.6434 211.939 51.5131C211.043 50.3084 210.288 49.2906 209.755 48.5755C208.339 48.4597 206.585 48.7311 206.297 48.2041C205.765 47.2345 205.895 45.7585 206.115 44.5598C206.426 42.8691 206.949 41.1868 207.619 39.601C208.022 38.6483 208.876 37.8862 209.85 36.6188C209.215 34.0031 210.316 31.3103 214.977 25.3349C215.613 25.6497 216.285 25.9801 217.115 26.3901C216.699 22.3442 217.112 21.693 219.102 21.8583V26.003L219.034 25.9102C219.731 27.3331 220.427 28.7549 221.202 30.3431C221.387 30.2925 222.075 30.1019 222.763 29.9102C222.971 30.1297 223.18 30.3492 223.389 30.5686Z" fill="white"/>
<path fill-rule="evenodd" clip-rule="evenodd" d="M183.953 68.0502C179.408 70.0944 174.861 72.1375 170.315 74.1817C170.093 73.8752 169.872 73.5686 169.65 73.2621C170.273 72.8586 170.855 72.3955 171.523 72.0603C174.689 70.4737 177.854 68.8837 181.079 67.3886C181.773 67.0678 182.713 67.1394 183.541 67.0303C183.678 67.3699 183.816 67.7106 183.953 68.0502Z" fill="white"/>
<path fill-rule="evenodd" clip-rule="evenodd" d="M155.348 78.9497C157.531 74.6782 161.529 75.4741 164.883 74.1821C164.724 76.4889 161.873 77.8181 155.372 78.8688C155.361 78.89 155.348 78.9497 155.348 78.9497Z" fill="white"/>
<path fill-rule="evenodd" clip-rule="evenodd" d="M198.256 59.6308C196.998 59.8169 195.657 59.8297 194.507 60.2382C193.378 60.6393 192.442 61.4425 191.104 62.2628C191.417 59.7944 194.312 57.1548 196.184 57.5313C196.993 57.6928 197.503 58.9463 198.152 59.7035C198.156 59.7024 198.256 59.6308 198.256 59.6308Z" fill="white"/>
</g>
<defs>
<clipPath id="clip0_499_72">
<rect width="210" height="144" fill="white"/>
</clipPath>
</defs>
</svg>
