<svg width="35" height="79" viewBox="0 0 35 79" fill="none" xmlns="http://www.w3.org/2000/svg">
<path d="M33.797 18.0167L34.7839 17.8553L33.797 18.0167ZM1.06885 30.7572L2.06098 30.6321L1.06885 30.7572ZM32.8704 37.8883L31.8796 38.0234L32.8704 37.8883ZM4.79981 56.7686L3.81208 56.9247L4.79981 56.7686ZM27.1401 60.5686L26.1502 60.7106L27.1401 60.5686ZM10.2701 78.986C9.72559 79.0781 9.2095 78.7113 9.11744 78.1667C9.02537 77.6221 9.39219 77.1061 9.93675 77.014L10.2701 78.986ZM5.08073 1.07858C4.99429 0.0823186 4.99475 0.0822783 4.99532 0.0822299C4.99563 0.0822026 4.99629 0.0821459 4.99693 0.0820917C4.9982 0.0819833 4.99986 0.0818427 5.00191 0.0816712C5.006 0.0813283 5.01164 0.080862 5.0188 0.0802836C5.03313 0.0791268 5.05355 0.0775217 5.07988 0.0755588C5.13254 0.0716332 5.20886 0.0662755 5.30736 0.0602118C5.50435 0.0480857 5.7902 0.0331271 6.15313 0.0211532C6.87872 -0.00278568 7.91394 -0.0148457 9.16422 0.0317634C11.6602 0.12481 15.0361 0.45244 18.5253 1.39823C25.4953 3.28752 33.1264 7.7227 34.7839 17.8553L32.8101 18.1781C31.3338 9.15276 24.6068 5.11886 18.0021 3.32858C14.704 2.43458 11.4884 2.1198 9.08971 2.03038C7.89266 1.98575 6.90477 1.99744 6.21908 2.02007C5.87637 2.03137 5.60953 2.0454 5.43024 2.05643C5.34061 2.06195 5.2729 2.06672 5.22856 2.07002C5.20639 2.07168 5.19007 2.07296 5.17978 2.07379C5.17463 2.07421 5.17099 2.07451 5.16889 2.07469C5.16783 2.07478 5.16716 2.07483 5.16688 2.07486C5.16673 2.07487 5.16681 2.07486 5.16674 2.07487C5.16691 2.07485 5.16718 2.07483 5.08073 1.07858ZM34.7839 17.8553C35.6301 23.0285 33.922 27.3928 30.9103 30.7484L29.4219 29.4125C32.0859 26.4443 33.5455 22.6741 32.8101 18.1781L34.7839 17.8553ZM30.9103 30.7484C26.4926 35.6706 19.2628 38.4514 12.9863 38.7229C9.84066 38.859 6.83707 38.37 4.49869 37.1163C2.12576 35.8441 0.441975 33.7777 0.0767097 30.8824L2.06098 30.6321C2.33359 32.7929 3.55497 34.341 5.44371 35.3536C7.36699 36.3848 9.98158 36.851 12.8999 36.7248C18.7511 36.4717 25.4321 33.858 29.4219 29.4125L30.9103 30.7484ZM0.0767097 30.8824C-0.336998 27.6032 0.950638 24.9433 3.21271 23.0939C5.43867 21.274 8.57566 20.2547 11.9394 20.0541C18.6572 19.6534 26.6935 22.5025 31.0187 29.5578L29.3136 30.6031C25.4564 24.3111 18.2105 21.6836 12.0585 22.0506C8.98721 22.2338 6.29236 23.1594 4.47862 24.6423C2.70099 26.0956 1.74107 28.0963 2.06098 30.6321L0.0767097 30.8824ZM31.0187 29.5578C32.4276 31.8561 33.4288 34.5823 33.8612 37.7532L31.8796 38.0234C31.483 35.1154 30.5715 32.6551 29.3136 30.6031L31.0187 29.5578ZM33.8612 37.7532C35.0274 46.3041 31.3836 52.7999 26.3231 56.9526L25.0544 55.4065C29.6663 51.6219 32.9374 45.7801 31.8796 38.0234L33.8612 37.7532ZM26.3231 56.9526C22.149 60.3778 16.9762 62.2434 12.6542 62.3905C10.4942 62.4641 8.47176 62.1102 6.88462 61.2297C5.26539 60.3314 4.12298 58.8914 3.81208 56.9247L5.78755 56.6124C5.99231 57.9077 6.71524 58.8486 7.85488 59.4808C9.02659 60.1309 10.6566 60.4574 12.5862 60.3917C16.4436 60.2604 21.1997 58.5696 25.0544 55.4065L26.3231 56.9526ZM3.81208 56.9247C3.39176 54.2659 4.3124 52.1221 6.04545 50.6543C7.73366 49.2244 10.1238 48.4866 12.638 48.3786C17.6484 48.1633 23.6473 50.44 26.5631 55.6943L24.8143 56.6647C22.3548 52.2327 17.1792 50.1853 12.7239 50.3767C10.5053 50.4721 8.58971 51.1204 7.33804 52.1805C6.13121 53.2026 5.47771 54.6525 5.78755 56.6124L3.81208 56.9247ZM26.5631 55.6943C27.3309 57.0778 27.8759 58.6555 28.13 60.4267L26.1502 60.7106C25.9301 59.1762 25.4619 57.8317 24.8143 56.6647L26.5631 55.6943ZM28.13 60.4267C29.2328 68.1153 24.5634 72.8022 19.8824 75.4798C17.5381 76.8208 15.1404 77.6943 13.338 78.2324C12.4344 78.5021 11.6745 78.6893 11.1376 78.8095C10.8691 78.8697 10.656 78.9131 10.5082 78.9419C10.4343 78.9563 10.3767 78.967 10.3366 78.9743C10.3165 78.9779 10.3009 78.9807 10.2898 78.9826C10.2842 78.9836 10.2798 78.9844 10.2765 78.9849C10.2749 78.9852 10.2735 78.9854 10.2724 78.9856C10.2719 78.9857 10.2713 78.9858 10.2711 78.9858C10.2706 78.9859 10.2701 78.986 10.1034 78C9.93675 77.014 9.93646 77.014 9.93625 77.0141C9.93628 77.0141 9.93614 77.0141 9.93619 77.0141C9.93629 77.0141 9.93667 77.014 9.93734 77.0139C9.93869 77.0137 9.94117 77.0132 9.94477 77.0126C9.95196 77.0113 9.96363 77.0093 9.97963 77.0064C10.0116 77.0006 10.0609 76.9914 10.1262 76.9787C10.2568 76.9533 10.4515 76.9136 10.7005 76.8579C11.1988 76.7463 11.9132 76.5705 12.7659 76.3159C14.4763 75.8054 16.7198 74.9848 18.8894 73.7438C23.2362 71.2573 27.0851 67.2286 26.1502 60.7106L28.13 60.4267Z" fill="#2F3237"/>
</svg>
