<svg width="118" height="64" viewBox="0 0 118 64" fill="none" xmlns="http://www.w3.org/2000/svg">
<rect y="38" width="81" height="26" rx="6" fill="white"/>
<path d="M8.91 54V46.95H14.9V54H13.84V47.86H9.97V54H8.91ZM18.7925 54.09C18.2925 54.09 17.8558 53.9867 17.4825 53.78C17.1158 53.5667 16.8325 53.27 16.6325 52.89C16.4325 52.5033 16.3325 52.0533 16.3325 51.54C16.3325 51.02 16.4325 50.57 16.6325 50.19C16.8325 49.81 17.1158 49.5167 17.4825 49.31C17.8558 49.0967 18.2925 48.99 18.7925 48.99C19.2992 48.99 19.7358 49.0967 20.1025 49.31C20.4692 49.5167 20.7525 49.81 20.9525 50.19C21.1525 50.57 21.2525 51.02 21.2525 51.54C21.2525 52.0533 21.1525 52.5033 20.9525 52.89C20.7525 53.27 20.4692 53.5667 20.1025 53.78C19.7358 53.9867 19.2992 54.09 18.7925 54.09ZM18.7925 53.25C19.2258 53.25 19.5692 53.1 19.8225 52.8C20.0758 52.5 20.2025 52.0767 20.2025 51.53C20.2025 50.9833 20.0758 50.5633 19.8225 50.27C19.5692 49.9767 19.2258 49.83 18.7925 49.83C18.3592 49.83 18.0158 49.9767 17.7625 50.27C17.5092 50.5633 17.3825 50.9833 17.3825 51.53C17.3825 52.0767 17.5092 52.5 17.7625 52.8C18.0158 53.1 18.3592 53.25 18.7925 53.25ZM22.0981 55.31V53.15H22.6481C22.8015 52.93 22.9215 52.6967 23.0081 52.45C23.0948 52.1967 23.1581 51.9133 23.1981 51.6C23.2381 51.28 23.2581 50.9167 23.2581 50.51V49.08H27.0281V53.15H27.8281V55.31H26.9281V54H22.9981V55.31H22.0981ZM23.6381 53.16H26.0281V49.91H24.1781V50.72C24.1781 51.1933 24.1348 51.64 24.0481 52.06C23.9615 52.48 23.8248 52.8467 23.6381 53.16ZM28.9353 54V49.08H33.4853V54H32.4353V49.93H29.9853V54H28.9353ZM35.1162 54V49.08H36.0862V52.83H35.9362L38.7262 49.08H39.6662V54H38.6962V50.24H38.8462L36.0462 54H35.1162ZM43.5172 54.09C43.0039 54.09 42.5605 53.9867 42.1872 53.78C41.8139 53.5667 41.5239 53.2667 41.3172 52.88C41.1172 52.4933 41.0172 52.04 41.0172 51.52C41.0172 51 41.1172 50.55 41.3172 50.17C41.5239 49.79 41.8139 49.5 42.1872 49.3C42.5672 49.0933 43.0105 48.99 43.5172 48.99C43.8439 48.99 44.1605 49.0433 44.4672 49.15C44.7739 49.2567 45.0272 49.4033 45.2272 49.59L44.8972 50.35C44.7105 50.1833 44.5005 50.06 44.2672 49.98C44.0405 49.8933 43.8205 49.85 43.6072 49.85C43.1272 49.85 42.7539 49.9967 42.4872 50.29C42.2205 50.5767 42.0872 50.99 42.0872 51.53C42.0872 52.07 42.2205 52.49 42.4872 52.79C42.7539 53.0833 43.1272 53.23 43.6072 53.23C43.8205 53.23 44.0405 53.19 44.2672 53.11C44.4939 53.0233 44.6972 52.8967 44.8772 52.73L45.2172 53.5C45.0239 53.68 44.7705 53.8233 44.4572 53.93C44.1505 54.0367 43.8372 54.09 43.5172 54.09ZM47.907 54.09C47.5603 54.09 47.247 54.0233 46.967 53.89C46.687 53.7567 46.467 53.5767 46.307 53.35C46.1536 53.1167 46.077 52.8567 46.077 52.57C46.077 52.2033 46.1736 51.9133 46.367 51.7C46.567 51.4867 46.8836 51.3333 47.317 51.24C47.7503 51.14 48.3236 51.09 49.037 51.09H49.617V51.75H49.067C48.707 51.75 48.4036 51.7633 48.157 51.79C47.9103 51.81 47.7103 51.85 47.557 51.91C47.4036 51.97 47.2903 52.05 47.217 52.15C47.1503 52.2433 47.117 52.3633 47.117 52.51C47.117 52.7633 47.207 52.9633 47.387 53.11C47.5736 53.25 47.817 53.32 48.117 53.32C48.377 53.32 48.607 53.2633 48.807 53.15C49.007 53.03 49.167 52.87 49.287 52.67C49.407 52.4633 49.467 52.2333 49.467 51.98V50.85C49.467 50.4767 49.3736 50.21 49.187 50.05C49.007 49.89 48.7236 49.81 48.337 49.81C48.0503 49.81 47.7636 49.85 47.477 49.93C47.197 50.01 46.9036 50.14 46.597 50.32L46.277 49.58C46.4703 49.4533 46.6836 49.3467 46.917 49.26C47.157 49.1733 47.4036 49.1067 47.657 49.06C47.917 49.0133 48.1703 48.99 48.417 48.99C48.8636 48.99 49.2403 49.06 49.547 49.2C49.8536 49.34 50.087 49.5533 50.247 49.84C50.407 50.1267 50.487 50.5 50.487 50.96V54H49.537V52.93H49.577C49.5036 53.1567 49.3903 53.36 49.237 53.54C49.0836 53.7133 48.8936 53.85 48.667 53.95C48.447 54.0433 48.1936 54.09 47.907 54.09ZM53.1566 54V49.93H51.3766V49.08H55.9866V49.93H54.2066V54H53.1566ZM56.9005 54V49.08H57.9505V50.75H59.4405C60.0872 50.75 60.5772 50.89 60.9105 51.17C61.2505 51.4433 61.4205 51.84 61.4205 52.36C61.4205 52.6933 61.3405 52.9833 61.1805 53.23C61.0205 53.4767 60.7939 53.6667 60.5005 53.8C60.2072 53.9333 59.8539 54 59.4405 54H56.9005ZM57.9505 53.26H59.2805C59.6339 53.26 59.9072 53.19 60.1005 53.05C60.3005 52.9033 60.4005 52.6767 60.4005 52.37C60.4005 52.0567 60.3005 51.8333 60.1005 51.7C59.9072 51.56 59.6339 51.49 59.2805 51.49H57.9505V53.26ZM64.8816 54.09C64.3682 54.09 63.9249 53.9867 63.5516 53.78C63.1782 53.5667 62.8882 53.2667 62.6816 52.88C62.4816 52.4933 62.3816 52.04 62.3816 51.52C62.3816 51 62.4816 50.55 62.6816 50.17C62.8882 49.79 63.1782 49.5 63.5516 49.3C63.9316 49.0933 64.3749 48.99 64.8816 48.99C65.2082 48.99 65.5249 49.0433 65.8316 49.15C66.1382 49.2567 66.3916 49.4033 66.5916 49.59L66.2616 50.35C66.0749 50.1833 65.8649 50.06 65.6316 49.98C65.4049 49.8933 65.1849 49.85 64.9716 49.85C64.4916 49.85 64.1182 49.9967 63.8516 50.29C63.5849 50.5767 63.4516 50.99 63.4516 51.53C63.4516 52.07 63.5849 52.49 63.8516 52.79C64.1182 53.0833 64.4916 53.23 64.9716 53.23C65.1849 53.23 65.4049 53.19 65.6316 53.11C65.8582 53.0233 66.0616 52.8967 66.2416 52.73L66.5816 53.5C66.3882 53.68 66.1349 53.8233 65.8216 53.93C65.5149 54.0367 65.2016 54.09 64.8816 54.09ZM67.2213 54L67.9813 52.71C68.108 52.49 68.2613 52.3167 68.4413 52.19C68.6213 52.0567 68.8047 51.99 68.9913 51.99H69.1113V52.04C68.7847 52.0333 68.4947 51.9733 68.2413 51.86C67.9947 51.7467 67.8013 51.5833 67.6613 51.37C67.5213 51.1567 67.4513 50.8967 67.4513 50.59C67.4513 50.1233 67.608 49.7567 67.9213 49.49C68.2413 49.2167 68.7147 49.08 69.3413 49.08H71.7913V54H70.7913V52.23H70.1113C69.8713 52.23 69.6647 52.2867 69.4913 52.4C69.3247 52.5133 69.188 52.6633 69.0813 52.85L68.4113 54H67.2213ZM69.5513 51.5H70.7913V49.82H69.5513C69.1847 49.82 68.908 49.8933 68.7213 50.04C68.5413 50.1867 68.4513 50.39 68.4513 50.65C68.4513 50.9167 68.5413 51.1267 68.7213 51.28C68.9013 51.4267 69.178 51.5 69.5513 51.5Z" fill="black"/>
</svg>
