<svg width="344" height="49" viewBox="0 0 344 49" fill="none" xmlns="http://www.w3.org/2000/svg">
<path d="M70.91 10V2.95H76.9V10H75.84V3.86H71.97V10H70.91ZM81.0025 10.09C80.4492 10.09 79.9725 9.99 79.5725 9.79C79.1725 9.58333 78.8658 9.29 78.6525 8.91C78.4392 8.52333 78.3325 8.06667 78.3325 7.54C78.3325 7.04 78.4325 6.6 78.6325 6.22C78.8392 5.83333 79.1258 5.53333 79.4925 5.32C79.8658 5.1 80.2958 4.99 80.7825 4.99C81.2558 4.99 81.6592 5.09 81.9925 5.29C82.3258 5.49 82.5825 5.77667 82.7625 6.15C82.9425 6.51667 83.0325 6.95667 83.0325 7.47V7.81H79.1525V7.14H82.3125L82.1425 7.31C82.1425 6.80333 82.0258 6.41667 81.7925 6.15C81.5658 5.88333 81.2392 5.75 80.8125 5.75C80.5058 5.75 80.2425 5.82 80.0225 5.96C79.8025 6.09333 79.6325 6.28667 79.5125 6.54C79.3925 6.78667 79.3325 7.08333 79.3325 7.43V7.52C79.3325 7.90667 79.3958 8.23 79.5225 8.49C79.6558 8.75 79.8492 8.94333 80.1025 9.07C80.3558 9.19667 80.6625 9.26 81.0225 9.26C81.2958 9.26 81.5692 9.22333 81.8425 9.15C82.1225 9.07 82.3792 8.93333 82.6125 8.74L82.9425 9.47C82.6958 9.67 82.3958 9.82333 82.0425 9.93C81.6958 10.0367 81.3492 10.09 81.0025 10.09ZM84.354 11.8V5.08H85.354V6.15H85.304C85.4307 5.79 85.6507 5.50667 85.964 5.3C86.2773 5.09333 86.6473 4.99 87.074 4.99C87.514 4.99 87.9007 5.09667 88.234 5.31C88.5673 5.51667 88.824 5.81 89.004 6.19C89.184 6.57 89.274 7.02 89.274 7.54C89.274 8.04667 89.184 8.49333 89.004 8.88C88.824 9.26667 88.5707 9.56667 88.244 9.78C87.9173 9.98667 87.5273 10.09 87.074 10.09C86.654 10.09 86.2907 9.99 85.984 9.79C85.684 9.58333 85.474 9.31333 85.354 8.98H85.414V11.8H84.354ZM86.804 9.27C87.2373 9.27 87.5807 9.12 87.834 8.82C88.094 8.51333 88.224 8.08333 88.224 7.53C88.224 6.98333 88.0973 6.56333 87.844 6.27C87.5907 5.97 87.244 5.82 86.804 5.82C86.3707 5.82 86.0273 5.97 85.774 6.27C85.5207 6.56333 85.394 6.98333 85.394 7.53C85.394 8.08333 85.5207 8.51333 85.774 8.82C86.034 9.12 86.3773 9.27 86.804 9.27ZM93.0128 10.09C92.4595 10.09 91.9828 9.99 91.5828 9.79C91.1828 9.58333 90.8761 9.29 90.6628 8.91C90.4495 8.52333 90.3428 8.06667 90.3428 7.54C90.3428 7.04 90.4428 6.6 90.6428 6.22C90.8495 5.83333 91.1361 5.53333 91.5028 5.32C91.8761 5.1 92.3061 4.99 92.7928 4.99C93.2661 4.99 93.6695 5.09 94.0028 5.29C94.3361 5.49 94.5928 5.77667 94.7728 6.15C94.9528 6.51667 95.0428 6.95667 95.0428 7.47V7.81H91.1628V7.14H94.3228L94.1528 7.31C94.1528 6.80333 94.0361 6.41667 93.8028 6.15C93.5761 5.88333 93.2495 5.75 92.8228 5.75C92.5161 5.75 92.2528 5.82 92.0328 5.96C91.8128 6.09333 91.6428 6.28667 91.5228 6.54C91.4028 6.78667 91.3428 7.08333 91.3428 7.43V7.52C91.3428 7.90667 91.4061 8.23 91.5328 8.49C91.6661 8.75 91.8595 8.94333 92.1128 9.07C92.3661 9.19667 92.6728 9.26 93.0328 9.26C93.3061 9.26 93.5795 9.22333 93.8528 9.15C94.1328 9.07 94.3895 8.93333 94.6228 8.74L94.9528 9.47C94.7061 9.67 94.4061 9.82333 94.0528 9.93C93.7061 10.0367 93.3595 10.09 93.0128 10.09ZM96.3643 10V5.08H97.3343V8.83H97.1843L99.9743 5.08H100.914V10H99.9443V6.24H100.094L97.2943 10H96.3643ZM98.6343 4.44C98.3343 4.44 98.061 4.38667 97.8143 4.28C97.5743 4.16667 97.371 4.00333 97.2043 3.79C97.0376 3.57667 96.9176 3.32 96.8443 3.02L97.4643 2.84C97.571 3.15333 97.7176 3.38667 97.9043 3.54C98.091 3.68667 98.3376 3.76 98.6443 3.76C98.9443 3.76 99.1876 3.69 99.3743 3.55C99.561 3.40333 99.721 3.17 99.8543 2.85L100.454 3.02C100.354 3.34667 100.214 3.61333 100.034 3.82C99.861 4.02667 99.6543 4.18333 99.4143 4.29C99.181 4.39 98.921 4.44 98.6343 4.44ZM103.605 10V5.93H101.825V5.08H106.435V5.93H104.655V10H103.605ZM107.349 10V5.08H108.319V8.83H108.169L110.959 5.08H111.899V10H110.929V6.24H111.079L108.279 10H107.349ZM116.244 10V5.08H117.294V7.07H118.124L119.674 5.08H120.814L118.944 7.51L118.734 7.21C118.928 7.23 119.094 7.28 119.234 7.36C119.374 7.43333 119.504 7.54 119.624 7.68C119.751 7.82 119.884 8.00333 120.024 8.23L121.064 10H119.934L119.064 8.55C118.971 8.38333 118.874 8.25333 118.774 8.16C118.681 8.06 118.574 7.99 118.454 7.95C118.341 7.91 118.194 7.89 118.014 7.89H117.294V10H116.244ZM124.612 10V5.08H129.162V10H128.112V5.93H125.662V10H124.612ZM130.793 11.8V5.08H131.793V6.15H131.743C131.87 5.79 132.09 5.50667 132.403 5.3C132.716 5.09333 133.086 4.99 133.513 4.99C133.953 4.99 134.34 5.09667 134.673 5.31C135.006 5.51667 135.263 5.81 135.443 6.19C135.623 6.57 135.713 7.02 135.713 7.54C135.713 8.04667 135.623 8.49333 135.443 8.88C135.263 9.26667 135.01 9.56667 134.683 9.78C134.356 9.98667 133.966 10.09 133.513 10.09C133.093 10.09 132.73 9.99 132.423 9.79C132.123 9.58333 131.913 9.31333 131.793 8.98H131.853V11.8H130.793ZM133.243 9.27C133.676 9.27 134.02 9.12 134.273 8.82C134.533 8.51333 134.663 8.08333 134.663 7.53C134.663 6.98333 134.536 6.56333 134.283 6.27C134.03 5.97 133.683 5.82 133.243 5.82C132.81 5.82 132.466 5.97 132.213 6.27C131.96 6.56333 131.833 6.98333 131.833 7.53C131.833 8.08333 131.96 8.51333 132.213 8.82C132.473 9.12 132.816 9.27 133.243 9.27ZM139.242 10.09C138.742 10.09 138.305 9.98667 137.932 9.78C137.565 9.56667 137.282 9.27 137.082 8.89C136.882 8.50333 136.782 8.05333 136.782 7.54C136.782 7.02 136.882 6.57 137.082 6.19C137.282 5.81 137.565 5.51667 137.932 5.31C138.305 5.09667 138.742 4.99 139.242 4.99C139.748 4.99 140.185 5.09667 140.552 5.31C140.918 5.51667 141.202 5.81 141.402 6.19C141.602 6.57 141.702 7.02 141.702 7.54C141.702 8.05333 141.602 8.50333 141.402 8.89C141.202 9.27 140.918 9.56667 140.552 9.78C140.185 9.98667 139.748 10.09 139.242 10.09ZM139.242 9.25C139.675 9.25 140.018 9.1 140.272 8.8C140.525 8.5 140.652 8.07667 140.652 7.53C140.652 6.98333 140.525 6.56333 140.272 6.27C140.018 5.97667 139.675 5.83 139.242 5.83C138.808 5.83 138.465 5.97667 138.212 6.27C137.958 6.56333 137.832 6.98333 137.832 7.53C137.832 8.07667 137.958 8.5 138.212 8.8C138.465 9.1 138.808 9.25 139.242 9.25ZM145.437 10.09C144.884 10.09 144.407 9.99 144.007 9.79C143.607 9.58333 143.301 9.29 143.087 8.91C142.874 8.52333 142.767 8.06667 142.767 7.54C142.767 7.04 142.867 6.6 143.067 6.22C143.274 5.83333 143.561 5.53333 143.927 5.32C144.301 5.1 144.731 4.99 145.217 4.99C145.691 4.99 146.094 5.09 146.427 5.29C146.761 5.49 147.017 5.77667 147.197 6.15C147.377 6.51667 147.467 6.95667 147.467 7.47V7.81H143.587V7.14H146.747L146.577 7.31C146.577 6.80333 146.461 6.41667 146.227 6.15C146.001 5.88333 145.674 5.75 145.247 5.75C144.941 5.75 144.677 5.82 144.457 5.96C144.237 6.09333 144.067 6.28667 143.947 6.54C143.827 6.78667 143.767 7.08333 143.767 7.43V7.52C143.767 7.90667 143.831 8.23 143.957 8.49C144.091 8.75 144.284 8.94333 144.537 9.07C144.791 9.19667 145.097 9.26 145.457 9.26C145.731 9.26 146.004 9.22333 146.277 9.15C146.557 9.07 146.814 8.93333 147.047 8.74L147.377 9.47C147.131 9.67 146.831 9.82333 146.477 9.93C146.131 10.0367 145.784 10.09 145.437 10.09ZM148.789 10V5.08H149.839V7.07H150.669L152.219 5.08H153.359L151.489 7.51L151.279 7.21C151.472 7.23 151.639 7.28 151.779 7.36C151.919 7.43333 152.049 7.54 152.169 7.68C152.296 7.82 152.429 8.00333 152.569 8.23L153.609 10H152.479L151.609 8.55C151.516 8.38333 151.419 8.25333 151.319 8.16C151.226 8.06 151.119 7.99 150.999 7.95C150.886 7.91 150.739 7.89 150.559 7.89H149.839V10H148.789ZM155.503 10V5.93H153.723V5.08H158.333V5.93H156.553V10H155.503ZM159.816 11.8L160.786 9.63V10.23L158.586 5.08H159.716L161.286 9.05H161.116L162.706 5.08H163.786L160.906 11.8H159.816Z" fill="#2F3237"/>
<path d="M71.008 26.12H72.316V29.864H72.376C72.44 29.704 72.52 29.552 72.616 29.408C72.72 29.256 72.844 29.128 72.988 29.024C73.132 28.912 73.3 28.824 73.492 28.76C73.684 28.696 73.908 28.664 74.164 28.664C74.788 28.664 75.292 28.868 75.676 29.276C76.06 29.684 76.252 30.264 76.252 31.016V35H74.944V31.208C74.944 30.224 74.516 29.732 73.66 29.732C73.492 29.732 73.328 29.756 73.168 29.804C73.008 29.844 72.864 29.908 72.736 29.996C72.608 30.084 72.504 30.196 72.424 30.332C72.352 30.468 72.316 30.624 72.316 30.8V35H71.008V26.12ZM81.1313 35C80.5873 35 80.1873 34.856 79.9313 34.568C79.6753 34.272 79.5473 33.892 79.5473 33.428V29.864H77.6393V28.808H78.9953C79.2273 28.808 79.3913 28.764 79.4873 28.676C79.5833 28.58 79.6313 28.412 79.6313 28.172V26.624H80.8553V28.808H83.4953V29.864H80.8553V33.944H83.4953V35H81.1313ZM88.2906 35C87.7466 35 87.3466 34.856 87.0906 34.568C86.8346 34.272 86.7066 33.892 86.7066 33.428V29.864H84.7986V28.808H86.1546C86.3866 28.808 86.5506 28.764 86.6466 28.676C86.7426 28.58 86.7906 28.412 86.7906 28.172V26.624H88.0146V28.808H90.6546V29.864H88.0146V33.944H90.6546V35H88.2906ZM92.4259 28.808H93.7339V29.864H93.8059C93.9899 29.488 94.2339 29.196 94.5379 28.988C94.8419 28.772 95.2219 28.664 95.6779 28.664C96.4059 28.664 96.9859 28.936 97.4179 29.48C97.8499 30.024 98.0659 30.832 98.0659 31.904C98.0659 32.976 97.8499 33.784 97.4179 34.328C96.9859 34.872 96.4059 35.144 95.6779 35.144C95.2219 35.144 94.8419 35.04 94.5379 34.832C94.2339 34.616 93.9899 34.32 93.8059 33.944H93.7339V37.4H92.4259V28.808ZM95.1379 34.076C95.6339 34.076 96.0139 33.924 96.2779 33.62C96.5499 33.316 96.6859 32.912 96.6859 32.408V31.4C96.6859 30.896 96.5499 30.492 96.2779 30.188C96.0139 29.884 95.6339 29.732 95.1379 29.732C94.9459 29.732 94.7659 29.756 94.5979 29.804C94.4299 29.852 94.2819 29.924 94.1539 30.02C94.0259 30.116 93.9219 30.236 93.8419 30.38C93.7699 30.516 93.7339 30.68 93.7339 30.872V32.936C93.7339 33.128 93.7699 33.296 93.8419 33.44C93.9219 33.576 94.0259 33.692 94.1539 33.788C94.2819 33.884 94.4299 33.956 94.5979 34.004C94.7659 34.052 94.9459 34.076 95.1379 34.076ZM102.249 35.144C101.577 35.144 100.997 35.036 100.509 34.82C100.029 34.604 99.6413 34.316 99.3453 33.956L100.149 33.236C100.421 33.532 100.725 33.76 101.061 33.92C101.405 34.072 101.809 34.148 102.273 34.148C102.697 34.148 103.037 34.076 103.293 33.932C103.557 33.788 103.689 33.564 103.689 33.26C103.689 33.132 103.665 33.024 103.617 32.936C103.569 32.848 103.501 32.776 103.413 32.72C103.325 32.664 103.221 32.62 103.101 32.588C102.989 32.556 102.869 32.532 102.741 32.516L101.757 32.36C101.517 32.328 101.273 32.276 101.025 32.204C100.777 32.132 100.553 32.032 100.353 31.904C100.161 31.768 100.001 31.596 99.8733 31.388C99.7533 31.18 99.6933 30.916 99.6933 30.596C99.6933 29.964 99.9333 29.484 100.413 29.156C100.901 28.828 101.541 28.664 102.333 28.664C102.909 28.664 103.405 28.752 103.821 28.928C104.245 29.096 104.597 29.332 104.877 29.636L104.145 30.404C103.985 30.22 103.757 30.052 103.461 29.9C103.165 29.74 102.773 29.66 102.285 29.66C101.413 29.66 100.977 29.936 100.977 30.488C100.977 30.752 101.069 30.936 101.253 31.04C101.445 31.136 101.669 31.2 101.925 31.232L102.909 31.388C103.157 31.428 103.401 31.48 103.641 31.544C103.889 31.608 104.109 31.708 104.301 31.844C104.501 31.972 104.661 32.14 104.781 32.348C104.909 32.556 104.973 32.82 104.973 33.14C104.973 33.764 104.729 34.256 104.241 34.616C103.761 34.968 103.097 35.144 102.249 35.144ZM109.397 35.12C109.013 35.12 108.741 35.04 108.581 34.88C108.429 34.72 108.353 34.524 108.353 34.292V33.98C108.353 33.748 108.429 33.552 108.581 33.392C108.741 33.232 109.013 33.152 109.397 33.152C109.781 33.152 110.049 33.232 110.201 33.392C110.361 33.552 110.441 33.748 110.441 33.98V34.292C110.441 34.524 110.361 34.72 110.201 34.88C110.049 35.04 109.781 35.12 109.397 35.12ZM109.397 30.656C109.013 30.656 108.741 30.576 108.581 30.416C108.429 30.256 108.353 30.06 108.353 29.828V29.516C108.353 29.284 108.429 29.088 108.581 28.928C108.741 28.768 109.013 28.688 109.397 28.688C109.781 28.688 110.049 28.768 110.201 28.928C110.361 29.088 110.441 29.284 110.441 29.516V29.828C110.441 30.06 110.361 30.256 110.201 30.416C110.049 30.576 109.781 30.656 109.397 30.656ZM113.952 36.656L117.996 25.88H119.16L115.116 36.656H113.952ZM121.111 36.656L125.155 25.88H126.319L122.275 36.656H121.111ZM134.115 35.672C134.115 36.312 133.847 36.784 133.311 37.088C132.775 37.392 131.959 37.544 130.863 37.544C130.327 37.544 129.875 37.508 129.507 37.436C129.147 37.372 128.851 37.276 128.619 37.148C128.395 37.02 128.231 36.864 128.127 36.68C128.031 36.496 127.983 36.288 127.983 36.056C127.983 35.72 128.075 35.456 128.259 35.264C128.451 35.08 128.719 34.944 129.063 34.856V34.736C128.855 34.656 128.687 34.544 128.559 34.4C128.439 34.256 128.379 34.068 128.379 33.836C128.379 33.532 128.483 33.304 128.691 33.152C128.899 32.992 129.167 32.872 129.495 32.792V32.732C129.119 32.556 128.827 32.308 128.619 31.988C128.411 31.668 128.307 31.284 128.307 30.836C128.307 30.508 128.367 30.212 128.487 29.948C128.607 29.676 128.775 29.448 128.991 29.264C129.215 29.072 129.479 28.924 129.783 28.82C130.095 28.716 130.443 28.664 130.827 28.664C131.259 28.664 131.647 28.732 131.991 28.868V28.664C131.991 28.424 132.059 28.224 132.195 28.064C132.331 27.904 132.539 27.824 132.819 27.824H133.947V28.856H132.507V29.144C132.779 29.328 132.987 29.564 133.131 29.852C133.275 30.132 133.347 30.46 133.347 30.836C133.347 31.164 133.287 31.464 133.167 31.736C133.047 32 132.875 32.228 132.651 32.42C132.435 32.604 132.171 32.748 131.859 32.852C131.555 32.948 131.211 32.996 130.827 32.996C130.555 32.996 130.299 32.972 130.059 32.924C129.915 32.964 129.771 33.032 129.627 33.128C129.483 33.224 129.411 33.356 129.411 33.524C129.411 33.716 129.503 33.836 129.687 33.884C129.871 33.932 130.099 33.956 130.371 33.956H131.763C132.595 33.956 133.195 34.116 133.563 34.436C133.931 34.748 134.115 35.16 134.115 35.672ZM132.891 35.756C132.891 35.548 132.807 35.38 132.639 35.252C132.471 35.132 132.167 35.072 131.727 35.072H129.579C129.275 35.216 129.123 35.448 129.123 35.768C129.123 36 129.219 36.2 129.411 36.368C129.611 36.536 129.939 36.62 130.395 36.62H131.367C131.863 36.62 132.239 36.544 132.495 36.392C132.759 36.248 132.891 36.036 132.891 35.756ZM130.827 32.096C131.251 32.096 131.563 31.996 131.763 31.796C131.963 31.596 132.063 31.328 132.063 30.992V30.668C132.063 30.332 131.963 30.064 131.763 29.864C131.563 29.664 131.251 29.564 130.827 29.564C130.403 29.564 130.091 29.664 129.891 29.864C129.691 30.064 129.591 30.332 129.591 30.668V30.992C129.591 31.328 129.691 31.596 129.891 31.796C130.091 31.996 130.403 32.096 130.827 32.096ZM138.418 27.68C138.082 27.68 137.846 27.612 137.71 27.476C137.582 27.34 137.518 27.172 137.518 26.972V26.72C137.518 26.52 137.582 26.352 137.71 26.216C137.846 26.08 138.078 26.012 138.406 26.012C138.742 26.012 138.974 26.08 139.102 26.216C139.238 26.352 139.306 26.52 139.306 26.72V26.972C139.306 27.172 139.238 27.34 139.102 27.476C138.974 27.612 138.746 27.68 138.418 27.68ZM135.646 33.944H137.758V29.864H135.646V28.808H139.066V33.944H141.046V35H135.646V33.944ZM145.565 35C145.021 35 144.621 34.856 144.365 34.568C144.109 34.272 143.981 33.892 143.981 33.428V29.864H142.073V28.808H143.429C143.661 28.808 143.825 28.764 143.921 28.676C144.017 28.58 144.065 28.412 144.065 28.172V26.624H145.289V28.808H147.929V29.864H145.289V33.944H147.929V35H145.565ZM149.76 26.12H151.068V29.864H151.128C151.192 29.704 151.272 29.552 151.368 29.408C151.472 29.256 151.596 29.128 151.74 29.024C151.884 28.912 152.052 28.824 152.244 28.76C152.436 28.696 152.66 28.664 152.916 28.664C153.54 28.664 154.044 28.868 154.428 29.276C154.812 29.684 155.004 30.264 155.004 31.016V35H153.696V31.208C153.696 30.224 153.268 29.732 152.412 29.732C152.244 29.732 152.08 29.756 151.92 29.804C151.76 29.844 151.616 29.908 151.488 29.996C151.36 30.084 151.256 30.196 151.176 30.332C151.104 30.468 151.068 30.624 151.068 30.8V35H149.76V26.12ZM160.796 33.944H160.736C160.672 34.104 160.588 34.26 160.484 34.412C160.388 34.556 160.268 34.684 160.124 34.796C159.98 34.9 159.812 34.984 159.62 35.048C159.428 35.112 159.204 35.144 158.948 35.144C158.324 35.144 157.82 34.94 157.436 34.532C157.052 34.124 156.86 33.544 156.86 32.792V28.808H158.168V32.6C158.168 33.584 158.596 34.076 159.452 34.076C159.62 34.076 159.784 34.056 159.944 34.016C160.104 33.968 160.248 33.9 160.376 33.812C160.504 33.724 160.604 33.616 160.676 33.488C160.756 33.352 160.796 33.192 160.796 33.008V28.808H162.104V35H160.796V33.944ZM164.019 26.12H165.327V29.864H165.399C165.583 29.488 165.827 29.196 166.131 28.988C166.435 28.772 166.815 28.664 167.271 28.664C167.999 28.664 168.579 28.936 169.011 29.48C169.443 30.024 169.659 30.832 169.659 31.904C169.659 32.976 169.443 33.784 169.011 34.328C168.579 34.872 167.999 35.144 167.271 35.144C166.815 35.144 166.435 35.04 166.131 34.832C165.827 34.616 165.583 34.32 165.399 33.944H165.327V35H164.019V26.12ZM166.731 34.076C167.227 34.076 167.607 33.924 167.871 33.62C168.143 33.316 168.279 32.912 168.279 32.408V31.4C168.279 30.896 168.143 30.492 167.871 30.188C167.607 29.884 167.227 29.732 166.731 29.732C166.539 29.732 166.359 29.756 166.191 29.804C166.023 29.852 165.875 29.924 165.747 30.02C165.619 30.116 165.515 30.236 165.435 30.38C165.363 30.516 165.327 30.68 165.327 30.872V32.936C165.327 33.128 165.363 33.296 165.435 33.44C165.515 33.576 165.619 33.692 165.747 33.788C165.875 33.884 166.023 33.956 166.191 34.004C166.359 34.052 166.539 34.076 166.731 34.076ZM173.83 35.12C173.446 35.12 173.174 35.04 173.014 34.88C172.862 34.72 172.786 34.524 172.786 34.292V33.98C172.786 33.748 172.862 33.552 173.014 33.392C173.174 33.232 173.446 33.152 173.83 33.152C174.214 33.152 174.482 33.232 174.634 33.392C174.794 33.552 174.874 33.748 174.874 33.98V34.292C174.874 34.524 174.794 34.72 174.634 34.88C174.482 35.04 174.214 35.12 173.83 35.12ZM181.218 35.144C180.754 35.144 180.338 35.068 179.97 34.916C179.61 34.764 179.302 34.548 179.046 34.268C178.798 33.988 178.606 33.648 178.47 33.248C178.342 32.848 178.278 32.4 178.278 31.904C178.278 31.408 178.342 30.96 178.47 30.56C178.606 30.16 178.798 29.82 179.046 29.54C179.302 29.26 179.61 29.044 179.97 28.892C180.338 28.74 180.75 28.664 181.206 28.664C181.846 28.664 182.358 28.8 182.742 29.072C183.134 29.344 183.426 29.696 183.618 30.128L182.598 30.68C182.486 30.392 182.314 30.164 182.082 29.996C181.858 29.828 181.566 29.744 181.206 29.744C180.71 29.744 180.326 29.896 180.054 30.2C179.782 30.496 179.646 30.892 179.646 31.388V32.42C179.646 32.908 179.782 33.304 180.054 33.608C180.326 33.912 180.718 34.064 181.23 34.064C181.614 34.064 181.926 33.976 182.166 33.8C182.414 33.624 182.61 33.384 182.754 33.08L183.714 33.668C183.514 34.1 183.21 34.456 182.802 34.736C182.394 35.008 181.866 35.144 181.218 35.144ZM188.149 35.144C187.693 35.144 187.281 35.068 186.913 34.916C186.553 34.764 186.245 34.548 185.989 34.268C185.741 33.988 185.549 33.648 185.413 33.248C185.277 32.848 185.209 32.4 185.209 31.904C185.209 31.408 185.277 30.96 185.413 30.56C185.549 30.16 185.741 29.82 185.989 29.54C186.245 29.26 186.553 29.044 186.913 28.892C187.281 28.74 187.693 28.664 188.149 28.664C188.605 28.664 189.013 28.74 189.373 28.892C189.741 29.044 190.049 29.26 190.297 29.54C190.553 29.82 190.749 30.16 190.885 30.56C191.021 30.96 191.089 31.408 191.089 31.904C191.089 32.4 191.021 32.848 190.885 33.248C190.749 33.648 190.553 33.988 190.297 34.268C190.049 34.548 189.741 34.764 189.373 34.916C189.013 35.068 188.605 35.144 188.149 35.144ZM188.149 34.112C188.629 34.112 189.009 33.968 189.289 33.68C189.577 33.384 189.721 32.948 189.721 32.372V31.436C189.721 30.86 189.577 30.428 189.289 30.14C189.009 29.844 188.629 29.696 188.149 29.696C187.669 29.696 187.285 29.844 186.997 30.14C186.717 30.428 186.577 30.86 186.577 31.436V32.372C186.577 32.948 186.717 33.384 186.997 33.68C187.285 33.968 187.669 34.112 188.149 34.112ZM192.236 35V28.808H193.352V29.612H193.412C193.508 29.348 193.644 29.124 193.82 28.94C194.004 28.756 194.264 28.664 194.6 28.664C194.928 28.664 195.18 28.756 195.356 28.94C195.54 29.116 195.656 29.36 195.704 29.672H195.752C195.864 29.392 196.02 29.156 196.22 28.964C196.42 28.764 196.708 28.664 197.084 28.664C197.564 28.664 197.896 28.832 198.08 29.168C198.272 29.504 198.368 29.996 198.368 30.644V35H197.252V30.812C197.252 30.38 197.2 30.084 197.096 29.924C196.992 29.756 196.824 29.672 196.592 29.672C196.384 29.672 196.208 29.744 196.064 29.888C195.928 30.024 195.86 30.232 195.86 30.512V35H194.744V30.812C194.744 30.38 194.692 30.084 194.588 29.924C194.492 29.756 194.328 29.672 194.096 29.672C193.88 29.672 193.7 29.744 193.556 29.888C193.42 30.024 193.352 30.232 193.352 30.512V35H192.236ZM199.864 36.656L203.908 25.88H205.072L201.028 36.656H199.864ZM207.011 26.624H209.507C210.579 26.624 211.371 26.98 211.883 27.692C212.403 28.404 212.663 29.444 212.663 30.812C212.663 32.18 212.403 33.22 211.883 33.932C211.371 34.644 210.579 35 209.507 35H207.011V26.624ZM209.423 33.896C210.039 33.896 210.495 33.692 210.791 33.284C211.095 32.868 211.247 32.276 211.247 31.508V30.116C211.247 29.348 211.095 28.76 210.791 28.352C210.495 27.936 210.039 27.728 209.423 27.728H208.343V33.896H209.423ZM218.07 33.944H218.01C217.946 34.104 217.862 34.26 217.758 34.412C217.662 34.556 217.542 34.684 217.398 34.796C217.254 34.9 217.086 34.984 216.894 35.048C216.702 35.112 216.478 35.144 216.222 35.144C215.598 35.144 215.094 34.94 214.71 34.532C214.326 34.124 214.134 33.544 214.134 32.792V28.808H215.442V32.6C215.442 33.584 215.87 34.076 216.726 34.076C216.894 34.076 217.058 34.056 217.218 34.016C217.378 33.968 217.522 33.9 217.65 33.812C217.778 33.724 217.878 33.616 217.95 33.488C218.03 33.352 218.07 33.192 218.07 33.008V28.808H219.378V35H218.07V33.944ZM224.33 27.68C223.994 27.68 223.758 27.612 223.622 27.476C223.494 27.34 223.43 27.172 223.43 26.972V26.72C223.43 26.52 223.494 26.352 223.622 26.216C223.758 26.08 223.99 26.012 224.318 26.012C224.654 26.012 224.886 26.08 225.014 26.216C225.15 26.352 225.218 26.52 225.218 26.72V26.972C225.218 27.172 225.15 27.34 225.014 27.476C224.886 27.612 224.658 27.68 224.33 27.68ZM221.558 33.944H223.67V29.864H221.558V28.808H224.978V33.944H226.958V35H221.558V33.944ZM231.477 35C230.933 35 230.533 34.856 230.277 34.568C230.021 34.272 229.893 33.892 229.893 33.428V29.864H227.985V28.808H229.341C229.573 28.808 229.737 28.764 229.833 28.676C229.929 28.58 229.977 28.412 229.977 28.172V26.624H231.201V28.808H233.841V29.864H231.201V33.944H233.841V35H231.477ZM236.452 32V30.692H240.076V32H236.452ZM242.856 35V26.624H248.244V27.752H244.2V30.188H247.872V31.316H244.2V35H242.856ZM252.583 35.144C252.127 35.144 251.715 35.068 251.347 34.916C250.987 34.764 250.679 34.548 250.423 34.268C250.175 33.988 249.983 33.648 249.847 33.248C249.711 32.848 249.643 32.4 249.643 31.904C249.643 31.408 249.711 30.96 249.847 30.56C249.983 30.16 250.175 29.82 250.423 29.54C250.679 29.26 250.987 29.044 251.347 28.892C251.715 28.74 252.127 28.664 252.583 28.664C253.039 28.664 253.447 28.74 253.807 28.892C254.175 29.044 254.483 29.26 254.731 29.54C254.987 29.82 255.183 30.16 255.319 30.56C255.455 30.96 255.523 31.408 255.523 31.904C255.523 32.4 255.455 32.848 255.319 33.248C255.183 33.648 254.987 33.988 254.731 34.268C254.483 34.548 254.175 34.764 253.807 34.916C253.447 35.068 253.039 35.144 252.583 35.144ZM252.583 34.112C253.063 34.112 253.443 33.968 253.723 33.68C254.011 33.384 254.155 32.948 254.155 32.372V31.436C254.155 30.86 254.011 30.428 253.723 30.14C253.443 29.844 253.063 29.696 252.583 29.696C252.103 29.696 251.719 29.844 251.431 30.14C251.151 30.428 251.011 30.86 251.011 31.436V32.372C251.011 32.948 251.151 33.384 251.431 33.68C251.719 33.968 252.103 34.112 252.583 34.112ZM261.026 33.944H260.966C260.902 34.104 260.818 34.26 260.714 34.412C260.618 34.556 260.498 34.684 260.354 34.796C260.21 34.9 260.042 34.984 259.85 35.048C259.658 35.112 259.434 35.144 259.178 35.144C258.554 35.144 258.05 34.94 257.666 34.532C257.282 34.124 257.09 33.544 257.09 32.792V28.808H258.398V32.6C258.398 33.584 258.826 34.076 259.682 34.076C259.85 34.076 260.014 34.056 260.174 34.016C260.334 33.968 260.478 33.9 260.606 33.812C260.734 33.724 260.834 33.616 260.906 33.488C260.986 33.352 261.026 33.192 261.026 33.008V28.808H262.334V35H261.026V33.944ZM264.309 35V28.808H265.617V29.864H265.677C265.741 29.704 265.821 29.552 265.917 29.408C266.021 29.256 266.145 29.128 266.289 29.024C266.433 28.912 266.601 28.824 266.793 28.76C266.985 28.696 267.209 28.664 267.465 28.664C268.089 28.664 268.593 28.868 268.977 29.276C269.361 29.684 269.553 30.264 269.553 31.016V35H268.245V31.208C268.245 30.224 267.817 29.732 266.961 29.732C266.793 29.732 266.629 29.756 266.469 29.804C266.309 29.844 266.165 29.908 266.037 29.996C265.909 30.084 265.805 30.196 265.725 30.332C265.653 30.468 265.617 30.624 265.617 30.8V35H264.309ZM275.405 33.944H275.333C275.149 34.32 274.905 34.616 274.601 34.832C274.297 35.04 273.917 35.144 273.461 35.144C272.733 35.144 272.153 34.872 271.721 34.328C271.289 33.784 271.073 32.976 271.073 31.904C271.073 30.832 271.289 30.024 271.721 29.48C272.153 28.936 272.733 28.664 273.461 28.664C273.917 28.664 274.297 28.772 274.601 28.988C274.905 29.196 275.149 29.488 275.333 29.864H275.405V26.12H276.713V35H275.405V33.944ZM274.001 34.076C274.193 34.076 274.373 34.052 274.541 34.004C274.709 33.956 274.857 33.884 274.985 33.788C275.113 33.692 275.213 33.576 275.285 33.44C275.365 33.296 275.405 33.128 275.405 32.936V30.872C275.405 30.68 275.365 30.516 275.285 30.38C275.213 30.236 275.113 30.116 274.985 30.02C274.857 29.924 274.709 29.852 274.541 29.804C274.373 29.756 274.193 29.732 274.001 29.732C273.505 29.732 273.121 29.884 272.849 30.188C272.585 30.492 272.453 30.896 272.453 31.4V32.408C272.453 32.912 272.585 33.316 272.849 33.62C273.121 33.924 273.505 34.076 274.001 34.076ZM283.524 35C283.148 35 282.864 34.904 282.672 34.712C282.488 34.52 282.376 34.268 282.336 33.956H282.276C282.156 34.332 281.936 34.624 281.616 34.832C281.304 35.04 280.904 35.144 280.416 35.144C279.784 35.144 279.28 34.98 278.904 34.652C278.528 34.316 278.34 33.856 278.34 33.272C278.34 32.672 278.56 32.216 279 31.904C279.448 31.584 280.132 31.424 281.052 31.424H282.24V30.944C282.24 30.104 281.796 29.684 280.908 29.684C280.508 29.684 280.184 29.764 279.936 29.924C279.688 30.076 279.48 30.28 279.312 30.536L278.532 29.9C278.708 29.564 279.004 29.276 279.42 29.036C279.836 28.788 280.372 28.664 281.028 28.664C281.812 28.664 282.428 28.852 282.876 29.228C283.324 29.604 283.548 30.148 283.548 30.86V33.968H284.328V35H283.524ZM280.788 34.184C281.212 34.184 281.56 34.088 281.832 33.896C282.104 33.704 282.24 33.456 282.24 33.152V32.252H281.076C280.132 32.252 279.66 32.536 279.66 33.104V33.344C279.66 33.624 279.76 33.836 279.96 33.98C280.16 34.116 280.436 34.184 280.788 34.184ZM288.751 35C288.207 35 287.807 34.856 287.551 34.568C287.295 34.272 287.167 33.892 287.167 33.428V29.864H285.259V28.808H286.615C286.847 28.808 287.011 28.764 287.107 28.676C287.203 28.58 287.251 28.412 287.251 28.172V26.624H288.475V28.808H291.115V29.864H288.475V33.944H291.115V35H288.751ZM295.923 27.68C295.587 27.68 295.351 27.612 295.215 27.476C295.087 27.34 295.023 27.172 295.023 26.972V26.72C295.023 26.52 295.087 26.352 295.215 26.216C295.351 26.08 295.583 26.012 295.911 26.012C296.247 26.012 296.479 26.08 296.607 26.216C296.743 26.352 296.811 26.52 296.811 26.72V26.972C296.811 27.172 296.743 27.34 296.607 27.476C296.479 27.612 296.251 27.68 295.923 27.68ZM293.151 33.944H295.263V29.864H293.151V28.808H296.571V33.944H298.551V35H293.151V33.944ZM302.698 35.144C302.242 35.144 301.83 35.068 301.462 34.916C301.102 34.764 300.794 34.548 300.538 34.268C300.29 33.988 300.098 33.648 299.962 33.248C299.826 32.848 299.758 32.4 299.758 31.904C299.758 31.408 299.826 30.96 299.962 30.56C300.098 30.16 300.29 29.82 300.538 29.54C300.794 29.26 301.102 29.044 301.462 28.892C301.83 28.74 302.242 28.664 302.698 28.664C303.154 28.664 303.562 28.74 303.922 28.892C304.29 29.044 304.598 29.26 304.846 29.54C305.102 29.82 305.298 30.16 305.434 30.56C305.57 30.96 305.638 31.408 305.638 31.904C305.638 32.4 305.57 32.848 305.434 33.248C305.298 33.648 305.102 33.988 304.846 34.268C304.598 34.548 304.29 34.764 303.922 34.916C303.562 35.068 303.154 35.144 302.698 35.144ZM302.698 34.112C303.178 34.112 303.558 33.968 303.838 33.68C304.126 33.384 304.27 32.948 304.27 32.372V31.436C304.27 30.86 304.126 30.428 303.838 30.14C303.558 29.844 303.178 29.696 302.698 29.696C302.218 29.696 301.834 29.844 301.546 30.14C301.266 30.428 301.126 30.86 301.126 31.436V32.372C301.126 32.948 301.266 33.384 301.546 33.68C301.834 33.968 302.218 34.112 302.698 34.112ZM307.265 35V28.808H308.573V29.864H308.633C308.697 29.704 308.777 29.552 308.873 29.408C308.977 29.256 309.101 29.128 309.245 29.024C309.389 28.912 309.557 28.824 309.749 28.76C309.941 28.696 310.165 28.664 310.421 28.664C311.045 28.664 311.549 28.868 311.933 29.276C312.317 29.684 312.509 30.264 312.509 31.016V35H311.201V31.208C311.201 30.224 310.773 29.732 309.917 29.732C309.749 29.732 309.585 29.756 309.425 29.804C309.265 29.844 309.121 29.908 308.993 29.996C308.865 30.084 308.761 30.196 308.681 30.332C308.609 30.468 308.573 30.624 308.573 30.8V35H307.265Z" fill="#2F3237"/>
<line x1="53" y1="18" x2="330" y2="18" stroke="#2F3237" stroke-width="2"/>
<line x1="59.5" y1="13" x2="59.5" y2="49" stroke="#2F3237" stroke-width="2"/>
<line x1="325.5" y1="13" x2="325.5" y2="49" stroke="#2F3237" stroke-width="2"/>
<line x1="53" y1="43" x2="330" y2="43" stroke="#2F3237" stroke-width="2"/>
</svg>
