<svg width="352" height="89" viewBox="0 0 352 89" fill="none" xmlns="http://www.w3.org/2000/svg">
<rect x="4" y="4" width="344" height="81" rx="14" fill="white"/>
<rect x="2" y="2" width="348" height="85" rx="16" stroke="white" stroke-opacity="0.6" stroke-width="4"/>
<path d="M29.312 40V28.72H33.296C34.5333 28.72 35.584 28.9387 36.448 29.376C37.312 29.8027 37.968 30.4373 38.416 31.28C38.8747 32.112 39.104 33.136 39.104 34.352C39.104 35.568 38.8747 36.5973 38.416 37.44C37.968 38.272 37.312 38.9067 36.448 39.344C35.584 39.7813 34.5333 40 33.296 40H29.312ZM30.976 38.608H33.2C34.5973 38.608 35.6427 38.256 36.336 37.552C37.0293 36.8373 37.376 35.7707 37.376 34.352C37.376 32.9333 37.024 31.872 36.32 31.168C35.6267 30.464 34.5867 30.112 33.2 30.112H30.976V38.608ZM43.8876 40.144C43.2583 40.144 42.7303 40.0267 42.3036 39.792C41.8876 39.5573 41.573 39.2107 41.3596 38.752C41.157 38.2827 41.0556 37.696 41.0556 36.992V32.192H42.6716V37.008C42.6716 37.424 42.725 37.7707 42.8316 38.048C42.949 38.3253 43.125 38.528 43.3596 38.656C43.605 38.784 43.909 38.848 44.2716 38.848C44.677 38.848 45.0343 38.7573 45.3436 38.576C45.653 38.3947 45.893 38.1333 46.0636 37.792C46.2343 37.4507 46.3196 37.056 46.3196 36.608V32.192H47.9356V40H46.3676V38.288H46.5756C46.3623 38.8853 46.021 39.344 45.5516 39.664C45.0823 39.984 44.5276 40.144 43.8876 40.144ZM50.021 30.384V28.704H51.909V30.384H50.021ZM50.165 40V32.192H51.781V40H50.165ZM57.3356 40.144C56.365 40.144 55.6343 39.8933 55.1436 39.392C54.6636 38.8907 54.4236 38.1653 54.4236 37.216V33.44H52.9036V32.192H54.4236V29.84H56.0396V32.192H58.4556V33.44H56.0396V37.088C56.0396 37.6533 56.157 38.08 56.3916 38.368C56.637 38.656 57.0316 38.8 57.5756 38.8C57.7356 38.8 57.8956 38.7787 58.0556 38.736C58.2263 38.6933 58.3916 38.6507 58.5516 38.608L58.8076 39.824C58.6476 39.92 58.4236 39.9947 58.1356 40.048C57.8583 40.112 57.5916 40.144 57.3356 40.144ZM64.1345 40V28.72H71.3025V30.064H65.7985V33.664H70.9665V35.008H65.7985V40H64.1345ZM75.865 40.144C75.0757 40.144 74.393 39.9787 73.817 39.648C73.2517 39.3173 72.809 38.848 72.489 38.24C72.169 37.632 72.009 36.9173 72.009 36.096C72.009 35.264 72.169 34.5493 72.489 33.952C72.809 33.344 73.2517 32.8747 73.817 32.544C74.393 32.2133 75.0757 32.048 75.865 32.048C76.6437 32.048 77.3157 32.2133 77.881 32.544C78.457 32.8747 78.905 33.344 79.225 33.952C79.545 34.56 79.705 35.2747 79.705 36.096C79.705 36.9173 79.545 37.632 79.225 38.24C78.905 38.848 78.457 39.3173 77.881 39.648C77.3157 39.9787 76.6437 40.144 75.865 40.144ZM75.849 38.896C76.521 38.896 77.0597 38.656 77.465 38.176C77.8703 37.696 78.073 37.0027 78.073 36.096C78.073 35.1787 77.8703 34.4853 77.465 34.016C77.0597 33.5467 76.521 33.312 75.849 33.312C75.1877 33.312 74.6543 33.5467 74.249 34.016C73.8437 34.4853 73.641 35.1787 73.641 36.096C73.641 37.0027 73.8437 37.696 74.249 38.176C74.6543 38.656 75.1877 38.896 75.849 38.896ZM84.2559 40.144C83.6265 40.144 83.0985 40.0267 82.6719 39.792C82.2559 39.5573 81.9412 39.2107 81.7279 38.752C81.5252 38.2827 81.4239 37.696 81.4239 36.992V32.192H83.0399V37.008C83.0399 37.424 83.0932 37.7707 83.1999 38.048C83.3172 38.3253 83.4932 38.528 83.7279 38.656C83.9732 38.784 84.2772 38.848 84.6399 38.848C85.0452 38.848 85.4025 38.7573 85.7119 38.576C86.0212 38.3947 86.2612 38.1333 86.4319 37.792C86.6025 37.4507 86.6879 37.056 86.6879 36.608V32.192H88.3039V40H86.7359V38.288H86.9439C86.7305 38.8853 86.3892 39.344 85.9199 39.664C85.4505 39.984 84.8959 40.144 84.2559 40.144ZM90.5333 40V32.192H92.1013V33.856H91.9253C92.1599 33.2587 92.5279 32.8107 93.0293 32.512C93.5306 32.2027 94.1066 32.048 94.7573 32.048C95.3759 32.048 95.8879 32.1653 96.2933 32.4C96.7093 32.624 97.0186 32.9707 97.2213 33.44C97.4239 33.8987 97.5253 34.48 97.5253 35.184V40H95.9093V35.28C95.9093 34.832 95.8506 34.4693 95.7333 34.192C95.6159 33.904 95.4399 33.6907 95.2053 33.552C94.9706 33.4133 94.6666 33.344 94.2933 33.344C93.8666 33.344 93.4879 33.4347 93.1573 33.616C92.8373 33.7973 92.5866 34.0587 92.4053 34.4C92.2346 34.7413 92.1493 35.136 92.1493 35.584V40H90.5333ZM102.68 40.144C101.997 40.144 101.395 39.984 100.872 39.664C100.36 39.3333 99.96 38.864 99.672 38.256C99.384 37.6373 99.24 36.9173 99.24 36.096C99.24 35.2533 99.384 34.5333 99.672 33.936C99.96 33.3387 100.36 32.8747 100.872 32.544C101.395 32.2133 101.997 32.048 102.68 32.048C103.363 32.048 103.949 32.2187 104.44 32.56C104.941 32.8907 105.277 33.3387 105.448 33.904H105.272V28.72H106.888V40H105.304V38.24H105.464C105.293 38.816 104.957 39.28 104.456 39.632C103.965 39.9733 103.373 40.144 102.68 40.144ZM103.096 38.896C103.757 38.896 104.291 38.656 104.696 38.176C105.101 37.696 105.304 37.0027 105.304 36.096C105.304 35.1787 105.101 34.4853 104.696 34.016C104.291 33.5467 103.757 33.312 103.096 33.312C102.424 33.312 101.885 33.5467 101.48 34.016C101.075 34.4853 100.872 35.1787 100.872 36.096C100.872 37.0027 101.075 37.696 101.48 38.176C101.885 38.656 102.424 38.896 103.096 38.896ZM111.605 40.144C111.061 40.144 110.57 40.0373 110.133 39.824C109.706 39.6107 109.37 39.3227 109.125 38.96C108.88 38.5973 108.757 38.1867 108.757 37.728C108.757 37.152 108.901 36.6987 109.189 36.368C109.488 36.0267 109.973 35.7867 110.645 35.648C111.328 35.4987 112.245 35.424 113.397 35.424H114.149V36.416H113.413C112.837 36.416 112.352 36.4373 111.957 36.48C111.562 36.5227 111.248 36.592 111.013 36.688C110.778 36.7733 110.608 36.896 110.501 37.056C110.405 37.216 110.357 37.408 110.357 37.632C110.357 38.0373 110.496 38.368 110.773 38.624C111.05 38.8693 111.434 38.992 111.925 38.992C112.32 38.992 112.666 38.9013 112.965 38.72C113.264 38.528 113.498 38.272 113.669 37.952C113.85 37.632 113.941 37.264 113.941 36.848V35.008C113.941 34.4 113.813 33.9627 113.557 33.696C113.301 33.4293 112.88 33.296 112.293 33.296C111.845 33.296 111.397 33.3653 110.949 33.504C110.501 33.632 110.042 33.84 109.573 34.128L109.077 32.992C109.354 32.8 109.674 32.6347 110.037 32.496C110.4 32.3573 110.778 32.2507 111.173 32.176C111.578 32.0907 111.968 32.048 112.341 32.048C113.056 32.048 113.642 32.16 114.101 32.384C114.57 32.608 114.917 32.9493 115.141 33.408C115.365 33.8667 115.477 34.4587 115.477 35.184V40H113.957V38.256H114.101C114.016 38.6507 113.856 38.992 113.621 39.28C113.397 39.5573 113.114 39.7707 112.773 39.92C112.432 40.0693 112.042 40.144 111.605 40.144ZM120.983 40.144C120.012 40.144 119.282 39.8933 118.791 39.392C118.311 38.8907 118.071 38.1653 118.071 37.216V33.44H116.551V32.192H118.071V29.84H119.687V32.192H122.103V33.44H119.687V37.088C119.687 37.6533 119.804 38.08 120.039 38.368C120.284 38.656 120.679 38.8 121.223 38.8C121.383 38.8 121.543 38.7787 121.703 38.736C121.874 38.6933 122.039 38.6507 122.199 38.608L122.455 39.824C122.295 39.92 122.071 39.9947 121.783 40.048C121.506 40.112 121.239 40.144 120.983 40.144ZM123.307 30.384V28.704H125.195V30.384H123.307ZM123.451 40V32.192H125.067V40H123.451ZM130.685 40.144C129.896 40.144 129.213 39.9787 128.637 39.648C128.072 39.3173 127.629 38.848 127.309 38.24C126.989 37.632 126.829 36.9173 126.829 36.096C126.829 35.264 126.989 34.5493 127.309 33.952C127.629 33.344 128.072 32.8747 128.637 32.544C129.213 32.2133 129.896 32.048 130.685 32.048C131.464 32.048 132.136 32.2133 132.701 32.544C133.277 32.8747 133.725 33.344 134.045 33.952C134.365 34.56 134.525 35.2747 134.525 36.096C134.525 36.9173 134.365 37.632 134.045 38.24C133.725 38.848 133.277 39.3173 132.701 39.648C132.136 39.9787 131.464 40.144 130.685 40.144ZM130.669 38.896C131.341 38.896 131.88 38.656 132.285 38.176C132.691 37.696 132.893 37.0027 132.893 36.096C132.893 35.1787 132.691 34.4853 132.285 34.016C131.88 33.5467 131.341 33.312 130.669 33.312C130.008 33.312 129.475 33.5467 129.069 34.016C128.664 34.4853 128.461 35.1787 128.461 36.096C128.461 37.0027 128.664 37.696 129.069 38.176C129.475 38.656 130.008 38.896 130.669 38.896ZM136.292 40V32.192H137.86V33.856H137.684C137.919 33.2587 138.287 32.8107 138.788 32.512C139.289 32.2027 139.865 32.048 140.516 32.048C141.135 32.048 141.647 32.1653 142.052 32.4C142.468 32.624 142.777 32.9707 142.98 33.44C143.183 33.8987 143.284 34.48 143.284 35.184V40H141.668V35.28C141.668 34.832 141.609 34.4693 141.492 34.192C141.375 33.904 141.199 33.6907 140.964 33.552C140.729 33.4133 140.425 33.344 140.052 33.344C139.625 33.344 139.247 33.4347 138.916 33.616C138.596 33.7973 138.345 34.0587 138.164 34.4C137.993 34.7413 137.908 35.136 137.908 35.584V40H136.292Z" fill="black"/>
<path d="M29.19 60V50.13H35.378V51.194H30.492V54.498H35.084V55.562H30.492V60H29.19ZM36.5542 60V53.182H37.8002V54.806H37.6602C37.8096 54.246 38.0802 53.826 38.4722 53.546C38.8642 53.2567 39.3822 53.0887 40.0262 53.042L40.4602 53L40.5582 54.106L39.7602 54.176C39.1442 54.2413 38.6682 54.442 38.3322 54.778C38.0056 55.114 37.8422 55.576 37.8422 56.164V60H36.5542ZM43.7271 60.126C43.2605 60.126 42.8358 60.0327 42.4531 59.846C42.0798 59.6593 41.7858 59.4073 41.5711 59.09C41.3658 58.7727 41.2631 58.418 41.2631 58.026C41.2631 57.522 41.3891 57.1253 41.6411 56.836C41.8931 56.5467 42.3178 56.3413 42.9151 56.22C43.5125 56.0893 44.3151 56.024 45.3231 56.024H45.9811V56.836H45.3511C44.8098 56.836 44.3571 56.8547 43.9931 56.892C43.6291 56.9293 43.3398 56.99 43.1251 57.074C42.9105 57.158 42.7565 57.2747 42.6631 57.424C42.5698 57.564 42.5231 57.7413 42.5231 57.956C42.5231 58.32 42.6491 58.6187 42.9011 58.852C43.1625 59.0853 43.5171 59.202 43.9651 59.202C44.3198 59.202 44.6325 59.118 44.9031 58.95C45.1738 58.7727 45.3885 58.5393 45.5471 58.25C45.7058 57.9513 45.7851 57.6107 45.7851 57.228V55.618C45.7851 55.0673 45.6731 54.6707 45.4491 54.428C45.2251 54.176 44.8471 54.05 44.3151 54.05C43.9231 54.05 43.5311 54.1107 43.1391 54.232C42.7565 54.3533 42.3598 54.54 41.9491 54.792L41.5431 53.882C41.7858 53.714 42.0611 53.5693 42.3691 53.448C42.6865 53.3173 43.0131 53.2193 43.3491 53.154C43.6945 53.0887 44.0258 53.056 44.3431 53.056C44.9498 53.056 45.4491 53.154 45.8411 53.35C46.2331 53.5367 46.5271 53.8307 46.7231 54.232C46.9191 54.624 47.0171 55.128 47.0171 55.744V60H45.8131V58.446H45.9391C45.8645 58.7913 45.7245 59.09 45.5191 59.342C45.3138 59.594 45.0571 59.79 44.7491 59.93C44.4505 60.0607 44.1098 60.126 43.7271 60.126ZM49.008 60V53.182H50.254V54.666H50.1C50.2213 54.3207 50.3893 54.0313 50.604 53.798C50.8187 53.5553 51.0753 53.3733 51.374 53.252C51.682 53.1213 52.018 53.056 52.382 53.056C52.9607 53.056 53.4273 53.196 53.782 53.476C54.1367 53.7467 54.3747 54.162 54.496 54.722H54.3C54.468 54.2087 54.7667 53.8027 55.196 53.504C55.6347 53.2053 56.1433 53.056 56.722 53.056C57.2353 53.056 57.6553 53.1587 57.982 53.364C58.318 53.56 58.57 53.8587 58.738 54.26C58.906 54.652 58.99 55.156 58.99 55.772V60H57.716V55.828C57.716 55.2307 57.6133 54.792 57.408 54.512C57.2027 54.232 56.8573 54.092 56.372 54.092C56.0173 54.092 55.7093 54.176 55.448 54.344C55.1867 54.512 54.986 54.75 54.846 55.058C54.706 55.366 54.636 55.7347 54.636 56.164V60H53.362V55.828C53.362 55.2307 53.2593 54.792 53.054 54.512C52.8487 54.232 52.5033 54.092 52.018 54.092C51.6633 54.092 51.3553 54.176 51.094 54.344C50.8327 54.512 50.632 54.75 50.492 55.058C50.352 55.366 50.282 55.7347 50.282 56.164V60H49.008ZM64.1466 60.126C63.4092 60.126 62.7746 59.986 62.2426 59.706C61.7199 59.4167 61.3139 59.0107 61.0246 58.488C60.7352 57.956 60.5906 57.3307 60.5906 56.612C60.5906 55.9027 60.7306 55.282 61.0106 54.75C61.2999 54.218 61.6919 53.8027 62.1866 53.504C62.6906 53.2053 63.2646 53.056 63.9086 53.056C64.5339 53.056 65.0659 53.1913 65.5046 53.462C65.9526 53.7327 66.2932 54.12 66.5266 54.624C66.7692 55.1187 66.8906 55.716 66.8906 56.416V56.878H61.5846V56.066H66.0506L65.8126 56.262C65.8126 55.534 65.6539 54.974 65.3366 54.582C65.0192 54.1807 64.5526 53.98 63.9366 53.98C63.4886 53.98 63.1059 54.0873 62.7886 54.302C62.4712 54.5073 62.2286 54.8013 62.0606 55.184C61.8926 55.5573 61.8086 55.9913 61.8086 56.486V56.57C61.8086 57.13 61.8972 57.6013 62.0746 57.984C62.2612 58.3573 62.5272 58.642 62.8726 58.838C63.2179 59.0247 63.6426 59.118 64.1466 59.118C64.5479 59.118 64.9352 59.0573 65.3086 58.936C65.6912 58.8053 66.0506 58.6047 66.3866 58.334L66.7786 59.216C66.4706 59.496 66.0739 59.72 65.5886 59.888C65.1126 60.0467 64.6319 60.126 64.1466 60.126ZM70.1714 60L67.6094 53.182H68.9254L70.9694 58.978H70.6334L72.7474 53.182H73.7694L75.8414 58.978H75.5194L77.5914 53.182H78.8374L76.2754 60H75.0854L72.9014 54.036H73.5454L71.3614 60H70.1714ZM82.8965 60.126C82.2245 60.126 81.6412 59.9813 81.1465 59.692C80.6519 59.4027 80.2692 58.992 79.9985 58.46C79.7279 57.928 79.5925 57.3027 79.5925 56.584C79.5925 55.8653 79.7279 55.2447 79.9985 54.722C80.2692 54.19 80.6519 53.7793 81.1465 53.49C81.6412 53.2007 82.2245 53.056 82.8965 53.056C83.5685 53.056 84.1519 53.2007 84.6465 53.49C85.1412 53.7793 85.5239 54.19 85.7945 54.722C86.0652 55.2447 86.2005 55.8653 86.2005 56.584C86.2005 57.3027 86.0652 57.928 85.7945 58.46C85.5239 58.992 85.1412 59.4027 84.6465 59.692C84.1519 59.9813 83.5685 60.126 82.8965 60.126ZM82.8965 59.118C83.5125 59.118 84.0025 58.9033 84.3665 58.474C84.7305 58.0353 84.9125 57.4053 84.9125 56.584C84.9125 55.7627 84.7305 55.1373 84.3665 54.708C84.0025 54.2787 83.5125 54.064 82.8965 54.064C82.2899 54.064 81.7999 54.2787 81.4265 54.708C81.0625 55.1373 80.8805 55.7627 80.8805 56.584C80.8805 57.4053 81.0625 58.0353 81.4265 58.474C81.7999 58.9033 82.2899 59.118 82.8965 59.118ZM87.7905 60V53.182H89.0365V54.806H88.8965C89.0458 54.246 89.3165 53.826 89.7085 53.546C90.1005 53.2567 90.6185 53.0887 91.2625 53.042L91.6965 53L91.7945 54.106L90.9965 54.176C90.3805 54.2413 89.9045 54.442 89.5685 54.778C89.2418 55.114 89.0785 55.576 89.0785 56.164V60H87.7905ZM92.8618 60V50.13H94.1358V56.192H94.1638L97.2298 53.182H98.8258L95.1578 56.78V56.15L99.0918 60H97.4958L94.1638 56.836H94.1358V60H92.8618ZM103.916 60V54.162H102.586V53.182H104.266L103.916 53.518V53C103.916 52.076 104.149 51.3807 104.616 50.914C105.083 50.438 105.801 50.172 106.772 50.116L107.346 50.074L107.444 51.054L106.8 51.096C106.417 51.1147 106.109 51.194 105.876 51.334C105.643 51.4647 105.47 51.656 105.358 51.908C105.246 52.1507 105.19 52.4587 105.19 52.832V53.392L105.008 53.182H107.122V54.162H105.19V60H103.916ZM110.946 60.126C110.274 60.126 109.691 59.9813 109.196 59.692C108.702 59.4027 108.319 58.992 108.048 58.46C107.778 57.928 107.642 57.3027 107.642 56.584C107.642 55.8653 107.778 55.2447 108.048 54.722C108.319 54.19 108.702 53.7793 109.196 53.49C109.691 53.2007 110.274 53.056 110.946 53.056C111.618 53.056 112.202 53.2007 112.696 53.49C113.191 53.7793 113.574 54.19 113.844 54.722C114.115 55.2447 114.25 55.8653 114.25 56.584C114.25 57.3027 114.115 57.928 113.844 58.46C113.574 58.992 113.191 59.4027 112.696 59.692C112.202 59.9813 111.618 60.126 110.946 60.126ZM110.946 59.118C111.562 59.118 112.052 58.9033 112.416 58.474C112.78 58.0353 112.962 57.4053 112.962 56.584C112.962 55.7627 112.78 55.1373 112.416 54.708C112.052 54.2787 111.562 54.064 110.946 54.064C110.34 54.064 109.85 54.2787 109.476 54.708C109.112 55.1373 108.93 55.7627 108.93 56.584C108.93 57.4053 109.112 58.0353 109.476 58.474C109.85 58.9033 110.34 59.118 110.946 59.118ZM115.84 60V53.182H117.086V54.806H116.946C117.096 54.246 117.366 53.826 117.758 53.546C118.15 53.2567 118.668 53.0887 119.312 53.042L119.746 53L119.844 54.106L119.046 54.176C118.43 54.2413 117.954 54.442 117.618 54.778C117.292 55.114 117.128 55.576 117.128 56.164V60H115.84ZM124.674 60V50.13H130.862V51.194H125.976V54.498H130.568V55.562H125.976V60H124.674ZM134.345 60.126C133.617 60.126 133.071 59.9207 132.707 59.51C132.353 59.09 132.175 58.488 132.175 57.704V50.13H133.449V57.606C133.449 57.9233 133.491 58.194 133.575 58.418C133.669 58.6327 133.799 58.7913 133.967 58.894C134.145 58.9967 134.364 59.048 134.625 59.048C134.728 59.048 134.831 59.0433 134.933 59.034C135.045 59.0247 135.148 59.006 135.241 58.978L135.213 60.014C135.064 60.0513 134.915 60.0793 134.765 60.098C134.625 60.1167 134.485 60.126 134.345 60.126ZM138.78 60.126C138.229 60.126 137.767 60.0233 137.394 59.818C137.03 59.6127 136.759 59.3093 136.582 58.908C136.405 58.5067 136.316 58.0027 136.316 57.396V53.182H137.59V57.396C137.59 57.7787 137.641 58.096 137.744 58.348C137.847 58.6 138.005 58.7867 138.22 58.908C138.444 59.0293 138.724 59.09 139.06 59.09C139.433 59.09 139.76 59.006 140.04 58.838C140.32 58.67 140.539 58.432 140.698 58.124C140.857 57.816 140.936 57.4567 140.936 57.046V53.182H142.21V60H140.964V58.46H141.146C140.959 59.0013 140.656 59.4167 140.236 59.706C139.825 59.986 139.34 60.126 138.78 60.126ZM147.046 60.126C146.215 60.126 145.595 59.9113 145.184 59.482C144.773 59.0433 144.568 58.418 144.568 57.606V54.162H143.238V53.182H144.568V51.11H145.842V53.182H147.984V54.162H145.842V57.494C145.842 58.0073 145.949 58.3947 146.164 58.656C146.379 58.9173 146.733 59.048 147.228 59.048C147.377 59.048 147.522 59.034 147.662 59.006C147.811 58.9687 147.951 58.9313 148.082 58.894L148.292 59.846C148.161 59.93 147.975 59.9953 147.732 60.042C147.499 60.098 147.27 60.126 147.046 60.126ZM151.789 60.126C150.959 60.126 150.338 59.9113 149.927 59.482C149.517 59.0433 149.311 58.418 149.311 57.606V54.162H147.981V53.182H149.311V51.11H150.585V53.182H152.727V54.162H150.585V57.494C150.585 58.0073 150.693 58.3947 150.907 58.656C151.122 58.9173 151.477 59.048 151.971 59.048C152.121 59.048 152.265 59.034 152.405 59.006C152.555 58.9687 152.695 58.9313 152.825 58.894L153.035 59.846C152.905 59.93 152.718 59.9953 152.475 60.042C152.242 60.098 152.013 60.126 151.789 60.126ZM157.019 60.126C156.281 60.126 155.647 59.986 155.115 59.706C154.592 59.4167 154.186 59.0107 153.897 58.488C153.607 57.956 153.463 57.3307 153.463 56.612C153.463 55.9027 153.603 55.282 153.883 54.75C154.172 54.218 154.564 53.8027 155.059 53.504C155.563 53.2053 156.137 53.056 156.781 53.056C157.406 53.056 157.938 53.1913 158.377 53.462C158.825 53.7327 159.165 54.12 159.399 54.624C159.641 55.1187 159.763 55.716 159.763 56.416V56.878H154.457V56.066H158.923L158.685 56.262C158.685 55.534 158.526 54.974 158.209 54.582C157.891 54.1807 157.425 53.98 156.809 53.98C156.361 53.98 155.978 54.0873 155.661 54.302C155.343 54.5073 155.101 54.8013 154.933 55.184C154.765 55.5573 154.681 55.9913 154.681 56.486V56.57C154.681 57.13 154.769 57.6013 154.947 57.984C155.133 58.3573 155.399 58.642 155.745 58.838C156.09 59.0247 156.515 59.118 157.019 59.118C157.42 59.118 157.807 59.0573 158.181 58.936C158.563 58.8053 158.923 58.6047 159.259 58.334L159.651 59.216C159.343 59.496 158.946 59.72 158.461 59.888C157.985 60.0467 157.504 60.126 157.019 60.126ZM161.305 60V53.182H162.551V54.806H162.411C162.56 54.246 162.831 53.826 163.223 53.546C163.615 53.2567 164.133 53.0887 164.777 53.042L165.211 53L165.309 54.106L164.511 54.176C163.895 54.2413 163.419 54.442 163.083 54.778C162.756 55.114 162.593 55.576 162.593 56.164V60H161.305Z" fill="#445371"/>
<rect x="188" y="26.5" width="40" height="36" rx="12" fill="#DF55DF"/>
<g clip-path="url(#clip0_238_867)">
<path d="M200 49.5V51.5C200 52.0304 200.211 52.5391 200.586 52.9142C200.961 53.2893 201.47 53.5 202 53.5H214C214.53 53.5 215.039 53.2893 215.414 52.9142C215.789 52.5391 216 52.0304 216 51.5V49.5" stroke="white" stroke-width="2" stroke-linecap="round" stroke-linejoin="round"/>
<path d="M203 43.5L208 48.5L213 43.5" stroke="white" stroke-width="2" stroke-linecap="round" stroke-linejoin="round"/>
<path d="M208 36.5V48.5" stroke="white" stroke-width="2" stroke-linecap="round" stroke-linejoin="round"/>
</g>
<rect x="236" y="26.5" width="40" height="36" rx="12" fill="#32A9E3"/>
<g clip-path="url(#clip1_238_867)">
<path d="M259 42.5L255 46.5L261 52.5L265 36.5L247 43.5L251 45.5L253 51.5L256 47.5" stroke="white" stroke-width="2" stroke-linecap="round" stroke-linejoin="round"/>
</g>
<rect x="284" y="26.5" width="40" height="36" rx="12" fill="#2F3237"/>
<g clip-path="url(#clip2_238_867)">
<path d="M301 51.5C296.7 52.9 296.7 49 295 48.5M307 53.5V50C307 49 307.1 48.6 306.5 48C309.3 47.7 312 46.6 312 42C311.999 40.8049 311.533 39.6573 310.7 38.8C311.09 37.7619 311.055 36.6116 310.6 35.6C310.6 35.6 309.5 35.3 307.1 36.9C305.067 36.3705 302.933 36.3705 300.9 36.9C298.5 35.3 297.4 35.6 297.4 35.6C296.945 36.6116 296.91 37.7619 297.3 38.8C296.467 39.6573 296.001 40.8049 296 42C296 46.6 298.7 47.7 301.5 48C300.9 48.6 300.9 49.2 301 50V53.5" stroke="white" stroke-width="2" stroke-linecap="round" stroke-linejoin="round"/>
</g>
<defs>
<clipPath id="clip0_238_867">
<rect width="24" height="24" fill="white" transform="translate(196 32.5)"/>
</clipPath>
<clipPath id="clip1_238_867">
<rect width="24" height="24" fill="white" transform="translate(244 32.5)"/>
</clipPath>
<clipPath id="clip2_238_867">
<rect width="24" height="24" fill="white" transform="translate(292 32.5)"/>
</clipPath>
</defs>
</svg>
