<svg width="192" height="32" viewBox="0 0 192 32" fill="none" xmlns="http://www.w3.org/2000/svg">
    <rect y="0.5" width="192" height="31" rx="12" fill="white"/>
    <g>
        <rect y="0.5" width="192" height="31" rx="12" fill="white"/>
        <rect y="0.500488" width="136" height="31" rx="12" fill="#00ACD7"/>
        <g opacity="0.14">
            <rect x="-15" y="29.3901" width="54.9989" height="10" transform="rotate(-45 -15 29.3901)" fill="white"/>
        </g>
        <g opacity="0.14">
            <rect x="5.44238" y="32.9475" width="60.0298" height="10" transform="rotate(-45 5.44238 32.9475)" fill="white"/>
        </g>
        <g opacity="0.14">
            <rect x="29.0576" y="33.3323" width="60.5739" height="10" transform="rotate(-45 29.0576 33.3323)" fill="white"/>
        </g>
        <g opacity="0.14">
            <rect x="52.5264" y="33.8638" width="61.3258" height="10" transform="rotate(-45 52.5264 33.8638)" fill="white"/>
        </g>
        <g opacity="0.14">
            <rect x="77.4648" y="32.9253" width="59.9986" height="10" transform="rotate(-45 77.4648 32.9253)" fill="white"/>
        </g>
        <g opacity="0.14">
            <rect x="98.4336" y="35.9573" width="64.2861" height="10" transform="rotate(-45 98.4336 35.9573)" fill="white"/>
        </g>
        <g opacity="0.14">
            <rect x="125.577" y="32.8127" width="59.8392" height="10" transform="rotate(-45 125.577 32.8127)" fill="white"/>
        </g>
        <path d="M85.064 20.64C84.252 20.64 83.5567 20.4487 82.978 20.066C82.4087 19.674 81.9747 19.114 81.676 18.386C81.3773 17.658 81.228 16.776 81.228 15.74C81.228 14.62 81.396 13.6727 81.732 12.898C82.068 12.114 82.5533 11.5167 83.188 11.106C83.8227 10.6953 84.5833 10.49 85.47 10.49C85.8153 10.49 86.1607 10.5367 86.506 10.63C86.8607 10.714 87.192 10.84 87.5 11.008C87.8173 11.1667 88.0973 11.3627 88.34 11.596L87.752 12.94C87.4067 12.6227 87.038 12.3893 86.646 12.24C86.254 12.0813 85.8527 12.002 85.442 12.002C85.0407 12.002 84.6813 12.0767 84.364 12.226C84.056 12.366 83.7947 12.5807 83.58 12.87C83.3653 13.15 83.202 13.5047 83.09 13.934C82.9873 14.354 82.936 14.844 82.936 15.404V16.454H82.768C82.8427 15.978 82.9967 15.572 83.23 15.236C83.4727 14.8907 83.7807 14.6293 84.154 14.452C84.5273 14.2653 84.9427 14.172 85.4 14.172C85.9693 14.172 86.4733 14.3073 86.912 14.578C87.3507 14.8487 87.696 15.222 87.948 15.698C88.2 16.174 88.326 16.72 88.326 17.336C88.326 17.9707 88.186 18.54 87.906 19.044C87.6353 19.5387 87.2527 19.9307 86.758 20.22C86.2727 20.5 85.708 20.64 85.064 20.64ZM84.966 19.212C85.302 19.212 85.596 19.1373 85.848 18.988C86.1093 18.8387 86.31 18.6287 86.45 18.358C86.59 18.078 86.66 17.7607 86.66 17.406C86.66 17.042 86.59 16.7247 86.45 16.454C86.31 16.1833 86.1093 15.9733 85.848 15.824C85.596 15.6653 85.302 15.586 84.966 15.586C84.63 15.586 84.336 15.6653 84.084 15.824C83.832 15.9733 83.6313 16.1833 83.482 16.454C83.342 16.7247 83.272 17.042 83.272 17.406C83.272 17.7607 83.342 18.078 83.482 18.358C83.6313 18.6287 83.832 18.8387 84.084 18.988C84.336 19.1373 84.63 19.212 84.966 19.212ZM90.0985 20.5L94.8725 11.512V12.128H89.6645V10.63H96.5385V11.974L92.0725 20.5H90.0985ZM101.601 20.892L100.453 20.22L106.221 10.238L107.355 10.91L101.601 20.892ZM100.397 16.524C99.8744 16.524 99.4264 16.4027 99.0531 16.16C98.6797 15.9173 98.3951 15.572 98.1991 15.124C98.0031 14.6667 97.9051 14.1253 97.9051 13.5C97.9051 12.5667 98.1244 11.834 98.5631 11.302C99.0017 10.7607 99.6131 10.49 100.397 10.49C100.92 10.49 101.368 10.6113 101.741 10.854C102.114 11.0967 102.399 11.442 102.595 11.89C102.791 12.338 102.889 12.8747 102.889 13.5C102.889 14.1253 102.791 14.6667 102.595 15.124C102.399 15.572 102.114 15.9173 101.741 16.16C101.368 16.4027 100.92 16.524 100.397 16.524ZM100.397 15.348C100.733 15.348 100.994 15.1987 101.181 14.9C101.368 14.592 101.461 14.1253 101.461 13.5C101.461 12.8747 101.368 12.4127 101.181 12.114C100.994 11.8153 100.733 11.666 100.397 11.666C100.061 11.666 99.7997 11.8153 99.6131 12.114C99.4264 12.4033 99.3331 12.8653 99.3331 13.5C99.3331 14.1347 99.4264 14.6013 99.6131 14.9C99.7997 15.1987 100.061 15.348 100.397 15.348ZM107.425 20.64C106.902 20.64 106.454 20.5187 106.081 20.276C105.708 20.0333 105.423 19.688 105.227 19.24C105.031 18.7827 104.933 18.2413 104.933 17.616C104.933 16.6827 105.152 15.95 105.591 15.418C106.03 14.8767 106.641 14.606 107.425 14.606C107.948 14.606 108.396 14.7273 108.769 14.97C109.142 15.2127 109.427 15.558 109.623 16.006C109.819 16.454 109.917 16.9907 109.917 17.616C109.917 18.2413 109.819 18.7827 109.623 19.24C109.427 19.688 109.142 20.0333 108.769 20.276C108.396 20.5187 107.948 20.64 107.425 20.64ZM107.425 19.464C107.761 19.464 108.022 19.3147 108.209 19.016C108.396 18.708 108.489 18.2413 108.489 17.616C108.489 16.9907 108.396 16.5287 108.209 16.23C108.022 15.9313 107.761 15.782 107.425 15.782C107.089 15.782 106.828 15.9313 106.641 16.23C106.454 16.5193 106.361 16.9813 106.361 17.616C106.361 18.2507 106.454 18.7173 106.641 19.016C106.828 19.3147 107.089 19.464 107.425 19.464Z" fill="white"/>
        
    </g>
</svg>
