<svg width="884" height="462" viewBox="0 0 884 462" fill="none" xmlns="http://www.w3.org/2000/svg">
<g opacity="0.08">
<path d="M280.158 365.97C280.158 372.114 275.179 377.093 269.035 377.093C262.891 377.093 257.912 372.114 257.912 365.97C257.912 359.827 262.891 354.848 269.035 354.848C275.179 354.848 280.158 359.827 280.158 365.97Z" fill="#2C323F"/>
<path d="M837.161 47.7449L855.07 26.4027" stroke="#2C323F" stroke-miterlimit="10"/>
<path d="M842.662 52.3427L870.79 18.8336" stroke="#2C323F" stroke-miterlimit="10"/>
<path d="M837.161 70.0709L866.052 35.6182" stroke="#2C323F" stroke-miterlimit="10"/>
<path d="M290.816 296.222L308.705 274.88" stroke="url(#paint0_linear_559_904)" stroke-miterlimit="10"/>
<path d="M296.299 300.839L324.427 267.31" stroke="url(#paint1_linear_559_904)" stroke-miterlimit="10"/>
<path d="M290.816 318.548L319.688 284.095" stroke="url(#paint2_linear_559_904)" stroke-miterlimit="10"/>
<path d="M280.154 402.692L314.185 362.115" stroke="url(#paint3_linear_559_904)" stroke-miterlimit="10"/>
<path d="M290.593 411.445L344.059 347.72" stroke="url(#paint4_linear_559_904)" stroke-miterlimit="10"/>
<path d="M280.154 445.135L335.066 379.643" stroke="url(#paint5_linear_559_904)" stroke-miterlimit="10"/>
<path d="M344.062 314.693C347.754 314.693 350.747 311.7 350.747 308.007C350.747 304.315 347.754 301.322 344.062 301.322C340.369 301.322 337.376 304.315 337.376 308.007C337.376 311.7 340.369 314.693 344.062 314.693Z" fill="white"/>
<path d="M348.458 448.388C348.458 452.082 345.467 455.073 341.772 455.073C338.078 455.073 335.087 452.082 335.087 448.388C335.087 444.694 338.078 441.702 341.772 441.702C345.467 441.702 348.458 444.694 348.458 448.388Z" fill="white"/>
<path d="M313.447 124.139C313.447 125.846 312.062 127.231 310.356 127.231C308.649 127.231 307.264 125.846 307.264 124.139C307.264 122.433 308.649 121.047 310.356 121.047C312.062 121.067 313.447 122.433 313.447 124.139Z" fill="white"/>
<path d="M280.155 82.1173C283.847 82.1173 286.84 79.124 286.84 75.4316C286.84 71.7391 283.847 68.7458 280.155 68.7458C276.462 68.7458 273.469 71.7391 273.469 75.4316C273.469 79.124 276.462 82.1173 280.155 82.1173Z" fill="white"/>
<path d="M205.367 226.875C209.06 226.875 212.053 223.881 212.053 220.189C212.053 216.496 209.06 213.503 205.367 213.503C201.675 213.503 198.682 216.496 198.682 220.189C198.682 223.881 201.675 226.875 205.367 226.875Z" fill="white"/>
<path d="M332.136 33.5302L307.702 50.6561L337.095 65.8546L332.136 33.5302Z" fill="#2C323F"/>
<path d="M676.482 -37.684C649.478 -52.7019 616.029 -62.5799 585.351 -53.786C561.539 -46.9597 543.57 -29.1713 529.998 -9.1341C514.719 13.4127 503.957 38.6901 492.553 63.325C485.567 78.403 477.957 92.8989 467.758 106.11C456.796 120.324 443.745 132.933 429.189 143.413C414.131 154.235 397.548 162.688 379.96 168.53C359.903 175.196 339.062 178.89 318.483 183.548C284.653 191.238 248.775 203.184 226.629 231.653C216.832 244.242 211.009 259.5 210.748 275.502C210.467 291.925 215.727 308.108 224.019 322.162C242.832 354.105 275.538 372.375 309.669 384.08C346.21 396.608 384.778 402.571 420.556 417.428C438.425 424.857 455.531 434.595 469.705 447.906C483.76 461.117 494.621 477.199 504.279 493.783C522.489 525.103 537.145 559.255 563.386 585.014C575.493 596.9 589.969 606.517 606.311 611.416C622.735 616.314 640.282 616.314 656.967 612.761C735.368 596.036 770.263 517.032 801.865 452.162C819.533 415.903 839.128 380.607 868.903 352.8C897.653 325.956 931.965 305.477 958.769 276.486C982.58 250.747 1000.49 217.78 996.293 181.701C992.298 147.409 970.956 117.072 944.775 95.6093C914.619 70.8941 877.315 56.4384 841.096 43.1472C821.661 36.0198 801.985 29.3742 783.112 20.8213C764.481 12.3687 746.572 2.47063 728.883 -7.7688C720.431 -12.6677 712.039 -17.6468 703.606 -22.5859C694.652 -27.826 685.356 -32.3635 676.301 -37.4029C675.598 -37.8045 674.956 -36.7203 675.659 -36.3187C684.693 -31.2994 693.286 -25.4569 702.201 -20.2168C710.633 -15.2777 719.026 -10.2986 727.478 -5.39969C744.765 4.61889 762.272 14.2962 780.442 22.6082C816.481 39.1117 854.989 49.4515 890.927 66.2361C924.437 81.8764 955.958 102.877 976.075 134.64C985.311 149.216 991.896 165.679 993.703 182.905C995.591 200.875 991.977 218.844 984.307 235.126C968.245 269.238 938.31 293.572 909.178 316.199C893.718 328.205 878.098 340.111 863.984 353.703C850.331 366.834 838.586 381.671 828.387 397.612C807.587 430.117 793.03 466.016 775.182 500.127C757.755 533.415 736.433 566.744 705.072 588.548C676.1 608.685 637.933 619.487 603.581 607.681C569.771 596.056 547.425 565.278 530.399 535.483C512.33 503.841 497.312 469.128 469.746 444.272C442.521 419.737 406.723 408.133 371.989 398.857C335.288 389.059 296.96 381.028 264.596 360.108C236.046 341.657 212.314 309.734 213.439 274.418C214.563 238.64 243.474 213.483 274.072 199.991C310.794 183.789 351.992 182.363 389.336 167.988C420.616 155.942 448.343 135.182 468.963 108.8C487.273 85.3899 497.593 57.5025 510.462 31.0005C521.565 8.13242 534.154 -15.3179 553.207 -32.6245C572.883 -50.5134 598.14 -57.2594 624.321 -53.6053C642.37 -51.0957 659.536 -44.6709 675.498 -35.9775C676.582 -35.4354 677.546 -37.0817 676.482 -37.684Z" fill="url(#paint6_linear_559_904)"/>
<g opacity="0.4248">
<path opacity="0.4248" d="M686.924 -95.828C656.045 -112.994 617.778 -124.278 582.703 -114.199C555.498 -106.389 534.959 -86.0503 519.46 -63.1622C501.972 -37.3427 489.665 -8.41133 476.594 19.7772C468.584 37.0638 459.87 53.6476 448.205 68.7859C435.657 85.0686 420.699 99.5443 403.995 111.53C386.748 123.938 367.735 133.616 347.598 140.301C324.649 147.931 300.777 152.147 277.227 157.508C238.538 166.301 197.48 179.954 172.142 212.519C160.959 226.895 154.333 244.322 154.012 262.592C153.691 281.365 159.714 299.836 169.171 315.897C190.673 352.418 228.077 373.319 267.108 386.69C308.949 401.025 353.099 407.852 394.057 424.857C414.556 433.37 434.171 444.533 450.414 459.792C466.516 474.91 478.964 493.341 490.026 512.354C510.846 548.192 527.631 587.283 557.667 616.756C571.5 630.348 588.024 641.331 606.716 646.932C625.488 652.534 645.525 652.534 664.598 648.478C754.284 629.344 794.197 538.936 830.357 464.711C850.595 423.191 873.021 382.755 907.152 350.912C940.079 320.194 979.35 296.744 1010.03 263.556C1037.25 234.123 1057.73 196.437 1052.91 155.179C1048.34 115.988 1023.92 81.2941 993.987 56.7596C959.494 28.4907 916.81 11.9471 875.39 -3.25147C853.124 -11.4229 830.578 -19.0323 808.954 -28.83C787.632 -38.5073 767.113 -49.8309 746.875 -61.5761C737.198 -67.1777 727.581 -72.8796 717.944 -78.5414C707.704 -84.5445 697.104 -89.8249 686.744 -95.5871C686.041 -95.9886 685.399 -94.9044 686.101 -94.5029C696.441 -88.7608 706.339 -82.1553 716.558 -76.1723C726.196 -70.5105 735.833 -64.8286 745.49 -59.2069C765.266 -47.7428 785.303 -36.6602 806.103 -27.1435C847.362 -8.25077 891.452 3.57482 932.59 22.7888C970.978 40.7179 1007.08 64.7705 1030.15 101.151C1040.73 117.855 1048.28 136.748 1050.34 156.504C1052.51 177.123 1048.36 197.702 1039.54 216.394C1021.13 255.465 986.859 283.332 953.511 309.252C935.803 323.005 917.934 336.617 901.772 352.177C886.152 367.195 872.72 384.18 861.055 402.411C837.243 439.634 820.579 480.732 800.14 519.783C780.163 557.93 755.749 596.096 719.811 621.073C686.603 644.141 642.835 656.529 603.463 642.977C564.714 629.646 539.075 594.39 519.56 560.218C498.88 524.019 481.694 484.286 450.153 455.836C419.013 427.768 378.055 414.497 338.322 403.896C296.3 392.673 252.391 383.458 215.348 359.525C182.622 338.384 155.418 301.763 156.683 261.267C157.967 220.249 191.115 191.378 226.19 175.898C268.232 157.347 315.434 155.721 358.199 139.237C393.956 125.464 425.678 101.693 449.269 71.5365C470.23 44.7333 482.035 12.8305 496.752 -17.4863C509.481 -43.6872 523.897 -70.5306 545.721 -90.367C568.308 -110.886 597.259 -118.616 627.315 -114.399C647.995 -111.508 667.65 -104.16 685.921 -94.1816C687.045 -93.5994 688.009 -95.2457 686.924 -95.828Z" fill="url(#paint7_linear_559_904)"/>
</g>
<path d="M832.243 358.18C855.894 332.622 885.809 314.271 911.628 291.142C934.135 270.985 954.815 245.366 959.874 214.748C964.733 185.194 953.249 156.122 934.717 133.415C914.078 108.117 885.347 91.6942 855.753 78.925C823.409 64.9713 789.257 55.4747 757.535 40.0553C725.933 24.6761 696.902 4.75944 665.762 -11.4028C642.171 -23.65 613.199 -31.1388 586.958 -23.5696C566.76 -17.7472 551.1 -3.21129 539.094 13.5332C525.381 32.6468 515.724 54.3704 505.946 75.6323C500.345 87.8393 494.864 100.087 487.495 111.37C479.243 123.979 469.265 135.443 457.961 145.401C446.377 155.62 433.367 164.213 419.433 170.859C403.391 178.508 386.145 182.986 368.858 186.82C337.417 193.787 304.651 199.409 278.249 219.205C267.147 227.537 257.55 238.138 251.948 250.967C246.347 263.777 245.222 277.971 248.053 291.624C254.137 320.897 275.619 344.468 300.977 359.003C358.278 391.87 434.371 386.228 483.6 434.213C507.492 457.503 520.442 488.864 537.106 517.153C551.903 542.289 570.957 567.286 598.804 578.589C627.213 590.134 659.578 584.11 685.739 569.615C714.027 553.954 734.747 528.095 751.01 500.709C755.106 493.803 758.961 486.776 762.655 479.648C766.469 472.32 769.401 464.65 772.995 457.222C773.336 456.499 772.272 455.856 771.91 456.579C768.357 463.948 764.06 470.995 760.286 478.243C756.491 485.531 752.556 492.759 748.34 499.826C740.048 513.739 730.752 527.091 719.75 538.997C698.528 561.965 669.918 579.231 638.216 581.681C622.977 582.865 607.598 580.276 593.885 573.409C580.493 566.703 569.21 556.564 559.653 545.14C539.516 521.068 527.469 491.795 511.086 465.273C502.935 452.082 493.619 439.473 482.074 429.053C470.47 418.573 456.877 410.542 442.622 404.258C413.33 391.328 381.708 385.506 351.15 376.41C320.713 367.356 289.774 354.406 269.355 329.028C250.864 306.04 242.09 273.996 257.028 246.872C271.524 220.55 300.977 206.536 328.764 198.887C361.269 189.932 395.34 186.539 425.657 170.819C451.236 157.568 473.341 137.671 489.242 113.659C502.814 93.1799 511.186 69.5288 522.189 47.6445C531.906 28.3502 543.129 8.79498 559.673 -5.50006C576.819 -20.3171 598.483 -25.9187 620.829 -23.1079C654.177 -18.9318 682.366 0.964815 710.695 17.5085C725.612 26.2221 740.65 34.775 756.21 42.324C771.208 49.6121 786.667 55.5349 802.328 61.2168C860.592 82.4385 931.666 106.953 953.59 171.803C958.429 186.098 959.854 201.397 957.023 216.254C954.132 231.392 947.246 245.446 938.392 257.974C919.479 284.798 892.495 303.791 867.117 323.948C854.328 334.108 841.88 344.708 830.898 356.815C830.074 357.739 831.42 359.084 832.243 358.18Z" fill="url(#paint8_linear_559_904)"/>
</g>
<defs>
<linearGradient id="paint0_linear_559_904" x1="290.038" y1="285.551" x2="309.475" y2="285.551" gradientUnits="userSpaceOnUse">
<stop stop-color="#625F4E"/>
<stop offset="1" stop-color="#44494E"/>
</linearGradient>
<linearGradient id="paint1_linear_559_904" x1="295.535" y1="284.068" x2="325.193" y2="284.068" gradientUnits="userSpaceOnUse">
<stop stop-color="#625F4E"/>
<stop offset="1" stop-color="#44494E"/>
</linearGradient>
<linearGradient id="paint2_linear_559_904" x1="290.038" y1="301.323" x2="320.466" y2="301.323" gradientUnits="userSpaceOnUse">
<stop stop-color="#625F4E"/>
<stop offset="1" stop-color="#44494E"/>
</linearGradient>
<linearGradient id="paint3_linear_559_904" x1="277.812" y1="384.1" x2="316.52" y2="380.708" gradientUnits="userSpaceOnUse">
<stop stop-color="#625F4E"/>
<stop offset="1" stop-color="#44494E"/>
</linearGradient>
<linearGradient id="paint4_linear_559_904" x1="287.325" y1="382.215" x2="347.33" y2="376.956" gradientUnits="userSpaceOnUse">
<stop stop-color="#625F4E"/>
<stop offset="1" stop-color="#44494E"/>
</linearGradient>
<linearGradient id="paint5_linear_559_904" x1="276.808" y1="415.087" x2="338.42" y2="409.688" gradientUnits="userSpaceOnUse">
<stop stop-color="#625F4E"/>
<stop offset="1" stop-color="#44494E"/>
</linearGradient>
<linearGradient id="paint6_linear_559_904" x1="255.296" y1="413.26" x2="986.684" y2="147.056" gradientUnits="userSpaceOnUse">
<stop stop-color="#565742"/>
<stop offset="0.24" stop-color="#454B41"/>
<stop offset="0.4856" stop-color="#3A4241"/>
<stop offset="0.74" stop-color="#333D40"/>
<stop offset="1" stop-color="#313C40"/>
</linearGradient>
<linearGradient id="paint7_linear_559_904" x1="154.01" y1="266.683" x2="1053.63" y2="266.683" gradientUnits="userSpaceOnUse">
<stop stop-color="#5C5A44"/>
<stop offset="0.6103" stop-color="#3F4541"/>
<stop offset="1" stop-color="#313C40"/>
</linearGradient>
<linearGradient id="paint8_linear_559_904" x1="432.503" y1="63.5" x2="815.372" y2="446.369" gradientUnits="userSpaceOnUse">
<stop stop-color="#313C40"/>
<stop offset="0.3" stop-color="#333E40"/>
<stop offset="0.665" stop-color="#3C4441"/>
<stop offset="1" stop-color="#4A4E42"/>
</linearGradient>
</defs>
</svg>
