<svg width="116" height="122" viewBox="0 0 116 122" fill="none" xmlns="http://www.w3.org/2000/svg">
<path d="M55.8003 56.1532C55.8003 56.1532 66.2148 42.4955 77.304 33.7779M46.9655 48.2088C53.2579 38.8128 58.6696 33.6244 63.1284 31.0964M20.9988 73.8874C21.7602 71.7913 22.8422 69.0532 24.1821 65.9498M47.1612 97.9711C47.1612 97.9711 52.0725 97.1489 58.0888 95.7845M47.1747 61.5619C42.8749 64.8264 39.4467 69.7337 37.4806 73.2939M57.592 70.4289C53.3382 73.3822 50.3764 76.6618 47.1063 80.3771M58.0888 95.7845C71.6556 92.7078 93.6876 86.0145 93.3734 75.0395C92.9677 60.8678 69.4215 67.2868 69.4215 67.2868C69.4215 67.2868 110.56 41.2525 98.172 29.0422C93.085 24.0281 85.0307 27.7038 77.304 33.7779M58.0888 95.7845C58.0888 95.7845 62.281 104.576 56.951 109.353C46.8991 118.363 -0.501451 77.0361 10.5263 65.0307C15.7234 59.3729 24.1821 65.9498 24.1821 65.9498M24.1821 65.9498C32.28 47.1941 50.0372 15.4263 63.1284 31.0964M63.1284 31.0964C70.7877 26.7537 75.635 30.2618 77.304 33.7779" stroke="#2F3237" stroke-width="4"/>
</svg>
