<svg width="128" height="80" viewBox="0 0 128 80" fill="none" xmlns="http://www.w3.org/2000/svg">
<path d="M124.419 59.8777C118.042 60.9795 111.553 59.0287 105.535 56.7541C105.496 56.7402 105.454 56.7346 105.412 56.7377C105.37 56.7408 105.329 56.7526 105.292 56.7723C105.255 56.7919 105.222 56.8191 105.196 56.852C105.17 56.8849 105.151 56.9228 105.14 56.9634C105.11 57.0833 105.119 57.2099 105.166 57.3243C105.213 57.4388 105.295 57.5352 105.401 57.5992C109.865 60.3206 114.836 62.1061 120.012 62.8473C94.1427 70.6385 58.9498 72.8183 41.1441 48.6312C48.9195 47.4109 56.9122 44.8836 62.5749 39.0945C65.9677 35.8445 68.2924 31.6399 69.2407 27.0384C71.6101 15.8156 63.3608 4.24915 51.8931 4.22941C31.0822 4.19387 23.9544 29.9883 33.4832 47.3951C22.4736 48.6233 11.2823 48.3942 0.256896 47.3122C0.197308 47.3055 0.137459 47.3224 0.0902044 47.3593C0.0429494 47.3962 0.0120565 47.4502 0.00416355 47.5097C-0.00312218 47.5579 -0.000829008 47.6071 0.0109092 47.6544C0.0226474 47.7018 0.0436007 47.7463 0.0725735 47.7856C0.101546 47.8248 0.13797 47.858 0.179761 47.8831C0.221552 47.9083 0.267891 47.925 0.316129 47.9322C11.6338 49.6263 23.1172 50.3252 34.5533 49.4328C51.3363 78.2323 91.9194 77.7111 118.567 64.9916C114.476 66.9463 112.276 73.5884 112.355 77.0753C112.348 77.188 112.386 77.2988 112.46 77.3843C112.533 77.4698 112.638 77.5233 112.75 77.5334C112.853 77.5345 112.955 77.5075 113.044 77.4554C113.133 77.4032 113.206 77.3278 113.255 77.2372C116.3 71.6771 120.383 67.5821 126.121 63.2619C128.475 61.4889 129.32 59.0326 124.419 59.8777ZM36.899 40.4845C31.3192 27.299 38.7392 7.5465 52.5644 8.62851C60.5768 9.25244 66.5831 16.4513 65.896 24.4598C65.4879 29.1125 63.4781 33.4796 60.2095 36.816C54.914 42.4906 47.1978 45.0218 39.7185 46.4553C38.5907 44.5594 37.6466 42.56 36.899 40.4845Z" fill="#FC9B00"/>
<path d="M39.6236 0.588457C38.2629 1.41592 36.8318 2.12157 35.3469 2.69718C35.2819 2.72231 35.2105 2.72527 35.1437 2.70561C35.0769 2.68595 35.0185 2.64478 34.9775 2.58848C34.9365 2.53219 34.9153 2.46392 34.9171 2.39431C34.9189 2.3247 34.9437 2.25765 34.9875 2.20357C35.5452 1.55344 36.2288 1.02303 36.9971 0.644314C37.7654 0.265603 38.6024 0.0464385 39.4577 5.86279e-05C39.5276 -0.0012873 39.5959 0.0205738 39.6521 0.0622186C39.7082 0.103863 39.7489 0.162948 39.7679 0.230212C39.7868 0.297476 39.7829 0.369125 39.7568 0.433949C39.7307 0.498773 39.6839 0.553114 39.6236 0.588457Z" fill="#FC9B00"/>
<path d="M31.884 5.25212C26.7504 11.2111 22.9516 18.8799 22.3711 27.4609C22.3711 27.6386 22.1065 27.6228 22.0631 27.4609C19.9069 19.0181 24.7839 9.29583 31.6866 5.03098C31.7167 5.01626 31.7509 5.0118 31.7838 5.01827C31.8168 5.02474 31.8467 5.04178 31.869 5.06681C31.8914 5.09184 31.9049 5.12349 31.9076 5.15694C31.9104 5.19039 31.9021 5.22382 31.884 5.25212Z" fill="#FC9B00"/>
<path d="M82.698 78.5205C86.1384 78.8335 89.6069 78.58 92.9652 77.7702C92.9886 77.767 93.0124 77.772 93.0326 77.7843C93.0528 77.7966 93.0681 77.8154 93.076 77.8377C93.0839 77.8599 93.0838 77.8842 93.0759 77.9065C93.068 77.9287 93.0526 77.9476 93.0324 77.9598C89.9878 79.7921 85.948 80.0132 82.6467 78.7219C82.6252 78.7109 82.6082 78.6929 82.5983 78.6709C82.5884 78.6489 82.5862 78.6242 82.5922 78.6008C82.5981 78.5774 82.6118 78.5567 82.6311 78.5422C82.6503 78.5276 82.6739 78.52 82.698 78.5205Z" fill="#FC9B00"/>
</svg>
