<svg width="171" height="34" viewBox="0 0 171 34" fill="none" xmlns="http://www.w3.org/2000/svg">
<path d="M17.1266 26.1904C22.2134 24.0684 24.6169 18.2244 22.4948 13.1376C20.3728 8.05074 14.5288 5.6473 9.44197 7.76934C4.35513 9.89138 1.9517 15.7353 4.07375 20.8222C6.19579 25.909 12.0397 28.3125 17.1266 26.1904Z" fill="#FF9D00"/>
<path d="M122.09 0C112.72 0 105.12 7.6 105.12 16.97C105.12 26.34 112.72 33.94 122.09 33.94C131.46 33.94 139.06 26.34 139.06 16.97C139.06 7.6 131.46 0 122.09 0ZM122.09 25.07C117.62 25.07 114 21.45 114 16.98C114 12.51 117.62 8.89 122.09 8.89C126.56 8.89 130.18 12.51 130.18 16.98C130.18 21.45 126.56 25.07 122.09 25.07Z" fill="#FF9D00"/>
<path d="M161.15 7.12C155.71 7.12 151.3 11.53 151.3 16.97C151.3 22.41 155.71 26.82 161.15 26.82C166.59 26.82 171 22.41 171 16.97C171 11.53 166.59 7.12 161.15 7.12ZM161.15 19.63C159.68 19.63 158.49 18.44 158.49 16.97C158.49 15.5 159.68 14.31 161.15 14.31C162.62 14.31 163.81 15.5 163.81 16.97C163.81 18.44 162.62 19.63 161.15 19.63Z" fill="#114A82"/>
<path d="M84.3797 8.23999C79.5497 8.23999 75.6396 12.15 75.6396 16.98C75.6396 21.81 79.5497 25.72 84.3797 25.72C89.2097 25.72 93.1197 21.81 93.1197 16.98C93.1197 12.15 89.2097 8.23999 84.3797 8.23999ZM84.3797 21.14C82.0797 21.14 80.2097 19.27 80.2097 16.97C80.2097 14.67 82.0797 12.8 84.3797 12.8C86.6797 12.8 88.5497 14.67 88.5497 16.97C88.5497 19.27 86.6797 21.14 84.3797 21.14Z" fill="#FFC200"/>
</svg>
