<svg width="396" height="331" viewBox="0 0 396 331" fill="none" xmlns="http://www.w3.org/2000/svg">
    <g>
        <rect x="244" y="150" width="177" height="142" rx="24" fill="white" stroke="#f9f9f9"
            shape-rendering="crispEdges" />
        <path
            d="M326.952 178V168.13H328.45L332.174 175.004H331.726L335.436 168.13H336.906V178H335.282V170.79H335.59L332.454 176.502H331.404L328.24 170.776H328.576V178H326.952ZM341.762 178.14C341.267 178.14 340.824 178.047 340.432 177.86C340.049 177.664 339.746 177.403 339.522 177.076C339.307 176.749 339.2 176.381 339.2 175.97C339.2 175.466 339.331 175.069 339.592 174.78C339.853 174.481 340.278 174.267 340.866 174.136C341.454 174.005 342.243 173.94 343.232 173.94H343.932V174.948H343.246C342.807 174.948 342.439 174.967 342.14 175.004C341.841 175.032 341.599 175.083 341.412 175.158C341.235 175.223 341.104 175.317 341.02 175.438C340.945 175.559 340.908 175.709 340.908 175.886C340.908 176.194 341.015 176.446 341.23 176.642C341.445 176.838 341.743 176.936 342.126 176.936C342.434 176.936 342.705 176.866 342.938 176.726C343.181 176.577 343.372 176.376 343.512 176.124C343.652 175.872 343.722 175.583 343.722 175.256V173.646C343.722 173.179 343.619 172.843 343.414 172.638C343.209 172.433 342.863 172.33 342.378 172.33C341.995 172.33 341.603 172.391 341.202 172.512C340.801 172.624 340.395 172.801 339.984 173.044L339.48 171.854C339.723 171.686 340.007 171.541 340.334 171.42C340.67 171.289 341.02 171.191 341.384 171.126C341.757 171.051 342.107 171.014 342.434 171.014C343.106 171.014 343.657 171.117 344.086 171.322C344.525 171.527 344.851 171.84 345.066 172.26C345.281 172.671 345.388 173.203 345.388 173.856V178H343.75V176.544H343.862C343.797 176.871 343.666 177.155 343.47 177.398C343.283 177.631 343.045 177.813 342.756 177.944C342.467 178.075 342.135 178.14 341.762 178.14ZM347.842 178V171.154H349.592V173.814H350.586L352.574 171.154H354.45L351.944 174.584L351.566 174.024C351.818 174.052 352.042 174.122 352.238 174.234C352.443 174.346 352.63 174.505 352.798 174.71C352.975 174.906 353.148 175.153 353.316 175.452L354.758 178H352.882L351.734 175.984C351.612 175.769 351.491 175.606 351.37 175.494C351.258 175.373 351.127 175.289 350.978 175.242C350.838 175.195 350.665 175.172 350.46 175.172H349.592V178H347.842ZM359.34 178.14C358.621 178.14 357.996 177.995 357.464 177.706C356.932 177.407 356.521 176.987 356.232 176.446C355.943 175.905 355.798 175.27 355.798 174.542C355.798 173.814 355.943 173.189 356.232 172.666C356.521 172.134 356.932 171.728 357.464 171.448C357.996 171.159 358.621 171.014 359.34 171.014C359.779 171.014 360.213 171.084 360.642 171.224C361.071 171.364 361.426 171.56 361.706 171.812L361.188 173.03C360.945 172.815 360.67 172.652 360.362 172.54C360.063 172.428 359.774 172.372 359.494 172.372C358.887 172.372 358.416 172.563 358.08 172.946C357.753 173.319 357.59 173.856 357.59 174.556C357.59 175.247 357.753 175.793 358.08 176.194C358.416 176.586 358.887 176.782 359.494 176.782C359.765 176.782 360.054 176.726 360.362 176.614C360.67 176.502 360.945 176.334 361.188 176.11L361.706 177.342C361.426 177.585 361.067 177.781 360.628 177.93C360.199 178.07 359.769 178.14 359.34 178.14ZM363.471 178V171.154H365.053V176.208H364.689L368.483 171.154H369.939V178H368.357V172.932H368.735L364.927 178H363.471ZM372.42 178V171.154H373.862L376.228 175.2L378.594 171.154H380.022V178H378.482V173.17H378.818L376.634 176.88H375.808L373.624 173.17H373.96V178H372.42ZM383.134 180.52L384.562 177.37V178.098L381.552 171.154H383.414L385.542 176.46H385.122L387.292 171.154H389.056L384.94 180.52H383.134ZM390.564 178V171.154H392.006L394.372 175.2L396.738 171.154H398.166V178H396.626V173.17H396.962L394.778 176.88H393.952L391.768 173.17H392.104V178H390.564Z"
            fill="#0A0502" />
        <path d="M264 207.5H461" stroke="#FFECE1" stroke-width="4" stroke-linecap="round" />
        <path d="M264 207.5H356.372" stroke="#FF7E3A" stroke-width="4" stroke-linecap="round" />
        <path fill-rule="evenodd" clip-rule="evenodd"
            d="M356.373 211C358.313 211 359.887 209.433 359.887 207.5C359.887 205.567 358.313 204 356.373 204C354.432 204 352.858 205.567 352.858 207.5C352.858 209.433 354.432 211 356.373 211Z"
            fill="#FF7E3A" stroke="#FFF2EB" stroke-width="0.75" />
        <path opacity="0.6"
            d="M266.329 225V219.038H266.305L264.464 220.347V219.272L266.319 217.954H267.398V225H266.329ZM269.884 223.911C269.527 223.911 269.244 223.628 269.244 223.271C269.244 222.915 269.527 222.632 269.884 222.632C270.24 222.632 270.523 222.915 270.523 223.271C270.523 223.628 270.24 223.911 269.884 223.911ZM269.884 220.352C269.527 220.352 269.244 220.073 269.244 219.712C269.244 219.355 269.527 219.072 269.884 219.072C270.24 219.072 270.523 219.355 270.523 219.712C270.523 220.073 270.24 220.352 269.884 220.352ZM271.686 220.02C271.686 218.75 272.706 217.822 274.107 217.822C275.45 217.822 276.451 218.677 276.451 219.795C276.451 220.615 276.012 221.226 274.981 222.28L273.219 224.053V224.077H276.563V225H271.744V224.258L274.288 221.665C275.147 220.771 275.372 220.4 275.372 219.849C275.372 219.224 274.806 218.726 274.073 218.726C273.302 218.726 272.721 219.282 272.721 220.015V220.029H271.686V220.02ZM279.317 225V219.038H279.293L277.452 220.347V219.272L279.308 217.954H280.387V225H279.317Z"
            fill="#847D79" />
        <path
            d="M284.24 253.22V262.79C284.24 264.75 282.11 265.98 280.41 265L276.26 262.61L272.11 260.21C270.41 259.23 270.41 256.78 272.11 255.8L276.26 253.4L280.41 251.01C282.11 250.03 284.24 251.25 284.24 253.22Z"
            fill="#FF7E3A" />
        <path
            d="M267.76 264.93C267.35 264.93 267.01 264.59 267.01 264.18V251.82C267.01 251.41 267.35 251.07 267.76 251.07C268.17 251.07 268.51 251.41 268.51 251.82V264.18C268.51 264.59 268.17 264.93 267.76 264.93Z"
            fill="#FF7E3A" />
        <path
            d="M326 254.34V261.66C326 263.16 324.37 264.1 323.07 263.35L319.9 261.52L316.73 259.69L316.24 259.41V256.59L316.73 256.31L319.9 254.48L323.07 252.65C324.37 251.9 326 252.84 326 254.34Z"
            fill="#FF7E3A" />
        <path
            d="M316.24 254.34V261.66C316.24 263.16 314.61 264.1 313.32 263.35L310.14 261.52L306.97 259.69C305.68 258.94 305.68 257.06 306.97 256.31L310.14 254.48L313.32 252.65C314.61 251.9 316.24 252.84 316.24 254.34Z"
            fill="#FF7E3A" />
        <g>
            <path
                d="M362 243C353.72 243 347 249.72 347 258C347 266.28 353.72 273 362 273C370.28 273 377 266.28 377 258C377 249.72 370.28 243 362 243ZM365.99 260.595L364.07 261.705L362.15 262.815C359.675 264.24 357.65 263.07 357.65 260.22V258V255.78C357.65 252.915 359.675 251.76 362.15 253.185L364.07 254.295L365.99 255.405C368.465 256.83 368.465 259.17 365.99 260.595Z"
                fill="#FF7E3A" />
        </g>
    </g>
    <g>
        <rect x="16" y="38" width="256" height="266" rx="12" fill="white" stroke="#f9f9f9"
            shape-rendering="crispEdges" />
        <path
            d="M42.7585 65.2727H45.0341L47.4375 71.1364H47.5398L49.9432 65.2727H52.2188V74H50.429V68.3196H50.3565L48.098 73.9574H46.8793L44.6207 68.2983H44.5483V74H42.7585V65.2727ZM55.5714 74.1236C55.1538 74.1236 54.7816 74.0511 54.4549 73.9062C54.1282 73.7585 53.8697 73.5412 53.6793 73.2543C53.4918 72.9645 53.3981 72.6037 53.3981 72.1719C53.3981 71.8082 53.4648 71.5028 53.5984 71.2557C53.7319 71.0085 53.9137 70.8097 54.1438 70.6591C54.3739 70.5085 54.6353 70.3949 54.9279 70.3182C55.2234 70.2415 55.533 70.1875 55.8569 70.1562C56.2376 70.1165 56.5444 70.0795 56.7773 70.0455C57.0103 70.0085 57.1793 69.9545 57.2844 69.8835C57.3896 69.8125 57.4421 69.7074 57.4421 69.5682V69.5426C57.4421 69.2727 57.3569 69.0639 57.1864 68.9162C57.0188 68.7685 56.7802 68.6946 56.4705 68.6946C56.1438 68.6946 55.8839 68.767 55.6907 68.9119C55.4975 69.054 55.3697 69.233 55.3072 69.4489L53.6282 69.3125C53.7134 68.9148 53.881 68.571 54.131 68.2812C54.381 67.9886 54.7035 67.7642 55.0984 67.608C55.4961 67.4489 55.9563 67.3693 56.479 67.3693C56.8427 67.3693 57.1907 67.4119 57.5231 67.4972C57.8583 67.5824 58.1552 67.7145 58.4137 67.8935C58.6751 68.0724 58.881 68.3026 59.0316 68.5838C59.1822 68.8622 59.2575 69.196 59.2575 69.5852V74H57.5359V73.0923H57.4847C57.3796 73.2969 57.239 73.4773 57.0629 73.6335C56.8867 73.7869 56.6751 73.9077 56.4279 73.9957C56.1808 74.081 55.8952 74.1236 55.5714 74.1236ZM56.0913 72.8707C56.3583 72.8707 56.5941 72.8182 56.7987 72.7131C57.0032 72.6051 57.1637 72.4602 57.2802 72.2784C57.3967 72.0966 57.4549 71.8906 57.4549 71.6605V70.9659C57.3981 71.0028 57.32 71.0369 57.2205 71.0682C57.1239 71.0966 57.0146 71.1236 56.8924 71.1491C56.7702 71.1719 56.6481 71.1932 56.5259 71.2131C56.4038 71.2301 56.293 71.2457 56.1935 71.2599C55.9805 71.2912 55.7944 71.3409 55.6353 71.4091C55.4762 71.4773 55.3526 71.5696 55.2646 71.6861C55.1765 71.7997 55.1325 71.9418 55.1325 72.1122C55.1325 72.3594 55.2219 72.5483 55.4009 72.679C55.5827 72.8068 55.8129 72.8707 56.0913 72.8707ZM60.6658 76.4545V67.4545H62.4556V68.554H62.5366C62.6161 68.3778 62.7312 68.1989 62.8817 68.017C63.0352 67.8324 63.234 67.679 63.4783 67.5568C63.7255 67.4318 64.0323 67.3693 64.3988 67.3693C64.8761 67.3693 65.3164 67.4943 65.7198 67.7443C66.1232 67.9915 66.4457 68.3651 66.6871 68.8651C66.9286 69.3622 67.0494 69.9858 67.0494 70.7358C67.0494 71.4659 66.9315 72.0824 66.6957 72.5852C66.4627 73.0852 66.1445 73.4645 65.7411 73.723C65.3406 73.9787 64.8917 74.1065 64.3945 74.1065C64.0423 74.1065 63.7425 74.0483 63.4954 73.9318C63.2511 73.8153 63.0508 73.669 62.8945 73.4929C62.7383 73.3139 62.619 73.1335 62.5366 72.9517H62.4812V76.4545H60.6658ZM62.4428 70.7273C62.4428 71.1165 62.4968 71.456 62.6048 71.7457C62.7127 72.0355 62.869 72.2614 63.0735 72.4233C63.2781 72.5824 63.5266 72.6619 63.8192 72.6619C64.1147 72.6619 64.3647 72.581 64.5692 72.419C64.7738 72.2543 64.9286 72.027 65.0337 71.7372C65.1417 71.4446 65.1957 71.108 65.1957 70.7273C65.1957 70.3494 65.1431 70.017 65.038 69.7301C64.9329 69.4432 64.7781 69.2187 64.5735 69.0568C64.369 68.8949 64.1175 68.8139 63.8192 68.8139C63.5238 68.8139 63.2738 68.892 63.0692 69.0483C62.8675 69.2045 62.7127 69.4261 62.6048 69.7131C62.4968 70 62.4428 70.3381 62.4428 70.7273ZM67.6257 68.8821V67.4545H73.5575V68.8821H71.4482V74H69.718V68.8821H67.6257ZM77.4183 74V72.6705L80.5249 69.794C80.7891 69.5384 81.0107 69.3082 81.1896 69.1037C81.3714 68.8991 81.5092 68.6989 81.603 68.5028C81.6967 68.304 81.7436 68.0895 81.7436 67.8594C81.7436 67.6037 81.6854 67.3835 81.5689 67.1989C81.4524 67.0114 81.2933 66.8679 81.0916 66.7685C80.8899 66.6662 80.6612 66.6151 80.4055 66.6151C80.1385 66.6151 79.9055 66.669 79.7067 66.777C79.5078 66.8849 79.3544 67.0398 79.2464 67.2415C79.1385 67.4432 79.0845 67.6832 79.0845 67.9616H77.3331C77.3331 67.3906 77.4624 66.8949 77.7209 66.4744C77.9794 66.054 78.3416 65.7287 78.8075 65.4986C79.2734 65.2685 79.8104 65.1534 80.4183 65.1534C81.0433 65.1534 81.5874 65.2642 82.0504 65.4858C82.5163 65.7045 82.8786 66.0085 83.1371 66.3977C83.3956 66.7869 83.5249 67.233 83.5249 67.7358C83.5249 68.0653 83.4595 68.3906 83.3288 68.7116C83.201 69.0327 82.9723 69.3892 82.6428 69.7812C82.3132 70.1705 81.8487 70.6378 81.2493 71.1832L79.9751 72.4318V72.4915H83.6399V74H77.4183ZM88.3988 74.1918C87.6658 74.1889 87.0352 74.0085 86.5067 73.6506C85.9812 73.2926 85.5763 72.7741 85.2923 72.0952C85.011 71.4162 84.8718 70.5994 84.8746 69.6449C84.8746 68.6932 85.0153 67.8821 85.2965 67.2116C85.5806 66.5412 85.9854 66.0312 86.511 65.6818C87.0394 65.3295 87.6687 65.1534 88.3988 65.1534C89.1289 65.1534 89.7567 65.3295 90.2823 65.6818C90.8107 66.0341 91.217 66.5455 91.5011 67.2159C91.7852 67.8835 91.9258 68.6932 91.9229 69.6449C91.9229 70.6023 91.7809 71.4205 91.4968 72.0994C91.2156 72.7784 90.8121 73.2969 90.2866 73.6548C89.761 74.0128 89.1317 74.1918 88.3988 74.1918ZM88.3988 72.6619C88.8988 72.6619 89.2979 72.4105 89.5962 71.9077C89.8945 71.4048 90.0423 70.6506 90.0394 69.6449C90.0394 68.983 89.9712 68.4318 89.8349 67.9915C89.7013 67.5511 89.511 67.2202 89.2638 66.9986C89.0195 66.777 88.7312 66.6662 88.3988 66.6662C87.9016 66.6662 87.5039 66.9148 87.2056 67.4119C86.9073 67.9091 86.7567 68.6534 86.7539 69.6449C86.7539 70.3153 86.8207 70.875 86.9542 71.3239C87.0906 71.7699 87.2823 72.1051 87.5295 72.3295C87.7766 72.5511 88.0664 72.6619 88.3988 72.6619ZM93.2386 74V72.6705L96.3452 69.794C96.6094 69.5384 96.831 69.3082 97.0099 69.1037C97.1918 68.8991 97.3295 68.6989 97.4233 68.5028C97.517 68.304 97.5639 68.0895 97.5639 67.8594C97.5639 67.6037 97.5057 67.3835 97.3892 67.1989C97.2727 67.0114 97.1136 66.8679 96.9119 66.7685C96.7102 66.6662 96.4815 66.6151 96.2259 66.6151C95.9588 66.6151 95.7259 66.669 95.527 66.777C95.3281 66.8849 95.1747 67.0398 95.0668 67.2415C94.9588 67.4432 94.9048 67.6832 94.9048 67.9616H93.1534C93.1534 67.3906 93.2827 66.8949 93.5412 66.4744C93.7997 66.054 94.1619 65.7287 94.6278 65.4986C95.0938 65.2685 95.6307 65.1534 96.2386 65.1534C96.8636 65.1534 97.4077 65.2642 97.8707 65.4858C98.3366 65.7045 98.6989 66.0085 98.9574 66.3977C99.2159 66.7869 99.3452 67.233 99.3452 67.7358C99.3452 68.0653 99.2798 68.3906 99.1491 68.7116C99.0213 69.0327 98.7926 69.3892 98.4631 69.7812C98.1335 70.1705 97.669 70.6378 97.0696 71.1832L95.7955 72.4318V72.4915H99.4602V74H93.2386ZM100.797 74V72.6705L103.904 69.794C104.168 69.5384 104.39 69.3082 104.569 69.1037C104.75 68.8991 104.888 68.6989 104.982 68.5028C105.076 68.304 105.123 68.0895 105.123 67.8594C105.123 67.6037 105.064 67.3835 104.948 67.1989C104.831 67.0114 104.672 66.8679 104.471 66.7685C104.269 66.6662 104.04 66.6151 103.784 66.6151C103.517 66.6151 103.284 66.669 103.086 66.777C102.887 66.8849 102.733 67.0398 102.625 67.2415C102.517 67.4432 102.463 67.6832 102.463 67.9616H100.712C100.712 67.3906 100.841 66.8949 101.1 66.4744C101.358 66.054 101.721 65.7287 102.186 65.4986C102.652 65.2685 103.189 65.1534 103.797 65.1534C104.422 65.1534 104.966 65.2642 105.429 65.4858C105.895 65.7045 106.257 66.0085 106.516 66.3977C106.775 66.7869 106.904 67.233 106.904 67.7358C106.904 68.0653 106.838 68.3906 106.708 68.7116C106.58 69.0327 106.351 69.3892 106.022 69.7812C105.692 70.1705 105.228 70.6378 104.628 71.1832L103.354 72.4318V72.4915H107.019V74H100.797Z"
            fill="#1F2024" />
        <mask id="mask0_238_994" style="mask-type:alpha" maskUnits="userSpaceOnUse" x="202" y="63"
            width="8" height="13">
            <path fill-rule="evenodd" clip-rule="evenodd"
                d="M209.274 63.9699C209.575 64.2628 209.575 64.7376 209.274 65.0305L204.68 69.5L209.274 73.9695C209.575 74.2624 209.575 74.7373 209.274 75.0301C208.973 75.323 208.485 75.323 208.184 75.0301L202.5 69.5L208.184 63.9699C208.485 63.677 208.973 63.677 209.274 63.9699Z"
                fill="#006FFD" />
        </mask>
        <g mask="url(#mask0_238_994)">
            <rect x="200" y="63.4993" width="11.9995" height="11.9995" fill="#8F9098" />
        </g>
        <mask id="mask1_238_994" style="mask-type:alpha" maskUnits="userSpaceOnUse" x="236" y="63"
            width="8" height="13">
            <path fill-rule="evenodd" clip-rule="evenodd"
                d="M236.726 63.9699C236.425 64.2628 236.425 64.7376 236.726 65.0305L241.32 69.5L236.726 73.9695C236.425 74.2624 236.425 74.7373 236.726 75.0301C237.027 75.323 237.515 75.323 237.816 75.0301L243.5 69.5L237.816 63.9699C237.515 63.677 237.027 63.677 236.726 63.9699Z"
                fill="#006FFD" />
        </mask>
        <g mask="url(#mask1_238_994)">
            <rect x="234" y="63.4993" width="11.9995" height="11.9995" fill="#8F9098" />
        </g>
        <path
            d="M47.1406 100.182V106H46.0951V101.057H43.5496V106H42.5042V100.182H47.1406ZM48.8012 106V100.182H49.8552V102.645H52.5512V100.182H53.608V106H52.5512V103.528H49.8552V106H48.8012Z"
            fill="#8F9098" />
        <path
            d="M75.1043 106V100.182H77.3316C77.7521 100.182 78.1015 100.248 78.3799 100.381C78.6602 100.511 78.8695 100.69 79.0077 100.918C79.1479 101.145 79.218 101.402 79.218 101.69C79.218 101.927 79.1725 102.13 79.0816 102.298C78.9907 102.465 78.8685 102.6 78.7151 102.705C78.5617 102.809 78.3903 102.884 78.2009 102.929V102.986C78.4074 102.997 78.6053 103.061 78.7947 103.176C78.986 103.29 79.1422 103.451 79.2634 103.659C79.3846 103.867 79.4452 104.119 79.4452 104.415C79.4452 104.716 79.3723 104.987 79.2265 105.227C79.0807 105.466 78.861 105.654 78.5674 105.793C78.2738 105.931 77.9045 106 77.4594 106H75.1043ZM76.1583 105.119H77.2918C77.6744 105.119 77.95 105.046 78.1185 104.901C78.289 104.753 78.3742 104.563 78.3742 104.332C78.3742 104.16 78.3316 104.005 78.2464 103.866C78.1612 103.726 78.0399 103.616 77.8827 103.537C77.7255 103.455 77.538 103.415 77.3202 103.415H76.1583V105.119ZM76.1583 102.656H77.2009C77.3827 102.656 77.5466 102.623 77.6924 102.557C77.8382 102.489 77.9528 102.393 78.0362 102.27C78.1214 102.145 78.164 101.997 78.164 101.827C78.164 101.601 78.0844 101.416 77.9254 101.27C77.7682 101.124 77.5343 101.051 77.2237 101.051H76.1583V102.656ZM80.5065 101.065V100.182H85.1485V101.065H83.3502V106H82.3048V101.065H80.5065Z"
            fill="#8F9098" />
        <path
            d="M111.807 102.145H110.745C110.714 101.971 110.658 101.816 110.577 101.682C110.496 101.545 110.394 101.43 110.273 101.335C110.152 101.241 110.014 101.17 109.858 101.122C109.705 101.073 109.539 101.048 109.361 101.048C109.045 101.048 108.764 101.128 108.52 101.287C108.276 101.444 108.085 101.675 107.946 101.98C107.808 102.283 107.739 102.653 107.739 103.091C107.739 103.536 107.808 103.911 107.946 104.216C108.086 104.519 108.278 104.748 108.52 104.903C108.764 105.057 109.044 105.134 109.358 105.134C109.532 105.134 109.695 105.111 109.847 105.065C110 105.018 110.138 104.949 110.259 104.858C110.382 104.767 110.485 104.655 110.568 104.523C110.654 104.39 110.712 104.239 110.745 104.068L111.807 104.074C111.767 104.35 111.681 104.61 111.549 104.852C111.418 105.095 111.246 105.309 111.034 105.494C110.822 105.678 110.574 105.822 110.29 105.926C110.006 106.028 109.691 106.08 109.344 106.08C108.833 106.08 108.376 105.961 107.975 105.724C107.573 105.488 107.257 105.146 107.026 104.699C106.795 104.252 106.679 103.716 106.679 103.091C106.679 102.464 106.796 101.928 107.029 101.483C107.262 101.036 107.579 100.694 107.98 100.457C108.382 100.221 108.836 100.102 109.344 100.102C109.668 100.102 109.969 100.148 110.247 100.239C110.526 100.33 110.774 100.463 110.992 100.639C111.21 100.813 111.389 101.027 111.529 101.281C111.671 101.533 111.764 101.821 111.807 102.145ZM113.172 106V100.182H115.354C115.801 100.182 116.176 100.265 116.479 100.432C116.784 100.598 117.014 100.828 117.169 101.119C117.327 101.409 117.405 101.739 117.405 102.108C117.405 102.481 117.327 102.812 117.169 103.102C117.012 103.392 116.78 103.62 116.473 103.787C116.167 103.952 115.789 104.034 115.34 104.034H113.894V103.168H115.198C115.459 103.168 115.673 103.122 115.84 103.031C116.007 102.94 116.13 102.815 116.209 102.656C116.291 102.497 116.331 102.314 116.331 102.108C116.331 101.902 116.291 101.72 116.209 101.562C116.13 101.405 116.006 101.283 115.837 101.196C115.67 101.107 115.455 101.062 115.192 101.062H114.226V106H113.172Z"
            fill="#8F9098" />
        <path
            d="M138.914 100.182H139.946V102.08C139.946 102.326 139.988 102.521 140.073 102.665C140.161 102.809 140.289 102.912 140.46 102.974C140.63 103.037 140.842 103.068 141.096 103.068C141.21 103.068 141.332 103.064 141.463 103.057C141.595 103.047 141.729 103.035 141.863 103.02C141.998 103.003 142.126 102.983 142.25 102.96C142.373 102.936 142.483 102.909 142.579 102.881V103.739C142.483 103.769 142.375 103.796 142.255 103.821C142.136 103.846 142.01 103.866 141.877 103.884C141.745 103.901 141.612 103.914 141.48 103.923C141.347 103.933 141.219 103.938 141.096 103.938C140.651 103.938 140.265 103.874 139.937 103.747C139.611 103.618 139.359 103.418 139.181 103.145C139.003 102.872 138.914 102.517 138.914 102.08V100.182ZM142.406 100.182H143.443V106H142.406V100.182ZM144.87 101.065V100.182H149.512V101.065H147.713V106H146.668V101.065H144.87Z"
            fill="#8F9098" />
        <path
            d="M175.141 100.182V106H174.095V101.057H171.55V106H170.504V100.182H175.141ZM176.801 106V100.182H177.855V102.645H180.551V100.182H181.608V106H180.551V103.528H177.855V106H176.801Z"
            fill="#8F9098" />
        <path
            d="M207.764 102.145H206.702C206.671 101.971 206.615 101.816 206.534 101.682C206.453 101.545 206.351 101.43 206.23 101.335C206.109 101.241 205.971 101.17 205.815 101.122C205.662 101.073 205.496 101.048 205.318 101.048C205.002 101.048 204.722 101.128 204.477 101.287C204.233 101.444 204.042 101.675 203.903 101.98C203.765 102.283 203.696 102.653 203.696 103.091C203.696 103.536 203.765 103.911 203.903 104.216C204.043 104.519 204.235 104.748 204.477 104.903C204.722 105.057 205.001 105.134 205.315 105.134C205.49 105.134 205.652 105.111 205.804 105.065C205.957 105.018 206.095 104.949 206.216 104.858C206.339 104.767 206.442 104.655 206.525 104.523C206.611 104.39 206.669 104.239 206.702 104.068L207.764 104.074C207.724 104.35 207.638 104.61 207.506 104.852C207.375 105.095 207.204 105.309 206.991 105.494C206.779 105.678 206.531 105.822 206.247 105.926C205.963 106.028 205.648 106.08 205.301 106.08C204.79 106.08 204.333 105.961 203.932 105.724C203.53 105.488 203.214 105.146 202.983 104.699C202.752 104.252 202.636 103.716 202.636 103.091C202.636 102.464 202.753 101.928 202.986 101.483C203.219 101.036 203.536 100.694 203.937 100.457C204.339 100.221 204.793 100.102 205.301 100.102C205.625 100.102 205.926 100.148 206.204 100.239C206.483 100.33 206.731 100.463 206.949 100.639C207.167 100.813 207.346 101.027 207.486 101.281C207.628 101.533 207.721 101.821 207.764 102.145ZM209.129 106V100.182H212.871V101.065H210.183V102.429H211.305C211.751 102.429 212.132 102.502 212.45 102.648C212.77 102.792 213.016 102.995 213.186 103.259C213.357 103.522 213.442 103.831 213.442 104.188C213.442 104.545 213.357 104.861 213.186 105.134C213.016 105.404 212.77 105.616 212.45 105.77C212.132 105.923 211.751 106 211.305 106H209.129ZM210.183 105.136H211.305C211.54 105.136 211.739 105.092 211.902 105.003C212.065 104.914 212.188 104.796 212.271 104.651C212.357 104.505 212.399 104.347 212.399 104.176C212.399 103.93 212.305 103.721 212.115 103.548C211.928 103.374 211.658 103.287 211.305 103.287H210.183V105.136Z"
            fill="#8F9098" />
        <path
            d="M234.772 106V100.182H237C237.42 100.182 237.769 100.248 238.048 100.381C238.328 100.511 238.537 100.69 238.676 100.918C238.816 101.145 238.886 101.402 238.886 101.69C238.886 101.927 238.84 102.13 238.75 102.298C238.659 102.465 238.537 102.6 238.383 102.705C238.23 102.809 238.058 102.884 237.869 102.929V102.986C238.075 102.997 238.273 103.061 238.463 103.176C238.654 103.29 238.81 103.451 238.931 103.659C239.053 103.867 239.113 104.119 239.113 104.415C239.113 104.716 239.04 104.987 238.894 105.227C238.749 105.466 238.529 105.654 238.235 105.793C237.942 105.931 237.572 106 237.127 106H234.772ZM235.826 105.119H236.96C237.342 105.119 237.618 105.046 237.787 104.901C237.957 104.753 238.042 104.563 238.042 104.332C238.042 104.16 238 104.005 237.914 103.866C237.829 103.726 237.708 103.616 237.551 103.537C237.394 103.455 237.206 103.415 236.988 103.415H235.826V105.119ZM235.826 102.656H236.869C237.051 102.656 237.215 102.623 237.36 102.557C237.506 102.489 237.621 102.393 237.704 102.27C237.789 102.145 237.832 101.997 237.832 101.827C237.832 101.601 237.752 101.416 237.593 101.27C237.436 101.124 237.202 101.051 236.892 101.051H235.826V102.656ZM245.41 102.145H244.348C244.317 101.971 244.262 101.816 244.18 101.682C244.099 101.545 243.997 101.43 243.876 101.335C243.755 101.241 243.617 101.17 243.461 101.122C243.308 101.073 243.142 101.048 242.964 101.048C242.648 101.048 242.368 101.128 242.123 101.287C241.879 101.444 241.688 101.675 241.549 101.98C241.411 102.283 241.342 102.653 241.342 103.091C241.342 103.536 241.411 103.911 241.549 104.216C241.69 104.519 241.881 104.748 242.123 104.903C242.368 105.057 242.647 105.134 242.961 105.134C243.136 105.134 243.298 105.111 243.45 105.065C243.603 105.018 243.741 104.949 243.862 104.858C243.985 104.767 244.088 104.655 244.172 104.523C244.257 104.39 244.316 104.239 244.348 104.068L245.41 104.074C245.37 104.35 245.284 104.61 245.152 104.852C245.021 105.095 244.85 105.309 244.638 105.494C244.425 105.678 244.177 105.822 243.893 105.926C243.609 106.028 243.294 106.08 242.947 106.08C242.436 106.08 241.979 105.961 241.578 105.724C241.176 105.488 240.86 105.146 240.629 104.699C240.398 104.252 240.282 103.716 240.282 103.091C240.282 102.464 240.399 101.928 240.632 101.483C240.865 101.036 241.182 100.694 241.584 100.457C241.985 100.221 242.44 100.102 242.947 100.102C243.271 100.102 243.572 100.148 243.851 100.239C244.129 100.33 244.377 100.463 244.595 100.639C244.813 100.813 244.992 101.027 245.132 101.281C245.274 101.533 245.367 101.821 245.41 102.145Z"
            fill="#8F9098" />
        <path
            d="M145.307 140.727V148H143.77V142.187H143.727L142.062 143.231V141.867L143.862 140.727H145.307Z"
            fill="#494A50" />
        <path
            d="M173.44 148V146.892L176.029 144.495C176.249 144.282 176.434 144.09 176.583 143.92C176.734 143.749 176.849 143.582 176.927 143.419C177.005 143.253 177.044 143.075 177.044 142.883C177.044 142.67 176.996 142.486 176.899 142.332C176.802 142.176 176.669 142.057 176.501 141.974C176.333 141.888 176.142 141.846 175.929 141.846C175.707 141.846 175.513 141.891 175.347 141.981C175.181 142.071 175.053 142.2 174.964 142.368C174.874 142.536 174.829 142.736 174.829 142.968H173.369C173.369 142.492 173.477 142.079 173.692 141.729C173.908 141.378 174.209 141.107 174.598 140.915C174.986 140.724 175.433 140.628 175.94 140.628C176.461 140.628 176.914 140.72 177.3 140.905C177.688 141.087 177.99 141.34 178.206 141.665C178.421 141.989 178.529 142.361 178.529 142.78C178.529 143.054 178.474 143.326 178.366 143.593C178.259 143.861 178.068 144.158 177.794 144.484C177.519 144.809 177.132 145.198 176.633 145.653L175.571 146.693V146.743H178.625V148H173.44Z"
            fill="#494A50" />
        <path
            d="M207.982 148.099C207.451 148.099 206.979 148.008 206.565 147.826C206.153 147.641 205.827 147.388 205.588 147.066C205.352 146.742 205.23 146.368 205.223 145.944H206.771C206.78 146.121 206.838 146.278 206.945 146.413C207.054 146.545 207.198 146.648 207.378 146.722C207.558 146.795 207.76 146.832 207.985 146.832C208.22 146.832 208.427 146.79 208.607 146.707C208.787 146.625 208.928 146.51 209.029 146.363C209.131 146.216 209.182 146.047 209.182 145.855C209.182 145.661 209.128 145.489 209.019 145.34C208.912 145.189 208.758 145.07 208.557 144.985C208.358 144.9 208.121 144.857 207.847 144.857H207.169V143.728H207.847C208.079 143.728 208.284 143.688 208.461 143.607C208.641 143.527 208.781 143.415 208.88 143.273C208.98 143.129 209.029 142.961 209.029 142.769C209.029 142.587 208.986 142.427 208.898 142.29C208.813 142.15 208.692 142.041 208.536 141.963C208.382 141.885 208.202 141.846 207.996 141.846C207.788 141.846 207.597 141.884 207.424 141.96C207.251 142.033 207.113 142.138 207.009 142.276C206.905 142.413 206.849 142.574 206.842 142.759H205.368C205.375 142.339 205.495 141.97 205.727 141.651C205.959 141.331 206.271 141.081 206.664 140.901C207.06 140.719 207.506 140.628 208.003 140.628C208.505 140.628 208.944 140.719 209.321 140.901C209.697 141.084 209.989 141.33 210.198 141.64C210.408 141.948 210.513 142.293 210.51 142.677C210.513 143.084 210.386 143.424 210.13 143.696C209.877 143.968 209.547 144.141 209.139 144.214V144.271C209.675 144.34 210.082 144.526 210.361 144.829C210.643 145.129 210.782 145.506 210.78 145.958C210.782 146.372 210.663 146.741 210.421 147.062C210.182 147.384 209.852 147.638 209.431 147.822C209.009 148.007 208.526 148.099 207.982 148.099Z"
            fill="#494A50" />
        <path
            d="M237.091 146.722V145.511L240.127 140.727H241.171V142.403H240.553L238.639 145.433V145.489H242.954V146.722H237.091ZM240.581 148V146.352L240.61 145.816V140.727H242.052V148H240.581Z"
            fill="#494A50" />
        <path
            d="M48.0231 180.099C47.5212 180.099 47.0737 180.007 46.6808 179.822C46.2901 179.638 45.98 179.383 45.7504 179.059C45.5207 178.735 45.4012 178.363 45.3917 177.944H46.8832C46.8997 178.226 47.0181 178.454 47.2383 178.629C47.4585 178.804 47.7201 178.892 48.0231 178.892C48.2646 178.892 48.4776 178.839 48.6623 178.732C48.8493 178.623 48.9949 178.473 49.0991 178.281C49.2056 178.087 49.2589 177.865 49.2589 177.614C49.2589 177.358 49.2044 177.133 49.0955 176.939C48.989 176.745 48.841 176.593 48.6516 176.484C48.4622 176.375 48.2456 176.32 48.0018 176.317C47.7887 176.317 47.5816 176.361 47.3803 176.449C47.1815 176.536 47.0264 176.656 46.9151 176.808L45.5479 176.562L45.8924 172.727H50.3384V173.984H47.1602L46.9719 175.806H47.0146C47.1424 175.626 47.3353 175.477 47.5934 175.359C47.8514 175.24 48.1403 175.181 48.4599 175.181C48.8978 175.181 49.2885 175.284 49.6317 175.49C49.975 175.696 50.2461 175.979 50.445 176.339C50.6438 176.696 50.7421 177.108 50.7397 177.575C50.7421 178.065 50.6284 178.5 50.3988 178.881C50.1715 179.26 49.8531 179.558 49.4435 179.776C49.0363 179.992 48.5629 180.099 48.0231 180.099Z"
            fill="#494A50" />
        <path
            d="M80.0799 180.099C79.7058 180.097 79.3448 180.034 78.9968 179.911C78.6512 179.788 78.341 179.588 78.0664 179.311C77.7918 179.034 77.574 178.667 77.413 178.21C77.2544 177.753 77.1751 177.192 77.1751 176.527C77.1774 175.916 77.2473 175.371 77.3846 174.89C77.5243 174.407 77.7231 173.997 77.9812 173.661C78.2416 173.325 78.5529 173.069 78.9151 172.894C79.2773 172.717 79.6834 172.628 80.1332 172.628C80.6185 172.628 81.047 172.723 81.4187 172.912C81.7904 173.099 82.0887 173.353 82.3136 173.675C82.5408 173.997 82.6781 174.358 82.7255 174.759H81.2092C81.15 174.505 81.0257 174.306 80.8363 174.162C80.6469 174.018 80.4125 173.945 80.1332 173.945C79.6597 173.945 79.2998 174.151 79.0536 174.563C78.8098 174.975 78.6855 175.535 78.6808 176.243H78.7305C78.8394 176.027 78.9862 175.844 79.1708 175.692C79.3578 175.539 79.5697 175.421 79.8065 175.341C80.0456 175.258 80.2977 175.217 80.5629 175.217C80.9937 175.217 81.3772 175.318 81.7134 175.522C82.0496 175.723 82.3147 176 82.5089 176.353C82.703 176.706 82.8001 177.109 82.8001 177.564C82.8001 178.056 82.6853 178.494 82.4556 178.878C82.2283 179.261 81.9099 179.562 81.5004 179.78C81.0932 179.995 80.6197 180.102 80.0799 180.099ZM80.0728 178.892C80.3095 178.892 80.5214 178.835 80.7085 178.722C80.8955 178.608 81.0423 178.454 81.1488 178.26C81.2553 178.066 81.3086 177.848 81.3086 177.607C81.3086 177.365 81.2553 177.148 81.1488 176.957C81.0446 176.765 80.9002 176.612 80.7156 176.499C80.5309 176.385 80.3202 176.328 80.0835 176.328C79.9059 176.328 79.7414 176.361 79.5898 176.428C79.4407 176.494 79.3093 176.586 79.1957 176.705C79.0844 176.823 78.9968 176.96 78.9329 177.116C78.869 177.27 78.837 177.435 78.837 177.61C78.837 177.844 78.8903 178.059 78.9968 178.253C79.1057 178.447 79.2525 178.602 79.4371 178.718C79.6242 178.834 79.8361 178.892 80.0728 178.892Z"
            fill="#494A50" />
        <path
            d="M109.903 180L112.918 174.034V173.984H109.406V172.727H114.509V174.002L111.491 180H109.903Z"
            fill="#494A50" />
        <path
            d="M143.997 180.099C143.45 180.099 142.964 180.011 142.537 179.833C142.114 179.653 141.781 179.408 141.54 179.098C141.298 178.788 141.177 178.436 141.177 178.043C141.177 177.74 141.246 177.462 141.383 177.209C141.523 176.953 141.712 176.741 141.951 176.573C142.191 176.403 142.458 176.294 142.754 176.246V176.197C142.366 176.119 142.051 175.93 141.809 175.632C141.568 175.331 141.447 174.982 141.447 174.585C141.447 174.208 141.557 173.873 141.777 173.58C141.998 173.284 142.299 173.052 142.683 172.884C143.069 172.713 143.507 172.628 143.997 172.628C144.487 172.628 144.924 172.713 145.307 172.884C145.693 173.054 145.996 173.287 146.216 173.583C146.437 173.877 146.548 174.21 146.55 174.585C146.548 174.985 146.425 175.334 146.181 175.632C145.937 175.93 145.624 176.119 145.243 176.197V176.246C145.535 176.294 145.799 176.403 146.035 176.573C146.274 176.741 146.464 176.953 146.603 177.209C146.745 177.462 146.818 177.74 146.82 178.043C146.818 178.436 146.696 178.788 146.454 179.098C146.213 179.408 145.879 179.653 145.453 179.833C145.029 180.011 144.544 180.099 143.997 180.099ZM143.997 178.97C144.241 178.97 144.454 178.926 144.636 178.839C144.818 178.749 144.96 178.626 145.062 178.469C145.166 178.311 145.218 178.129 145.218 177.923C145.218 177.712 145.165 177.526 145.059 177.365C144.952 177.202 144.808 177.074 144.625 176.982C144.443 176.887 144.234 176.839 143.997 176.839C143.763 176.839 143.553 176.887 143.368 176.982C143.184 177.074 143.038 177.202 142.932 177.365C142.827 177.526 142.775 177.712 142.775 177.923C142.775 178.129 142.826 178.311 142.928 178.469C143.03 178.626 143.173 178.749 143.358 178.839C143.542 178.926 143.755 178.97 143.997 178.97ZM143.997 175.721C144.2 175.721 144.382 175.679 144.54 175.597C144.699 175.514 144.823 175.399 144.913 175.252C145.003 175.105 145.048 174.936 145.048 174.744C145.048 174.555 145.003 174.389 144.913 174.247C144.823 174.103 144.7 173.99 144.544 173.91C144.388 173.827 144.205 173.786 143.997 173.786C143.791 173.786 143.609 173.827 143.45 173.91C143.291 173.99 143.167 174.103 143.077 174.247C142.99 174.389 142.946 174.555 142.946 174.744C142.946 174.936 142.991 175.105 143.081 175.252C143.171 175.399 143.295 175.514 143.454 175.597C143.612 175.679 143.793 175.721 143.997 175.721Z"
            fill="#494A50" />
        <path
            d="M175.92 172.628C176.294 172.628 176.654 172.691 177 172.816C177.348 172.942 177.658 173.142 177.93 173.416C178.205 173.691 178.421 174.055 178.58 174.51C178.741 174.962 178.823 175.517 178.825 176.175C178.825 176.793 178.755 177.345 178.615 177.83C178.478 178.313 178.28 178.724 178.022 179.062C177.764 179.401 177.453 179.659 177.088 179.837C176.724 180.012 176.317 180.099 175.867 180.099C175.382 180.099 174.953 180.006 174.581 179.819C174.21 179.629 173.91 179.373 173.683 179.048C173.458 178.722 173.322 178.355 173.275 177.947H174.791C174.85 178.213 174.974 178.419 175.164 178.565C175.353 178.71 175.587 178.782 175.867 178.782C176.34 178.782 176.7 178.576 176.946 178.164C177.193 177.75 177.317 177.183 177.319 176.463H177.27C177.161 176.676 177.014 176.86 176.829 177.013C176.645 177.165 176.433 177.282 176.194 177.365C175.957 177.448 175.705 177.489 175.437 177.489C175.009 177.489 174.626 177.389 174.29 177.188C173.954 176.986 173.689 176.709 173.495 176.357C173.301 176.004 173.203 175.601 173.203 175.149C173.201 174.661 173.314 174.227 173.541 173.846C173.768 173.465 174.085 173.166 174.493 172.951C174.902 172.733 175.378 172.625 175.92 172.628ZM175.931 173.835C175.692 173.835 175.479 173.892 175.292 174.006C175.107 174.119 174.96 174.272 174.851 174.464C174.745 174.656 174.693 174.87 174.695 175.107C174.695 175.346 174.747 175.561 174.851 175.753C174.958 175.942 175.102 176.094 175.284 176.207C175.469 176.319 175.68 176.374 175.917 176.374C176.094 176.374 176.259 176.341 176.41 176.275C176.562 176.209 176.693 176.117 176.804 176.001C176.918 175.883 177.007 175.747 177.071 175.593C177.135 175.439 177.167 175.276 177.167 175.103C177.164 174.873 177.11 174.663 177.003 174.471C176.897 174.279 176.75 174.125 176.563 174.009C176.376 173.893 176.165 173.835 175.931 173.835Z"
            fill="#494A50" />
        <path
            d="M205.865 172.727V180H204.327V174.187H204.285L202.619 175.231V173.867L204.42 172.727H205.865ZM210.445 180.16C209.834 180.157 209.309 180.007 208.868 179.709C208.43 179.411 208.093 178.978 207.856 178.413C207.622 177.847 207.506 177.166 207.508 176.371C207.508 175.578 207.625 174.902 207.86 174.343C208.096 173.784 208.434 173.359 208.872 173.068C209.312 172.775 209.837 172.628 210.445 172.628C211.053 172.628 211.577 172.775 212.015 173.068C212.455 173.362 212.793 173.788 213.03 174.347C213.267 174.903 213.384 175.578 213.382 176.371C213.382 177.169 213.263 177.85 213.027 178.416C212.792 178.982 212.456 179.414 212.018 179.712C211.58 180.011 211.056 180.16 210.445 180.16ZM210.445 178.885C210.862 178.885 211.194 178.675 211.443 178.256C211.691 177.837 211.815 177.209 211.812 176.371C211.812 175.819 211.755 175.36 211.642 174.993C211.53 174.626 211.372 174.35 211.166 174.165C210.962 173.981 210.722 173.888 210.445 173.888C210.031 173.888 209.699 174.096 209.451 174.51C209.202 174.924 209.077 175.545 209.074 176.371C209.074 176.929 209.13 177.396 209.241 177.77C209.355 178.142 209.515 178.421 209.721 178.608C209.926 178.793 210.168 178.885 210.445 178.885Z"
            fill="#494A50" />
        <path
            d="M238.861 172.727V180H237.323V174.187H237.281L235.615 175.231V173.867L237.416 172.727H238.861ZM243.754 172.727V180H242.216V174.187H242.173L240.508 175.231V173.867L242.308 172.727H243.754Z"
            fill="#494A50" />
        <path
            d="M46.1578 204.727V212H44.6202V206.187H44.5776L42.9121 207.231V205.867L44.7125 204.727H46.1578ZM47.8864 212V210.892L50.4751 208.495C50.6953 208.282 50.88 208.09 51.0291 207.92C51.1806 207.749 51.2955 207.582 51.3736 207.419C51.4517 207.253 51.4908 207.075 51.4908 206.883C51.4908 206.67 51.4422 206.486 51.3452 206.332C51.2481 206.176 51.1155 206.057 50.9474 205.974C50.7794 205.888 50.5888 205.846 50.3757 205.846C50.1532 205.846 49.959 205.891 49.7933 205.981C49.6276 206.071 49.4998 206.2 49.4098 206.368C49.3198 206.536 49.2749 206.736 49.2749 206.968H47.8153C47.8153 206.492 47.9231 206.079 48.1385 205.729C48.3539 205.378 48.6558 205.107 49.044 204.915C49.4323 204.724 49.8797 204.628 50.3864 204.628C50.9072 204.628 51.3606 204.72 51.7464 204.905C52.1347 205.087 52.4366 205.34 52.652 205.665C52.8674 205.989 52.9751 206.361 52.9751 206.78C52.9751 207.054 52.9207 207.326 52.8118 207.593C52.7053 207.861 52.5147 208.158 52.2401 208.484C51.9654 208.809 51.5784 209.198 51.0788 209.653L50.017 210.693V210.743H53.071V212H47.8864Z"
            fill="#494A50" />
        <path
            d="M78.0114 204.727V212H76.4737V206.187H76.4311L74.7656 207.231V205.867L76.5661 204.727H78.0114ZM82.4281 212.099C81.8978 212.099 81.4255 212.008 81.0112 211.826C80.5993 211.641 80.2737 211.388 80.0346 211.066C79.7979 210.742 79.676 210.368 79.6689 209.944H81.2172C81.2266 210.121 81.2846 210.278 81.3912 210.413C81.5001 210.545 81.6445 210.648 81.8244 210.722C82.0043 210.795 82.2067 210.832 82.4316 210.832C82.666 210.832 82.8732 210.79 83.0531 210.707C83.233 210.625 83.3739 210.51 83.4757 210.363C83.5775 210.216 83.6284 210.047 83.6284 209.855C83.6284 209.661 83.5739 209.489 83.465 209.34C83.3585 209.189 83.2046 209.07 83.0034 208.985C82.8045 208.9 82.5678 208.857 82.2931 208.857H81.6149V207.728H82.2931C82.5252 207.728 82.7299 207.688 82.9075 207.607C83.0874 207.527 83.2271 207.415 83.3265 207.273C83.426 207.129 83.4757 206.961 83.4757 206.769C83.4757 206.587 83.4319 206.427 83.3443 206.29C83.2591 206.15 83.1383 206.041 82.9821 205.963C82.8282 205.885 82.6483 205.846 82.4423 205.846C82.234 205.846 82.0434 205.884 81.8706 205.96C81.6977 206.033 81.5592 206.138 81.4551 206.276C81.3509 206.413 81.2953 206.574 81.2882 206.759H79.8145C79.8216 206.339 79.9411 205.97 80.1731 205.651C80.4051 205.331 80.7176 205.081 81.1106 204.901C81.506 204.719 81.9522 204.628 82.4494 204.628C82.9513 204.628 83.3904 204.719 83.7669 204.901C84.1433 205.084 84.4357 205.33 84.644 205.64C84.8547 205.948 84.9589 206.293 84.9565 206.677C84.9589 207.084 84.8322 207.424 84.5765 207.696C84.3232 207.968 83.993 208.141 83.5858 208.214V208.271C84.1208 208.34 84.528 208.526 84.8074 208.829C85.0891 209.129 85.2288 209.506 85.2264 209.958C85.2288 210.372 85.1092 210.741 84.8677 211.062C84.6286 211.384 84.2984 211.638 83.877 211.822C83.4556 212.007 82.9726 212.099 82.4281 212.099Z"
            fill="#494A50" />
        <path
            d="M109.919 204.727V212H108.381V206.187H108.338L106.673 207.231V205.867L108.473 204.727H109.919ZM111.537 210.722V209.511L114.573 204.727H115.617V206.403H114.999L113.085 209.433V209.489H117.4V210.722H111.537ZM115.028 212V210.352L115.056 209.816V204.727H116.498V212H115.028Z"
            fill="#494A50" />
        <rect x="128" y="192" width="32" height="32" rx="16" fill="#F8F9FE" />
        <path
            d="M142.085 204.727V212H140.547V206.187H140.504L138.839 207.231V205.867L140.639 204.727H142.085ZM146.469 212.099C145.967 212.099 145.52 212.007 145.127 211.822C144.736 211.638 144.426 211.383 144.197 211.059C143.967 210.735 143.847 210.363 143.838 209.944H145.329C145.346 210.226 145.464 210.454 145.685 210.629C145.905 210.804 146.166 210.892 146.469 210.892C146.711 210.892 146.924 210.839 147.109 210.732C147.296 210.623 147.441 210.473 147.545 210.281C147.652 210.087 147.705 209.865 147.705 209.614C147.705 209.358 147.651 209.133 147.542 208.939C147.435 208.745 147.287 208.593 147.098 208.484C146.909 208.375 146.692 208.32 146.448 208.317C146.235 208.317 146.028 208.361 145.827 208.449C145.628 208.536 145.473 208.656 145.361 208.808L143.994 208.562L144.339 204.727H148.785V205.984H145.606L145.418 207.806H145.461C145.589 207.626 145.782 207.477 146.04 207.359C146.298 207.24 146.587 207.181 146.906 207.181C147.344 207.181 147.735 207.284 148.078 207.49C148.421 207.696 148.692 207.979 148.891 208.339C149.09 208.696 149.188 209.108 149.186 209.575C149.188 210.065 149.075 210.5 148.845 210.881C148.618 211.26 148.299 211.558 147.89 211.776C147.483 211.992 147.009 212.099 146.469 212.099Z"
            fill="#494A50" />
        <path
            d="M174.006 204.727V212H172.469V206.187H172.426L170.761 207.231V205.867L172.561 204.727H174.006ZM178.526 212.099C178.152 212.097 177.791 212.034 177.443 211.911C177.097 211.788 176.787 211.588 176.513 211.311C176.238 211.034 176.02 210.667 175.859 210.21C175.701 209.753 175.621 209.192 175.621 208.527C175.624 207.916 175.694 207.371 175.831 206.89C175.971 206.407 176.169 205.997 176.427 205.661C176.688 205.325 176.999 205.069 177.361 204.894C177.724 204.717 178.13 204.628 178.579 204.628C179.065 204.628 179.493 204.723 179.865 204.912C180.237 205.099 180.535 205.353 180.76 205.675C180.987 205.997 181.124 206.358 181.172 206.759H179.655C179.596 206.505 179.472 206.306 179.283 206.162C179.093 206.018 178.859 205.945 178.579 205.945C178.106 205.945 177.746 206.151 177.5 206.563C177.256 206.975 177.132 207.535 177.127 208.243H177.177C177.286 208.027 177.432 207.844 177.617 207.692C177.804 207.539 178.016 207.421 178.253 207.341C178.492 207.258 178.744 207.217 179.009 207.217C179.44 207.217 179.824 207.318 180.16 207.522C180.496 207.723 180.761 208 180.955 208.353C181.149 208.706 181.246 209.109 181.246 209.564C181.246 210.056 181.132 210.494 180.902 210.878C180.675 211.261 180.356 211.562 179.947 211.78C179.539 211.995 179.066 212.102 178.526 212.099ZM178.519 210.892C178.756 210.892 178.968 210.835 179.155 210.722C179.342 210.608 179.489 210.454 179.595 210.26C179.702 210.066 179.755 209.848 179.755 209.607C179.755 209.365 179.702 209.148 179.595 208.957C179.491 208.765 179.347 208.612 179.162 208.499C178.977 208.385 178.766 208.328 178.53 208.328C178.352 208.328 178.188 208.361 178.036 208.428C177.887 208.494 177.756 208.586 177.642 208.705C177.531 208.823 177.443 208.96 177.379 209.116C177.315 209.27 177.283 209.435 177.283 209.61C177.283 209.844 177.337 210.059 177.443 210.253C177.552 210.447 177.699 210.602 177.883 210.718C178.07 210.834 178.282 210.892 178.519 210.892Z"
            fill="#494A50" />
        <path
            d="M206.334 204.727V212H204.796V206.187H204.753L203.088 207.231V205.867L204.888 204.727H206.334ZM208.35 212L211.365 206.034V205.984H207.853V204.727H212.956V206.002L209.937 212H208.35Z"
            fill="#494A50" />
        <path
            d="M238.002 204.727V212H236.464V206.187H236.421L234.756 207.231V205.867L236.556 204.727H238.002ZM242.443 212.099C241.896 212.099 241.41 212.011 240.984 211.833C240.56 211.653 240.227 211.408 239.986 211.098C239.744 210.788 239.624 210.436 239.624 210.043C239.624 209.74 239.692 209.462 239.83 209.209C239.969 208.953 240.159 208.741 240.398 208.573C240.637 208.403 240.904 208.294 241.2 208.246V208.197C240.812 208.119 240.497 207.93 240.256 207.632C240.014 207.331 239.893 206.982 239.893 206.585C239.893 206.208 240.004 205.873 240.224 205.58C240.444 205.284 240.746 205.052 241.129 204.884C241.515 204.713 241.953 204.628 242.443 204.628C242.933 204.628 243.37 204.713 243.754 204.884C244.139 205.054 244.442 205.287 244.663 205.583C244.883 205.877 244.994 206.21 244.996 206.585C244.994 206.985 244.871 207.334 244.627 207.632C244.383 207.93 244.071 208.119 243.69 208.197V208.246C243.981 208.294 244.245 208.403 244.482 208.573C244.721 208.741 244.91 208.953 245.05 209.209C245.192 209.462 245.264 209.74 245.266 210.043C245.264 210.436 245.142 210.788 244.901 211.098C244.659 211.408 244.325 211.653 243.899 211.833C243.475 212.011 242.99 212.099 242.443 212.099ZM242.443 210.97C242.687 210.97 242.9 210.926 243.082 210.839C243.265 210.749 243.407 210.626 243.509 210.469C243.613 210.311 243.665 210.129 243.665 209.923C243.665 209.712 243.612 209.526 243.505 209.365C243.398 209.202 243.254 209.074 243.072 208.982C242.889 208.887 242.68 208.839 242.443 208.839C242.209 208.839 241.999 208.887 241.815 208.982C241.63 209.074 241.484 209.202 241.378 209.365C241.274 209.526 241.222 209.712 241.222 209.923C241.222 210.129 241.272 210.311 241.374 210.469C241.476 210.626 241.619 210.749 241.804 210.839C241.989 210.926 242.202 210.97 242.443 210.97ZM242.443 207.721C242.647 207.721 242.828 207.679 242.987 207.597C243.145 207.514 243.269 207.399 243.359 207.252C243.449 207.105 243.494 206.936 243.494 206.744C243.494 206.555 243.449 206.389 243.359 206.247C243.269 206.103 243.146 205.99 242.99 205.91C242.834 205.827 242.652 205.786 242.443 205.786C242.237 205.786 242.055 205.827 241.896 205.91C241.738 205.99 241.613 206.103 241.523 206.247C241.436 206.389 241.392 206.555 241.392 206.744C241.392 206.936 241.437 207.105 241.527 207.252C241.617 207.399 241.741 207.514 241.9 207.597C242.058 207.679 242.24 207.721 242.443 207.721Z"
            fill="#494A50" />
        <path
            d="M46.0065 236.727V244H44.4688V238.187H44.4262L42.7607 239.231V237.867L44.5612 236.727H46.0065ZM50.3664 236.628C50.7404 236.628 51.1003 236.691 51.4459 236.816C51.7939 236.942 52.1041 237.142 52.3763 237.416C52.651 237.691 52.8676 238.055 53.0262 238.51C53.1872 238.962 53.2689 239.517 53.2712 240.175C53.2712 240.793 53.2014 241.345 53.0617 241.83C52.9244 242.313 52.7267 242.724 52.4687 243.062C52.2106 243.401 51.8993 243.659 51.5347 243.837C51.1701 244.012 50.7629 244.099 50.3131 244.099C49.8278 244.099 49.3993 244.006 49.0276 243.819C48.6559 243.629 48.3564 243.373 48.1292 243.048C47.9043 242.722 47.7681 242.355 47.7208 241.947H49.2371C49.2963 242.213 49.4206 242.419 49.61 242.565C49.7994 242.71 50.0338 242.782 50.3131 242.782C50.7866 242.782 51.1465 242.576 51.3927 242.164C51.6389 241.75 51.7632 241.183 51.7655 240.463H51.7158C51.6069 240.676 51.4601 240.86 51.2755 241.013C51.0908 241.165 50.8789 241.282 50.6398 241.365C50.4031 241.448 50.151 241.489 49.8834 241.489C49.4549 241.489 49.0726 241.389 48.7364 241.188C48.4002 240.986 48.1351 240.709 47.941 240.357C47.7468 240.004 47.6498 239.601 47.6498 239.149C47.6474 238.661 47.7599 238.227 47.9871 237.846C48.2144 237.465 48.5316 237.166 48.9388 236.951C49.3484 236.733 49.8242 236.625 50.3664 236.628ZM50.377 237.835C50.1379 237.835 49.9249 237.892 49.7378 238.006C49.5532 238.119 49.4064 238.272 49.2975 238.464C49.191 238.656 49.1389 238.87 49.1412 239.107C49.1412 239.346 49.1933 239.561 49.2975 239.753C49.404 239.942 49.5484 240.094 49.7307 240.207C49.9154 240.319 50.1261 240.374 50.3628 240.374C50.5404 240.374 50.7049 240.341 50.8564 240.275C51.008 240.209 51.1394 240.117 51.2506 240.001C51.3643 239.883 51.453 239.747 51.517 239.593C51.5809 239.439 51.6128 239.276 51.6128 239.103C51.6105 238.873 51.556 238.663 51.4495 238.471C51.343 238.279 51.1962 238.125 51.0091 238.009C50.8221 237.893 50.6114 237.835 50.377 237.835Z"
            fill="#494A50" />
        <path
            d="M73.9977 244V242.892L76.5865 240.495C76.8066 240.282 76.9913 240.09 77.1404 239.92C77.292 239.749 77.4068 239.582 77.4849 239.419C77.563 239.253 77.6021 239.075 77.6021 238.883C77.6021 238.67 77.5536 238.486 77.4565 238.332C77.3594 238.176 77.2269 238.057 77.0588 237.974C76.8907 237.888 76.7001 237.846 76.487 237.846C76.2645 237.846 76.0704 237.891 75.9047 237.981C75.7389 238.071 75.6111 238.2 75.5211 238.368C75.4312 238.536 75.3862 238.736 75.3862 238.968H73.9267C73.9267 238.492 74.0344 238.079 74.2498 237.729C74.4653 237.378 74.7671 237.107 75.1554 236.915C75.5436 236.724 75.9911 236.628 76.4977 236.628C77.0185 236.628 77.4719 236.72 77.8578 236.905C78.246 237.087 78.5479 237.34 78.7633 237.665C78.9788 237.989 79.0865 238.361 79.0865 238.78C79.0865 239.054 79.032 239.326 78.9231 239.593C78.8166 239.861 78.626 240.158 78.3514 240.484C78.0768 240.809 77.6897 241.198 77.1902 241.653L76.1284 242.693V242.743H79.1824V244H73.9977ZM83.1481 244.16C82.5373 244.157 82.0117 244.007 81.5714 243.709C81.1334 243.411 80.796 242.978 80.5593 242.413C80.3249 241.847 80.2089 241.166 80.2113 240.371C80.2113 239.578 80.3285 238.902 80.5629 238.343C80.7996 237.784 81.137 237.359 81.5749 237.068C82.0153 236.775 82.5397 236.628 83.1481 236.628C83.7565 236.628 84.2797 236.775 84.7177 237.068C85.158 237.362 85.4966 237.788 85.7333 238.347C85.9701 238.903 86.0872 239.578 86.0849 240.371C86.0849 241.169 85.9665 241.85 85.7298 242.416C85.4954 242.982 85.1592 243.414 84.7212 243.712C84.2833 244.011 83.7589 244.16 83.1481 244.16ZM83.1481 242.885C83.5647 242.885 83.8974 242.675 84.146 242.256C84.3945 241.837 84.5176 241.209 84.5153 240.371C84.5153 239.819 84.4585 239.36 84.3448 238.993C84.2335 238.626 84.0749 238.35 83.869 238.165C83.6654 237.981 83.4251 237.888 83.1481 237.888C82.7338 237.888 82.4023 238.096 82.1538 238.51C81.9052 238.924 81.7797 239.545 81.7773 240.371C81.7773 240.929 81.833 241.396 81.9442 241.77C82.0579 242.142 82.2177 242.421 82.4237 242.608C82.6296 242.793 82.8711 242.885 83.1481 242.885Z"
            fill="#494A50" />
        <path
            d="M106.994 244V242.892L109.583 240.495C109.803 240.282 109.987 240.09 110.137 239.92C110.288 239.749 110.403 239.582 110.481 239.419C110.559 239.253 110.598 239.075 110.598 238.883C110.598 238.67 110.55 238.486 110.453 238.332C110.356 238.176 110.223 238.057 110.055 237.974C109.887 237.888 109.696 237.846 109.483 237.846C109.261 237.846 109.066 237.891 108.901 237.981C108.735 238.071 108.607 238.2 108.517 238.368C108.427 238.536 108.382 238.736 108.382 238.968H106.923C106.923 238.492 107.03 238.079 107.246 237.729C107.461 237.378 107.763 237.107 108.151 236.915C108.54 236.724 108.987 236.628 109.494 236.628C110.015 236.628 110.468 236.72 110.854 236.905C111.242 237.087 111.544 237.34 111.759 237.665C111.975 237.989 112.083 238.361 112.083 238.78C112.083 239.054 112.028 239.326 111.919 239.593C111.813 239.861 111.622 240.158 111.347 240.484C111.073 240.809 110.686 241.198 110.186 241.653L109.124 242.693V242.743H112.178V244H106.994ZM116.457 236.727V244H114.919V238.187H114.876L113.211 239.231V237.867L115.011 236.727H116.457Z"
            fill="#494A50" />
        <path
            d="M138.291 244V242.892L140.879 240.495C141.1 240.282 141.284 240.09 141.433 239.92C141.585 239.749 141.7 239.582 141.778 239.419C141.856 239.253 141.895 239.075 141.895 238.883C141.895 238.67 141.847 238.486 141.749 238.332C141.652 238.176 141.52 238.057 141.352 237.974C141.184 237.888 140.993 237.846 140.78 237.846C140.557 237.846 140.363 237.891 140.198 237.981C140.032 238.071 139.904 238.2 139.814 238.368C139.724 238.536 139.679 238.736 139.679 238.968H138.22C138.22 238.492 138.327 238.079 138.543 237.729C138.758 237.378 139.06 237.107 139.448 236.915C139.837 236.724 140.284 236.628 140.791 236.628C141.311 236.628 141.765 236.72 142.151 236.905C142.539 237.087 142.841 237.34 143.056 237.665C143.272 237.989 143.379 238.361 143.379 238.78C143.379 239.054 143.325 239.326 143.216 239.593C143.11 239.861 142.919 240.158 142.644 240.484C142.37 240.809 141.983 241.198 141.483 241.653L140.421 242.693V242.743H143.475V244H138.291ZM144.589 244V242.892L147.178 240.495C147.398 240.282 147.583 240.09 147.732 239.92C147.884 239.749 147.999 239.582 148.077 239.419C148.155 239.253 148.194 239.075 148.194 238.883C148.194 238.67 148.145 238.486 148.048 238.332C147.951 238.176 147.819 238.057 147.651 237.974C147.482 237.888 147.292 237.846 147.079 237.846C146.856 237.846 146.662 237.891 146.496 237.981C146.331 238.071 146.203 238.2 146.113 238.368C146.023 238.536 145.978 238.736 145.978 238.968H144.518C144.518 238.492 144.626 238.079 144.842 237.729C145.057 237.378 145.359 237.107 145.747 236.915C146.135 236.724 146.583 236.628 147.089 236.628C147.61 236.628 148.064 236.72 148.45 236.905C148.838 237.087 149.14 237.34 149.355 237.665C149.571 237.989 149.678 238.361 149.678 238.78C149.678 239.054 149.624 239.326 149.515 239.593C149.408 239.861 149.218 240.158 148.943 240.484C148.669 240.809 148.281 241.198 147.782 241.653L146.72 242.693V242.743H149.774V244H144.589Z"
            fill="#494A50" />
        <path
            d="M170.144 244V242.892L172.733 240.495C172.953 240.282 173.138 240.09 173.287 239.92C173.438 239.749 173.553 239.582 173.631 239.419C173.71 239.253 173.749 239.075 173.749 238.883C173.749 238.67 173.7 238.486 173.603 238.332C173.506 238.176 173.373 238.057 173.205 237.974C173.037 237.888 172.847 237.846 172.634 237.846C172.411 237.846 172.217 237.891 172.051 237.981C171.885 238.071 171.758 238.2 171.668 238.368C171.578 238.536 171.533 238.736 171.533 238.968H170.073C170.073 238.492 170.181 238.079 170.396 237.729C170.612 237.378 170.914 237.107 171.302 236.915C171.69 236.724 172.138 236.628 172.644 236.628C173.165 236.628 173.618 236.72 174.004 236.905C174.393 237.087 174.694 237.34 174.91 237.665C175.125 237.989 175.233 238.361 175.233 238.78C175.233 239.054 175.179 239.326 175.07 239.593C174.963 239.861 174.772 240.158 174.498 240.484C174.223 240.809 173.836 241.198 173.337 241.653L172.275 242.693V242.743H175.329V244H170.144ZM179.131 244.099C178.601 244.099 178.129 244.008 177.714 243.826C177.302 243.641 176.977 243.388 176.738 243.066C176.501 242.742 176.379 242.368 176.372 241.944H177.92C177.93 242.121 177.988 242.278 178.094 242.413C178.203 242.545 178.348 242.648 178.528 242.722C178.707 242.795 178.91 242.832 179.135 242.832C179.369 242.832 179.576 242.79 179.756 242.707C179.936 242.625 180.077 242.51 180.179 242.363C180.281 242.216 180.331 242.047 180.331 241.855C180.331 241.661 180.277 241.489 180.168 241.34C180.062 241.189 179.908 241.07 179.706 240.985C179.508 240.9 179.271 240.857 178.996 240.857H178.318V239.728H178.996C179.228 239.728 179.433 239.688 179.611 239.607C179.791 239.527 179.93 239.415 180.03 239.273C180.129 239.129 180.179 238.961 180.179 238.769C180.179 238.587 180.135 238.427 180.047 238.29C179.962 238.15 179.841 238.041 179.685 237.963C179.531 237.885 179.351 237.846 179.145 237.846C178.937 237.846 178.747 237.884 178.574 237.96C178.401 238.033 178.262 238.138 178.158 238.276C178.054 238.413 177.998 238.574 177.991 238.759H176.518C176.525 238.339 176.644 237.97 176.876 237.651C177.108 237.331 177.421 237.081 177.814 236.901C178.209 236.719 178.655 236.628 179.153 236.628C179.654 236.628 180.094 236.719 180.47 236.901C180.846 237.084 181.139 237.33 181.347 237.64C181.558 237.948 181.662 238.293 181.66 238.677C181.662 239.084 181.535 239.424 181.28 239.696C181.026 239.968 180.696 240.141 180.289 240.214V240.271C180.824 240.34 181.231 240.526 181.51 240.829C181.792 241.129 181.932 241.506 181.93 241.958C181.932 242.372 181.812 242.741 181.571 243.062C181.332 243.384 181.001 243.638 180.58 243.822C180.159 244.007 179.676 244.099 179.131 244.099Z"
            fill="#494A50" />
        <path
            d="M202.13 244V242.892L204.718 240.495C204.938 240.282 205.123 240.09 205.272 239.92C205.424 239.749 205.539 239.582 205.617 239.419C205.695 239.253 205.734 239.075 205.734 238.883C205.734 238.67 205.685 238.486 205.588 238.332C205.491 238.176 205.359 238.057 205.191 237.974C205.023 237.888 204.832 237.846 204.619 237.846C204.396 237.846 204.202 237.891 204.036 237.981C203.871 238.071 203.743 238.2 203.653 238.368C203.563 238.536 203.518 238.736 203.518 238.968H202.059C202.059 238.492 202.166 238.079 202.382 237.729C202.597 237.378 202.899 237.107 203.287 236.915C203.675 236.724 204.123 236.628 204.63 236.628C205.15 236.628 205.604 236.72 205.99 236.905C206.378 237.087 206.68 237.34 206.895 237.665C207.111 237.989 207.218 238.361 207.218 238.78C207.218 239.054 207.164 239.326 207.055 239.593C206.948 239.861 206.758 240.158 206.483 240.484C206.209 240.809 205.822 241.198 205.322 241.653L204.26 242.693V242.743H207.314V244H202.13ZM208.162 242.722V241.511L211.198 236.727H212.242V238.403H211.624L209.71 241.433V241.489H214.025V242.722H208.162ZM211.653 244V242.352L211.681 241.816V236.727H213.123V244H211.653Z"
            fill="#494A50" />
        <rect x="224" y="224" width="32" height="32" rx="16" fill="#006FFD" />
        <path
            d="M234.217 244V242.892L236.806 240.495C237.026 240.282 237.211 240.09 237.36 239.92C237.512 239.749 237.627 239.582 237.705 239.419C237.783 239.253 237.822 239.075 237.822 238.883C237.822 238.67 237.773 238.486 237.676 238.332C237.579 238.176 237.447 238.057 237.278 237.974C237.11 237.888 236.92 237.846 236.707 237.846C236.484 237.846 236.29 237.891 236.124 237.981C235.959 238.071 235.831 238.2 235.741 238.368C235.651 238.536 235.606 238.736 235.606 238.968H234.146C234.146 238.492 234.254 238.079 234.47 237.729C234.685 237.378 234.987 237.107 235.375 236.915C235.763 236.724 236.211 236.628 236.717 236.628C237.238 236.628 237.692 236.72 238.078 236.905C238.466 237.087 238.768 237.34 238.983 237.665C239.198 237.989 239.306 238.361 239.306 238.78C239.306 239.054 239.252 239.326 239.143 239.593C239.036 239.861 238.846 240.158 238.571 240.484C238.296 240.809 237.909 241.198 237.41 241.653L236.348 242.693V242.743H239.402V244H234.217ZM243.172 244.099C242.671 244.099 242.223 244.007 241.83 243.822C241.44 243.638 241.129 243.383 240.9 243.059C240.67 242.735 240.551 242.363 240.541 241.944H242.033C242.049 242.226 242.168 242.454 242.388 242.629C242.608 242.804 242.869 242.892 243.172 242.892C243.414 242.892 243.627 242.839 243.812 242.732C243.999 242.623 244.144 242.473 244.248 242.281C244.355 242.087 244.408 241.865 244.408 241.614C244.408 241.358 244.354 241.133 244.245 240.939C244.138 240.745 243.99 240.593 243.801 240.484C243.612 240.375 243.395 240.32 243.151 240.317C242.938 240.317 242.731 240.361 242.53 240.449C242.331 240.536 242.176 240.656 242.065 240.808L240.697 240.562L241.042 236.727H245.488V237.984H242.31L242.121 239.806H242.164C242.292 239.626 242.485 239.477 242.743 239.359C243.001 239.24 243.29 239.181 243.609 239.181C244.047 239.181 244.438 239.284 244.781 239.49C245.124 239.696 245.396 239.979 245.594 240.339C245.793 240.696 245.891 241.108 245.889 241.575C245.891 242.065 245.778 242.5 245.548 242.881C245.321 243.26 245.003 243.558 244.593 243.776C244.186 243.992 243.712 244.099 243.172 244.099Z"
            fill="white" />
        <path
            d="M42.1393 276V274.892L44.7281 272.495C44.9482 272.282 45.1329 272.09 45.282 271.92C45.4336 271.749 45.5484 271.582 45.6265 271.419C45.7046 271.253 45.7437 271.075 45.7437 270.883C45.7437 270.67 45.6952 270.486 45.5981 270.332C45.501 270.176 45.3685 270.057 45.2004 269.974C45.0323 269.888 44.8417 269.846 44.6286 269.846C44.4061 269.846 44.212 269.891 44.0463 269.981C43.8805 270.071 43.7527 270.2 43.6627 270.368C43.5728 270.536 43.5278 270.736 43.5278 270.968H42.0683C42.0683 270.492 42.176 270.079 42.3914 269.729C42.6069 269.378 42.9087 269.107 43.297 268.915C43.6852 268.724 44.1327 268.628 44.6393 268.628C45.1601 268.628 45.6135 268.72 45.9994 268.905C46.3876 269.087 46.6895 269.34 46.9049 269.665C47.1204 269.989 47.2281 270.361 47.2281 270.78C47.2281 271.054 47.1736 271.326 47.0647 271.593C46.9582 271.861 46.7676 272.158 46.493 272.484C46.2184 272.809 45.8313 273.198 45.3318 273.653L44.27 274.693V274.743H47.324V276H42.1393ZM51.2293 276.099C50.8553 276.097 50.4942 276.034 50.1462 275.911C49.8006 275.788 49.4904 275.588 49.2158 275.311C48.9412 275.034 48.7234 274.667 48.5624 274.21C48.4038 273.753 48.3245 273.192 48.3245 272.527C48.3269 271.916 48.3967 271.371 48.534 270.89C48.6737 270.407 48.8725 269.997 49.1306 269.661C49.391 269.325 49.7023 269.069 50.0645 268.894C50.4268 268.717 50.8328 268.628 51.2826 268.628C51.7679 268.628 52.1964 268.723 52.5681 268.912C52.9398 269.099 53.2381 269.353 53.463 269.675C53.6903 269.997 53.8276 270.358 53.8749 270.759H52.3586C52.2994 270.505 52.1751 270.306 51.9857 270.162C51.7963 270.018 51.5619 269.945 51.2826 269.945C50.8091 269.945 50.4492 270.151 50.203 270.563C49.9592 270.975 49.8349 271.535 49.8302 272.243H49.8799C49.9888 272.027 50.1356 271.844 50.3202 271.692C50.5073 271.539 50.7191 271.421 50.9559 271.341C51.195 271.258 51.4471 271.217 51.7123 271.217C52.1431 271.217 52.5267 271.318 52.8628 271.522C53.199 271.723 53.4642 272 53.6583 272.353C53.8524 272.706 53.9495 273.109 53.9495 273.564C53.9495 274.056 53.8347 274.494 53.605 274.878C53.3778 275.261 53.0593 275.562 52.6498 275.78C52.2426 275.995 51.7691 276.102 51.2293 276.099ZM51.2222 274.892C51.459 274.892 51.6708 274.835 51.8579 274.722C52.0449 274.608 52.1917 274.454 52.2982 274.26C52.4047 274.066 52.458 273.848 52.458 273.607C52.458 273.365 52.4047 273.148 52.2982 272.957C52.194 272.765 52.0496 272.612 51.865 272.499C51.6803 272.385 51.4696 272.328 51.2329 272.328C51.0553 272.328 50.8908 272.361 50.7393 272.428C50.5901 272.494 50.4587 272.586 50.3451 272.705C50.2338 272.823 50.1462 272.96 50.0823 273.116C50.0184 273.27 49.9864 273.435 49.9864 273.61C49.9864 273.844 50.0397 274.059 50.1462 274.253C50.2551 274.447 50.4019 274.602 50.5866 274.718C50.7736 274.834 50.9855 274.892 51.2222 274.892Z"
            fill="#494A50" />
        <path
            d="M74.4664 276V274.892L77.0552 272.495C77.2754 272.282 77.46 272.09 77.6092 271.92C77.7607 271.749 77.8755 271.582 77.9537 271.419C78.0318 271.253 78.0708 271.075 78.0708 270.883C78.0708 270.67 78.0223 270.486 77.9252 270.332C77.8282 270.176 77.6956 270.057 77.5275 269.974C77.3594 269.888 77.1689 269.846 76.9558 269.846C76.7333 269.846 76.5391 269.891 76.3734 269.981C76.2077 270.071 76.0798 270.2 75.9899 270.368C75.8999 270.536 75.8549 270.736 75.8549 270.968H74.3954C74.3954 270.492 74.5031 270.079 74.7186 269.729C74.934 269.378 75.2359 269.107 75.6241 268.915C76.0124 268.724 76.4598 268.628 76.9664 268.628C77.4873 268.628 77.9406 268.72 78.3265 268.905C78.7148 269.087 79.0166 269.34 79.2321 269.665C79.4475 269.989 79.5552 270.361 79.5552 270.78C79.5552 271.054 79.5008 271.326 79.3919 271.593C79.2853 271.861 79.0948 272.158 78.8201 272.484C78.5455 272.809 78.1584 273.198 77.6589 273.653L76.5971 274.693V274.743H79.6511V276H74.4664ZM81.0529 276L84.0678 270.034V269.984H80.5558V268.727H85.6587V270.002L82.6403 276H81.0529Z"
            fill="#494A50" />
        <path
            d="M106.134 276V274.892L108.723 272.495C108.943 272.282 109.128 272.09 109.277 271.92C109.429 271.749 109.544 271.582 109.622 271.419C109.7 271.253 109.739 271.075 109.739 270.883C109.739 270.67 109.69 270.486 109.593 270.332C109.496 270.176 109.364 270.057 109.195 269.974C109.027 269.888 108.837 269.846 108.624 269.846C108.401 269.846 108.207 269.891 108.041 269.981C107.876 270.071 107.748 270.2 107.658 270.368C107.568 270.536 107.523 270.736 107.523 270.968H106.063C106.063 270.492 106.171 270.079 106.387 269.729C106.602 269.378 106.904 269.107 107.292 268.915C107.68 268.724 108.128 268.628 108.634 268.628C109.155 268.628 109.609 268.72 109.994 268.905C110.383 269.087 110.685 269.34 110.9 269.665C111.115 269.989 111.223 270.361 111.223 270.78C111.223 271.054 111.169 271.326 111.06 271.593C110.953 271.861 110.763 272.158 110.488 272.484C110.213 272.809 109.826 273.198 109.327 273.653L108.265 274.693V274.743H111.319V276H106.134ZM115.146 276.099C114.599 276.099 114.113 276.011 113.687 275.833C113.263 275.653 112.93 275.408 112.689 275.098C112.447 274.788 112.327 274.436 112.327 274.043C112.327 273.74 112.395 273.462 112.533 273.209C112.672 272.953 112.862 272.741 113.101 272.573C113.34 272.403 113.607 272.294 113.903 272.246V272.197C113.515 272.119 113.2 271.93 112.959 271.632C112.717 271.331 112.597 270.982 112.597 270.585C112.597 270.208 112.707 269.873 112.927 269.58C113.147 269.284 113.449 269.052 113.832 268.884C114.218 268.713 114.656 268.628 115.146 268.628C115.636 268.628 116.073 268.713 116.457 268.884C116.843 269.054 117.146 269.287 117.366 269.583C117.586 269.877 117.697 270.21 117.7 270.585C117.697 270.985 117.574 271.334 117.33 271.632C117.086 271.93 116.774 272.119 116.393 272.197V272.246C116.684 272.294 116.948 272.403 117.185 272.573C117.424 272.741 117.613 272.953 117.753 273.209C117.895 273.462 117.967 273.74 117.969 274.043C117.967 274.436 117.845 274.788 117.604 275.098C117.362 275.408 117.028 275.653 116.602 275.833C116.179 276.011 115.693 276.099 115.146 276.099ZM115.146 274.97C115.39 274.97 115.603 274.926 115.786 274.839C115.968 274.749 116.11 274.626 116.212 274.469C116.316 274.311 116.368 274.129 116.368 273.923C116.368 273.712 116.315 273.526 116.208 273.365C116.102 273.202 115.957 273.074 115.775 272.982C115.593 272.887 115.383 272.839 115.146 272.839C114.912 272.839 114.702 272.887 114.518 272.982C114.333 273.074 114.188 273.202 114.081 273.365C113.977 273.526 113.925 273.712 113.925 273.923C113.925 274.129 113.976 274.311 114.077 274.469C114.179 274.626 114.322 274.749 114.507 274.839C114.692 274.926 114.905 274.97 115.146 274.97ZM115.146 271.721C115.35 271.721 115.531 271.679 115.69 271.597C115.848 271.514 115.973 271.399 116.062 271.252C116.152 271.105 116.197 270.936 116.197 270.744C116.197 270.555 116.152 270.389 116.062 270.247C115.973 270.103 115.849 269.99 115.693 269.91C115.537 269.827 115.355 269.786 115.146 269.786C114.94 269.786 114.758 269.827 114.599 269.91C114.441 269.99 114.317 270.103 114.227 270.247C114.139 270.389 114.095 270.555 114.095 270.744C114.095 270.936 114.14 271.105 114.23 271.252C114.32 271.399 114.444 271.514 114.603 271.597C114.762 271.679 114.943 271.721 115.146 271.721Z"
            fill="#494A50" />
        <path
            d="M138.139 276V274.892L140.728 272.495C140.948 272.282 141.133 272.09 141.282 271.92C141.434 271.749 141.548 271.582 141.627 271.419C141.705 271.253 141.744 271.075 141.744 270.883C141.744 270.67 141.695 270.486 141.598 270.332C141.501 270.176 141.368 270.057 141.2 269.974C141.032 269.888 140.842 269.846 140.629 269.846C140.406 269.846 140.212 269.891 140.046 269.981C139.881 270.071 139.753 270.2 139.663 270.368C139.573 270.536 139.528 270.736 139.528 270.968H138.068C138.068 270.492 138.176 270.079 138.391 269.729C138.607 269.378 138.909 269.107 139.297 268.915C139.685 268.724 140.133 268.628 140.639 268.628C141.16 268.628 141.613 268.72 141.999 268.905C142.388 269.087 142.689 269.34 142.905 269.665C143.12 269.989 143.228 270.361 143.228 270.78C143.228 271.054 143.174 271.326 143.065 271.593C142.958 271.861 142.768 272.158 142.493 272.484C142.218 272.809 141.831 273.198 141.332 273.653L140.27 274.693V274.743H143.324V276H138.139ZM147.07 268.628C147.444 268.628 147.803 268.691 148.149 268.816C148.497 268.942 148.807 269.142 149.079 269.416C149.354 269.691 149.571 270.055 149.729 270.51C149.89 270.962 149.972 271.517 149.974 272.175C149.974 272.793 149.905 273.345 149.765 273.83C149.628 274.313 149.43 274.724 149.172 275.062C148.914 275.401 148.602 275.659 148.238 275.837C147.873 276.012 147.466 276.099 147.016 276.099C146.531 276.099 146.102 276.006 145.731 275.819C145.359 275.629 145.06 275.373 144.832 275.048C144.607 274.722 144.471 274.355 144.424 273.947H145.94C145.999 274.213 146.124 274.419 146.313 274.565C146.503 274.71 146.737 274.782 147.016 274.782C147.49 274.782 147.85 274.576 148.096 274.164C148.342 273.75 148.466 273.183 148.469 272.463H148.419C148.31 272.676 148.163 272.86 147.979 273.013C147.794 273.165 147.582 273.282 147.343 273.365C147.106 273.448 146.854 273.489 146.587 273.489C146.158 273.489 145.776 273.389 145.44 273.188C145.103 272.986 144.838 272.709 144.644 272.357C144.45 272.004 144.353 271.601 144.353 271.149C144.351 270.661 144.463 270.227 144.69 269.846C144.918 269.465 145.235 269.166 145.642 268.951C146.052 268.733 146.527 268.625 147.07 268.628ZM147.08 269.835C146.841 269.835 146.628 269.892 146.441 270.006C146.256 270.119 146.11 270.272 146.001 270.464C145.894 270.656 145.842 270.87 145.844 271.107C145.844 271.346 145.896 271.561 146.001 271.753C146.107 271.942 146.252 272.094 146.434 272.207C146.619 272.319 146.829 272.374 147.066 272.374C147.244 272.374 147.408 272.341 147.56 272.275C147.711 272.209 147.842 272.117 147.954 272.001C148.067 271.883 148.156 271.747 148.22 271.593C148.284 271.439 148.316 271.276 148.316 271.103C148.314 270.873 148.259 270.663 148.153 270.471C148.046 270.279 147.899 270.125 147.712 270.009C147.525 269.893 147.315 269.835 147.08 269.835Z"
            fill="#494A50" />
        <path
            d="M172.539 276.099C172.009 276.099 171.537 276.008 171.123 275.826C170.711 275.641 170.385 275.388 170.146 275.066C169.909 274.742 169.787 274.368 169.78 273.944H171.328C171.338 274.121 171.396 274.278 171.502 274.413C171.611 274.545 171.756 274.648 171.936 274.722C172.116 274.795 172.318 274.832 172.543 274.832C172.777 274.832 172.984 274.79 173.164 274.707C173.344 274.625 173.485 274.51 173.587 274.363C173.689 274.216 173.74 274.047 173.74 273.855C173.74 273.661 173.685 273.489 173.576 273.34C173.47 273.189 173.316 273.07 173.115 272.985C172.916 272.9 172.679 272.857 172.404 272.857H171.726V271.728H172.404C172.636 271.728 172.841 271.688 173.019 271.607C173.199 271.527 173.338 271.415 173.438 271.273C173.537 271.129 173.587 270.961 173.587 270.769C173.587 270.587 173.543 270.427 173.456 270.29C173.37 270.15 173.25 270.041 173.093 269.963C172.94 269.885 172.76 269.846 172.554 269.846C172.345 269.846 172.155 269.884 171.982 269.96C171.809 270.033 171.671 270.138 171.566 270.276C171.462 270.413 171.407 270.574 171.4 270.759H169.926C169.933 270.339 170.052 269.97 170.284 269.651C170.516 269.331 170.829 269.081 171.222 268.901C171.617 268.719 172.064 268.628 172.561 268.628C173.063 268.628 173.502 268.719 173.878 268.901C174.255 269.084 174.547 269.33 174.755 269.64C174.966 269.948 175.07 270.293 175.068 270.677C175.07 271.084 174.944 271.424 174.688 271.696C174.435 271.968 174.104 272.141 173.697 272.214V272.271C174.232 272.34 174.639 272.526 174.919 272.829C175.2 273.129 175.34 273.506 175.338 273.958C175.34 274.372 175.221 274.741 174.979 275.062C174.74 275.384 174.41 275.638 173.988 275.822C173.567 276.007 173.084 276.099 172.539 276.099ZM179.295 276.16C178.684 276.157 178.158 276.007 177.718 275.709C177.28 275.411 176.943 274.978 176.706 274.413C176.471 273.847 176.355 273.166 176.358 272.371C176.358 271.578 176.475 270.902 176.709 270.343C176.946 269.784 177.283 269.359 177.721 269.068C178.162 268.775 178.686 268.628 179.295 268.628C179.903 268.628 180.426 268.775 180.864 269.068C181.305 269.362 181.643 269.788 181.88 270.347C182.117 270.903 182.234 271.578 182.231 272.371C182.231 273.169 182.113 273.85 181.876 274.416C181.642 274.982 181.306 275.414 180.868 275.712C180.43 276.011 179.905 276.16 179.295 276.16ZM179.295 274.885C179.711 274.885 180.044 274.675 180.292 274.256C180.541 273.837 180.664 273.209 180.662 272.371C180.662 271.819 180.605 271.36 180.491 270.993C180.38 270.626 180.221 270.35 180.015 270.165C179.812 269.981 179.572 269.888 179.295 269.888C178.88 269.888 178.549 270.096 178.3 270.51C178.052 270.924 177.926 271.545 177.924 272.371C177.924 272.929 177.979 273.396 178.091 273.77C178.204 274.142 178.364 274.421 178.57 274.608C178.776 274.793 179.018 274.885 179.295 274.885Z"
            fill="#494A50" />
    </g>
    <g>
        <rect x="196" y="8" width="221" height="134" rx="14" fill="white" stroke="#f9f9f9" />
    </g>
    <path
        d="M225.334 121L227.242 119.092L223.175 115.025L219.842 118.358L213.667 112.175L214.842 111L219.842 116L223.175 112.667L228.425 117.908L230.334 116V121H225.334Z"
        fill="#F93C65" />
    <path
        d="M245.096 121V118.998H240.658V117.92L245.348 111.13H246.538V117.78H247.98V118.998H246.538V121H245.096ZM245.096 117.78V112.866H245.474L241.834 118.172V117.78H245.096ZM249.221 121V119.334H250.887V121H249.221ZM255.763 121.126C255.324 121.126 254.895 121.084 254.475 121C254.064 120.907 253.677 120.776 253.313 120.608C252.958 120.431 252.645 120.221 252.375 119.978L252.879 118.858C253.317 119.213 253.77 119.474 254.237 119.642C254.703 119.81 255.198 119.894 255.721 119.894C256.169 119.894 256.547 119.829 256.855 119.698C257.163 119.567 257.391 119.376 257.541 119.124C257.699 118.872 257.779 118.569 257.779 118.214C257.779 117.682 257.601 117.285 257.247 117.024C256.901 116.753 256.397 116.618 255.735 116.618H254.209V115.4H255.595C255.996 115.4 256.337 115.335 256.617 115.204C256.897 115.064 257.111 114.873 257.261 114.63C257.419 114.378 257.499 114.075 257.499 113.72C257.499 113.244 257.34 112.88 257.023 112.628C256.715 112.367 256.262 112.236 255.665 112.236C255.161 112.236 254.694 112.325 254.265 112.502C253.835 112.679 253.429 112.95 253.047 113.314L252.543 112.208C252.925 111.825 253.401 111.531 253.971 111.326C254.549 111.111 255.151 111.004 255.777 111.004C256.43 111.004 256.99 111.107 257.457 111.312C257.933 111.517 258.292 111.811 258.535 112.194C258.787 112.577 258.913 113.034 258.913 113.566C258.913 114.163 258.745 114.681 258.409 115.12C258.082 115.549 257.629 115.834 257.051 115.974V115.82C257.508 115.895 257.895 116.044 258.213 116.268C258.53 116.492 258.773 116.777 258.941 117.122C259.109 117.467 259.193 117.864 259.193 118.312C259.193 118.891 259.053 119.395 258.773 119.824C258.502 120.244 258.11 120.566 257.597 120.79C257.083 121.014 256.472 121.126 255.763 121.126ZM264.255 121.364L263.303 120.804L269.085 110.766L270.037 111.326L264.255 121.364ZM263.247 117.038C262.743 117.038 262.305 116.917 261.931 116.674C261.567 116.431 261.287 116.086 261.091 115.638C260.905 115.181 260.811 114.639 260.811 114.014C260.811 113.071 261.026 112.334 261.455 111.802C261.894 111.27 262.491 111.004 263.247 111.004C263.751 111.004 264.185 111.125 264.549 111.368C264.913 111.601 265.193 111.942 265.389 112.39C265.585 112.838 265.683 113.379 265.683 114.014C265.683 114.639 265.585 115.181 265.389 115.638C265.203 116.086 264.927 116.431 264.563 116.674C264.199 116.917 263.761 117.038 263.247 117.038ZM263.247 116.044C263.639 116.044 263.943 115.876 264.157 115.54C264.381 115.204 264.493 114.695 264.493 114.014C264.493 113.333 264.381 112.824 264.157 112.488C263.943 112.152 263.639 111.984 263.247 111.984C262.855 111.984 262.547 112.152 262.323 112.488C262.109 112.815 262.001 113.323 262.001 114.014C262.001 114.705 262.109 115.218 262.323 115.554C262.547 115.881 262.855 116.044 263.247 116.044ZM270.093 121.126C269.589 121.126 269.155 121.009 268.791 120.776C268.427 120.533 268.147 120.188 267.951 119.74C267.765 119.283 267.671 118.737 267.671 118.102C267.671 117.169 267.886 116.436 268.315 115.904C268.745 115.363 269.337 115.092 270.093 115.092C270.607 115.092 271.045 115.213 271.409 115.456C271.773 115.699 272.049 116.044 272.235 116.492C272.431 116.94 272.529 117.477 272.529 118.102C272.529 118.737 272.431 119.283 272.235 119.74C272.049 120.188 271.773 120.533 271.409 120.776C271.045 121.009 270.607 121.126 270.093 121.126ZM270.093 120.146C270.485 120.146 270.789 119.978 271.003 119.642C271.227 119.297 271.339 118.783 271.339 118.102C271.339 117.43 271.227 116.926 271.003 116.59C270.789 116.254 270.485 116.086 270.093 116.086C269.711 116.086 269.407 116.254 269.183 116.59C268.959 116.917 268.847 117.421 268.847 118.102C268.847 118.793 268.959 119.306 269.183 119.642C269.407 119.978 269.711 120.146 270.093 120.146Z"
        fill="#F93C65" />
    <path
        d="M277.964 121V114.168H279.126L281.604 118.494L284.068 114.168H285.23V121H283.984V115.806H284.306L281.94 119.894H281.254L278.888 115.806H279.21V121H277.964ZM290.577 121.126C289.83 121.126 289.186 120.986 288.645 120.706C288.113 120.417 287.698 120.011 287.399 119.488C287.11 118.956 286.965 118.326 286.965 117.598C286.965 116.889 287.11 116.268 287.399 115.736C287.688 115.204 288.085 114.789 288.589 114.49C289.093 114.191 289.667 114.042 290.311 114.042C290.946 114.042 291.487 114.182 291.935 114.462C292.392 114.733 292.742 115.12 292.985 115.624C293.228 116.128 293.349 116.73 293.349 117.43V117.906H288.085V117.038H292.397L292.159 117.234C292.159 116.534 292.005 115.993 291.697 115.61C291.389 115.227 290.946 115.036 290.367 115.036C289.928 115.036 289.555 115.139 289.247 115.344C288.948 115.549 288.72 115.834 288.561 116.198C288.402 116.562 288.323 116.987 288.323 117.472V117.556C288.323 118.097 288.407 118.555 288.575 118.928C288.752 119.292 289.009 119.567 289.345 119.754C289.681 119.941 290.096 120.034 290.591 120.034C290.983 120.034 291.366 119.973 291.739 119.852C292.122 119.721 292.481 119.521 292.817 119.25L293.237 120.23C292.929 120.51 292.532 120.729 292.047 120.888C291.562 121.047 291.072 121.126 290.577 121.126ZM295.027 121V114.168H296.441V116.926H299.843V114.168H301.257V121H299.843V118.046H296.441V121H295.027ZM303.367 121V114.168H304.781V116.534H306.727C307.604 116.534 308.271 116.725 308.729 117.108C309.186 117.481 309.415 118.027 309.415 118.746C309.415 119.203 309.307 119.605 309.093 119.95C308.878 120.286 308.57 120.547 308.169 120.734C307.767 120.911 307.287 121 306.727 121H303.367ZM304.781 120.034H306.545C307.03 120.034 307.408 119.931 307.679 119.726C307.949 119.511 308.085 119.185 308.085 118.746C308.085 118.317 307.949 118.004 307.679 117.808C307.408 117.603 307.03 117.5 306.545 117.5H304.781V120.034ZM310.982 121V114.168H312.326V119.88H314.944V114.168H316.288V119.88H318.906V114.168H320.25V121H310.982ZM325.604 121.126C324.858 121.126 324.214 120.986 323.672 120.706C323.14 120.417 322.725 120.011 322.426 119.488C322.137 118.956 321.992 118.326 321.992 117.598C321.992 116.889 322.137 116.268 322.426 115.736C322.716 115.204 323.112 114.789 323.616 114.49C324.12 114.191 324.694 114.042 325.338 114.042C325.973 114.042 326.514 114.182 326.962 114.462C327.42 114.733 327.77 115.12 328.012 115.624C328.255 116.128 328.376 116.73 328.376 117.43V117.906H323.112V117.038H327.424L327.186 117.234C327.186 116.534 327.032 115.993 326.724 115.61C326.416 115.227 325.973 115.036 325.394 115.036C324.956 115.036 324.582 115.139 324.274 115.344C323.976 115.549 323.747 115.834 323.588 116.198C323.43 116.562 323.35 116.987 323.35 117.472V117.556C323.35 118.097 323.434 118.555 323.602 118.928C323.78 119.292 324.036 119.567 324.372 119.754C324.708 119.941 325.124 120.034 325.618 120.034C326.01 120.034 326.393 119.973 326.766 119.852C327.149 119.721 327.508 119.521 327.844 119.25L328.264 120.23C327.956 120.51 327.56 120.729 327.074 120.888C326.589 121.047 326.099 121.126 325.604 121.126ZM338.072 121V118.368C337.82 118.508 337.549 118.615 337.26 118.69C336.98 118.765 336.681 118.802 336.364 118.802C335.711 118.802 335.165 118.695 334.726 118.48C334.297 118.265 333.975 117.948 333.76 117.528C333.555 117.099 333.452 116.562 333.452 115.918V114.168H334.866V115.806C334.866 116.226 334.922 116.576 335.034 116.856C335.155 117.127 335.342 117.327 335.594 117.458C335.846 117.579 336.177 117.64 336.588 117.64C336.887 117.64 337.153 117.607 337.386 117.542C337.619 117.467 337.843 117.355 338.058 117.206V114.168H339.472V121H338.072ZM344.813 121.126C344.067 121.126 343.423 120.986 342.881 120.706C342.349 120.417 341.934 120.011 341.635 119.488C341.346 118.956 341.201 118.326 341.201 117.598C341.201 116.889 341.346 116.268 341.635 115.736C341.925 115.204 342.321 114.789 342.825 114.49C343.329 114.191 343.903 114.042 344.547 114.042C345.182 114.042 345.723 114.182 346.171 114.462C346.629 114.733 346.979 115.12 347.221 115.624C347.464 116.128 347.585 116.73 347.585 117.43V117.906H342.321V117.038H346.633L346.395 117.234C346.395 116.534 346.241 115.993 345.933 115.61C345.625 115.227 345.182 115.036 344.603 115.036C344.165 115.036 343.791 115.139 343.483 115.344C343.185 115.549 342.956 115.834 342.797 116.198C342.639 116.562 342.559 116.987 342.559 117.472V117.556C342.559 118.097 342.643 118.555 342.811 118.928C342.989 119.292 343.245 119.567 343.581 119.754C343.917 119.941 344.333 120.034 344.827 120.034C345.219 120.034 345.602 119.973 345.975 119.852C346.358 119.721 346.717 119.521 347.053 119.25L347.473 120.23C347.165 120.51 346.769 120.729 346.283 120.888C345.798 121.047 345.308 121.126 344.813 121.126ZM349.263 121V114.168H350.425L352.903 118.494L355.367 114.168H356.529V121H355.283V115.806H355.605L353.239 119.894H352.553L350.187 115.806H350.509V121H349.263ZM362.334 121V114.168H365.82C366.38 114.168 366.837 114.238 367.192 114.378C367.556 114.518 367.822 114.723 367.99 114.994C368.158 115.255 368.242 115.577 368.242 115.96C368.242 116.399 368.092 116.767 367.794 117.066C367.495 117.355 367.103 117.528 366.618 117.584V117.402C367.01 117.411 367.341 117.491 367.612 117.64C367.892 117.789 368.102 117.99 368.242 118.242C368.391 118.485 368.466 118.769 368.466 119.096C368.466 119.684 368.246 120.151 367.808 120.496C367.369 120.832 366.744 121 365.932 121H362.334ZM363.664 120.09H365.848C366.268 120.09 366.59 120.001 366.814 119.824C367.047 119.637 367.164 119.371 367.164 119.026C367.164 118.681 367.047 118.419 366.814 118.242C366.59 118.065 366.268 117.976 365.848 117.976H363.664V120.09ZM363.664 117.066H365.722C366.104 117.066 366.398 116.977 366.604 116.8C366.818 116.623 366.926 116.38 366.926 116.072C366.926 115.755 366.818 115.512 366.604 115.344C366.398 115.176 366.104 115.092 365.722 115.092H363.664V117.066ZM374.494 121V118.368C374.242 118.508 373.971 118.615 373.682 118.69C373.402 118.765 373.103 118.802 372.786 118.802C372.133 118.802 371.587 118.695 371.148 118.48C370.719 118.265 370.397 117.948 370.182 117.528C369.977 117.099 369.874 116.562 369.874 115.918V114.168H371.288V115.806C371.288 116.226 371.344 116.576 371.456 116.856C371.577 117.127 371.764 117.327 372.016 117.458C372.268 117.579 372.599 117.64 373.01 117.64C373.309 117.64 373.575 117.607 373.808 117.542C374.041 117.467 374.265 117.355 374.48 117.206V114.168H375.894V121H374.494ZM381.235 121.126C380.489 121.126 379.845 120.986 379.303 120.706C378.771 120.417 378.356 120.011 378.057 119.488C377.768 118.956 377.623 118.326 377.623 117.598C377.623 116.889 377.768 116.268 378.057 115.736C378.347 115.204 378.743 114.789 379.247 114.49C379.751 114.191 380.325 114.042 380.969 114.042C381.604 114.042 382.145 114.182 382.593 114.462C383.051 114.733 383.401 115.12 383.643 115.624C383.886 116.128 384.007 116.73 384.007 117.43V117.906H378.743V117.038H383.055L382.817 117.234C382.817 116.534 382.663 115.993 382.355 115.61C382.047 115.227 381.604 115.036 381.025 115.036C380.587 115.036 380.213 115.139 379.905 115.344C379.607 115.549 379.378 115.834 379.219 116.198C379.061 116.562 378.981 116.987 378.981 117.472V117.556C378.981 118.097 379.065 118.555 379.233 118.928C379.411 119.292 379.667 119.567 380.003 119.754C380.339 119.941 380.755 120.034 381.249 120.034C381.641 120.034 382.024 119.973 382.397 119.852C382.78 119.721 383.139 119.521 383.475 119.25L383.895 120.23C383.587 120.51 383.191 120.729 382.705 120.888C382.22 121.047 381.73 121.126 381.235 121.126ZM385.699 123.52V114.168H387.085V115.708H386.931C387.08 115.204 387.374 114.803 387.813 114.504C388.252 114.196 388.77 114.042 389.367 114.042C389.974 114.042 390.501 114.187 390.949 114.476C391.406 114.765 391.756 115.171 391.999 115.694C392.251 116.217 392.377 116.847 392.377 117.584C392.377 118.303 392.251 118.933 391.999 119.474C391.756 120.006 391.411 120.417 390.963 120.706C390.515 120.986 389.983 121.126 389.367 121.126C388.779 121.126 388.266 120.977 387.827 120.678C387.388 120.379 387.094 119.983 386.945 119.488H387.113V123.52H385.699ZM389.017 120.034C389.605 120.034 390.072 119.824 390.417 119.404C390.772 118.984 390.949 118.377 390.949 117.584C390.949 116.781 390.772 116.175 390.417 115.764C390.072 115.353 389.605 115.148 389.017 115.148C388.438 115.148 387.972 115.353 387.617 115.764C387.262 116.175 387.085 116.781 387.085 117.584C387.085 118.377 387.262 118.984 387.617 119.404C387.972 119.824 388.438 120.034 389.017 120.034ZM396.305 121.126C395.829 121.126 395.4 121.033 395.017 120.846C394.644 120.659 394.35 120.407 394.135 120.09C393.92 119.773 393.813 119.413 393.813 119.012C393.813 118.508 393.939 118.111 394.191 117.822C394.452 117.523 394.877 117.313 395.465 117.192C396.062 117.061 396.865 116.996 397.873 116.996H398.531V117.864H397.887C397.383 117.864 396.958 117.883 396.613 117.92C396.268 117.957 395.992 118.018 395.787 118.102C395.582 118.177 395.432 118.284 395.339 118.424C395.255 118.564 395.213 118.732 395.213 118.928C395.213 119.283 395.334 119.572 395.577 119.796C395.82 120.011 396.156 120.118 396.585 120.118C396.93 120.118 397.234 120.039 397.495 119.88C397.756 119.712 397.962 119.488 398.111 119.208C398.27 118.928 398.349 118.606 398.349 118.242V116.632C398.349 116.1 398.237 115.717 398.013 115.484C397.789 115.251 397.42 115.134 396.907 115.134C396.515 115.134 396.123 115.195 395.731 115.316C395.339 115.428 394.938 115.61 394.527 115.862L394.093 114.868C394.336 114.7 394.616 114.555 394.933 114.434C395.25 114.313 395.582 114.219 395.927 114.154C396.282 114.079 396.622 114.042 396.949 114.042C397.574 114.042 398.088 114.14 398.489 114.336C398.9 114.532 399.203 114.831 399.399 115.232C399.595 115.633 399.693 116.151 399.693 116.786V121H398.363V119.474H398.489C398.414 119.819 398.274 120.118 398.069 120.37C397.873 120.613 397.626 120.799 397.327 120.93C397.028 121.061 396.688 121.126 396.305 121.126Z"
        fill="#777777" />
    <path opacity="0.2" fill-rule="evenodd" clip-rule="evenodd"
        d="M353 51V57C353 66.9411 361.059 75 371 75H377H383C392.941 75 401 66.9411 401 57V51V45C401 35.0589 392.941 27 383 27H377H371C361.059 27 353 35.0589 353 45V51Z"
        fill="#4AD991" />
    <path
        d="M368.289 59.7112H386.955C387.643 59.7112 388.2 60.2683 388.2 60.9556C388.2 61.6429 387.643 62.2 386.955 62.2H367.044C366.357 62.2 365.8 61.6429 365.8 60.9556V41.0445C365.8 40.3572 366.357 39.8 367.044 39.8C367.732 39.8 368.289 40.3572 368.289 41.0445V59.7112Z"
        fill="#4AD991" />
    <path opacity="0.5"
        d="M372.931 54.34C372.461 54.8414 371.673 54.8668 371.172 54.3968C370.67 53.9267 370.645 53.1392 371.115 52.6378L375.782 47.66C376.236 47.1751 376.992 47.133 377.497 47.5645L381.18 50.7075L385.979 44.6289C386.405 44.0895 387.188 43.9974 387.727 44.4233C388.267 44.8491 388.359 45.6317 387.933 46.1711L382.333 53.2645C381.895 53.8185 381.085 53.8982 380.548 53.44L376.785 50.2287L372.931 54.34Z"
        fill="#4AD991" />
    <path opacity="0.7"
        d="M213.148 38V28.13H217.264C218.291 28.13 219.084 28.3587 219.644 28.816C220.213 29.264 220.498 29.894 220.498 30.706C220.498 31.3033 220.321 31.8073 219.966 32.218C219.611 32.6287 219.131 32.904 218.524 33.044V32.834C218.981 32.8993 219.373 33.0393 219.7 33.254C220.036 33.4593 220.293 33.7347 220.47 34.08C220.647 34.416 220.736 34.8127 220.736 35.27C220.736 35.8487 220.605 36.3433 220.344 36.754C220.083 37.1647 219.705 37.4773 219.21 37.692C218.715 37.8973 218.123 38 217.432 38H213.148ZM214.548 36.88H217.264C217.544 36.88 217.791 36.8613 218.006 36.824C218.23 36.7773 218.421 36.712 218.58 36.628C218.748 36.5347 218.888 36.4227 219 36.292C219.112 36.152 219.191 35.9933 219.238 35.816C219.294 35.6387 219.322 35.438 219.322 35.214C219.322 34.99 219.294 34.7893 219.238 34.612C219.191 34.4347 219.112 34.2807 219 34.15C218.888 34.0193 218.748 33.912 218.58 33.828C218.421 33.7347 218.23 33.6693 218.006 33.632C217.791 33.5853 217.544 33.562 217.264 33.562H214.548V36.88ZM214.548 32.442H217.04C217.712 32.442 218.221 32.3067 218.566 32.036C218.911 31.7653 219.084 31.3687 219.084 30.846C219.084 30.3233 218.911 29.9267 218.566 29.656C218.221 29.3853 217.712 29.25 217.04 29.25H214.548V32.442ZM222.607 38V31.168H224.021V33.534H225.967C226.844 33.534 227.512 33.7253 227.969 34.108C228.426 34.4813 228.655 35.0273 228.655 35.746C228.655 36.2033 228.548 36.6047 228.333 36.95C228.118 37.286 227.81 37.5473 227.409 37.734C227.008 37.9113 226.527 38 225.967 38H222.607ZM224.021 37.034H225.785C226.27 37.034 226.648 36.9313 226.919 36.726C227.19 36.5113 227.325 36.1847 227.325 35.746C227.325 35.3167 227.19 35.004 226.919 34.808C226.648 34.6027 226.27 34.5 225.785 34.5H224.021V37.034ZM229.579 38V31.168H230.993V38H229.579ZM233.135 40.52V31.168H234.521V32.708H234.367C234.516 32.204 234.81 31.8027 235.249 31.504C235.687 31.196 236.205 31.042 236.803 31.042C237.409 31.042 237.937 31.1867 238.385 31.476C238.842 31.7653 239.192 32.1713 239.435 32.694C239.687 33.2167 239.813 33.8467 239.813 34.584C239.813 35.3027 239.687 35.9327 239.435 36.474C239.192 37.006 238.847 37.4167 238.399 37.706C237.951 37.986 237.419 38.126 236.803 38.126C236.215 38.126 235.701 37.9767 235.263 37.678C234.824 37.3793 234.53 36.9827 234.381 36.488H234.549V40.52H233.135ZM236.453 37.034C237.041 37.034 237.507 36.824 237.853 36.404C238.207 35.984 238.385 35.3773 238.385 34.584C238.385 33.7813 238.207 33.1747 237.853 32.764C237.507 32.3533 237.041 32.148 236.453 32.148C235.874 32.148 235.407 32.3533 235.053 32.764C234.698 33.1747 234.521 33.7813 234.521 34.584C234.521 35.3773 234.698 35.984 235.053 36.404C235.407 36.824 235.874 37.034 236.453 37.034ZM242.161 40.52L243.505 37.524V38.126L240.523 31.168H242.035L244.331 36.838H243.939L246.263 31.168H247.719L243.645 40.52H242.161ZM253.224 38V35.368C252.972 35.508 252.702 35.6153 252.412 35.69C252.132 35.7647 251.834 35.802 251.516 35.802C250.863 35.802 250.317 35.6947 249.878 35.48C249.449 35.2653 249.127 34.948 248.912 34.528C248.707 34.0987 248.604 33.562 248.604 32.918V31.168H250.018V32.806C250.018 33.226 250.074 33.576 250.186 33.856C250.308 34.1267 250.494 34.3273 250.746 34.458C250.998 34.5793 251.33 34.64 251.74 34.64C252.039 34.64 252.305 34.6073 252.538 34.542C252.772 34.4673 252.996 34.3553 253.21 34.206V31.168H254.624V38H253.224ZM256.746 38V31.168H258.16V33.94H259.308L261.422 31.168H262.962L260.428 34.542L260.078 34.094C260.339 34.122 260.568 34.1873 260.764 34.29C260.96 34.3927 261.142 34.5467 261.31 34.752C261.487 34.9573 261.674 35.228 261.87 35.564L263.284 38H261.772L260.582 35.956C260.442 35.7133 260.302 35.5267 260.162 35.396C260.031 35.2653 259.886 35.1767 259.728 35.13C259.569 35.074 259.368 35.046 259.126 35.046H258.16V38H256.746ZM266.518 38.126C266.042 38.126 265.613 38.0327 265.23 37.846C264.857 37.6593 264.563 37.4073 264.348 37.09C264.133 36.7727 264.026 36.4133 264.026 36.012C264.026 35.508 264.152 35.1113 264.404 34.822C264.665 34.5233 265.09 34.3133 265.678 34.192C266.275 34.0613 267.078 33.996 268.086 33.996H268.744V34.864H268.1C267.596 34.864 267.171 34.8827 266.826 34.92C266.481 34.9573 266.205 35.018 266 35.102C265.795 35.1767 265.645 35.284 265.552 35.424C265.468 35.564 265.426 35.732 265.426 35.928C265.426 36.2827 265.547 36.572 265.79 36.796C266.033 37.0107 266.369 37.118 266.798 37.118C267.143 37.118 267.447 37.0387 267.708 36.88C267.969 36.712 268.175 36.488 268.324 36.208C268.483 35.928 268.562 35.606 268.562 35.242V33.632C268.562 33.1 268.45 32.7173 268.226 32.484C268.002 32.2507 267.633 32.134 267.12 32.134C266.728 32.134 266.336 32.1947 265.944 32.316C265.552 32.428 265.151 32.61 264.74 32.862L264.306 31.868C264.549 31.7 264.829 31.5553 265.146 31.434C265.463 31.3127 265.795 31.2193 266.14 31.154C266.495 31.0793 266.835 31.042 267.162 31.042C267.787 31.042 268.301 31.14 268.702 31.336C269.113 31.532 269.416 31.8307 269.612 32.232C269.808 32.6333 269.906 33.1513 269.906 33.786V38H268.576V36.474H268.702C268.627 36.8193 268.487 37.118 268.282 37.37C268.086 37.6127 267.839 37.7993 267.54 37.93C267.241 38.0607 266.901 38.126 266.518 38.126Z"
        fill="#202224" />
    <path
        d="M214.08 75V72.22H212.38V70.46H214.08V69.1H212.38V67.34H214.08V60.9H218.86C219.887 60.9 220.753 61.0733 221.46 61.42C222.18 61.7667 222.72 62.2533 223.08 62.88C223.453 63.5067 223.64 64.24 223.64 65.08C223.64 65.8933 223.453 66.6 223.08 67.2C222.707 67.8 222.173 68.2667 221.48 68.6C220.787 68.9333 219.947 69.1 218.96 69.1H216.68V70.46H219.88V72.22H216.68V75H214.08ZM216.64 67.34H218.54C219.38 67.34 220.027 67.18 220.48 66.86C220.933 66.54 221.16 66.0067 221.16 65.26C221.16 64.5133 220.933 63.96 220.48 63.6C220.04 63.24 219.393 63.06 218.54 63.06H216.64V67.34ZM230.992 75.2C229.352 75.2 228.066 74.8467 227.132 74.14C226.212 73.4333 225.752 72.4533 225.752 71.2C225.752 70.5333 225.886 69.9467 226.152 69.44C226.432 68.92 226.812 68.5 227.292 68.18C227.772 67.86 228.319 67.66 228.932 67.58V68C228.372 67.88 227.879 67.66 227.452 67.34C227.026 67.0067 226.692 66.6 226.452 66.12C226.226 65.6267 226.112 65.0867 226.112 64.5C226.112 63.3133 226.552 62.3867 227.432 61.72C228.312 61.04 229.506 60.7 231.012 60.7C232.506 60.7 233.692 61.04 234.572 61.72C235.452 62.3867 235.892 63.3133 235.892 64.5C235.892 65.0867 235.772 65.6267 235.532 66.12C235.306 66.6133 234.979 67.02 234.552 67.34C234.139 67.66 233.652 67.8733 233.092 67.98V67.58C233.719 67.66 234.266 67.8667 234.732 68.2C235.199 68.52 235.566 68.94 235.832 69.46C236.099 69.9667 236.232 70.5467 236.232 71.2C236.232 72.4533 235.766 73.4333 234.832 74.14C233.912 74.8467 232.632 75.2 230.992 75.2ZM230.992 73.2C231.939 73.2 232.652 73.02 233.132 72.66C233.612 72.2867 233.852 71.74 233.852 71.02C233.852 70.3 233.612 69.76 233.132 69.4C232.652 69.04 231.939 68.86 230.992 68.86C230.059 68.86 229.346 69.04 228.852 69.4C228.372 69.76 228.132 70.3 228.132 71.02C228.132 71.74 228.372 72.2867 228.852 72.66C229.346 73.02 230.059 73.2 230.992 73.2ZM230.992 66.86C231.779 66.86 232.392 66.6733 232.832 66.3C233.286 65.9267 233.512 65.4133 233.512 64.76C233.512 64.12 233.286 63.62 232.832 63.26C232.392 62.8867 231.779 62.7 230.992 62.7C230.206 62.7 229.592 62.8867 229.152 63.26C228.712 63.62 228.492 64.1267 228.492 64.78C228.492 65.42 228.712 65.9267 229.152 66.3C229.592 66.6733 230.206 66.86 230.992 66.86ZM242.904 75.2C242.411 75.2 241.911 75.1333 241.404 75C240.911 74.88 240.438 74.7 239.984 74.46C239.544 74.22 239.144 73.9333 238.784 73.6L239.644 71.68C240.124 72.1333 240.644 72.4733 241.204 72.7C241.778 72.9267 242.351 73.04 242.924 73.04C243.511 73.04 244.024 72.94 244.464 72.74C244.918 72.5267 245.298 72.22 245.604 71.82C245.911 71.4067 246.138 70.9 246.284 70.3C246.444 69.6867 246.524 68.98 246.524 68.18V66.68H246.744C246.651 67.3467 246.431 67.9267 246.084 68.42C245.738 68.9133 245.298 69.2933 244.764 69.56C244.244 69.8133 243.651 69.94 242.984 69.94C242.184 69.94 241.471 69.7467 240.844 69.36C240.218 68.9733 239.718 68.44 239.344 67.76C238.984 67.0667 238.804 66.2867 238.804 65.42C238.804 64.5 239.004 63.6867 239.404 62.98C239.804 62.2733 240.351 61.72 241.044 61.32C241.751 60.9067 242.558 60.7 243.464 60.7C244.638 60.7 245.631 60.9733 246.444 61.52C247.258 62.0667 247.878 62.8667 248.304 63.92C248.731 64.96 248.944 66.22 248.944 67.7C248.944 69.2867 248.704 70.64 248.224 71.76C247.744 72.88 247.051 73.7333 246.144 74.32C245.251 74.9067 244.171 75.2 242.904 75.2ZM243.624 67.9C244.104 67.9 244.524 67.7933 244.884 67.58C245.258 67.3667 245.544 67.0667 245.744 66.68C245.944 66.28 246.044 65.8267 246.044 65.32C246.044 64.8 245.944 64.3467 245.744 63.96C245.544 63.5733 245.258 63.2733 244.884 63.06C244.524 62.8333 244.104 62.72 243.624 62.72C243.144 62.72 242.724 62.8333 242.364 63.06C242.004 63.2733 241.718 63.5733 241.504 63.96C241.304 64.3467 241.204 64.8 241.204 65.32C241.204 65.8267 241.304 66.28 241.504 66.68C241.718 67.0667 242.004 67.3667 242.364 67.58C242.724 67.7933 243.144 67.9 243.624 67.9ZM253.277 77.66L252.257 76.86C252.55 76.5667 252.777 76.2867 252.937 76.02C253.097 75.7667 253.21 75.5067 253.277 75.24C253.357 74.9733 253.397 74.7 253.397 74.42L253.937 75H252.057V72.22H254.857V74.06C254.857 74.5133 254.803 74.94 254.697 75.34C254.603 75.74 254.443 76.1267 254.217 76.5C253.99 76.8867 253.677 77.2733 253.277 77.66ZM262.938 75.2C261.831 75.2 260.891 74.92 260.118 74.36C259.358 73.7867 258.778 72.96 258.378 71.88C257.991 70.8 257.798 69.48 257.798 67.92C257.798 66.3467 257.991 65.0267 258.378 63.96C258.778 62.88 259.358 62.0667 260.118 61.52C260.891 60.9733 261.831 60.7 262.938 60.7C264.058 60.7 264.998 60.9733 265.758 61.52C266.531 62.0667 267.111 62.8733 267.497 63.94C267.884 65.0067 268.078 66.3267 268.078 67.9C268.078 69.46 267.878 70.7867 267.478 71.88C267.091 72.96 266.518 73.7867 265.758 74.36C264.998 74.92 264.058 75.2 262.938 75.2ZM262.938 73.1C263.844 73.1 264.511 72.6867 264.938 71.86C265.378 71.02 265.598 69.7 265.598 67.9C265.598 66.1133 265.378 64.82 264.938 64.02C264.511 63.2067 263.844 62.8 262.938 62.8C262.044 62.8 261.378 63.2067 260.938 64.02C260.498 64.82 260.278 66.12 260.278 67.92C260.278 69.7067 260.498 71.02 260.938 71.86C261.378 72.6867 262.044 73.1 262.938 73.1ZM275.93 75.2C274.823 75.2 273.883 74.92 273.11 74.36C272.35 73.7867 271.77 72.96 271.37 71.88C270.983 70.8 270.79 69.48 270.79 67.92C270.79 66.3467 270.983 65.0267 271.37 63.96C271.77 62.88 272.35 62.0667 273.11 61.52C273.883 60.9733 274.823 60.7 275.93 60.7C277.05 60.7 277.99 60.9733 278.75 61.52C279.523 62.0667 280.103 62.8733 280.49 63.94C280.876 65.0067 281.07 66.3267 281.07 67.9C281.07 69.46 280.87 70.7867 280.47 71.88C280.083 72.96 279.51 73.7867 278.75 74.36C277.99 74.92 277.05 75.2 275.93 75.2ZM275.93 73.1C276.836 73.1 277.503 72.6867 277.93 71.86C278.37 71.02 278.59 69.7 278.59 67.9C278.59 66.1133 278.37 64.82 277.93 64.02C277.503 63.2067 276.836 62.8 275.93 62.8C275.036 62.8 274.37 63.2067 273.93 64.02C273.49 64.82 273.27 66.12 273.27 67.92C273.27 69.7067 273.49 71.02 273.93 71.86C274.37 72.6867 275.036 73.1 275.93 73.1ZM288.922 75.2C287.815 75.2 286.875 74.92 286.102 74.36C285.342 73.7867 284.762 72.96 284.362 71.88C283.975 70.8 283.782 69.48 283.782 67.92C283.782 66.3467 283.975 65.0267 284.362 63.96C284.762 62.88 285.342 62.0667 286.102 61.52C286.875 60.9733 287.815 60.7 288.922 60.7C290.042 60.7 290.982 60.9733 291.742 61.52C292.515 62.0667 293.095 62.8733 293.482 63.94C293.869 65.0067 294.062 66.3267 294.062 67.9C294.062 69.46 293.862 70.7867 293.462 71.88C293.075 72.96 292.502 73.7867 291.742 74.36C290.982 74.92 290.042 75.2 288.922 75.2ZM288.922 73.1C289.829 73.1 290.495 72.6867 290.922 71.86C291.362 71.02 291.582 69.7 291.582 67.9C291.582 66.1133 291.362 64.82 290.922 64.02C290.495 63.2067 289.829 62.8 288.922 62.8C288.029 62.8 287.362 63.2067 286.922 64.02C286.482 64.82 286.262 66.12 286.262 67.92C286.262 69.7067 286.482 71.02 286.922 71.86C287.362 72.6867 288.029 73.1 288.922 73.1Z"
        fill="#202224" />
</svg>