<svg width="401" height="356" viewBox="0 0 401 356" fill="none" xmlns="http://www.w3.org/2000/svg">
    <g filter="url(#filter0_d_238_909)">
        <rect x="72" y="4" width="272" height="653" rx="32" fill="white"
            shape-rendering="crispEdges" />
        <rect x="89" y="53" width="67.3333" height="67" rx="15" fill="#EDEDED" stroke="#D0D0D0"
            stroke-width="2" stroke-dasharray="8 8" />
        <rect x="173.333" y="52" width="69.3333" height="69" rx="16" fill="#E0E0E0" />
        <rect x="258.667" y="52" width="69.3333" height="69" rx="16" fill="#E0E0E0" />
        <rect x="88" y="137" width="48" height="48" rx="16" fill="#E0E0E0" />
        <rect x="152" y="137" width="176" height="48" rx="16" fill="#E0E0E0" />
        <rect x="89" y="202" width="238" height="78" rx="15" fill="#EDEDED" />
        <rect x="89" y="202" width="238" height="78" rx="15" stroke="#D0D0D0" stroke-width="2"
            stroke-dasharray="8 8" />
        <rect x="88" y="297" width="112" height="128" rx="16" fill="#E0E0E0" />
        <rect x="217" y="298" width="110" height="126" rx="15" fill="#EDEDED" />
        <rect x="217" y="298" width="110" height="126" rx="15" stroke="#D0D0D0" stroke-width="2"
            stroke-dasharray="8 8" />
        <path d="M112 4H304C304 17.2548 293.255 28 280 28H136C122.745 28 112 17.2548 112 4Z"
            fill="#E1E2E9" />
        <rect x="-47" y="183" width="290" height="80" rx="16" fill="#BFEFAF" />
        <g opacity="0.8">
            <rect x="-31" y="199" width="160" height="8" rx="4" fill="white" />
            <rect x="-31" y="219" width="184" height="8" rx="4" fill="white" />
            <rect x="-31" y="239" width="100" height="8" rx="4" fill="white" />
        </g>
        <g opacity="0.8" clip-path="url(#clip0_238_909)">
            <path
                d="M203 203C202.564 203 202.136 203.004 201.716 203.01L200.484 203.044L199.886 203.07L198.728 203.138L197.622 203.23C188.052 204.158 184.158 208.052 183.23 217.622L183.138 218.728L183.07 219.886C183.06 220.082 183.05 220.282 183.044 220.484L183.01 221.716L183.002 222.352L183 223C183 223.436 183.004 223.864 183.01 224.284L183.044 225.516L183.07 226.114L183.138 227.272L183.23 228.378C184.158 237.948 188.052 241.842 197.622 242.77L198.728 242.862L199.886 242.93C200.082 242.94 200.282 242.95 200.484 242.956L201.716 242.99L203 243L204.284 242.99L205.516 242.956L206.114 242.93L207.272 242.862L208.378 242.77C217.948 241.842 221.842 237.948 222.77 228.378L222.862 227.272L222.93 226.114C222.94 225.918 222.95 225.718 222.956 225.516L222.99 224.284L223 223L222.99 221.716L222.956 220.484L222.93 219.886L222.862 218.728L222.77 217.622C221.842 208.052 217.948 204.158 208.378 203.23L207.272 203.138L206.114 203.07C205.915 203.06 205.715 203.052 205.516 203.044L204.284 203.01L203.648 203.002L203 203ZM199.586 215.586C199.93 215.242 200.389 215.035 200.875 215.004C201.361 214.974 201.841 215.121 202.226 215.42L202.414 215.586L208.414 221.586C208.758 221.93 208.965 222.389 208.996 222.875C209.026 223.361 208.879 223.841 208.58 224.226L208.414 224.414L202.414 230.414C202.054 230.773 201.571 230.981 201.063 230.996C200.555 231.012 200.061 230.834 199.679 230.498C199.298 230.161 199.059 229.693 199.011 229.187C198.963 228.681 199.109 228.176 199.42 227.774L199.586 227.586L204.17 223L199.586 218.414C199.242 218.07 199.035 217.611 199.004 217.125C198.974 216.639 199.121 216.159 199.42 215.774L199.586 215.586Z"
                fill="white" />
        </g>
        <rect x="257" y="269" width="128" height="128" rx="16" fill="#EED6AA" />
        <path
            d="M305.943 342.239C305.108 342.233 304.293 342.088 303.497 341.804C302.702 341.514 301.986 341.045 301.349 340.398C300.713 339.744 300.207 338.878 299.832 337.798C299.457 336.713 299.273 335.369 299.278 333.767C299.278 332.273 299.438 330.94 299.756 329.77C300.074 328.599 300.531 327.611 301.128 326.804C301.724 325.991 302.443 325.372 303.284 324.946C304.131 324.52 305.077 324.307 306.122 324.307C307.219 324.307 308.19 324.523 309.037 324.955C309.889 325.386 310.577 325.977 311.099 326.727C311.622 327.472 311.946 328.312 312.071 329.25H308.96C308.801 328.58 308.474 328.045 307.98 327.648C307.491 327.244 306.872 327.043 306.122 327.043C304.912 327.043 303.98 327.568 303.327 328.619C302.679 329.67 302.352 331.114 302.347 332.949H302.466C302.744 332.449 303.105 332.02 303.548 331.662C303.991 331.304 304.491 331.028 305.048 330.835C305.611 330.636 306.205 330.537 306.83 330.537C307.852 330.537 308.77 330.781 309.582 331.27C310.401 331.759 311.048 332.432 311.526 333.29C312.003 334.142 312.239 335.119 312.233 336.222C312.239 337.369 311.977 338.401 311.449 339.315C310.92 340.224 310.185 340.94 309.241 341.463C308.298 341.986 307.199 342.244 305.943 342.239ZM305.926 339.682C306.545 339.682 307.099 339.531 307.588 339.23C308.077 338.929 308.463 338.523 308.747 338.011C309.031 337.5 309.17 336.926 309.165 336.29C309.17 335.665 309.034 335.099 308.756 334.594C308.483 334.088 308.105 333.687 307.622 333.392C307.139 333.097 306.588 332.949 305.969 332.949C305.509 332.949 305.08 333.037 304.682 333.213C304.284 333.389 303.938 333.634 303.642 333.946C303.347 334.253 303.114 334.611 302.943 335.02C302.778 335.423 302.693 335.855 302.688 336.315C302.693 336.923 302.835 337.483 303.114 337.994C303.392 338.506 303.776 338.915 304.264 339.222C304.753 339.528 305.307 339.682 305.926 339.682ZM314.394 342V339.716L320.453 333.776C321.033 333.19 321.516 332.67 321.902 332.216C322.289 331.761 322.578 331.321 322.771 330.895C322.965 330.469 323.061 330.014 323.061 329.531C323.061 328.98 322.936 328.509 322.686 328.116C322.436 327.719 322.092 327.412 321.655 327.196C321.217 326.98 320.72 326.872 320.164 326.872C319.59 326.872 319.087 326.991 318.655 327.23C318.223 327.463 317.888 327.795 317.649 328.227C317.416 328.659 317.3 329.173 317.3 329.77H314.291C314.291 328.662 314.544 327.699 315.05 326.881C315.556 326.062 316.252 325.429 317.138 324.98C318.03 324.531 319.053 324.307 320.206 324.307C321.377 324.307 322.405 324.526 323.291 324.963C324.178 325.401 324.865 326 325.354 326.761C325.848 327.523 326.095 328.392 326.095 329.369C326.095 330.023 325.97 330.665 325.72 331.295C325.47 331.926 325.03 332.625 324.399 333.392C323.774 334.159 322.896 335.088 321.766 336.179L318.757 339.239V339.358H326.36V342H314.394ZM336.098 339.273V338.506C336.098 337.942 336.217 337.424 336.453 336.95C336.695 336.477 337.045 336.096 337.505 335.807C337.964 335.518 338.52 335.374 339.174 335.374C339.846 335.374 340.409 335.518 340.864 335.807C341.319 336.091 341.662 336.47 341.894 336.943C342.131 337.417 342.249 337.937 342.249 338.506V339.273C342.249 339.836 342.131 340.355 341.894 340.828C341.657 341.302 341.309 341.683 340.85 341.972C340.395 342.26 339.837 342.405 339.174 342.405C338.511 342.405 337.95 342.26 337.49 341.972C337.031 341.683 336.683 341.302 336.446 340.828C336.214 340.355 336.098 339.836 336.098 339.273ZM337.952 338.506V339.273C337.952 339.647 338.042 339.99 338.222 340.303C338.402 340.615 338.719 340.771 339.174 340.771C339.633 340.771 339.948 340.617 340.118 340.31C340.293 339.997 340.381 339.652 340.381 339.273V338.506C340.381 338.127 340.298 337.781 340.132 337.469C339.967 337.152 339.647 336.993 339.174 336.993C338.729 336.993 338.414 337.152 338.229 337.469C338.044 337.781 337.952 338.127 337.952 338.506ZM328.705 330.949V330.182C328.705 329.614 328.826 329.093 329.067 328.619C329.309 328.146 329.659 327.767 330.118 327.483C330.578 327.194 331.134 327.05 331.787 327.05C332.455 327.05 333.016 327.194 333.471 327.483C333.93 327.767 334.275 328.146 334.507 328.619C334.739 329.093 334.855 329.614 334.855 330.182V330.949C334.855 331.517 334.737 332.038 334.5 332.511C334.268 332.98 333.923 333.357 333.463 333.641C333.004 333.925 332.445 334.067 331.787 334.067C331.12 334.067 330.556 333.925 330.097 333.641C329.642 333.357 329.297 332.978 329.06 332.504C328.823 332.031 328.705 331.512 328.705 330.949ZM330.573 330.182V330.949C330.573 331.328 330.66 331.673 330.836 331.986C331.015 332.294 331.333 332.447 331.787 332.447C332.242 332.447 332.554 332.294 332.725 331.986C332.9 331.673 332.988 331.328 332.988 330.949V330.182C332.988 329.803 332.905 329.457 332.739 329.145C332.573 328.828 332.256 328.669 331.787 328.669C331.337 328.669 331.023 328.828 330.843 329.145C330.663 329.462 330.573 329.808 330.573 330.182ZM329.515 342L339.515 327.455H341.29L331.29 342H329.515Z"
            fill="white" />
        <path
            d="M349.406 365.104C351.18 367.074 351.034 370.131 348.897 371.699C343.902 375.364 338.232 378.037 332.194 379.554C324.6 381.461 316.654 381.482 309.05 379.614C301.447 377.747 294.415 374.047 288.569 368.839C282.723 363.63 278.24 357.07 275.51 349.731C272.781 342.393 271.889 334.498 272.911 326.735C273.933 318.972 276.838 311.577 281.374 305.195C285.91 298.812 291.938 293.636 298.933 290.118C304.494 287.321 310.533 285.639 316.709 285.15C319.352 284.941 321.46 287.159 321.405 289.809C321.349 292.46 319.148 294.532 316.511 294.808C311.904 295.289 307.408 296.601 303.246 298.695C297.65 301.509 292.828 305.65 289.199 310.756C285.571 315.861 283.246 321.777 282.429 327.988C281.611 334.198 282.325 340.514 284.508 346.385C286.692 352.256 290.278 357.504 294.955 361.671C299.632 365.838 305.257 368.797 311.34 370.292C317.423 371.786 323.78 371.769 329.855 370.243C334.373 369.108 338.634 367.164 342.436 364.518C344.612 363.003 347.633 363.134 349.406 365.104Z"
            fill="white" />
        <circle cx="321" cy="333" r="44" stroke="white" stroke-opacity="0.6" stroke-width="2" />
        <rect x="43" y="29" width="80" height="80" rx="16" fill="#9DDBE7" />
        <g clip-path="url(#clip1_238_909)">
            <path
                d="M83 49C82.564 49 82.136 49.004 81.716 49.01L80.484 49.044L79.886 49.07L78.728 49.138L77.622 49.23C68.052 50.158 64.158 54.052 63.23 63.622L63.138 64.728L63.07 65.886C63.06 66.082 63.05 66.282 63.044 66.484L63.01 67.716L63.002 68.352L63 69C63 69.436 63.004 69.864 63.01 70.284L63.044 71.516L63.07 72.114L63.138 73.272L63.23 74.378C64.158 83.948 68.052 87.842 77.622 88.77L78.728 88.862L79.886 88.93C80.082 88.94 80.282 88.95 80.484 88.956L81.716 88.99L83 89L84.284 88.99L85.516 88.956L86.114 88.93L87.272 88.862L88.378 88.77C97.948 87.842 101.842 83.948 102.77 74.378L102.862 73.272L102.93 72.114C102.94 71.918 102.95 71.718 102.956 71.516L102.99 70.284L103 69L102.99 67.716L102.956 66.484L102.93 65.886L102.862 64.728L102.77 63.622C101.842 54.052 97.948 50.158 88.378 49.23L87.272 49.138L86.114 49.07C85.9147 49.0603 85.7154 49.0516 85.516 49.044L84.284 49.01L83.648 49.002L83 49ZM87.586 63.586C87.9459 63.2273 88.4289 63.0191 88.9368 63.0035C89.4447 62.988 89.9394 63.1664 90.3206 63.5025C90.7017 63.8386 90.9406 64.3071 90.9888 64.8129C91.037 65.3188 90.8908 65.824 90.58 66.226L90.414 66.414L82.414 74.414C82.0696 74.7584 81.6114 74.9652 81.1254 74.9958C80.6393 75.0263 80.1588 74.8785 79.774 74.58L79.586 74.414L75.586 70.414C75.2273 70.0541 75.0191 69.5711 75.0035 69.0632C74.988 68.5553 75.1664 68.0606 75.5025 67.6794C75.8386 67.2983 76.3071 67.0594 76.8129 67.0112C77.3188 66.963 77.824 67.1092 78.226 67.42L78.414 67.586L81 70.17L87.586 63.586Z"
                fill="white" />
        </g>
    </g>
    <defs>
        <filter id="filter0_d_238_909" x="-63" y="0" width="464" height="685"
            filterUnits="userSpaceOnUse" color-interpolation-filters="sRGB">
            <feFlood flood-opacity="0" result="BackgroundImageFix" />
            <feColorMatrix in="SourceAlpha" type="matrix"
                values="0 0 0 0 0 0 0 0 0 0 0 0 0 0 0 0 0 0 127 0" result="hardAlpha" />
            <feOffset dy="12" />
            <feGaussianBlur stdDeviation="8" />
            <feComposite in2="hardAlpha" operator="out" />
            <feColorMatrix type="matrix" values="0 0 0 0 0 0 0 0 0 0 0 0 0 0 0 0 0 0 0.12 0" />
            <feBlend mode="normal" in2="BackgroundImageFix" result="effect1_dropShadow_238_909" />
            <feBlend mode="normal" in="SourceGraphic" in2="effect1_dropShadow_238_909"
                result="shape" />
        </filter>
        <clipPath id="clip0_238_909">
            <rect width="48" height="48" fill="white" transform="translate(179 199)" />
        </clipPath>
        <clipPath id="clip1_238_909">
            <rect width="48" height="48" fill="white" transform="translate(59 45)" />
        </clipPath>
    </defs>
</svg>