<svg width="487" height="143" viewBox="0 0 487 143" fill="none" xmlns="http://www.w3.org/2000/svg">
<g clip-path="url(#clip0_559_772)">
<g opacity="0.08">
<path d="M280.158 46.8921C280.158 53.0358 275.179 58.015 269.035 58.015C262.891 58.015 257.912 53.0358 257.912 46.8921C257.912 40.7485 262.891 35.7693 269.035 35.7693C275.179 35.7693 280.158 40.7485 280.158 46.8921Z" fill="#2C323F"/>
<path d="M280.154 83.6136L314.185 43.0373" stroke="url(#paint0_linear_559_772)" stroke-miterlimit="10"/>
<path d="M290.593 92.3672L344.059 28.6419" stroke="url(#paint1_linear_559_772)" stroke-miterlimit="10"/>
<path d="M280.154 126.057L335.066 60.5648" stroke="url(#paint2_linear_559_772)" stroke-miterlimit="10"/>
<path d="M348.458 129.31C348.458 133.004 345.467 135.995 341.772 135.995C338.078 135.995 335.087 133.004 335.087 129.31C335.087 125.615 338.078 122.624 341.772 122.624C345.467 122.624 348.458 125.615 348.458 129.31Z" fill="white"/>
<path d="M676.482 -356.762C649.478 -371.78 616.029 -381.658 585.351 -372.864C561.539 -366.038 543.57 -348.249 529.998 -328.212C514.719 -305.665 503.957 -280.388 492.553 -255.753C485.567 -240.675 477.957 -226.179 467.758 -212.968C456.796 -198.754 443.745 -186.145 429.189 -175.665C414.131 -164.843 397.548 -156.391 379.96 -150.548C359.903 -143.882 339.062 -140.188 318.483 -135.53C284.653 -127.841 248.775 -115.895 226.629 -87.425C216.832 -74.8365 211.009 -59.5777 210.748 -43.5761C210.467 -27.1529 215.727 -10.9705 224.019 3.08361C242.832 35.0266 275.538 53.2969 309.669 65.002C346.21 77.5302 384.778 83.4932 420.556 98.3504C438.425 105.779 455.531 115.516 469.705 128.828C483.76 142.039 494.621 158.121 504.279 174.704C522.489 206.025 537.145 240.177 563.386 265.936C575.493 277.822 589.969 287.439 606.311 292.337C622.735 297.236 640.282 297.236 656.967 293.683C735.368 276.958 770.263 197.954 801.865 133.084C819.533 96.8246 839.128 61.5286 868.903 33.7215C897.653 6.87812 931.965 -13.6007 958.769 -42.5923C982.58 -68.3315 1000.49 -101.298 996.293 -137.377C992.298 -171.669 970.956 -202.006 944.775 -223.469C914.619 -248.184 877.315 -262.64 841.096 -275.931C821.661 -283.058 801.985 -289.704 783.112 -298.257C764.481 -306.709 746.572 -316.607 728.883 -326.847C720.431 -331.746 712.039 -336.725 703.606 -341.664C694.652 -346.904 685.356 -351.442 676.301 -356.481C675.598 -356.883 674.956 -355.798 675.659 -355.397C684.693 -350.378 693.286 -344.535 702.201 -339.295C710.633 -334.356 719.026 -329.377 727.478 -324.478C744.765 -314.459 762.272 -304.782 780.442 -296.47C816.481 -279.966 854.989 -269.627 890.927 -252.842C924.437 -237.202 955.958 -216.201 976.075 -184.439C985.311 -169.862 991.896 -153.399 993.703 -136.173C995.591 -118.203 991.977 -100.234 984.307 -83.9516C968.245 -49.8403 938.31 -25.5066 909.178 -2.87942C893.718 9.12681 878.098 21.0326 863.984 34.625C850.331 47.7556 838.586 62.5927 828.387 78.5341C807.587 111.039 793.03 146.938 775.182 181.049C757.755 214.337 736.433 247.665 705.072 269.469C676.1 289.607 637.933 300.409 603.581 288.603C569.771 276.978 547.425 246.2 530.399 216.405C512.33 184.763 497.312 150.049 469.746 125.194C442.521 100.659 406.723 89.0546 371.989 79.7788C335.288 69.9811 296.96 61.9502 264.596 41.0297C236.046 22.5786 212.314 -9.34431 213.439 -44.6603C214.563 -80.4381 243.474 -105.595 274.072 -119.087C310.794 -135.289 351.992 -136.715 389.336 -151.09C420.616 -163.137 448.343 -183.896 468.963 -210.278C487.273 -233.688 497.593 -261.576 510.462 -288.078C521.565 -310.946 534.154 -334.396 553.207 -351.703C572.883 -369.592 598.14 -376.338 624.321 -372.683C642.37 -370.174 659.536 -363.749 675.498 -355.056C676.582 -354.514 677.546 -356.16 676.482 -356.762Z" fill="url(#paint3_linear_559_772)"/>
<g opacity="0.4248">
<path opacity="0.4248" d="M686.924 -414.906C656.045 -432.072 617.778 -443.356 582.703 -433.277C555.498 -425.467 534.959 -405.128 519.46 -382.24C501.972 -356.421 489.665 -327.489 476.594 -299.301C468.584 -282.014 459.87 -265.43 448.205 -250.292C435.657 -234.009 420.699 -219.534 403.995 -207.548C386.748 -195.14 367.735 -185.463 347.598 -178.777C324.649 -171.147 300.777 -166.931 277.227 -161.571C238.538 -152.777 197.48 -139.124 172.142 -106.559C160.959 -92.1834 154.333 -74.7562 154.012 -56.4859C153.691 -37.7136 159.714 -19.2426 169.171 -3.18072C190.673 33.3399 228.077 54.2404 267.108 67.6119C308.949 81.9471 353.099 88.7734 394.057 105.779C414.556 114.292 434.171 125.455 450.414 140.713C466.516 155.832 478.964 174.263 490.026 193.276C510.846 229.114 527.631 268.204 557.667 297.678C571.5 311.27 588.024 322.252 606.716 327.854C625.488 333.456 645.525 333.456 664.598 329.4C754.284 310.266 794.197 219.858 830.357 145.632C850.595 104.113 873.021 63.6767 907.152 31.8341C940.079 1.11583 979.35 -22.3344 1010.03 -55.5222C1037.25 -84.9556 1057.73 -122.641 1052.91 -163.9C1048.34 -203.09 1023.92 -237.784 993.987 -262.319C959.494 -290.587 916.81 -307.131 875.39 -322.33C853.124 -330.501 830.578 -338.11 808.954 -347.908C787.632 -357.585 767.113 -368.909 746.875 -380.654C737.198 -386.256 727.581 -391.958 717.944 -397.62C707.704 -403.623 697.104 -408.903 686.744 -414.665C686.041 -415.067 685.399 -413.983 686.101 -413.581C696.441 -407.839 706.339 -401.233 716.558 -395.25C726.196 -389.589 735.833 -383.907 745.49 -378.285C765.266 -366.821 785.303 -355.738 806.103 -346.222C847.362 -327.329 891.452 -315.503 932.59 -296.289C970.978 -278.36 1007.08 -254.308 1030.15 -217.928C1040.73 -201.223 1048.28 -182.331 1050.34 -162.574C1052.51 -141.955 1048.36 -121.376 1039.54 -102.684C1021.13 -63.6134 986.859 -35.7461 953.511 -9.8263C935.803 3.92666 917.934 17.5391 901.772 33.099C886.152 48.1168 872.72 65.1023 861.055 83.3325C837.243 120.556 820.579 161.654 800.14 200.705C780.163 238.851 755.749 277.018 719.811 301.994C686.603 325.063 642.835 337.451 603.463 323.899C564.714 310.568 539.075 275.312 519.56 241.14C498.88 204.941 481.694 165.208 450.153 136.758C419.013 108.69 378.055 95.419 338.322 84.8182C296.3 73.595 252.391 64.3795 215.348 40.4474C182.622 19.306 155.418 -17.3151 156.683 -57.811C157.967 -98.829 191.115 -127.7 226.19 -143.18C268.232 -161.731 315.434 -163.357 358.199 -179.841C393.956 -193.614 425.678 -217.385 449.269 -247.542C470.23 -274.345 482.035 -306.248 496.752 -336.564C509.481 -362.765 523.897 -389.609 545.721 -409.445C568.308 -429.964 597.259 -437.694 627.315 -433.478C647.995 -430.586 667.65 -423.238 685.921 -413.26C687.045 -412.678 688.009 -414.324 686.924 -414.906Z" fill="url(#paint4_linear_559_772)"/>
</g>
<path d="M832.243 39.1023C855.894 13.5438 885.809 -4.80685 911.628 -27.9359C934.135 -48.0935 954.815 -73.7122 959.874 -104.33C964.733 -133.884 953.249 -162.956 934.717 -185.663C914.078 -210.961 885.347 -227.384 855.753 -240.153C823.409 -254.107 789.257 -263.603 757.535 -279.023C725.933 -294.402 696.902 -314.319 665.762 -330.481C642.171 -342.728 613.199 -350.217 586.958 -342.648C566.76 -336.825 551.1 -322.289 539.094 -305.545C525.381 -286.431 515.724 -264.708 505.946 -243.446C500.345 -231.239 494.864 -218.992 487.495 -207.708C479.243 -195.1 469.265 -183.636 457.961 -173.677C446.377 -163.458 433.367 -154.865 419.433 -148.219C403.391 -140.57 386.145 -136.092 368.858 -132.258C337.417 -125.291 304.651 -119.669 278.249 -99.8729C267.147 -91.5409 257.55 -80.94 251.948 -68.1106C246.347 -55.3013 245.222 -41.1067 248.053 -27.4541C254.137 1.81864 275.619 25.3894 300.977 39.9254C358.278 72.7919 434.371 67.1503 483.6 115.135C507.492 138.425 520.442 169.785 537.106 198.074C551.903 223.211 570.957 248.207 598.804 259.511C627.213 271.055 659.578 265.032 685.739 250.536C714.027 234.876 734.747 209.017 751.01 181.631C755.106 174.724 758.961 167.697 762.655 160.57C766.469 153.242 769.401 145.572 772.995 138.144C773.336 137.421 772.272 136.778 771.91 137.501C768.357 144.869 764.06 151.917 760.286 159.165C756.491 166.453 752.556 173.68 748.34 180.748C740.048 194.661 730.752 208.013 719.75 219.919C698.528 242.887 669.918 260.153 638.216 262.603C622.977 263.787 607.598 261.197 593.885 254.331C580.493 247.625 569.21 237.486 559.653 226.062C539.516 201.989 527.469 172.717 511.086 146.195C502.935 133.004 493.619 120.395 482.074 109.975C470.47 99.4948 456.877 91.4638 442.622 85.1796C413.33 72.2498 381.708 66.4274 351.15 57.3324C320.713 48.2775 289.774 35.3277 269.355 9.94996C250.864 -13.0386 242.09 -45.082 257.028 -72.2064C271.524 -98.5278 300.977 -112.542 328.764 -120.191C361.269 -129.146 395.34 -132.539 425.657 -148.259C451.236 -161.51 473.341 -181.407 489.242 -205.419C502.814 -225.898 511.186 -249.549 522.189 -271.434C531.906 -290.728 543.129 -310.283 559.673 -324.578C576.819 -339.395 598.483 -344.997 620.829 -342.186C654.177 -338.01 682.366 -318.113 710.695 -301.57C725.612 -292.856 740.65 -284.303 756.21 -276.754C771.208 -269.466 786.667 -263.543 802.328 -257.861C860.592 -236.64 931.666 -212.125 953.59 -147.275C958.429 -132.98 959.854 -117.682 957.023 -102.824C954.132 -87.686 947.246 -73.6319 938.392 -61.1037C919.479 -34.2804 892.495 -15.2873 867.117 4.87034C854.328 15.0295 841.88 25.6303 830.898 37.7369C830.074 38.6604 831.42 40.0057 832.243 39.1023Z" fill="url(#paint5_linear_559_772)"/>
</g>
</g>
<defs>
<linearGradient id="paint0_linear_559_772" x1="277.812" y1="65.0223" x2="316.52" y2="61.6302" gradientUnits="userSpaceOnUse">
<stop stop-color="#625F4E"/>
<stop offset="1" stop-color="#44494E"/>
</linearGradient>
<linearGradient id="paint1_linear_559_772" x1="287.325" y1="63.1366" x2="347.33" y2="57.8781" gradientUnits="userSpaceOnUse">
<stop stop-color="#625F4E"/>
<stop offset="1" stop-color="#44494E"/>
</linearGradient>
<linearGradient id="paint2_linear_559_772" x1="276.808" y1="96.0091" x2="338.42" y2="90.6099" gradientUnits="userSpaceOnUse">
<stop stop-color="#625F4E"/>
<stop offset="1" stop-color="#44494E"/>
</linearGradient>
<linearGradient id="paint3_linear_559_772" x1="255.296" y1="94.1815" x2="986.684" y2="-172.022" gradientUnits="userSpaceOnUse">
<stop stop-color="#565742"/>
<stop offset="0.24" stop-color="#454B41"/>
<stop offset="0.4856" stop-color="#3A4241"/>
<stop offset="0.74" stop-color="#333D40"/>
<stop offset="1" stop-color="#313C40"/>
</linearGradient>
<linearGradient id="paint4_linear_559_772" x1="154.01" y1="-52.3954" x2="1053.63" y2="-52.3954" gradientUnits="userSpaceOnUse">
<stop stop-color="#5C5A44"/>
<stop offset="0.6103" stop-color="#3F4541"/>
<stop offset="1" stop-color="#313C40"/>
</linearGradient>
<linearGradient id="paint5_linear_559_772" x1="432.503" y1="-255.578" x2="815.372" y2="127.29" gradientUnits="userSpaceOnUse">
<stop stop-color="#313C40"/>
<stop offset="0.3" stop-color="#333E40"/>
<stop offset="0.665" stop-color="#3C4441"/>
<stop offset="1" stop-color="#4A4E42"/>
</linearGradient>
<clipPath id="clip0_559_772">
<rect width="487" height="143" fill="white"/>
</clipPath>
</defs>
</svg>
